<svg xmlns="http://www.w3.org/2000/svg" viewBox="0 0 752.38 243.89"><defs><style>.cls-1{fill:#fff;}.cls-2,.cls-3,.cls-8{fill:#019939;}.cls-3{font-size:27.35px;}.cls-3,.cls-8{font-family:LEMONMILK-Regular, LEMON MILK;}.cls-4{letter-spacing:0.82em;}.cls-5{letter-spacing:0.79em;}.cls-6{letter-spacing:0.75em;}.cls-7{letter-spacing:0.82em;}.cls-8{font-size:47.38px;letter-spacing:0.12em;}.cls-9{letter-spacing:0.09em;}.cls-10{letter-spacing:0.12em;}.cls-11{letter-spacing:0.02em;}.cls-12{letter-spacing:0.12em;}</style></defs><g id="Capa_2" data-name="Capa 2"><g id="Capa_1-2" data-name="Capa 1"><rect class="cls-1" width="752.38" height="243.89"/><path class="cls-2" d="M116.9,76c-39.77,4.42-41.61,40.5-41.61,40.5v28.42c4.16-21.8,18.72-29.09,36.91-38.45,26.51-12.15,32-27.34,32-27.34,5.52,50.54-13.25,64.89-38.38,68.21.7-.09,1.4-.2,2.09-.31-4.44.25-9.69-.38-11.57-4.29-3.59-7.46,10.47-12.88,15.83-16.94,10.85-8.22,23.9-16.36,26.23-30.93v0c-5.87,12.74-17.37,20.62-28.71,28C99.91,129.13,87.2,135.84,80.81,146A32.86,32.86,0,0,0,77,155.35c-.68,2.58-.51,7.35-1.45,10.25l-.24.49v.85h49.34c38.29-2.57,40.86-42,40.86-42V76Z"/><text class="cls-3" transform="translate(296.19 160.56)"><tspan class="cls-4">PE</tspan><tspan class="cls-5" x="78.63" y="0">R</tspan><tspan class="cls-6" x="118.37" y="0">U</tspan><tspan class="cls-7" x="158.81" y="0">AN</tspan><tspan x="246.18" y="0">A</tspan></text><rect class="cls-2" x="198.85" y="149.95" width="74.54" height="1.96"/><rect class="cls-2" x="586.24" y="149.95" width="74.54" height="1.96"/><text class="cls-8" transform="translate(182.53 120.85) scale(1.04 1)">E<tspan class="cls-9" x="33.98" y="0">C</tspan><tspan class="cls-10" x="73.14" y="0">OESTR</tspan><tspan class="cls-11" x="260.74" y="0">A</tspan><tspan class="cls-12" x="298.31" y="0">TEGIA</tspan></text></g></g></svg>