<?xml version="1.0" encoding="UTF-8" standalone="no"?>
<svg
   viewBox="0 0 446217.31 22179.359"
   version="1.1"
   id="svg38"
   sodipodi:docname="logo_blanco.svg"
   inkscape:export-filename="logo_blanco2.svg"
   inkscape:export-xdpi="96"
   inkscape:export-ydpi="96"
   width="446217.31"
   height="22179.359"
   xmlns:inkscape="http://www.inkscape.org/namespaces/inkscape"
   xmlns:sodipodi="http://sodipodi.sourceforge.net/DTD/sodipodi-0.dtd"
   xmlns="http://www.w3.org/2000/svg"
   xmlns:svg="http://www.w3.org/2000/svg">
  <sodipodi:namedview
     id="namedview40"
     pagecolor="#ffffff"
     bordercolor="#000000"
     borderopacity="0.25"
     inkscape:showpageshadow="2"
     inkscape:pageopacity="0.0"
     inkscape:pagecheckerboard="0"
     inkscape:deskcolor="#d1d1d1"
     showgrid="false" />
  <defs
     id="defs4">
    <style
       id="style2">.cls-1{fill:#fff;}.cls-2,.cls-3,.cls-8{fill:#019939;}.cls-3{font-size:27.35px;}.cls-3,.cls-8{font-family:LEMONMILK-Regular, LEMON MILK;}.cls-4{letter-spacing:0.82em;}.cls-5{letter-spacing:0.79em;}.cls-6{letter-spacing:0.75em;}.cls-7{letter-spacing:0.82em;}.cls-8{font-size:47.38px;letter-spacing:0.12em;}.cls-9{letter-spacing:0.09em;}.cls-10{letter-spacing:0.12em;}.cls-11{letter-spacing:0.02em;}.cls-12{letter-spacing:0.12em;}</style>
  </defs>
  <g
     id="Capa_2"
     data-name="Capa 2"
     transform="translate(-56646.692,-18535.641)">
    <g
       id="Capa_1-2"
       data-name="Capa 1">
      <path
         class="cls-2"
         d="m 116.9,76 c -39.77,4.42 -41.61,40.5 -41.61,40.5 v 28.42 c 4.16,-21.8 18.72,-29.09 36.91,-38.45 26.51,-12.15 32,-27.34 32,-27.34 5.52,50.54 -13.25,64.89 -38.38,68.21 0.7,-0.09 1.4,-0.2 2.09,-0.31 -4.44,0.25 -9.69,-0.38 -11.57,-4.29 -3.59,-7.46 10.47,-12.88 15.83,-16.94 10.85,-8.22 23.9,-16.36 26.23,-30.93 v 0 c -5.87,12.74 -17.37,20.62 -28.71,28 C 99.91,129.13 87.2,135.84 80.81,146 A 32.86,32.86 0 0 0 77,155.35 c -0.68,2.58 -0.51,7.35 -1.45,10.25 l -0.24,0.49 v 0.85 h 49.34 c 38.29,-2.57 40.86,-42 40.86,-42 V 76 Z"
         id="path8" />
      <text
         class="cls-3"
         transform="translate(296.19,160.56)"
         id="text20"><tspan
           class="cls-4"
           id="tspan10">PE</tspan><tspan
           class="cls-5"
           x="78.629997"
           y="0"
           id="tspan12">R</tspan><tspan
           class="cls-6"
           x="118.37"
           y="0"
           id="tspan14">U</tspan><tspan
           class="cls-7"
           x="158.81"
           y="0"
           id="tspan16">AN</tspan><tspan
           x="246.17999"
           y="0"
           id="tspan18">A</tspan></text>
      <rect
         class="cls-2"
         x="198.85001"
         y="149.95"
         width="74.540001"
         height="1.96"
         id="rect22" />
      <rect
         class="cls-2"
         x="586.23999"
         y="149.95"
         width="74.540001"
         height="1.96"
         id="rect24" />
      <text
         class="cls-8"
         transform="matrix(1.04,0,0,1,182.53,120.85)"
         id="text34">E<tspan
   class="cls-9"
   x="33.98"
   y="0"
   id="tspan26">C</tspan><tspan
   class="cls-10"
   x="73.139999"
   y="0"
   id="tspan28">OESTR</tspan><tspan
   class="cls-11"
   x="260.73999"
   y="0"
   id="tspan30">A</tspan><tspan
   class="cls-12"
   x="298.31"
   y="0"
   id="tspan32">TEGIA</tspan></text>
    </g>
  </g>
</svg>
