<svg xmlns="http://www.w3.org/2000/svg" viewBox="0 0 62.14 62.14"><defs><style>.cls-1{fill:none;stroke:#00a869;stroke-miterlimit:10;}</style></defs><g id="Capa_2" data-name="Capa 2"><g id="Capa_1-2" data-name="Capa 1"><path class="cls-1" d="M47.25,11.42A3.58,3.58,0,1,0,50.84,15,3.58,3.58,0,0,0,47.25,11.42Z"/><path class="cls-1" d="M31.32,16A15.06,15.06,0,1,0,46.38,31.07,15.08,15.08,0,0,0,31.32,16Zm0,24.7A9.65,9.65,0,1,1,41,31.07,9.65,9.65,0,0,1,31.32,40.71Z"/><path class="cls-1" d="M43.27,61.64H18.86A18.39,18.39,0,0,1,.5,43.27V18.86A18.39,18.39,0,0,1,18.86.5H43.27A18.39,18.39,0,0,1,61.64,18.86V43.27A18.39,18.39,0,0,1,43.27,61.64ZM18.86,6.25A12.63,12.63,0,0,0,6.25,18.86V43.27A12.63,12.63,0,0,0,18.86,55.89H43.27A12.63,12.63,0,0,0,55.89,43.27V18.86A12.63,12.63,0,0,0,43.27,6.25Z"/></g></g></svg>