<svg xmlns="http://www.w3.org/2000/svg" viewBox="0 0 48.8 62.48"><defs><style>.cls-1{fill:none;stroke:#00a869;stroke-miterlimit:10;}</style></defs><g id="Capa_2" data-name="Capa 2"><g id="Capa_1-2" data-name="Capa 1"><path class="cls-1" d="M24.4,62h0a2.14,2.14,0,0,1-1.57-.69C21.92,60.31.5,37.11.5,24.4a23.9,23.9,0,0,1,47.8,0C48.3,37.11,26.88,60.31,26,61.29A2.11,2.11,0,0,1,24.4,62Zm0-57.2A19.65,19.65,0,0,0,4.77,24.4c0,8.44,13,24.77,19.63,32.26C31.05,49.17,44,32.84,44,24.4A19.64,19.64,0,0,0,24.4,4.78Z"/><path class="cls-1" d="M24.4,34.11A10.76,10.76,0,1,1,35.16,23.35,10.77,10.77,0,0,1,24.4,34.11Zm0-17.24a6.49,6.49,0,1,0,6.48,6.48A6.49,6.49,0,0,0,24.4,16.87Z"/></g></g></svg>