<svg xmlns="http://www.w3.org/2000/svg" viewBox="0 0 64.05 50.53"><defs><style>.cls-1{fill:none;stroke:#00a869;stroke-miterlimit:10;}</style></defs><g id="Capa_2" data-name="Capa 2"><g id="Capa_1-2" data-name="Capa 1"><path class="cls-1" d="M54.45.5H9.6A9.11,9.11,0,0,0,.5,9.6V40.93A9.11,9.11,0,0,0,9.6,50H54.45a9.11,9.11,0,0,0,9.1-9.1V9.6A9.11,9.11,0,0,0,54.45.5Zm0,4.35A4.84,4.84,0,0,1,55.53,5L36.61,26.45a6.11,6.11,0,0,1-9.17,0L8.52,5A4.84,4.84,0,0,1,9.6,4.85ZM59.2,40.93a4.75,4.75,0,0,1-4.75,4.75H9.6a4.75,4.75,0,0,1-4.75-4.75V9.6a4.74,4.74,0,0,1,.36-1.8l19,21.52a10.44,10.44,0,0,0,15.69,0l19-21.52a4.74,4.74,0,0,1,.36,1.8Z"/></g></g></svg>