<svg xmlns="http://www.w3.org/2000/svg" viewBox="0 0 49.6 61.39"><defs><style>.cls-1{fill:none;stroke:#00a869;stroke-miterlimit:10;}</style></defs><g id="Capa_2" data-name="Capa 2"><g id="Capa_1-2" data-name="Capa 1"><path class="cls-1" d="M.5,50.9A4.41,4.41,0,0,1,3,47.23c2.68-1.7,5.38-3.36,8.08-5a7.8,7.8,0,0,1,1.31-.61,2.87,2.87,0,0,1,3.52,1c.66.8,1.3,1.62,1.92,2.45a2.39,2.39,0,0,0,2.35,1,6.43,6.43,0,0,0,3.44-1.38A39.75,39.75,0,0,0,36.11,27.38,26.74,26.74,0,0,0,37.29,23a4.5,4.5,0,0,0-.47-2.77A2.18,2.18,0,0,0,35.36,19l-2.8-.77A3.09,3.09,0,0,1,30,14.67c.07-1.07.27-2.13.44-3.19q.48-3,1-6c.09-.51.2-1,.32-1.53A4.34,4.34,0,0,1,34,.73L35.2.5c1,.07,2,.07,2.92.23a12.48,12.48,0,0,1,9.5,6.77,23.33,23.33,0,0,1,1,2.43c.13.66.27,1.33.4,2,0,.84.1,1.68.09,2.52a32.25,32.25,0,0,1-2.75,12,75.93,75.93,0,0,1-7.09,13.09A74.71,74.71,0,0,1,27.71,53.66a30.41,30.41,0,0,1-8.34,5.72c-.91.4-1.87.72-2.8,1.07l-2,.4c-.16,0-.32,0-.48,0A12.36,12.36,0,0,1,2.24,55,26.23,26.23,0,0,1,.73,52.06Z"/></g></g></svg>