<svg xmlns="http://www.w3.org/2000/svg" viewBox="0 0 62.28 51.55"><defs><style>.cls-1{fill:none;stroke:#00a869;stroke-miterlimit:10;}</style></defs><g id="Capa_2" data-name="Capa 2"><g id="Capa_1-2" data-name="Capa 1"><path class="cls-1" d="M61.66,1.59a1.3,1.3,0,0,0-.89-1,4.61,4.61,0,0,0-2.42.17S4.66,20.09,1.6,22.22c-.66.46-.89.73-1,1-.54,1.53,1.12,2.2,1.12,2.2L15.56,30a1.54,1.54,0,0,0,.71,0c3.14-2,31.67-20,33.31-20.6.26-.08.46,0,.4.19-.65,2.31-25.43,24.33-25.43,24.33a1.44,1.44,0,0,0-.15.26l0,0L23.07,47.8s-.54,4.21,3.67,0c3-3,5.83-5.45,7.27-6.65,4.76,3.28,9.88,6.92,12.09,8.82a3.85,3.85,0,0,0,2.8,1.08c2.1-.08,2.69-2.38,2.69-2.38S61.37,9.29,61.7,4c0-.52.07-.85.08-1.2A4.68,4.68,0,0,0,61.66,1.59Z"/></g></g></svg>