<svg xmlns="http://www.w3.org/2000/svg" viewBox="0 0 62.88 51.93"><defs><style>.cls-1{fill:none;stroke:#00a869;stroke-miterlimit:10;}</style></defs><g id="Capa_2" data-name="Capa 2"><g id="Capa_1-2" data-name="Capa 1"><path class="cls-1" d="M62.13,6.61a26.19,26.19,0,0,1-6.26,1.78c1-.17,2.48-2,3.08-2.73A11.39,11.39,0,0,0,61,1.87c.06-.1.1-.24,0-.32a.32.32,0,0,0-.33,0,32.86,32.86,0,0,1-7.42,2.84.49.49,0,0,1-.51-.14,6.78,6.78,0,0,0-.65-.66,13,13,0,0,0-3.6-2.21A12.51,12.51,0,0,0,43,.53,13.14,13.14,0,0,0,37.76,2a13.54,13.54,0,0,0-4.22,3.45A13,13,0,0,0,31,10.5a13.61,13.61,0,0,0-.13,5.32c0,.3,0,.34-.26.3C20.44,14.61,12,11,5.14,3.14c-.3-.33-.46-.33-.71,0-3,4.5-1.54,11.72,2.21,15.28.5.47,1,.94,1.56,1.37a12.77,12.77,0,0,1-4.92-1.37c-.29-.19-.44-.08-.47.25a8.09,8.09,0,0,0,.08,1.46A13.11,13.11,0,0,0,11,30.59a8.31,8.31,0,0,0,1.63.5,14.55,14.55,0,0,1-4.82.14c-.35-.06-.49.11-.35.45,2.12,5.79,6.7,7.51,10.14,8.49.46.08.92.08,1.38.19,0,0-.06,0-.09.08-1.13,1.74-5.08,3-6.92,3.67A24.88,24.88,0,0,1,1.41,45.46c-.57-.09-.69-.08-.84,0s0,.23.16.37c.72.48,1.45.9,2.19,1.3a34.17,34.17,0,0,0,7,2.81c12.63,3.49,26.86.93,36.35-8.5,7.44-7.4,10.05-17.6,10.05-27.82,0-.4.48-.62.76-.83a24.38,24.38,0,0,0,4.94-5.15,1.51,1.51,0,0,0,.33-1v0C62.38,6.44,62.38,6.49,62.13,6.61Z"/></g></g></svg>