<svg xmlns="http://www.w3.org/2000/svg" viewBox="0 0 60.89 60.99"><defs><style>.cls-1{fill:none;stroke:#00a869;stroke-miterlimit:10;}</style></defs><g id="Capa_2" data-name="Capa 2"><g id="Capa_1-2" data-name="Capa 1"><path class="cls-1" d="M59.88,29.19,37.75,3.82a9.69,9.69,0,0,0-14.6,0L1,29.19a2.07,2.07,0,0,0,1.56,3.42H6.35V58.43a2.07,2.07,0,0,0,2.07,2.06H52.47a2.06,2.06,0,0,0,2.07-2.06V32.61h3.79a2.06,2.06,0,0,0,1.55-3.42ZM26.26,6.54a5.54,5.54,0,0,1,8.37,0L53.78,28.48H7.11ZM50.41,56.36H10.49V32.61H50.41Z"/></g></g></svg>