<svg xmlns="http://www.w3.org/2000/svg" viewBox="0 0 53.05 53.17"><defs><style>.cls-1,.cls-2{fill:none;stroke:#00a869;stroke-miterlimit:10;}.cls-2{fill-rule:evenodd;}</style></defs><g id="Capa_2" data-name="Capa 2"><g id="Capa_1-2" data-name="Capa 1"><path class="cls-1" d="M.71,52.47,4.43,38.56A25.73,25.73,0,1,1,14.68,48.72Zm14.66-9,.88.53A20.91,20.91,0,1,0,9.11,37l.54.88L7.57,45.6Z"/><path class="cls-2" d="M36.43,29.74c-1.06-.64-2.43-1.34-3.68-.83-.95.39-1.56,1.88-2.18,2.65a.92.92,0,0,1-1.19.25,16.65,16.65,0,0,1-8.3-7.11,1,1,0,0,1,.12-1.4,5.55,5.55,0,0,0,1.51-2.45A5.32,5.32,0,0,0,22,18c-.5-1.08-1.06-2.61-2.14-3.22a2.92,2.92,0,0,0-3.19.47,6.45,6.45,0,0,0-2.24,5.12,7.42,7.42,0,0,0,.2,1.63,13.83,13.83,0,0,0,1.56,3.6A27,27,0,0,0,17.86,28a25.09,25.09,0,0,0,7.06,6.56,21.23,21.23,0,0,0,4.41,2.1c1.72.57,3.26,1.16,5.13.81A6.24,6.24,0,0,0,39.11,34a3.08,3.08,0,0,0,.21-1.77C39.06,31.05,37.41,30.32,36.43,29.74Z"/></g></g></svg>