<svg width="24" height="18" viewBox="0 0 24 18" fill="none" xmlns="http://www.w3.org/2000/svg">
<path d="M12 9L0 2.92969V1.5C0 1.07812 0.148437 0.722656 0.445312 0.433594C0.742188 0.144531 1.09375 0 1.5 0H22.5C22.9063 0 23.2578 0.144531 23.5547 0.433594C23.8516 0.722656 24 1.07812 24 1.5V2.92969L12 9ZM11.25 10.5H12.75L24 4.66406V16.5C24 16.9063 23.8516 17.2578 23.5547 17.5547C23.2578 17.8516 22.9063 18 22.5 18H1.5C1.09375 18 0.742188 17.8516 0.445312 17.5547C0.148437 17.2578 0 16.9063 0 16.5V4.66406L11.25 10.5Z" fill="#61CC1F"/>
</svg>
