<svg width="28" height="25" viewBox="0 0 28 25" fill="none" xmlns="http://www.w3.org/2000/svg">
<path fill-rule="evenodd" clip-rule="evenodd" d="M0.586914 2.85861C0.586914 2.34755 0.789933 1.85741 1.15131 1.49604C1.51269 1.13466 2.00282 0.931641 2.51388 0.931641H25.6375C26.1486 0.931641 26.6387 1.13466 27.0001 1.49604C27.3615 1.85741 27.5645 2.34755 27.5645 2.85861C27.5645 3.36967 27.3615 3.85981 27.0001 4.22118C26.6387 4.58256 26.1486 4.78558 25.6375 4.78558H2.51388C2.00282 4.78558 1.51269 4.58256 1.15131 4.22118C0.789933 3.85981 0.586914 3.36967 0.586914 2.85861Z" fill="#4B9111"/>
<path fill-rule="evenodd" clip-rule="evenodd" d="M0.586914 12.4935C0.586914 11.9824 0.789933 11.4923 1.15131 11.1309C1.51269 10.7695 2.00282 10.5665 2.51388 10.5665H25.6375C26.1486 10.5665 26.6387 10.7695 27.0001 11.1309C27.3615 11.4923 27.5645 11.9824 27.5645 12.4935C27.5645 13.0045 27.3615 13.4947 27.0001 13.856C26.6387 14.2174 26.1486 14.4204 25.6375 14.4204H2.51388C2.00282 14.4204 1.51269 14.2174 1.15131 13.856C0.789933 13.4947 0.586914 13.0045 0.586914 12.4935Z" fill="#4B9111"/>
<path fill-rule="evenodd" clip-rule="evenodd" d="M12.1494 22.1283C12.1494 21.6172 12.3524 21.1271 12.7138 20.7657C13.0752 20.4044 13.5653 20.2013 14.0764 20.2013H25.6382C26.1492 20.2013 26.6394 20.4044 27.0007 20.7657C27.3621 21.1271 27.5651 21.6172 27.5651 22.1283C27.5651 22.6394 27.3621 23.1295 27.0007 23.4909C26.6394 23.8523 26.1492 24.0553 25.6382 24.0553H14.0764C13.5653 24.0553 13.0752 23.8523 12.7138 23.4909C12.3524 23.1295 12.1494 22.6394 12.1494 22.1283Z" fill="#4B9111"/>
</svg>
