<svg width="25" height="18" viewBox="0 0 25 18" fill="none" xmlns="http://www.w3.org/2000/svg">
<path d="M16.6295 9.00124C15.9694 9.00124 15.3483 8.63965 15.0124 8.06109L12.5009 3.77817L9.99321 8.06109C9.65339 8.64366 9.03233 9.00526 8.37222 9.00526C8.19645 9.00526 8.02068 8.98116 7.85272 8.92892L2.5015 7.35397V14.5056C2.5015 15.0962 2.8921 15.6104 3.44675 15.7511L11.8915 17.9247C12.2899 18.0251 12.7079 18.0251 13.1024 17.9247L21.555 15.7511C22.1096 15.6064 22.5002 15.0922 22.5002 14.5056V7.35397L17.149 8.92491C16.9811 8.97714 16.8053 9.00124 16.6295 9.00124ZM24.9337 4.49333L22.9221 0.363083C22.801 0.113982 22.5393 -0.0306569 22.2698 0.00550282L12.5009 1.28717L16.0827 7.39816C16.2311 7.65128 16.528 7.77181 16.8053 7.69146L24.5353 5.42143C24.922 5.30491 25.1094 4.86296 24.9337 4.49333V4.49333ZM2.07965 0.363083L0.0680553 4.49333C-0.111621 4.86296 0.0797733 5.30491 0.462562 5.41741L8.19254 7.68744C8.46987 7.7678 8.76673 7.64726 8.91515 7.39414L12.5009 1.28717L2.72804 0.00550282C2.45853 -0.0266392 2.20073 0.113982 2.07965 0.363083V0.363083Z" fill="#4B9111"/>
</svg>
