<svg width="457" height="175" viewBox="0 0 457 175" fill="none" xmlns="http://www.w3.org/2000/svg">
<path d="M41.4894 79.4845C41.4894 79.4845 45.414 79.5337 50.814 87.6527C50.814 87.6527 86.1711 164.466 87.3465 164.815C87.3465 164.815 90.8052 170.898 130.076 169.723L354.055 170.098C354.055 170.098 374.826 172.753 386.4 156.801L411.185 87.2134C411.185 87.2134 415.617 77.8776 425.831 77.0021C425.831 77.0021 453.757 72.6649 451.913 62.5781C451.913 62.5781 442.738 42.0019 426.117 19.9877C426.117 19.9877 415.256 2.81446 381.874 4.06517L123.943 5.79659C123.943 5.79659 84.1996 3.70832 69.3357 15.7779L11.1725 53.9405C11.1725 53.9405 -7.42089 66.1115 15.2655 73.1119C15.2655 73.1119 28.5562 77.6405 41.4894 79.4845V79.4845Z" stroke="#1D8E2B" stroke-width="8" stroke-miterlimit="10" stroke-linecap="round" stroke-linejoin="round"/>
<path d="M97.9481 13.4009C97.9481 13.4009 83.2722 15.3012 71.7693 25.2156L35.7175 51.5859C35.7175 51.5859 17.1211 63.7083 39.8484 68.3833C39.8484 68.3833 49.0337 71.7111 90.0616 71.0614C90.0616 71.0614 361.671 74.8503 376.598 73.6897C376.598 73.6897 428.047 72.3566 427.408 59.2692C427.408 59.2692 420.052 39.268 409.007 21.8055C409.007 21.8055 404.624 10.6819 376.936 11.6659L130.804 12.5562C130.804 12.5562 102.939 11.8615 97.9481 13.4009Z" stroke="#1D8E2B" stroke-width="8" stroke-miterlimit="10"/>
<path d="M42.6463 79.9163C42.6463 79.9163 385.138 86.4093 420.112 78.5115" stroke="#1D8E2B" stroke-width="8" stroke-miterlimit="10" stroke-linecap="round" stroke-linejoin="round"/>
</svg>
