<?xml version="1.0" encoding="UTF-8" standalone="no"?>
<!-- Created with Inkscape (http://www.inkscape.org/) -->

<svg
   version="1.1"
   id="svg2"
   width="1066.667"
   height="1066.6667"
   viewBox="0 0 1066.6669 1066.6667"
   sodipodi:docname="ICONOS DE PRODUCTOS.svg"
   inkscape:version="1.2 (dc2aedaf03, 2022-05-15)"
   xmlns:inkscape="http://www.inkscape.org/namespaces/inkscape"
   xmlns:sodipodi="http://sodipodi.sourceforge.net/DTD/sodipodi-0.dtd"
   xmlns="http://www.w3.org/2000/svg"
   xmlns:svg="http://www.w3.org/2000/svg">
  <defs
     id="defs6">
    <clipPath
       clipPathUnits="userSpaceOnUse"
       id="clipPath326">
      <path
         d="M 0,800 H 800 V 0 H 0 Z"
         id="path324" />
    </clipPath>
  </defs>
  <sodipodi:namedview
     id="namedview4"
     pagecolor="#ffffff"
     bordercolor="#000000"
     borderopacity="0.25"
     inkscape:showpageshadow="2"
     inkscape:pageopacity="0.0"
     inkscape:pagecheckerboard="0"
     inkscape:deskcolor="#d1d1d1"
     showgrid="false"
     inkscape:lockguides="true"
     inkscape:zoom="0.55485779"
     inkscape:cx="6345.7701"
     inkscape:cy="428.93874"
     inkscape:window-width="1920"
     inkscape:window-height="1009"
     inkscape:window-x="-8"
     inkscape:window-y="-8"
     inkscape:window-maximized="1"
     inkscape:current-layer="g314" />
  <g
     id="g314"
     inkscape:groupmode="layer"
     inkscape:label="Page 7"
     transform="matrix(1.3333333,0,0,-1.3333333,-2.9368651e-4,1066.6667)"
     style="display:inline">
    <g
       id="g320"
       style="stroke:#1d8e2b;stroke-opacity:1">
      <g
         id="g322"
         clip-path="url(#clipPath326)"
         style="stroke:#1d8e2b;stroke-opacity:1">
        <g
           id="g328"
           transform="translate(94.4497,409.3649)"
           style="stroke:#1d8e2b;stroke-opacity:1">
          <path
             d="m 0,0 c 0,0 6.621,-0.083 15.731,-13.78 0,0 59.649,-129.587 61.632,-130.176 0,0 5.835,-10.263 72.086,-8.28 l 377.863,-0.634 c 0,0 35.042,-4.479 54.568,22.434 l 41.814,117.397 c 0,0 7.476,15.75 24.709,17.227 0,0 47.111,7.317 44,24.334 0,0 -15.478,34.713 -43.519,71.852 0,0 -18.322,28.972 -74.639,26.862 l -435.142,-2.921 c 0,0 -67.049,3.523 -92.125,-16.839 L -51.146,43.094 c 0,0 -31.368,-20.533 6.905,-32.343 0,0 22.422,-7.64 44.241,-10.751 z"
             style="fill:none;stroke:#1d8e2b;stroke-width:4;stroke-linecap:round;stroke-linejoin:round;stroke-miterlimit:10;stroke-dasharray:none;stroke-opacity:1"
             id="path330" />
        </g>
        <g
           id="g332"
           transform="translate(189.6982,520.8512)"
           style="stroke:#1d8e2b;stroke-opacity:1">
          <path
             d="m 0,0 c 0,0 -24.759,-3.206 -44.165,-19.932 l -60.821,-44.488 c 0,0 -31.373,-20.451 6.969,-28.338 0,0 15.496,-5.614 84.712,-4.518 0,0 458.217,-6.392 483.4,-4.434 0,0 86.797,2.249 85.72,24.328 0,0 -12.411,33.743 -31.044,63.203 0,0 -7.394,18.766 -54.105,17.106 L 55.429,1.425 C 55.429,1.425 8.42,2.597 0,0 Z"
             style="fill:none;stroke:#1d8e2b;stroke-width:4;stroke-linecap:butt;stroke-linejoin:miter;stroke-miterlimit:10;stroke-dasharray:none;stroke-opacity:1"
             id="path334" />
        </g>
        <g
           id="g336"
           transform="translate(96.4014,408.6364)"
           style="stroke:#1d8e2b;stroke-opacity:1">
          <path
             d="M 0,0 C 0,0 577.799,-10.954 636.802,2.37"
             style="fill:none;stroke:#1d8e2b;stroke-width:4;stroke-linecap:round;stroke-linejoin:round;stroke-miterlimit:10;stroke-dasharray:none;stroke-opacity:1"
             id="path338" />
        </g>
      </g>
    </g>
  </g>
</svg>
