<svg width="254" height="381" viewBox="0 0 254 381" fill="none" xmlns="http://www.w3.org/2000/svg">
<path d="M21.8183 135.888L13.4786 134.905L13.8336 131.894L34.1333 134.287L33.7783 137.298L25.3983 136.31L22.5211 160.719L18.9411 160.297L21.8183 135.888Z" fill="white" stroke="#1D8E2B" stroke-width="1.33333"/>
<path d="M21.8182 135.888L13.4786 134.905L13.8336 131.894L34.1333 134.287L33.7783 137.298L25.3982 136.31L22.5211 160.719L18.9411 160.297L21.8182 135.888Z" fill="white" stroke="#1D8E2B" stroke-width="4" stroke-miterlimit="10" stroke-linejoin="round"/>
<path d="M44.7903 135.543L42.8772 151.775C42.1528 157.919 44.5714 160.844 48.2328 161.275C52.3013 161.755 55.2215 159.377 55.936 153.315L57.8498 137.083L61.4291 137.505L59.5447 153.493C58.552 161.914 53.7103 164.849 47.7703 164.15C42.1567 163.487 38.3038 159.775 39.3063 151.272L41.2103 135.121L44.7903 135.543Z" fill="white" stroke="#1D8E2B" stroke-width="1.33333"/>
<path d="M44.7903 135.543L42.8772 151.775C42.1528 157.919 44.5714 160.844 48.2328 161.275C52.3013 161.755 55.2215 159.377 55.936 153.315L57.8498 137.083L61.4291 137.505L59.5447 153.493C58.552 161.914 53.7103 164.849 47.7703 164.15C42.1567 163.487 38.3038 159.775 39.3063 151.272L41.2103 135.121L44.7903 135.543Z" fill="white" stroke="#1D8E2B" stroke-width="4" stroke-miterlimit="10" stroke-linejoin="round"/>
<path d="M84.3301 140.204L87.869 140.622L84.9873 165.071L96.7037 166.452L96.3533 169.422L81.0979 167.624L84.3301 140.204Z" fill="white" stroke="#1D8E2B" stroke-width="1.33333"/>
<path d="M84.3301 140.204L87.869 140.622L84.9873 165.071L96.7037 166.452L96.3533 169.422L81.0979 167.624L84.3301 140.204Z" fill="white" stroke="#1D8E2B" stroke-width="4" stroke-miterlimit="10" stroke-linejoin="round"/>
<path d="M106.533 156.887C105.842 162.745 108.397 168.367 113.97 169.024C119.585 169.686 123.367 164.893 124.101 158.669C124.744 153.218 122.567 147.187 116.668 146.492C110.81 145.801 107.243 150.867 106.533 156.887ZM127.862 158.948C126.75 168.386 120.424 172.713 113.426 171.888C106.185 171.035 101.762 164.821 102.74 156.523C103.766 147.817 109.848 142.759 117.171 143.622C124.657 144.505 128.822 150.811 127.862 158.948Z" fill="white" stroke="#1D8E2B" stroke-width="1.33333"/>
<path d="M106.533 156.887C105.842 162.745 108.397 168.367 113.97 169.024C119.585 169.686 123.367 164.893 124.101 158.669C124.744 153.218 122.567 147.187 116.668 146.492C110.81 145.801 107.243 150.867 106.533 156.887ZM127.862 158.948C126.75 168.386 120.424 172.713 113.426 171.888C106.185 171.035 101.762 164.821 102.74 156.523C103.766 147.817 109.848 142.759 117.171 143.622C124.657 144.505 128.822 150.811 127.862 158.948Z" fill="white" stroke="#1D8E2B" stroke-width="4" stroke-miterlimit="10" stroke-linejoin="round"/>
<path d="M155.89 175.203C154.236 175.585 150.993 176.152 147.291 175.716C143.142 175.227 139.849 173.766 137.466 170.887C135.375 168.33 134.342 164.496 134.846 160.225C135.85 152.052 142.169 146.733 151.363 147.817C154.537 148.192 156.937 149.175 158.049 149.884L156.855 152.672C155.466 151.848 153.698 151.104 150.931 150.778C144.26 149.991 139.418 153.627 138.607 160.503C137.787 167.46 141.494 172.062 147.88 172.815C150.199 173.088 151.825 172.95 152.686 172.639L153.65 164.463L148.076 163.805L148.413 160.957L157.443 162.022L155.89 175.203Z" fill="white" stroke="#1D8E2B" stroke-width="1.33333"/>
<path d="M155.89 175.203C154.236 175.585 150.993 176.152 147.291 175.716C143.142 175.227 139.849 173.766 137.466 170.887C135.375 168.33 134.342 164.496 134.846 160.225C135.85 152.052 142.169 146.733 151.363 147.817C154.537 148.192 156.937 149.175 158.049 149.884L156.855 152.672C155.466 151.848 153.698 151.104 150.931 150.778C144.26 149.991 139.418 153.627 138.607 160.503C137.787 167.46 141.494 172.062 147.88 172.815C150.199 173.088 151.825 172.95 152.686 172.639L153.65 164.463L148.076 163.805L148.413 160.957L157.443 162.022L155.89 175.203Z" fill="white" stroke="#1D8E2B" stroke-width="4" stroke-miterlimit="10" stroke-linejoin="round"/>
<path d="M168.975 164.248C168.285 170.106 170.84 175.728 176.413 176.384C182.027 177.046 185.81 172.254 186.543 166.029C187.186 160.578 185.01 154.547 179.11 153.852C173.252 153.161 169.685 158.227 168.975 164.248ZM190.305 166.308C189.193 175.747 182.867 180.074 175.869 179.248C168.628 178.395 164.205 172.182 165.183 163.883C166.209 155.177 172.291 150.119 179.614 150.982C187.099 151.865 191.264 158.172 190.305 166.308Z" fill="white" stroke="#1D8E2B" stroke-width="1.33333"/>
<path d="M168.975 164.248C168.285 170.106 170.84 175.728 176.413 176.384C182.027 177.046 185.81 172.254 186.543 166.029C187.186 160.578 185.01 154.547 179.11 153.852C173.252 153.161 169.685 158.227 168.975 164.248ZM190.305 166.308C189.193 175.747 182.867 180.074 175.869 179.248C168.628 178.395 164.205 172.182 165.183 163.883C166.209 155.177 172.291 150.119 179.614 150.982C187.099 151.865 191.264 158.172 190.305 166.308Z" fill="white" stroke="#1D8E2B" stroke-width="4" stroke-miterlimit="10" stroke-linejoin="round"/>
<path d="M68.3283 204.063L66.5735 195.854C66.1742 193.993 65.9592 192.317 65.7397 190.683L65.6583 190.673C65.0596 192.252 64.4154 193.868 63.6898 195.473L60.0694 203.09L68.3283 204.063ZM59.0116 205.77L55.1469 214.059L51.4855 213.627L64.0337 187.305L68.3055 187.809L74.4304 216.332L70.6465 215.886L68.7341 206.916L59.0116 205.77Z" fill="white" stroke="#1D8E2B" stroke-width="1.33333"/>
<path d="M68.3283 204.063L66.5735 195.854C66.1742 193.993 65.9592 192.317 65.7397 190.683L65.6583 190.673C65.0596 192.252 64.4154 193.868 63.6898 195.473L60.0694 203.09L68.3283 204.063ZM59.0116 205.77L55.1469 214.059L51.4855 213.627L64.0337 187.305L68.3055 187.809L74.4304 216.332L70.6465 215.886L68.7341 206.916L59.0116 205.77Z" fill="white" stroke="#1D8E2B" stroke-width="4" stroke-miterlimit="10" stroke-linejoin="round"/>
<path d="M99.1668 205.223C99.8143 199.732 97.6328 193.742 91.8153 193.056C85.835 192.351 82.2537 197.538 81.5939 203.482C80.8676 209.295 83.4633 214.922 88.9955 215.574C94.6508 216.24 98.4282 211.488 99.1668 205.223ZM99.9908 223.428C96.4037 222.015 92.9123 220.49 89.869 219.018C89.3231 218.748 88.7779 218.476 88.2484 218.414C81.7684 217.403 76.7613 211.945 77.8015 203.118C78.8372 194.33 84.8736 189.308 92.2778 190.181C99.7231 191.059 103.883 197.406 102.929 205.502C102.099 212.54 98.3122 216.672 93.5689 217.722L93.5493 217.884C96.1939 218.897 99.0867 219.898 101.358 220.578L99.9908 223.428Z" fill="white" stroke="#1D8E2B" stroke-width="1.33333"/>
<path d="M99.1668 205.223C99.8143 199.732 97.6328 193.742 91.8153 193.056C85.835 192.351 82.2537 197.538 81.5939 203.482C80.8676 209.295 83.4633 214.922 88.9955 215.574C94.6508 216.24 98.4282 211.488 99.1668 205.223ZM99.9908 223.428C96.4037 222.015 92.9123 220.49 89.869 219.018C89.3231 218.748 88.7779 218.476 88.2484 218.414C81.7684 217.403 76.7613 211.945 77.8015 203.118C78.8372 194.33 84.8736 189.308 92.2778 190.181C99.7231 191.059 103.883 197.406 102.929 205.502C102.099 212.54 98.3122 216.672 93.5689 217.722L93.5493 217.884C96.1939 218.897 99.0867 219.898 101.358 220.578L99.9908 223.428Z" fill="white" stroke="#1D8E2B" stroke-width="4" stroke-miterlimit="10" stroke-linejoin="round"/>
<path d="M112.645 193.035L110.732 209.268C110.008 215.411 112.427 218.336 116.088 218.768C120.157 219.247 123.077 216.87 123.791 210.807L125.704 194.575L129.284 194.997L127.4 210.986C126.407 219.406 121.565 222.341 115.626 221.641C110.012 220.979 106.159 217.267 107.161 208.764L109.065 192.614L112.645 193.035Z" fill="white" stroke="#1D8E2B" stroke-width="1.33333"/>
<path d="M112.645 193.035L110.732 209.268C110.008 215.411 112.427 218.336 116.088 218.768C120.157 219.247 123.077 216.87 123.791 210.807L125.704 194.575L129.284 194.997L127.4 210.986C126.407 219.406 121.565 222.341 115.626 221.641C110.012 220.979 106.159 217.267 107.161 208.764L109.065 192.614L112.645 193.035Z" fill="white" stroke="#1D8E2B" stroke-width="4" stroke-miterlimit="10" stroke-linejoin="round"/>
<path d="M138.965 196.138L135.733 223.558L132.193 223.141L135.426 195.721L138.965 196.138ZM143.889 190.408L138.121 194.554L135.232 194.214L139.536 189.894L143.889 190.408Z" fill="white" stroke="#1D8E2B" stroke-width="1.33333"/>
<path d="M138.965 196.138L135.733 223.558L132.193 223.141L135.426 195.721L138.965 196.138ZM143.889 190.408L138.121 194.554L135.232 194.214L139.536 189.894L143.889 190.408Z" fill="white" stroke="#1D8E2B" stroke-width="4" stroke-miterlimit="10" stroke-linejoin="round"/>
<path d="M250.453 3.00034H202.246V378L250.453 325.172V3.00034ZM3 318.958V3.00034H202.246V378L3 318.958Z" stroke="#1D8E2B" stroke-width="5.33333" stroke-miterlimit="10" stroke-linecap="round" stroke-linejoin="round"/>
<path d="M213.096 317.615V3.0001M202.246 378L213.096 317.615L250.453 325.173" stroke="#1D8E2B" stroke-width="5.33333" stroke-miterlimit="10" stroke-linejoin="round"/>
</svg>
