<?xml version="1.0" encoding="UTF-8" standalone="no"?>
<!-- Created with Inkscape (http://www.inkscape.org/) -->

<svg
   version="1.1"
   id="svg2"
   width="1066.6665"
   height="1066.6667"
   viewBox="0 0 1066.6665 1066.6667"
   sodipodi:docname="ICONOS DE PRODUCTOS.svg"
   inkscape:version="1.2 (dc2aedaf03, 2022-05-15)"
   xmlns:inkscape="http://www.inkscape.org/namespaces/inkscape"
   xmlns:sodipodi="http://sodipodi.sourceforge.net/DTD/sodipodi-0.dtd"
   xmlns="http://www.w3.org/2000/svg"
   xmlns:svg="http://www.w3.org/2000/svg">
  <defs
     id="defs6">
    <clipPath
       clipPathUnits="userSpaceOnUse"
       id="clipPath1597">
      <path
         d="M 0,800 H 800 V 0 H 0 Z"
         id="path1595" />
    </clipPath>
  </defs>
  <sodipodi:namedview
     id="namedview4"
     pagecolor="#ffffff"
     bordercolor="#000000"
     borderopacity="0.25"
     inkscape:showpageshadow="2"
     inkscape:pageopacity="0.0"
     inkscape:pagecheckerboard="0"
     inkscape:deskcolor="#d1d1d1"
     showgrid="false"
     inkscape:lockguides="true"
     inkscape:zoom="0.55485779"
     inkscape:cx="9708.7941"
     inkscape:cy="427.13648"
     inkscape:window-width="1920"
     inkscape:window-height="1017"
     inkscape:window-x="-8"
     inkscape:window-y="-8"
     inkscape:window-maximized="1"
     inkscape:current-layer="g434" />
  <g
     id="g174"
     inkscape:groupmode="layer"
     inkscape:label="Page 5"
     transform="matrix(1.3333333,0,0,-1.3333333,3.0274714e-7,1066.6667)"
     style="display:inline">
    <g
       id="g6597">
      <g
         id="g6647">
        <g
           id="g5556"
           transform="translate(17.81905,37.349089)"
           style="stroke:#1d8e2b;stroke-opacity:1">
          <g
             id="g1593"
             clip-path="url(#clipPath1597)"
             style="stroke:#1d8e2b;stroke-opacity:1">
            <g
               id="g6738">
              <g
                 id="g1583"
                 transform="translate(191.23363,422.1188)"
                 style="display:inline;fill:#1d8e2b;fill-opacity:1;stroke:#1d8e2b;stroke-opacity:1">
                <path
                   d="m 0,0 -12.803,1.509 0.545,4.622 31.164,-3.674 -0.545,-4.622 -12.865,1.517 -4.417,-37.473 -5.496,0.648 z"
                   style="fill:#1d8e2b;fill-opacity:1;fill-rule:nonzero;stroke:#1d8e2b;stroke-opacity:1"
                   id="path1585" />
              </g>
              <g
                 id="g5507"
                 style="display:inline;fill:#1d8e2b;fill-opacity:1;stroke:#1d8e2b;stroke-opacity:1"
                 transform="translate(-2.4554524e-5,1.1933728e-5)">
                <g
                   id="g1587"
                   transform="translate(191.2336,422.1188)"
                   style="fill:#1d8e2b;fill-opacity:1;stroke:#1d8e2b;stroke-opacity:1">
                  <path
                     d="m 0,0 -12.803,1.509 0.545,4.622 31.164,-3.674 -0.545,-4.622 -12.865,1.517 -4.417,-37.473 -5.496,0.648 z"
                     style="fill:#1d8e2b;fill-opacity:1;stroke:#1d8e2b;stroke-width:3;stroke-linecap:butt;stroke-linejoin:round;stroke-miterlimit:10;stroke-dasharray:none;stroke-opacity:1"
                     id="path1589" />
                </g>
              </g>
              <g
                 id="g1599"
                 transform="translate(226.5002,422.6476)"
                 style="fill:#1d8e2b;fill-opacity:1;stroke:#1d8e2b;stroke-opacity:1">
                <path
                   d="m 0,0 -2.937,-24.919 c -1.112,-9.432 2.601,-13.922 8.222,-14.584 6.246,-0.737 10.729,2.914 11.826,12.22 l 2.938,24.92 5.495,-0.648 -2.893,-24.545 C 21.127,-40.484 13.694,-44.99 4.575,-43.916 -4.043,-42.899 -9.958,-37.2 -8.419,-24.147 l 2.923,24.795 z"
                   style="fill:#1d8e2b;fill-opacity:1;fill-rule:nonzero;stroke:#1d8e2b;stroke-opacity:1"
                   id="path1601" />
              </g>
              <g
                 id="g1603"
                 transform="translate(226.5002,422.6476)"
                 style="fill:#1d8e2b;fill-opacity:1;stroke:#1d8e2b;stroke-opacity:1">
                <path
                   d="m 0,0 -2.937,-24.919 c -1.112,-9.432 2.601,-13.922 8.222,-14.584 6.246,-0.737 10.729,2.914 11.826,12.22 l 2.938,24.92 5.495,-0.648 -2.893,-24.545 C 21.127,-40.484 13.694,-44.99 4.575,-43.916 -4.043,-42.899 -9.958,-37.2 -8.419,-24.147 l 2.923,24.795 z"
                   style="fill:#1d8e2b;fill-opacity:1;stroke:#1d8e2b;stroke-width:3;stroke-linecap:butt;stroke-linejoin:round;stroke-miterlimit:10;stroke-dasharray:none;stroke-opacity:1"
                   id="path1605" />
              </g>
              <g
                 id="g1607"
                 transform="translate(287.2017,415.4923)"
                 style="fill:#1d8e2b;fill-opacity:1;stroke:#1d8e2b;stroke-opacity:1">
                <path
                   d="m 0,0 5.433,-0.641 -4.424,-37.535 17.987,-2.12 -0.538,-4.559 -23.42,2.76 z"
                   style="fill:#1d8e2b;fill-opacity:1;fill-rule:nonzero;stroke:#1d8e2b;stroke-opacity:1"
                   id="path1609" />
              </g>
              <g
                 id="g1611"
                 transform="translate(287.2017,415.4923)"
                 style="fill:#1d8e2b;fill-opacity:1;stroke:#1d8e2b;stroke-opacity:1">
                <path
                   d="m 0,0 5.433,-0.641 -4.424,-37.535 17.987,-2.12 -0.538,-4.559 -23.42,2.76 z"
                   style="fill:#1d8e2b;fill-opacity:1;stroke:#1d8e2b;stroke-width:3;stroke-linecap:butt;stroke-linejoin:round;stroke-miterlimit:10;stroke-dasharray:none;stroke-opacity:1"
                   id="path1613" />
              </g>
              <g
                 id="g1615"
                 transform="translate(321.2874,389.8805)"
                 style="fill:#1d8e2b;fill-opacity:1;stroke:#1d8e2b;stroke-opacity:1">
                <path
                   d="m 0,0 c -1.06,-8.993 2.862,-17.624 11.418,-18.632 8.619,-1.016 14.426,6.341 15.552,15.897 C 27.957,5.633 24.615,14.892 15.559,15.959 6.566,17.02 1.09,9.243 0,0 M 32.745,-3.163 C 31.037,-17.653 21.326,-24.296 10.583,-23.029 -0.534,-21.719 -7.324,-12.18 -5.823,0.56 -4.247,13.925 5.09,21.69 16.332,20.365 27.824,19.01 34.218,9.328 32.745,-3.163"
                   style="fill:#1d8e2b;fill-opacity:1;fill-rule:nonzero;stroke:#1d8e2b;stroke-opacity:1"
                   id="path1617" />
              </g>
              <g
                 id="g1619"
                 transform="translate(321.2874,389.8805)"
                 style="fill:#1d8e2b;fill-opacity:1;stroke:#1d8e2b;stroke-opacity:1">
                <path
                   d="m 0,0 c -1.06,-8.993 2.862,-17.624 11.418,-18.632 8.619,-1.016 14.426,6.341 15.552,15.897 C 27.957,5.633 24.615,14.892 15.559,15.959 6.566,17.02 1.09,9.243 0,0 Z M 32.745,-3.163 C 31.037,-17.653 21.326,-24.296 10.583,-23.029 -0.534,-21.719 -7.324,-12.18 -5.823,0.56 -4.247,13.925 5.09,21.69 16.332,20.365 27.824,19.01 34.218,9.328 32.745,-3.163 Z"
                   style="fill:#1d8e2b;fill-opacity:1;stroke:#1d8e2b;stroke-width:3;stroke-linecap:butt;stroke-linejoin:round;stroke-miterlimit:10;stroke-dasharray:none;stroke-opacity:1"
                   id="path1621" />
              </g>
              <g
                 id="g1623"
                 transform="translate(397.0601,361.7628)"
                 style="fill:#1d8e2b;fill-opacity:1;stroke:#1d8e2b;stroke-opacity:1">
                <path
                   d="m 0,0 c -2.539,-0.587 -7.518,-1.458 -13.201,-0.788 -6.37,0.751 -11.425,2.994 -15.083,7.414 -3.21,3.925 -4.796,9.811 -4.023,16.368 1.542,12.547 11.243,20.712 25.358,19.048 4.872,-0.575 8.556,-2.085 10.264,-3.173 l -1.834,-4.28 c -2.131,1.265 -4.846,2.408 -9.093,2.908 -10.242,1.208 -17.676,-4.374 -18.92,-14.93 -1.259,-10.68 4.431,-17.746 14.236,-18.901 3.56,-0.42 6.055,-0.208 7.378,0.27 l 1.48,12.552 -8.557,1.009 0.516,4.373 13.864,-1.635 z"
                   style="fill:#1d8e2b;fill-opacity:1;fill-rule:nonzero;stroke:#1d8e2b;stroke-opacity:1"
                   id="path1625" />
              </g>
              <g
                 id="g1627"
                 transform="translate(397.0601,361.7628)"
                 style="fill:#1d8e2b;fill-opacity:1;stroke:#1d8e2b;stroke-opacity:1">
                <path
                   d="m 0,0 c -2.539,-0.587 -7.518,-1.458 -13.201,-0.788 -6.37,0.751 -11.425,2.994 -15.083,7.414 -3.21,3.925 -4.796,9.811 -4.023,16.368 1.542,12.547 11.243,20.712 25.358,19.048 4.872,-0.575 8.556,-2.085 10.264,-3.173 l -1.834,-4.28 c -2.131,1.265 -4.846,2.408 -9.093,2.908 -10.242,1.208 -17.676,-4.374 -18.92,-14.93 -1.259,-10.68 4.431,-17.746 14.236,-18.901 3.56,-0.42 6.055,-0.208 7.378,0.27 l 1.48,12.552 -8.557,1.009 0.516,4.373 13.864,-1.635 z"
                   style="fill:#1d8e2b;fill-opacity:1;stroke:#1d8e2b;stroke-width:3;stroke-linecap:butt;stroke-linejoin:round;stroke-miterlimit:10;stroke-dasharray:none;stroke-opacity:1"
                   id="path1629" />
              </g>
              <g
                 id="g1631"
                 transform="translate(417.1489,378.5807)"
                 style="fill:#1d8e2b;fill-opacity:1;stroke:#1d8e2b;stroke-opacity:1">
                <path
                   d="m 0,0 c -1.06,-8.993 2.862,-17.624 11.418,-18.632 8.619,-1.016 14.426,6.341 15.552,15.897 C 27.957,5.634 24.616,14.892 15.559,15.959 6.566,17.02 1.089,9.243 0,0 M 32.746,-3.163 C 31.038,-17.653 21.326,-24.296 10.583,-23.029 -0.533,-21.719 -7.324,-12.18 -5.822,0.56 -4.247,13.925 5.091,21.69 16.332,20.365 27.824,19.01 34.218,9.328 32.746,-3.163"
                   style="fill:#1d8e2b;fill-opacity:1;fill-rule:nonzero;stroke:#1d8e2b;stroke-opacity:1"
                   id="path1633" />
              </g>
              <g
                 id="g1635"
                 transform="translate(417.1489,378.5807)"
                 style="fill:#1d8e2b;fill-opacity:1;stroke:#1d8e2b;stroke-opacity:1">
                <path
                   d="m 0,0 c -1.06,-8.993 2.862,-17.624 11.418,-18.632 8.619,-1.016 14.426,6.341 15.552,15.897 C 27.957,5.634 24.616,14.892 15.559,15.959 6.566,17.02 1.089,9.243 0,0 Z M 32.746,-3.163 C 31.038,-17.653 21.326,-24.296 10.583,-23.029 -0.533,-21.719 -7.324,-12.18 -5.822,0.56 -4.247,13.925 5.091,21.69 16.332,20.365 27.824,19.01 34.218,9.328 32.746,-3.163 Z"
                   style="fill:#1d8e2b;fill-opacity:1;stroke:#1d8e2b;stroke-width:3;stroke-linecap:butt;stroke-linejoin:round;stroke-miterlimit:10;stroke-dasharray:none;stroke-opacity:1"
                   id="path1637" />
              </g>
              <g
                 id="g1639"
                 transform="translate(262.6357,317.4562)"
                 style="fill:#1d8e2b;fill-opacity:1;stroke:#1d8e2b;stroke-opacity:1">
                <path
                   d="m 0,0 -2.694,12.602 c -0.613,2.858 -0.943,5.43 -1.28,7.939 l -0.125,0.015 C -5.018,18.132 -6.007,15.652 -7.121,13.187 L -12.679,1.494 Z m -14.303,-2.62 -5.933,-12.725 -5.621,0.662 19.264,40.41 6.558,-0.774 9.403,-43.788 -5.809,0.685 -2.936,13.77 z"
                   style="fill:#1d8e2b;fill-opacity:1;fill-rule:nonzero;stroke:#1d8e2b;stroke-opacity:1"
                   id="path1641" />
              </g>
              <g
                 id="g1643"
                 transform="translate(262.6357,317.4562)"
                 style="fill:#1d8e2b;fill-opacity:1;stroke:#1d8e2b;stroke-opacity:1">
                <path
                   d="m 0,0 -2.694,12.602 c -0.613,2.858 -0.943,5.43 -1.28,7.939 l -0.125,0.015 C -5.018,18.132 -6.007,15.652 -7.121,13.187 L -12.679,1.494 Z m -14.303,-2.62 -5.933,-12.725 -5.621,0.662 19.264,40.41 6.558,-0.774 9.403,-43.788 -5.809,0.685 -2.936,13.77 z"
                   style="fill:#1d8e2b;fill-opacity:1;stroke:#1d8e2b;stroke-width:3;stroke-linecap:butt;stroke-linejoin:round;stroke-miterlimit:10;stroke-dasharray:none;stroke-opacity:1"
                   id="path1645" />
              </g>
              <g
                 id="g1647"
                 transform="translate(309.979,315.675)"
                 style="fill:#1d8e2b;fill-opacity:1;stroke:#1d8e2b;stroke-opacity:1">
                <path
                   d="m 0,0 c 0.994,8.431 -2.355,17.627 -11.286,18.68 -9.181,1.082 -14.679,-6.881 -15.692,-16.007 -1.115,-8.924 2.87,-17.562 11.363,-18.563 C -6.933,-16.913 -1.134,-9.618 0,0 m 1.265,-27.947 c -5.507,2.169 -10.867,4.51 -15.539,6.769 -0.838,0.415 -1.675,0.832 -2.488,0.928 -9.948,1.552 -17.635,9.931 -16.038,23.483 1.59,13.491 10.857,21.2 22.224,19.86 C 0.854,21.745 7.24,12.001 5.775,-0.428 4.501,-11.233 -1.312,-17.576 -8.594,-19.187 l -0.03,-0.25 c 4.06,-1.555 8.501,-3.092 11.988,-4.136 z"
                   style="fill:#1d8e2b;fill-opacity:1;fill-rule:nonzero;stroke:#1d8e2b;stroke-opacity:1"
                   id="path1649" />
              </g>
              <g
                 id="g1651"
                 transform="translate(309.979,315.675)"
                 style="fill:#1d8e2b;fill-opacity:1;stroke:#1d8e2b;stroke-opacity:1">
                <path
                   d="m 0,0 c 0.994,8.431 -2.355,17.627 -11.286,18.68 -9.181,1.082 -14.679,-6.881 -15.692,-16.007 -1.115,-8.924 2.87,-17.562 11.363,-18.563 C -6.933,-16.913 -1.134,-9.618 0,0 Z m 1.265,-27.947 c -5.507,2.169 -10.867,4.51 -15.539,6.769 -0.838,0.415 -1.675,0.832 -2.488,0.928 -9.948,1.552 -17.635,9.931 -16.038,23.483 1.59,13.491 10.857,21.2 22.224,19.86 C 0.854,21.745 7.24,12.001 5.775,-0.428 4.501,-11.233 -1.312,-17.576 -8.594,-19.187 l -0.03,-0.25 c 4.06,-1.555 8.501,-3.092 11.988,-4.136 z"
                   style="fill:#1d8e2b;fill-opacity:1;stroke:#1d8e2b;stroke-width:3;stroke-linecap:butt;stroke-linejoin:round;stroke-miterlimit:10;stroke-dasharray:none;stroke-opacity:1"
                   id="path1653" />
              </g>
              <g
                 id="g1655"
                 transform="translate(330.6714,334.3859)"
                 style="fill:#1d8e2b;fill-opacity:1;stroke:#1d8e2b;stroke-opacity:1">
                <path
                   d="m 0,0 -2.937,-24.92 c -1.112,-9.431 2.601,-13.921 8.222,-14.584 6.246,-0.736 10.729,2.914 11.826,12.221 l 2.937,24.92 5.496,-0.649 -2.893,-24.545 C 21.127,-40.484 13.694,-44.99 4.575,-43.915 -4.043,-42.899 -9.958,-37.2 -8.419,-24.147 l 2.923,24.794 z"
                   style="fill:#1d8e2b;fill-opacity:1;fill-rule:nonzero;stroke:#1d8e2b;stroke-opacity:1"
                   id="path1657" />
              </g>
              <g
                 id="g1659"
                 transform="translate(330.6714,334.3859)"
                 style="fill:#1d8e2b;fill-opacity:1;stroke:#1d8e2b;stroke-opacity:1">
                <path
                   d="m 0,0 -2.937,-24.92 c -1.112,-9.431 2.601,-13.921 8.222,-14.584 6.246,-0.736 10.729,2.914 11.826,12.221 l 2.937,24.92 5.496,-0.649 -2.893,-24.545 C 21.127,-40.484 13.694,-44.99 4.575,-43.915 -4.043,-42.899 -9.958,-37.2 -8.419,-24.147 l 2.923,24.794 z"
                   style="fill:#1d8e2b;fill-opacity:1;stroke:#1d8e2b;stroke-width:3;stroke-linecap:butt;stroke-linejoin:round;stroke-miterlimit:10;stroke-dasharray:none;stroke-opacity:1"
                   id="path1661" />
              </g>
              <g
                 id="g1663"
                 transform="translate(371.0769,329.6232)"
                 style="fill:#1d8e2b;fill-opacity:1;stroke:#1d8e2b;stroke-opacity:1">
                <path
                   d="m 0,0 -4.962,-42.095 -5.434,0.64 4.963,42.095 z M 7.559,8.797 -1.296,2.432 -5.731,2.954 0.877,9.585 Z"
                   style="fill:#1d8e2b;fill-opacity:1;fill-rule:nonzero;stroke:#1d8e2b;stroke-opacity:1"
                   id="path1665" />
              </g>
              <g
                 id="g1667"
                 transform="translate(371.0769,329.6232)"
                 style="fill:#1d8e2b;fill-opacity:1;stroke:#1d8e2b;stroke-opacity:1">
                <path
                   d="m 0,0 -4.962,-42.095 -5.434,0.64 4.963,42.095 z M 7.559,8.797 -1.296,2.432 -5.731,2.954 0.877,9.585 Z"
                   style="fill:#1d8e2b;fill-opacity:1;stroke:#1d8e2b;stroke-width:3;stroke-linecap:butt;stroke-linejoin:round;stroke-miterlimit:10;stroke-dasharray:none;stroke-opacity:1"
                   id="path1669" />
              </g>
              <g
                 id="g1671"
                 transform="translate(542.2339,626.1276)"
                 style="stroke:#1d8e2b;stroke-opacity:1">
                <path
                   d="M 0,0 H -74.008 V -575.699 L 0,-494.598 Z M -379.89,-485.058 V 0 h 305.882 v -575.699 z"
                   style="fill:none;stroke:#1d8e2b;stroke-width:4;stroke-linecap:round;stroke-linejoin:round;stroke-miterlimit:10;stroke-dasharray:none;stroke-opacity:1"
                   id="path1673" />
              </g>
            </g>
            <g
               id="g1675"
               transform="translate(484.8828,143.132)"
               style="stroke:#1d8e2b;stroke-opacity:1">
              <path
                 d="M 0,0 V 482.996 M -16.657,-92.703 0,0 57.351,-11.603"
                 style="fill:none;stroke:#1d8e2b;stroke-width:4;stroke-linecap:butt;stroke-linejoin:round;stroke-miterlimit:10;stroke-dasharray:none;stroke-opacity:1"
                 id="path1677" />
            </g>
          </g>
        </g>
      </g>
    </g>
  </g>
</svg>
