<svg width="509" height="358" viewBox="0 0 509 358" fill="none" xmlns="http://www.w3.org/2000/svg">
<path d="M313.256 258.11C313.629 252.886 310.113 252.853 310.113 252.853L298.953 252.057L287.792 251.261C287.792 251.261 284.307 250.795 283.935 256.019L284.398 292.267C284.498 300.06 283.892 307.877 282.594 315.556L277.57 345.272C277.57 345.272 276.994 348.426 280.485 348.675C283.976 348.924 292.004 349.497 292.004 349.497C292.004 349.497 300.033 350.069 303.523 350.318C307.014 350.567 306.892 347.362 306.892 347.362L306.135 317.235C305.94 309.449 306.449 301.625 307.654 293.926L313.256 258.11Z" fill="white" stroke="#1D8E2B" stroke-width="1.33333"/>
<path d="M287.612 248.735C291.102 248.984 299.131 249.556 299.131 249.556C299.131 249.556 307.159 250.129 310.65 250.378C314.141 250.627 314.019 247.422 314.019 247.422L313.262 217.294C313.067 209.508 313.576 201.685 314.781 193.985L320.382 158.169C320.755 152.946 317.239 152.913 317.239 152.913L306.079 152.117L294.918 151.321C294.918 151.321 291.434 150.855 291.061 156.079L291.525 192.327C291.624 200.12 291.019 207.936 289.72 215.616L284.696 245.331C284.696 245.331 284.121 248.486 287.612 248.735Z" fill="white" stroke="#1D8E2B" stroke-width="1.33333"/>
<path d="M294.698 149.36C298.188 149.61 306.217 150.182 306.217 150.182C306.217 150.182 314.245 150.755 317.736 151.003C321.227 151.252 321.104 148.048 321.104 148.048L320.348 117.92C320.152 110.134 320.662 102.311 321.867 94.6103L327.469 58.7946C327.841 53.5713 324.326 53.5383 324.326 53.5383L313.165 52.7422L302.004 51.9466C302.004 51.9466 298.52 51.4802 298.147 56.7041L298.611 92.9521C298.71 100.746 298.105 108.562 296.806 116.241L291.783 145.957C291.783 145.957 291.207 149.112 294.698 149.36Z" fill="white" stroke="#1D8E2B" stroke-width="1.33333"/>
<path d="M346.829 254.963L335.727 253.576L324.624 252.189C324.624 252.189 321.169 251.538 320.519 256.734L319.057 292.955C318.743 300.744 317.723 308.516 316.019 316.116L309.424 345.523C309.424 345.523 308.682 348.643 312.154 349.077C315.627 349.511 323.614 350.509 323.614 350.509C323.614 350.509 331.6 351.507 335.073 351.941C338.546 352.375 338.593 349.169 338.593 349.169L339.438 319.043C339.656 311.258 340.581 303.472 342.192 295.847L349.689 260.379C350.338 255.183 346.829 254.963 346.829 254.963Z" fill="white" stroke="#1D8E2B" stroke-width="1.33333"/>
<path d="M369.517 157.104L358.61 154.613L347.702 152.122C347.702 152.122 344.329 151.13 343.163 156.234L338.084 192.128C336.993 199.846 335.2 207.478 332.745 214.869L323.241 243.469C323.241 243.469 322.19 246.498 325.602 247.277C329.013 248.057 336.86 249.848 336.86 249.848C336.86 249.848 344.707 251.641 348.119 252.419C351.53 253.199 351.899 250.013 351.899 250.013L355.753 220.124C356.749 212.399 358.448 204.745 360.814 197.32L371.821 162.779C372.987 157.674 369.517 157.104 369.517 157.104Z" fill="white" stroke="#1D8E2B" stroke-width="1.33333"/>
<path d="M409.831 64.3666L399.584 59.8749L389.336 55.3832C389.336 55.3832 386.209 53.7757 384.107 58.5718L372.389 92.8768C371.637 95.0786 370.806 97.2545 369.935 99.4146C369.516 98.7469 369.08 98.045 368.61 97.2754C367.28 95.0058 365.745 92.3331 364.304 89.3667C363.553 87.8952 362.841 86.3471 362.162 84.7535C361.425 83.1782 360.851 81.52 360.205 79.877C359.576 78.229 359.108 76.5353 358.556 74.8835C358.132 73.2076 357.696 71.5506 357.345 69.9336C357.252 69.3304 357.148 68.7418 357.046 68.1526C363.711 69.6912 394.086 43.5436 394.086 43.5436C394.086 43.5436 361.894 57.6705 356.589 64.947C356.508 63.7337 356.415 62.578 356.358 61.4812C362.494 59.5819 367.796 18.2866 367.796 18.2866C367.796 18.2866 349.501 58.7313 355.345 61.4198C355.276 62.6337 355.247 63.921 355.19 65.297C355.188 65.828 355.221 66.3799 355.248 66.9286C349.615 58.43 322.286 40.6361 322.286 40.6361C322.286 40.6361 349.945 73.712 355.499 70.757C355.676 72.2867 355.898 73.8443 356.127 75.4423C356.508 77.191 356.81 79.0043 357.274 80.7682C357.755 82.5263 358.171 84.3168 358.753 86.0161C359.279 87.7383 359.844 89.418 360.454 91.0186C361.618 94.247 362.906 97.1798 364.037 99.688C365.209 102.176 366.234 104.232 367.011 105.655C367.053 105.731 367.083 105.785 367.123 105.858C365.799 108.69 364.403 111.488 362.88 114.213L348.184 140.524C348.184 140.524 346.584 143.303 349.789 144.708C352.994 146.113 360.366 149.344 360.366 149.344C360.366 149.344 367.738 152.575 370.943 153.981C374.148 155.385 375.107 152.325 375.107 152.325L384.496 123.687C386.923 116.287 390.026 109.088 393.743 102.237L411.03 70.3728C413.132 65.5767 409.831 64.3666 409.831 64.3666Z" fill="white" stroke="#1D8E2B" stroke-width="1.33333"/>
<path d="M268.779 315.831C267.591 308.135 267.098 300.31 267.31 292.519L268.294 256.281C267.998 251.052 264.506 251.469 264.506 251.469L253.335 252.104L242.165 252.739C242.165 252.739 238.649 252.721 238.946 257.95L244.032 293.843C245.126 301.559 245.523 309.389 245.215 317.171L244.026 347.285C244.026 347.285 243.857 350.488 247.351 350.289C250.845 350.09 258.881 349.633 258.881 349.633C258.881 349.633 266.917 349.177 270.411 348.977C273.904 348.779 273.374 345.617 273.374 345.617L268.779 315.831Z" fill="white" stroke="#1D8E2B" stroke-width="1.33333"/>
<path d="M238.338 247.253C238.338 247.253 238.17 250.456 241.663 250.257C245.157 250.059 253.193 249.602 253.193 249.602C253.193 249.602 261.229 249.144 264.723 248.946C268.217 248.747 267.687 245.584 267.687 245.584L263.091 215.799C261.903 208.102 261.41 200.278 261.622 192.487L262.606 156.248C262.31 151.021 258.818 151.437 258.818 151.437L247.647 152.071L236.477 152.707C236.477 152.707 232.961 152.689 233.258 157.917L238.344 193.81C239.438 201.527 239.835 209.357 239.528 217.14L238.338 247.253Z" fill="white" stroke="#1D8E2B" stroke-width="1.33333"/>
<path d="M232.682 147.787C232.682 147.787 232.513 150.989 236.007 150.79C239.501 150.592 247.537 150.135 247.537 150.135C247.537 150.135 255.573 149.678 259.067 149.479C262.561 149.28 262.03 146.118 262.03 146.118L257.434 116.333C256.247 108.636 255.754 100.812 255.965 93.0202L256.951 56.7824C256.653 51.554 253.162 51.9704 253.162 51.9704L241.991 52.6052L230.82 53.2407C230.82 53.2407 227.305 53.2229 227.602 58.4513L232.688 94.3442C233.782 102.061 234.179 109.891 233.872 117.673L232.682 147.787Z" fill="white" stroke="#1D8E2B" stroke-width="1.33333"/>
<path d="M253.458 12.2052C116.526 12.2052 24.5428 31.5307 24.5428 49.5823C24.5428 67.6338 116.526 86.9473 253.458 86.9473C390.391 86.9473 482.368 67.6047 482.368 49.5531C482.368 31.5016 390.391 12.1767 253.458 12.1767V12.2052ZM253.458 91.5212C138.132 91.5212 18.8455 75.8203 18.8455 49.5531C18.8455 23.2866 138.109 7.59074 253.458 7.59074C368.808 7.59074 488.071 23.2632 488.071 49.5531C488.071 75.8431 368.784 91.5212 253.458 91.5212Z" fill="white" stroke="#1D8E2B" stroke-width="5.33333" stroke-miterlimit="10" stroke-linecap="round" stroke-linejoin="round"/>
<path d="M254.309 7.58539C188.17 7.58539 126.02 12.7954 79.3111 22.2091C34.4367 31.2697 8.69672 43.3872 8.69672 55.4584C8.69672 62.7007 18.2668 68.8607 26.297 72.7517C64.5766 91.3241 154.082 103.326 254.309 103.326C320.454 103.326 382.604 98.1151 429.313 88.7014C474.188 79.6408 499.945 67.524 499.945 55.4584C499.928 32.3349 401.235 7.58539 254.309 7.58539ZM254.309 107.911C153.115 107.911 62.4633 95.6544 23.3559 76.6827C9.84859 70.1581 3 62.9906 3 55.4584C3 22.6205 130.773 3.00005 254.309 3.00005C377.845 3.00005 505.624 22.6205 505.624 55.4584C505.624 88.2964 377.845 107.911 254.309 107.911Z" fill="white" stroke="#1D8E2B" stroke-width="5.33333" stroke-miterlimit="10" stroke-linecap="round" stroke-linejoin="round"/>
<path d="M247.414 355C220.423 355 201.677 353.906 201.393 353.888L198.759 353.732V351.844H197.266C57.5946 338.633 55.1744 299.102 55.1396 297.423L20.9473 73.9958L26.5978 73.4173L60.8135 297.105C60.854 297.683 64.1078 334.627 197.619 347.271H204.456V349.43C225.877 350.455 371.094 356.001 427.553 320.379C428.503 319.898 443.642 312.441 442.884 294.489V294.297L442.913 294.106L478.68 75.947L484.325 76.5262L448.581 294.563C449.345 315.197 431.508 323.841 430.744 324.2C404.789 340.619 358.074 350.687 292.271 353.946C276.13 354.751 260.759 355 247.414 355Z" fill="white" stroke="#1D8E2B" stroke-width="5.33333" stroke-miterlimit="10" stroke-linecap="round" stroke-linejoin="round"/>
<path d="M198.759 349.627L193.282 104.414L198.98 104.333L204.456 349.546L198.759 349.627Z" fill="white" stroke="#1D8E2B" stroke-width="5.33333" stroke-miterlimit="10" stroke-linecap="round" stroke-linejoin="round"/>
</svg>
