<?xml version="1.0" encoding="UTF-8" standalone="no"?>
<!-- Created with Inkscape (http://www.inkscape.org/) -->

<svg
   version="1.1"
   id="svg2"
   width="1066.6667"
   height="1066.6667"
   viewBox="0 0 1066.6667 1066.6667"
   sodipodi:docname="ICONOS DE PRODUCTOS.svg"
   inkscape:version="1.2 (dc2aedaf03, 2022-05-15)"
   xmlns:inkscape="http://www.inkscape.org/namespaces/inkscape"
   xmlns:sodipodi="http://sodipodi.sourceforge.net/DTD/sodipodi-0.dtd"
   xmlns="http://www.w3.org/2000/svg"
   xmlns:svg="http://www.w3.org/2000/svg">
  <defs
     id="defs6">
    <clipPath
       clipPathUnits="userSpaceOnUse"
       id="clipPath54">
      <path
         d="M 0,800 H 800 V 0 H 0 Z"
         id="path52" />
    </clipPath>
  </defs>
  <sodipodi:namedview
     id="namedview4"
     pagecolor="#ffffff"
     bordercolor="#000000"
     borderopacity="0.25"
     inkscape:showpageshadow="2"
     inkscape:pageopacity="0.0"
     inkscape:pagecheckerboard="0"
     inkscape:deskcolor="#d1d1d1"
     showgrid="false"
     inkscape:lockguides="true"
     inkscape:zoom="0.55485779"
     inkscape:cx="9708.7941"
     inkscape:cy="427.13648"
     inkscape:window-width="1920"
     inkscape:window-height="1017"
     inkscape:window-x="-8"
     inkscape:window-y="-8"
     inkscape:window-maximized="1"
     inkscape:current-layer="g434" />
  <g
     id="g42"
     inkscape:groupmode="layer"
     inkscape:label="Page 2"
     transform="matrix(1.3333333,0,0,-1.3333333,-9.6994631e-5,1066.6667)"
     style="display:inline">
    <g
       id="g48"
       inkscape:export-filename="..\Pictures\Inkscape\bowl bambu.png"
       inkscape:export-xdpi="4.7556849"
       inkscape:export-ydpi="4.7556849"
       transform="translate(0,51.364514)"
       style="stroke:#1d8e2b;stroke-opacity:1">
      <g
         id="g50"
         clip-path="url(#clipPath54)"
         style="stroke:#1d8e2b;stroke-opacity:1">
        <g
           id="g4680">
          <g
             id="g56"
             transform="translate(493.0518,221.1759)"
             style="fill:#1d8e2b;fill-opacity:1;stroke:#1d8e2b;stroke-opacity:1">
            <path
               d="M 0,0 C 0.589,8.254 -4.967,8.306 -4.967,8.306 L -22.6,9.563 -40.234,10.821 c 0,0 -5.507,0.737 -6.095,-7.517 l 0.732,-57.274 c 0.158,-12.313 -0.799,-24.663 -2.85,-36.797 l -7.938,-46.952 c 0,0 -0.91,-4.984 4.606,-5.377 5.515,-0.393 18.2,-1.299 18.2,-1.299 0,0 12.686,-0.904 18.201,-1.297 5.515,-0.393 5.322,4.67 5.322,4.67 l -1.195,47.603 c -0.309,12.302 0.496,24.663 2.4,36.829 z"
               style="fill:#1d8e2b;fill-opacity:1;fill-rule:nonzero;stroke:#1d8e2b;stroke-opacity:1"
               id="path58" />
          </g>
          <g
             id="g60"
             transform="translate(452.5325,235.9884)"
             style="fill:#1d8e2b;fill-opacity:1;stroke:#1d8e2b;stroke-opacity:1">
            <path
               d="m 0,0 c 5.515,-0.394 18.201,-1.298 18.201,-1.298 0,0 12.685,-0.905 18.2,-1.298 5.516,-0.393 5.323,4.67 5.323,4.67 l -1.196,47.604 c -0.308,12.302 0.497,24.662 2.4,36.829 l 8.851,56.59 c 0.589,8.253 -4.966,8.305 -4.966,8.305 l -17.634,1.258 -17.634,1.257 c 0,0 -5.506,0.737 -6.095,-7.517 L 6.183,89.127 C 6.34,76.813 5.384,64.463 3.332,52.329 L -4.606,5.378 C -4.606,5.378 -5.515,0.393 0,0"
               style="fill:#1d8e2b;fill-opacity:1;fill-rule:nonzero;stroke:#1d8e2b;stroke-opacity:1"
               id="path62" />
          </g>
          <g
             id="g64"
             transform="translate(463.7289,393.0036)"
             style="fill:#1d8e2b;fill-opacity:1;stroke:#1d8e2b;stroke-opacity:1">
            <path
               d="m 0,0 c 5.515,-0.394 18.201,-1.298 18.201,-1.298 0,0 12.685,-0.905 18.2,-1.298 5.516,-0.393 5.322,4.67 5.322,4.67 l -1.195,47.603 c -0.309,12.302 0.497,24.663 2.4,36.83 l 8.852,56.59 c 0.588,8.253 -4.967,8.305 -4.967,8.305 l -17.634,1.258 -17.634,1.257 c 0,0 -5.506,0.737 -6.095,-7.517 L 6.183,89.127 C 6.34,76.813 5.384,64.463 3.332,52.33 L -4.606,5.377 C -4.606,5.377 -5.515,0.393 0,0"
               style="fill:#1d8e2b;fill-opacity:1;fill-rule:nonzero;stroke:#1d8e2b;stroke-opacity:1"
               id="path66" />
          </g>
          <g
             id="g68"
             transform="translate(546.098,226.1476)"
             style="fill:#1d8e2b;fill-opacity:1;stroke:#1d8e2b;stroke-opacity:1">
            <path
               d="m 0,0 -17.542,2.192 -17.542,2.192 c 0,0 -5.46,1.028 -6.486,-7.182 l -2.31,-57.231 c -0.497,-12.306 -2.108,-24.587 -4.801,-36.595 l -10.42,-46.464 c 0,0 -1.173,-4.929 4.314,-5.615 5.486,-0.686 18.106,-2.263 18.106,-2.263 0,0 12.619,-1.576 18.106,-2.262 5.487,-0.686 5.562,4.38 5.562,4.38 l 1.335,47.6 c 0.345,12.301 1.806,24.602 4.352,36.65 L 4.519,-8.558 C 5.545,-0.348 0,0 0,0"
               style="fill:#1d8e2b;fill-opacity:1;fill-rule:nonzero;stroke:#1d8e2b;stroke-opacity:1"
               id="path70" />
          </g>
          <g
             id="g72"
             transform="translate(581.9464,380.7682)"
             style="fill:#1d8e2b;fill-opacity:1;stroke:#1d8e2b;stroke-opacity:1">
            <path
               d="m 0,0 -17.234,3.936 -17.235,3.936 c 0,0 -5.33,1.568 -7.172,-6.498 l -8.024,-56.713 c -1.725,-12.194 -4.557,-24.253 -8.437,-35.931 l -15.016,-45.189 c 0,0 -1.661,-4.787 3.73,-6.017 5.39,-1.232 17.789,-4.063 17.789,-4.063 0,0 12.398,-2.832 17.789,-4.062 5.39,-1.232 5.972,3.802 5.972,3.802 l 6.09,47.226 c 1.574,12.205 4.258,24.298 7.997,36.031 L 3.64,-8.967 C 5.483,-0.9 0,0 0,0"
               style="fill:#1d8e2b;fill-opacity:1;fill-rule:nonzero;stroke:#1d8e2b;stroke-opacity:1"
               id="path74" />
          </g>
          <g
             id="g76"
             transform="translate(645.6428,527.2965)"
             style="fill:#1d8e2b;fill-opacity:1;stroke:#1d8e2b;stroke-opacity:1">
            <path
               d="m 0,0 -16.191,7.097 -16.191,7.097 c 0,0 -4.941,2.54 -8.263,-5.038 l -18.514,-54.203 c -1.188,-3.479 -2.502,-6.917 -3.877,-10.33 -0.663,1.055 -1.352,2.164 -2.094,3.38 -2.101,3.586 -4.527,7.809 -6.804,12.496 -1.186,2.325 -2.311,4.771 -3.384,7.289 -1.164,2.489 -2.072,5.109 -3.092,7.705 -0.994,2.604 -1.733,5.28 -2.606,7.89 -0.67,2.648 -1.359,5.266 -1.914,7.821 -0.146,0.953 -0.311,1.883 -0.471,2.814 10.531,-2.431 58.523,38.883 58.523,38.883 0,0 -50.864,-22.321 -59.245,-33.818 -0.129,1.917 -0.276,3.743 -0.365,5.476 9.694,3.001 18.071,68.249 18.071,68.249 0,0 -28.906,-63.904 -19.672,-68.152 -0.109,-1.918 -0.155,-3.952 -0.245,-6.126 -0.004,-0.839 0.049,-1.711 0.092,-2.578 -8.901,13.428 -52.082,41.543 -52.082,41.543 0,0 43.703,-52.261 52.478,-47.592 0.28,-2.417 0.63,-4.878 0.992,-7.403 0.602,-2.763 1.079,-5.628 1.813,-8.415 0.759,-2.778 1.417,-5.607 2.336,-8.292 0.831,-2.721 1.724,-5.375 2.688,-7.904 1.839,-5.101 3.875,-9.735 5.662,-13.698 1.851,-3.931 3.471,-7.179 4.699,-9.428 0.066,-0.12 0.113,-0.206 0.176,-0.321 -2.091,-4.475 -4.297,-8.895 -6.703,-13.201 l -23.221,-41.572 c 0,0 -2.528,-4.391 2.536,-6.611 5.064,-2.22 16.712,-7.325 16.712,-7.325 0,0 11.648,-5.106 16.712,-7.326 5.064,-2.219 6.58,2.615 6.58,2.615 l 14.835,45.249 c 3.834,11.693 8.737,23.068 14.61,33.893 L 1.895,-9.49 C 5.216,-1.912 0,0 0,0"
               style="fill:#1d8e2b;fill-opacity:1;fill-rule:nonzero;stroke:#1d8e2b;stroke-opacity:1"
               id="path78" />
          </g>
          <g
             id="g80"
             transform="translate(422.7758,129.9738)"
             style="fill:#1d8e2b;fill-opacity:1;stroke:#1d8e2b;stroke-opacity:1">
            <path
               d="m 0,0 c -1.877,12.161 -2.656,24.524 -2.321,36.834 l 1.556,57.258 c -0.469,8.261 -5.986,7.603 -5.986,7.603 l -17.65,-1.004 -17.65,-1.003 c 0,0 -5.555,0.028 -5.086,-8.234 L -39.1,34.743 c 1.728,-12.193 2.355,-24.564 1.869,-36.86 l -1.879,-47.581 c 0,0 -0.267,-5.06 5.254,-4.746 5.52,0.314 18.217,1.036 18.217,1.036 0,0 12.698,0.721 18.218,1.036 5.52,0.313 4.682,5.31 4.682,5.31 z"
               style="fill:#1d8e2b;fill-opacity:1;fill-rule:nonzero;stroke:#1d8e2b;stroke-opacity:1"
               id="path82" />
          </g>
          <g
             id="g84"
             transform="translate(374.6781,238.3302)"
             style="fill:#1d8e2b;fill-opacity:1;stroke:#1d8e2b;stroke-opacity:1">
            <path
               d="m 0,0 c 0,0 -0.266,-5.061 5.254,-4.746 5.521,0.313 18.218,1.035 18.218,1.035 0,0 12.697,0.723 18.217,1.036 5.521,0.315 4.683,5.312 4.683,5.312 L 39.11,49.698 c -1.876,12.161 -2.655,24.524 -2.321,36.834 l 1.556,57.258 c -0.469,8.26 -5.986,7.603 -5.986,7.603 l -17.65,-1.003 -17.65,-1.004 c 0,0 -5.555,0.028 -5.085,-8.233 L 0.01,84.441 C 1.738,72.248 2.365,59.877 1.88,47.58 Z"
               style="fill:#1d8e2b;fill-opacity:1;fill-rule:nonzero;stroke:#1d8e2b;stroke-opacity:1"
               id="path86" />
          </g>
          <g
             id="g88"
             transform="translate(365.7416,395.4899)"
             style="fill:#1d8e2b;fill-opacity:1;stroke:#1d8e2b;stroke-opacity:1">
            <path
               d="m 0,0 c 0,0 -0.266,-5.06 5.254,-4.746 5.521,0.314 18.218,1.036 18.218,1.036 0,0 12.697,0.722 18.217,1.036 5.521,0.314 4.683,5.311 4.683,5.311 L 39.11,49.698 C 37.234,61.86 36.455,74.222 36.789,86.533 l 1.557,57.257 c -0.47,8.261 -5.987,7.603 -5.987,7.603 l -17.65,-1.003 -17.65,-1.004 c 0,0 -5.555,0.028 -5.085,-8.233 L 0.01,84.441 C 1.738,72.248 2.365,59.877 1.88,47.581 Z"
               style="fill:#1d8e2b;fill-opacity:1;fill-rule:nonzero;stroke:#1d8e2b;stroke-opacity:1"
               id="path90" />
          </g>
          <g
             id="g92"
             transform="translate(398.569,609.7135)"
             style="stroke:#1d8e2b;stroke-opacity:1">
            <path
               d="m 0,0 c -216.358,0 -361.694,-30.535 -361.694,-59.057 0,-28.522 145.336,-59.038 361.694,-59.038 216.358,0 361.685,30.562 361.685,59.084 C 361.685,-30.489 216.358,0.045 0,0.045 Z m 0,-125.322 c -182.219,0 -370.696,24.808 -370.696,66.311 0,41.502 188.44,66.302 370.696,66.302 182.256,0 370.696,-24.763 370.696,-66.302 0,-41.539 -188.477,-66.311 -370.696,-66.311 z"
               style="fill:none;stroke:#1d8e2b;stroke-width:4;stroke-linecap:round;stroke-linejoin:round;stroke-miterlimit:10;stroke-dasharray:none;stroke-opacity:1"
               id="path94" />
          </g>
          <g
             id="g96"
             transform="translate(399.9137,617.0128)"
             style="stroke:#1d8e2b;stroke-opacity:1">
            <path
               d="m 0,0 c -104.502,0 -202.701,-8.232 -276.503,-23.106 -70.903,-14.316 -111.573,-33.462 -111.573,-52.535 0,-11.443 15.121,-21.176 27.809,-27.324 60.483,-29.345 201.905,-48.308 360.267,-48.308 104.511,0 202.71,8.233 276.512,23.107 70.903,14.316 111.601,33.461 111.601,52.525 C 388.085,-39.105 232.147,0 0,0 Z m 0,-158.518 c -159.89,0 -303.123,19.366 -364.914,49.342 -21.342,10.309 -32.163,21.634 -32.163,33.535 0,51.885 201.886,82.886 397.077,82.886 195.191,0 397.086,-31.001 397.086,-82.886 0,-51.885 -201.895,-82.877 -397.086,-82.877 z"
               style="fill:none;stroke:#1d8e2b;stroke-width:4;stroke-linecap:round;stroke-linejoin:round;stroke-miterlimit:10;stroke-dasharray:none;stroke-opacity:1"
               id="path98" />
          </g>
          <g
             id="g100"
             transform="translate(389.019,68.0861)"
             style="stroke:#1d8e2b;stroke-opacity:1">
            <path
               d="m 0,0 c -42.646,0 -72.266,1.729 -72.714,1.757 l -4.162,0.247 v 2.982 h -2.36 C -299.921,25.86 -303.745,88.32 -303.8,90.973 l -54.025,353.023 8.928,0.914 54.062,-353.434 c 0.064,-0.914 5.205,-59.286 216.157,-79.264 h 10.803 V 8.801 c 33.846,-1.619 263.294,-10.383 352.501,45.902 1.5,0.759 25.421,12.541 24.223,40.907 v 0.302 l 0.046,0.303 56.513,344.698 8.919,-0.915 L 317.85,95.492 C 319.058,62.89 290.874,49.232 289.667,48.665 248.658,22.723 174.846,6.815 70.875,1.665 45.372,0.394 21.085,0 0,0 Z"
               style="fill:none;stroke:#1d8e2b;stroke-width:4;stroke-linecap:round;stroke-linejoin:round;stroke-miterlimit:10;stroke-dasharray:none;stroke-opacity:1"
               id="path102" />
          </g>
          <g
             id="g104"
             transform="translate(312.1429,76.5753)"
             style="stroke:#1d8e2b;stroke-opacity:1">
            <path
               d="M 0,0 -8.654,387.445 0.348,387.573 9.001,0.128 Z"
               style="fill:none;stroke:#1d8e2b;stroke-width:4;stroke-linecap:round;stroke-linejoin:round;stroke-miterlimit:10;stroke-dasharray:none;stroke-opacity:1"
               id="path106" />
          </g>
        </g>
      </g>
    </g>
  </g>
</svg>
