<?xml version="1.0" encoding="UTF-8" standalone="no"?>
<!-- Created with Inkscape (http://www.inkscape.org/) -->

<svg
   version="1.1"
   id="svg2"
   width="1066.6667"
   height="1066.6667"
   viewBox="0 0 1066.6667 1066.6667"
   sodipodi:docname="ICONOS DE PRODUCTOS.svg"
   inkscape:version="1.2 (dc2aedaf03, 2022-05-15)"
   xmlns:inkscape="http://www.inkscape.org/namespaces/inkscape"
   xmlns:sodipodi="http://sodipodi.sourceforge.net/DTD/sodipodi-0.dtd"
   xmlns="http://www.w3.org/2000/svg"
   xmlns:svg="http://www.w3.org/2000/svg">
  <defs
     id="defs6">
    <clipPath
       clipPathUnits="userSpaceOnUse"
       id="clipPath122">
      <path
         d="M 0,800 H 800 V 0 H 0 Z"
         id="path120" />
    </clipPath>
  </defs>
  <sodipodi:namedview
     id="namedview4"
     pagecolor="#ffffff"
     bordercolor="#000000"
     borderopacity="0.25"
     inkscape:showpageshadow="2"
     inkscape:pageopacity="0.0"
     inkscape:pagecheckerboard="0"
     inkscape:deskcolor="#d1d1d1"
     showgrid="false"
     inkscape:lockguides="true"
     inkscape:zoom="0.55485779"
     inkscape:cx="9708.7941"
     inkscape:cy="427.13648"
     inkscape:window-width="1920"
     inkscape:window-height="1017"
     inkscape:window-x="-8"
     inkscape:window-y="-8"
     inkscape:window-maximized="1"
     inkscape:current-layer="g434" />
  <g
     id="g110"
     inkscape:groupmode="layer"
     inkscape:label="Page 3"
     transform="matrix(1.3333333,0,0,-1.3333333,-4.9848627e-5,1066.6667)"
     style="display:inline">
    <g
       id="g116"
       style="fill:none;fill-opacity:1;stroke:#1d8e2b;stroke-opacity:1">
      <g
         id="g118"
         clip-path="url(#clipPath122)"
         style="fill:none;fill-opacity:1;stroke:#1d8e2b;stroke-opacity:1">
        <g
           id="g124"
           transform="translate(579.4248,406.924)"
           style="fill:none;fill-opacity:1;stroke:#1d8e2b;stroke-opacity:1">
          <path
             d="m 0,0 10.447,-298.64 c 0,-15.835 -11.885,-28.78 -26.404,-28.78 -0.499,0 -0.974,0.111 -1.458,0.163 -0.699,0.081 -1.403,0.122 -2.097,0.235 v 0.112 c -12.829,1.929 -22.843,13.773 -22.843,28.27 L -31.907,0 c -28.348,11.304 -58.99,31.271 -58.99,79.098 0,59.489 39.426,133.425 71.385,138.658 v 0.123 c 0.673,0.112 1.341,0.183 2.01,0.286 0.03,0 0.061,0.021 0.087,0.021 0.484,0.071 0.978,0.203 1.458,0.203 32.5,0 74.936,-77.598 74.936,-139.291 C 58.979,31.271 28.337,11.314 0,0 Z"
             style="fill:none;fill-opacity:1;stroke:#1d8e2b;stroke-width:5;stroke-linecap:butt;stroke-linejoin:miter;stroke-miterlimit:10;stroke-dasharray:none;stroke-opacity:1"
             id="path126" />
        </g>
        <g
           id="g128"
           transform="translate(213.8315,619.8951)"
           style="fill:none;fill-opacity:1;stroke:#1d8e2b;stroke-opacity:1">
          <path
             d="m 0,0 c -0.292,-0.132 -0.587,-0.163 -0.872,-0.306 -21.022,-10.814 -51.363,-57.132 -51.363,-186.742 0,-69.649 29.55,-111.632 37.605,-134.853 14.084,-40.584 -13.329,-142.342 -18.436,-189.71 -1.699,-15.742 11.876,-28.78 26.394,-28.78 2.316,0 4.529,0.438 6.672,1.051 v 0.122 c 11.293,3.244 19.736,14.302 19.736,27.607 V -14.997 C 19.736,-3.59 9.248,3.969 0,0 Z"
             style="fill:none;fill-opacity:1;stroke:#1d8e2b;stroke-width:5;stroke-linecap:butt;stroke-linejoin:miter;stroke-miterlimit:10;stroke-dasharray:none;stroke-opacity:1"
             id="path130" />
        </g>
        <g
           id="g132"
           transform="translate(413.4946,619.5895)"
           style="fill:none;fill-opacity:1;stroke:#1d8e2b;stroke-opacity:1">
          <path
             d="M 0,0 -1.193,-168.908 H -15.069 L -18.17,0 h -7.182 l -3.332,-168.908 h -8.64 -2.975 -2.259 L -45.593,0 h -6.53 l -3.484,-168.908 H -69.483 L -71.008,0 h -6.677 c -6.101,-39.186 -11.977,-115.173 -11.977,-154.095 0,-47.828 9.748,-47.267 38.095,-58.57 l -10.447,-298.64 c 0,-14.059 9.437,-25.618 21.715,-28.057 v -0.204 c 1.526,-0.306 3.081,-0.519 4.683,-0.519 14.518,0 26.404,12.945 26.404,28.78 l -10.447,298.64 c 28.336,11.314 38.085,10.742 38.085,58.57 C 18.426,-115.173 12.503,-40.064 6.3,0 Z"
             style="fill:none;fill-opacity:1;stroke:#1d8e2b;stroke-width:5;stroke-linecap:butt;stroke-linejoin:miter;stroke-miterlimit:10;stroke-dasharray:none;stroke-opacity:1"
             id="path134" />
        </g>
      </g>
    </g>
  </g>
</svg>
