<svg width="301" height="377" viewBox="0 0 301 377" fill="none" xmlns="http://www.w3.org/2000/svg">
<path d="M254.876 151.644L262.332 353.543C262.332 364.248 253.849 373 243.487 373C243.131 373 242.792 372.925 242.446 372.89C241.947 372.835 241.445 372.807 240.95 372.731V372.655C231.793 371.351 224.646 363.344 224.646 353.543L232.103 151.644C211.87 144.002 190 130.503 190 98.1692C190 57.951 218.139 7.96575 240.95 4.42793V4.34478C241.43 4.26906 241.907 4.22106 242.384 4.15142C242.406 4.15142 242.428 4.13723 242.446 4.13723C242.792 4.08923 243.144 3.99998 243.487 3.99998C266.683 3.99998 296.971 56.461 296.971 98.1692C296.971 130.503 275.101 143.995 254.876 151.644Z" stroke="#1D8E2B" stroke-width="7" stroke-miterlimit="10"/>
<path d="M41.5811 4.72775C41.3711 4.81771 41.1588 4.83885 40.9538 4.93631C25.8292 12.306 4 43.8713 4 132.2C4 179.665 25.2601 208.276 31.0554 224.101C41.1883 251.758 21.4657 321.106 17.7914 353.387C16.569 364.115 26.3357 373 36.7809 373C38.4472 373 40.0393 372.702 41.5811 372.284V372.201C49.706 369.99 55.7804 362.454 55.7804 353.387V14.9481C55.7804 7.17431 48.2347 2.02291 41.5811 4.72775Z" stroke="#1D8E2B" stroke-width="7" stroke-miterlimit="10"/>
<path d="M151.688 3.91174L150.827 119.342H140.816L138.579 3.91174H133.397L130.994 119.342H124.76H122.614H120.984L118.794 3.91174H114.083L111.57 119.342H101.558L100.458 3.91174H95.641C91.2393 30.691 87 82.6197 87 109.219C87 141.904 94.0328 141.52 114.484 149.245L106.947 353.332C106.947 362.94 113.756 370.839 122.614 372.506V372.645C123.715 372.854 124.837 373 125.992 373C136.467 373 145.042 364.154 145.042 353.332L137.505 149.245C157.948 141.513 164.982 141.904 164.982 109.219C164.982 82.6197 160.709 31.291 156.233 3.91174H151.688Z" stroke="#1D8E2B" stroke-width="7" stroke-miterlimit="10"/>
</svg>
