<?xml version="1.0" encoding="UTF-8" standalone="no"?>
<!-- Created with Inkscape (http://www.inkscape.org/) -->

<svg
   version="1.1"
   id="svg2"
   width="1066.6667"
   height="1066.6667"
   viewBox="0 0 1066.6667 1066.6667"
   sodipodi:docname="ICONOS DE PRODUCTOS.svg"
   inkscape:version="1.2 (dc2aedaf03, 2022-05-15)"
   xmlns:inkscape="http://www.inkscape.org/namespaces/inkscape"
   xmlns:sodipodi="http://sodipodi.sourceforge.net/DTD/sodipodi-0.dtd"
   xmlns="http://www.w3.org/2000/svg"
   xmlns:svg="http://www.w3.org/2000/svg">
  <defs
     id="defs6">
    <clipPath
       clipPathUnits="userSpaceOnUse"
       id="clipPath22">
      <path
         d="M 0,800 H 800 V 0 H 0 Z"
         id="path20" />
    </clipPath>
  </defs>
  <sodipodi:namedview
     id="namedview4"
     pagecolor="#ffffff"
     bordercolor="#000000"
     borderopacity="0.25"
     inkscape:showpageshadow="2"
     inkscape:pageopacity="0.0"
     inkscape:pagecheckerboard="0"
     inkscape:deskcolor="#d1d1d1"
     showgrid="false"
     inkscape:lockguides="true"
     inkscape:zoom="0.55485779"
     inkscape:cx="9708.7941"
     inkscape:cy="427.13648"
     inkscape:window-width="1920"
     inkscape:window-height="1017"
     inkscape:window-x="-8"
     inkscape:window-y="-8"
     inkscape:window-maximized="1"
     inkscape:current-layer="g434" />
  <g
     id="g10"
     inkscape:groupmode="layer"
     inkscape:label="Page 1"
     transform="matrix(1.3333333,0,0,-1.3333333,0,1066.6667)"
     style="display:inline">
    <g
       id="g16"
       style="stroke:#1d8e2b;stroke-opacity:1">
      <g
         id="g18"
         clip-path="url(#clipPath22)"
         style="stroke:#1d8e2b;stroke-opacity:1">
        <g
           id="g24"
           transform="translate(60.2435,389.1042)"
           style="stroke:#1d8e2b;stroke-opacity:1">
          <path
             d="m 0,0 c 0,0 -44.246,-4.707 -53.325,-10.591 -9.08,-5.885 -4.536,-15.156 12.479,-21.105 17.016,-5.949 113.444,-44.785 136.139,-53.019 22.694,-8.236 57.854,-14.12 94.157,-10.592 36.303,3.528 175.842,25.882 175.842,25.882 0,0 8.277,-1.171 12.65,-5.878 4.373,-4.706 158.649,16.47 158.649,21.176 0,4.706 -10.208,1.305 -7.944,5.948 2.265,4.642 203.073,34.074 207.608,42.294 4.537,8.22 -5.678,18.826 -23.823,23.532 -18.144,4.707 -165.634,28.211 -182.649,29.41 -17.016,1.2 -52.183,-5.877 -68.062,-5.877 -15.88,0 -11.358,9.412 0,12.941 11.357,3.527 200.793,35.295 214.38,41.172 13.587,5.878 24.959,11.77 19.287,17.647 -5.671,5.878 -23.823,-3.549 -32.902,0 -9.079,3.55 -24.895,38.837 -35.139,50.6 -10.243,11.762 -18.151,10.591 -32.902,10.591 -14.751,0 -429.954,-29.41 -460.585,-36.473 C 103.229,130.595 18.151,104.713 5.672,89.387 -6.808,74.061 -3.422,37.645 -7.943,34.116 -12.465,30.588 -31.767,25.882 -39.71,19.997 -47.654,14.112 3.4,5.878 3.4,5.878 3.4,5.878 10.201,1.228 0,0 Z"
             style="fill:none;stroke:#1d8e2b;stroke-width:4;stroke-linecap:round;stroke-linejoin:round;stroke-miterlimit:10;stroke-dasharray:none;stroke-opacity:1"
             id="path26" />
        </g>
        <g
           id="g28"
           transform="translate(52.3,423.2204)"
           style="stroke:#1d8e2b;stroke-opacity:1">
          <path
             d="m 0,0 c 0,0 124.043,24.583 142.194,29.29 12.068,3.13 43.373,1.81 62.412,4.77 9.576,1.498 6.637,8.852 17.832,12.011 16.05,4.529 55.767,4.969 70.511,4.969 14.744,0 11.067,-12.324 25.811,-12.324 14.744,0 201.951,20.118 211.066,22.468 9.114,2.35 18.151,9.413 26.087,10.591 7.936,1.179 55.547,5.913 68.389,5.41 9.69,-0.384 11.358,-11.288 18.18,-11.288 6.822,0 40.888,-0.901 59.494,4.97 M -4.841,-76.545 c 0,0 57.024,-143.479 62.695,-147.007 5.672,-3.528 9.08,-15.29 18.152,-15.29 9.072,0 19.287,2.356 24.959,0 5.672,-2.358 27.23,-20.004 30.624,-22.362 3.393,-2.356 7.943,-8.234 17.036,-15.297 9.094,-7.063 34.032,-12.941 44.247,-12.941 10.215,0 76.005,8.234 87.349,10.591 11.344,2.357 243.911,41.173 251.848,41.173 h 31.766 c 14.744,0 36.303,2.356 43.111,8.234 6.807,5.878 78.277,143.394 82.813,152.892 4.536,9.498 12.778,25.385 24.562,27.969"
             style="fill:none;stroke:#1d8e2b;stroke-width:4;stroke-linecap:round;stroke-linejoin:round;stroke-miterlimit:10;stroke-dasharray:none;stroke-opacity:1"
             id="path30" />
        </g>
        <g
           id="g32"
           transform="translate(525.0733,429.4889)"
           style="stroke:#1d8e2b;stroke-opacity:1">
          <path
             d="m 0,0 c 0,0 -4.692,-66.983 -6.928,-80.081 m -455.254,38.163 c 0,0 -34.414,-3.848 -36.686,-12.948 -2.272,-9.1 32.902,-14.907 54.454,-25.555 21.552,-10.649 110.03,-37.623 116.852,-37.623 6.822,0 22.716,-1.179 52.182,0 29.467,1.178 505.967,71.774 509.367,80.009 C 237.388,-29.8 71.761,-5.09 59.281,-6.269 46.802,-7.447 6.751,-2.144 -3.109,0.795"
             style="fill:none;stroke:#1d8e2b;stroke-width:4;stroke-linecap:round;stroke-linejoin:round;stroke-miterlimit:10;stroke-dasharray:none;stroke-opacity:1"
             id="path34" />
        </g>
        <g
           id="g36"
           transform="translate(62.8913,387.571)"
           style="stroke:#1d8e2b;stroke-opacity:1">
          <path
             d="M 0,0 C 0,0 399.593,32.406 450.867,41.882"
             style="fill:none;stroke:#1d8e2b;stroke-width:4;stroke-linecap:butt;stroke-linejoin:miter;stroke-miterlimit:10;stroke-dasharray:none;stroke-opacity:1"
             id="path38" />
        </g>
      </g>
    </g>
  </g>
</svg>
