<svg width="350" height="192" viewBox="0 0 350 192" fill="none" xmlns="http://www.w3.org/2000/svg">
<path d="M28.0493 78.4253C28.0493 78.4253 8.90954 80.4638 4.98218 83.012C1.05438 85.5606 3.02001 89.5757 10.3803 92.152C17.741 94.7284 59.4535 111.547 69.2708 115.113C79.0877 118.68 94.2971 121.228 110.001 119.7C125.705 118.172 186.066 108.491 186.066 108.491C186.066 108.491 189.646 108.999 191.538 111.037C193.43 113.075 260.166 103.904 260.166 101.866C260.166 99.8282 255.75 101.301 256.73 99.2904C257.709 97.28 344.574 84.5338 346.536 80.974C348.499 77.4141 344.08 72.8209 336.231 70.7829C328.382 68.7444 264.581 58.5655 257.221 58.0462C249.86 57.5265 234.648 60.5914 227.779 60.5914C220.91 60.5914 222.866 56.5153 227.779 54.987C232.692 53.4596 314.637 39.7017 320.515 37.1565C326.392 34.6109 331.311 32.0593 328.858 29.5141C326.405 26.9685 318.553 31.0511 314.625 29.5141C310.698 27.9767 303.856 12.6949 299.425 7.60063C294.994 2.50683 291.573 3.01396 285.192 3.01396C278.811 3.01396 99.2043 15.7506 85.954 18.8094C72.7038 21.8682 35.901 33.077 30.5029 39.7143C25.1043 46.3515 26.569 62.1223 24.6134 63.6506C22.6573 65.1785 14.3077 67.2166 10.8717 69.7652C7.43532 72.3138 29.5201 75.8797 29.5201 75.8797C29.5201 75.8797 32.462 77.8935 28.0493 78.4253Z" stroke="#1D8E2B" stroke-width="5" stroke-miterlimit="10" stroke-linecap="round" stroke-linejoin="round"/>
<path d="M24.6131 63.6506C24.6131 63.6506 78.2712 53.0043 86.1229 50.9659C91.3433 49.6104 104.885 50.182 113.121 48.9001C117.263 48.2514 115.992 45.0666 120.835 43.6985C127.777 41.7371 144.958 41.5465 151.336 41.5465C157.714 41.5465 156.123 46.8837 162.501 46.8837C168.879 46.8837 249.86 38.1712 253.803 37.1535C257.746 36.1357 261.655 33.0769 265.088 32.5668C268.521 32.0562 289.116 30.006 294.672 30.2239C298.863 30.3902 299.585 35.1124 302.536 35.1124C305.487 35.1124 320.223 35.5026 328.271 32.96M22.519 96.8001C22.519 96.8001 47.1863 158.937 49.6394 160.465C52.093 161.993 53.5672 167.087 57.4916 167.087C61.4159 167.087 65.8347 166.066 68.2882 167.087C70.7418 168.108 80.0673 175.75 81.5355 176.771C83.0032 177.791 84.9714 180.337 88.9048 183.396C92.8387 186.454 103.626 189 108.045 189C112.464 189 140.923 185.434 145.83 184.413C150.737 183.393 251.34 166.582 254.774 166.582H268.515C274.893 166.582 284.219 165.562 287.164 163.017C290.108 160.471 321.025 100.916 322.987 96.8032C324.949 92.6898 328.514 85.8096 333.612 84.6905" stroke="#1D8E2B" stroke-width="5" stroke-miterlimit="10" stroke-linecap="round" stroke-linejoin="round"/>
<path d="M229.124 60.9359C229.124 60.9359 227.094 89.9444 226.127 95.6168M29.1947 79.0894C29.1947 79.0894 14.308 80.7559 13.3252 84.6968C12.3424 88.6378 27.5578 91.1526 36.8807 95.764C46.2036 100.376 84.4771 112.057 87.4282 112.057C90.3792 112.057 97.2546 112.568 110.001 112.057C122.748 111.547 328.87 80.9741 330.341 77.4078C331.812 73.8414 260.166 63.1402 254.767 63.6508C249.369 64.161 232.044 61.8644 227.779 60.5916" stroke="#1D8E2B" stroke-width="5" stroke-miterlimit="10" stroke-linecap="round" stroke-linejoin="round"/>
<path d="M29.1948 79.0894C29.1948 79.0894 202.049 65.0552 224.229 60.9514" stroke="#1D8E2B" stroke-width="5" stroke-miterlimit="10"/>
</svg>
