<svg id="Capa_1" data-name="Capa 1" xmlns="http://www.w3.org/2000/svg" viewBox="0 0 190 190"><defs><style>.cls-1{fill:#fff;}.cls-2{fill:#009839;}</style></defs><title>Iconos_Web</title><path class="cls-1" d="M182.18,168.08c0,4.27-.24,8.53-.36,12.79l-13,.43c-.7,0-1.39,0-2.24,0v-2.52q0-25.52,0-51c0-.66,0-1.32,0-2a4.28,4.28,0,0,0-4.52-4.32q-14.41,0-28.83,0a4.3,4.3,0,0,0-4.58,4.26c-.06.65,0,1.31,0,2v53.6H12.39c-.36,0-.72,0-1.08,0-1.21,0-1.74-.55-1.71-1.74,0-1.37,0-2.75,0-4.12,0-2.86,0-5.73,0-8.59a2.59,2.59,0,0,0-2.72-2.7,2.12,2.12,0,0,0-1.77.75c0-2,0-5,0-6.91a2.42,2.42,0,0,0,1.58.72,2.55,2.55,0,0,0,2.92-2.26,14.36,14.36,0,0,0,0-2V57c.78.51,1.27.82,1.75,1.15,6.8,4.75,13.6,9.48,20.38,14.25C37.3,76.26,42.82,80.22,48.4,84.1A10.67,10.67,0,0,0,52,86c3,.66,5.49-1.74,5.51-5.2,0-7.22,0-14.45,0-21.67,0-.62.06-1.24.1-2.08.8.54,1.39.92,2,1.32Q77.9,71.2,96.19,84.07a10.74,10.74,0,0,0,6.61,2.07c25.72-.09,51.44-.05,77.16-.05h2.23v2.32Q182.19,128.25,182.18,168.08Z"/><path class="cls-2" d="M128.68,181.29v-2.57q0-25.51,0-51c0-.66,0-1.32,0-2a4.3,4.3,0,0,1,4.58-4.26q14.41,0,28.82,0a4.28,4.28,0,0,1,4.52,4.32c.05.65,0,1.31,0,2q0,25.51,0,51v2.52c.85,0,1.55,0,2.25,0l12.95-.43c.13-4.26.35-8.53.36-12.79q.05-39.84,0-79.67V86.07H180c-25.72,0-51.44,0-77.16.05a10.72,10.72,0,0,1-6.6-2.07Q78,71.13,59.65,58.34c-.57-.4-1.16-.78-2-1.32,0,.83-.09,1.46-.1,2.08,0,7.22,0,14.44,0,21.66,0,3.46-2.48,5.87-5.51,5.21a10.76,10.76,0,0,1-3.6-1.88c-5.58-3.88-11.11-7.85-16.67-11.75Q21.62,65.19,11.41,58.08c-.48-.33-1-.64-1.75-1.15v2.29q0,47.62,0,95.25a14.81,14.81,0,0,1,0,2,2.55,2.55,0,0,1-2.92,2.26c-1.48-.18-2.08-1-2.08-2.55q.05-50.58,0-101.15a3.66,3.66,0,0,1,2.06-3.46,4.5,4.5,0,0,1,5.06.25C14.89,54,18,56.16,21.13,58.35L50.3,78.78c.53.37,1.07.71,1.92,1.26V77.9c0-7,0-14,0-20.95,0-2.28.27-4.32,2.51-5.49s4.09-.31,6,1q18.51,13,37.07,26c.53.37,1.08.71,1.86,1.23l6.64-54.19c-3.63-1-4.53-3.6-4.36-6.92.11-2.14,0-4.3,0-6.44a5,5,0,0,1,5.39-5.2q10.74-.05,21.48,0a5.13,5.13,0,0,1,5.43,5.38c.06,2.33,0,4.65,0,7,0,3.44-1,4.87-4.32,6.24.27,2.39.53,4.86.83,7.32q2.84,23.26,5.68,46.52c.13,1,.43,1.59,1.79,1.17L145,25.48c-4-1-4.55-4-4.35-7.5.12-2,0-3.94,0-5.91a5,5,0,0,1,5.24-5.15q10.92-.07,21.84,0a5,5,0,0,1,5.18,5.24c.05,2.39,0,4.77,0,7.16,0,3.46-.93,4.82-4.32,6.21.3,2.51.61,5.09.91,7.67a17.3,17.3,0,0,1,.19,2,2.54,2.54,0,0,1-2.47,2.74,2.58,2.58,0,0,1-2.85-2.38c-.3-1.94-.5-3.9-.74-5.86-.16-1.3-.31-2.6-.48-4H150.37l-6.73,54.92H169.9c-.47-4-.94-7.9-1.42-11.84-.88-7.22-1.83-14.43-2.61-21.67a4.28,4.28,0,0,1,1-3.17c1.59-1.51,4-.33,4.28,2,.65,5,1.23,10.06,1.84,15.09.79,6.51,1.59,13,2.42,19.72,2.28,0,4.47,0,6.66,0,3.67,0,5.6,2,5.6,5.67q0,46.55,0,93.1c0,4.54-2.68,7.19-7.26,7.19q-84.41,0-168.83,0c-2.5,0-4.62-.73-6-2.85A5.58,5.58,0,0,1,4.69,181c-.08-4.71,0-9.43,0-14.14,0-1.84.71-2.68,2.27-2.71a2.58,2.58,0,0,1,2.72,2.69c.06,2.86,0,5.73,0,8.59,0,1.37,0,2.75,0,4.12,0,1.2.51,1.78,1.72,1.74.36,0,.72,0,1.07,0H128.68ZM161.2,127h-27V181.2h27Zm-30-46.32-6.74-55H111.63l-6.74,55Zm-2.42-68.23H107.41V20h21.38Zm38.73,0H146.11V20h21.41Z"/><path class="cls-2" d="M23.43,134.11c.24-23.54,19-42.23,42.12-42,22.95.2,41.59,19.37,41.31,42.47-.29,23.45-19.14,42.29-42,42A42.11,42.11,0,0,1,23.43,134.11Zm78.06.18c0-20.33-16.22-36.8-36.25-36.84S28.81,113.92,28.8,134.3s16.45,37,36.44,36.9S101.51,154.56,101.49,134.29Z"/><path class="cls-2" d="M48.06,154.7c-.77.87-1.46,1.78-2.29,2.55a2.65,2.65,0,0,1-3.72-3.78,24.32,24.32,0,0,1,2.13-1.91c-1-3.16-2.23-5.8-2.63-8.56-1.16-8.2,1.51-15.16,7.73-20.66,7-6.19,15.42-9.37,24.51-10.82A98.51,98.51,0,0,1,85,110.58c2.84-.12,3.76.9,3.73,3.76-.14,11.16-2.33,21.77-8.47,31.31-4.22,6.56-9.83,11.09-17.82,12.2C57.81,158.48,53.69,157.71,48.06,154.7ZM62,141c.38.23.52.38.68.41,3.93.65,7.85,1.3,11.79,1.89a1.43,1.43,0,0,0,1.19-.43c1.19-2,2.29-4,3.53-6.17-3.58-.57-6.73-1.12-9.91-1.54a2.62,2.62,0,0,0-1.86.61C65.6,137.36,63.89,139.1,62,141ZM58,137.35c2.13-2.11,4.1-4,6.06-6a.86.86,0,0,0,.22-.64c-.54-3.43-1.11-6.85-1.72-10.59-2.19,1.24-4.11,2.27-6,3.41a1.56,1.56,0,0,0-.61,1.26C56.63,128.9,57.32,133,58,137.35ZM71,148.15c-4.49-.71-8.71-1.39-12.95-2a1.58,1.58,0,0,0-1.15.17c-1.54,1.44-3,2.95-4.55,4.48C57.68,154,66.93,152.67,71,148.15ZM51.11,128.4c-3.91,3-6.4,13.65-2.42,18.55,1.37-1.43,2.76-2.83,4.08-4.28a1.74,1.74,0,0,0,.46-1.23C52.56,137.12,51.84,132.8,51.11,128.4ZM81,131.53l2.17-11.07-9.84,9.8ZM79,116l-11.2,2.22L69,126Z"/><path class="cls-1" d="M168.56,68.71q.72,5.91,1.42,11.84H143.72c2.26-18.43,4.49-36.69,6.73-54.93h12.83c.17,1.44.32,2.74.48,4,.24,2,.44,3.92.73,5.86a2.21,2.21,0,0,0,.11.8A2.55,2.55,0,0,0,167.25,38c.27,0,2.75-.31,2.5-3.37-.06-.71.73,5.63.75,5.81s.74,6.32.66,5.69c-.37-2.94-2.69-2.9-3-2.87-1.64.13-2.45,2.15-2.32,3.18C166.83,54.37,168,64.49,168.56,68.71Z"/><rect class="cls-1" x="146.19" y="12.38" width="21.41" height="7.58"/><rect class="cls-1" x="107.49" y="12.41" width="21.38" height="7.58"/><path class="cls-1" d="M105,80.63l6.74-55h12.84c2.24,18.35,4.48,36.6,6.73,55Z"/><rect class="cls-1" x="134.28" y="126.96" width="27" height="54.23"/></svg>