<svg id="Capa_1" data-name="Capa 1" xmlns="http://www.w3.org/2000/svg" viewBox="0 0 190 190"><defs><style>.cls-1{fill:#fff;stroke:#fff;stroke-miterlimit:10;stroke-width:1.8px;}.cls-2{fill:#009839;}</style></defs><title>Iconos_Web</title><path class="cls-1" d="M129.3,127.76a33.58,33.58,0,0,0-66.85,0H10.73V12.37H181V127.76ZM41.2,58v5.93H150.57V58Zm91.09-18.23H59.45v5.85h72.83Zm-109.48,67H16.7c0,4.06-.07,8,0,11.89,0,2.09,1.31,3.16,3.5,3.19,2.91,0,5.82,0,8.72,0h2.91v-6.1H22.8Zm146.14,0v9.08h-9v6c4.09,0,8.07.06,12,0,2,0,3-1.3,3.1-3.41.06-1.72,0-3.44,0-5.16,0-2.17,0-4.33,0-6.52ZM16.7,33.42h6.16v-9.1h9V18.39c-4.24,0-8.37-.09-12.51,0-1.72.06-2.6,1.42-2.63,3.07C16.65,25.41,16.7,29.32,16.7,33.42Zm143.12-9H169v9h6c0-4.06.06-8,0-11.88a3,3,0,0,0-3.32-3.17c-2.85-.05-5.69,0-8.54,0h-3.33Z"/><path class="cls-1" d="M95.93,103.58a27.35,27.35,0,1,1-27.49,27.22A27.44,27.44,0,0,1,95.93,103.58Zm-.11,48.65a21.28,21.28,0,1,0-21.28-21.37A21.32,21.32,0,0,0,95.83,152.23Z"/><path class="cls-1" d="M77.44,176.61c-1.65-3.78-3.41-7.27-4.69-10.94-1.2-3.45-3.2-5.31-6.9-5.87C62,159.22,58.24,158,54.12,157l10.89-13c4.76,10.2,12.43,16.68,23.33,19.54Z"/><path class="cls-1" d="M114.14,176.41l-10.72-12.76c10.78-2.92,18.53-9.29,23.29-19.6l10.9,13L127,159.6c-6.67,1.6-5.55.71-8.27,6.88-1.41,3.2-2.81,6.42-4.22,9.62C114.45,176.2,114.33,176.25,114.14,176.41Z"/><path class="cls-1" d="M95.89,146.12a15.18,15.18,0,1,1,15.19-15.19A15.25,15.25,0,0,1,95.89,146.12Z"/><path class="cls-2" d="M182.28,5.65H8.74c-3.68,0-4.54.85-4.54,4.48V128.92c0,3.68.85,4.54,4.48,4.54H62c.88,2.07.33,3.48-1,5-4.87,5.61-9.6,11.34-14.37,17-2.51,3-1.74,5.2,2.12,6.11,5.14,1.22,10.27,2.49,15.43,3.64a3.19,3.19,0,0,1,2.47,2.16c2,4.88,4.18,9.71,6.29,14.55,1.58,3.59,3.86,3.9,6.41.87q6-7.11,11.92-14.21c1.33-1.58,2.67-3.15,4.19-4.94.61.7,1,1.13,1.39,1.58q7.4,8.8,14.79,17.62c2.53,3,4.8,2.65,6.39-1,2.09-4.78,4.23-9.55,6.21-14.38a3.5,3.5,0,0,1,2.76-2.32c5.16-1.15,10.29-2.4,15.43-3.63,3.57-.86,4.31-3.1,2-6l-.69-.82c-4.62-5.51-9.19-11.07-13.91-16.49a4.12,4.12,0,0,1-.82-4.82h53.22c3.78,0,4.61-.82,4.61-4.59V10.26C186.87,6.47,186.05,5.65,182.28,5.65ZM77.1,176.09c-1.64-3.78-3.41-7.27-4.69-10.93-1.2-3.45-3.2-5.31-6.9-5.87s-7.6-1.76-11.72-2.76l10.89-13c4.76,10.2,12.43,16.68,23.33,19.54Zm18.28-18.32A27.35,27.35,0,1,1,123,130.42,27.57,27.57,0,0,1,95.38,157.77Zm41.9-1.26c-3.7.9-7.17,1.75-10.64,2.58-6.67,1.6-5.55.71-8.27,6.88q-2.11,4.82-4.22,9.62c0,.09-.16.15-.34.31l-10.73-12.76c10.78-2.91,18.53-9.29,23.3-19.6Zm43.37-29.27H129a33.58,33.58,0,0,0-66.85,0H10.39V11.85H180.65Z"/><path class="cls-2" d="M95.67,109.16a21.28,21.28,0,1,0,21.19,21.28A21.34,21.34,0,0,0,95.67,109.16Zm-.11,36.45a15.19,15.19,0,1,1,15.19-15.19A15.25,15.25,0,0,1,95.56,145.61Z"/><path class="cls-2" d="M40.86,57.49H150.24v5.93H40.86Z"/><path class="cls-2" d="M132,39.26v5.85H59.12V39.26Z"/><path class="cls-2" d="M22.47,106.22v9h9.05v6.1H28.62c-2.91,0-5.82,0-8.72,0-2.19,0-3.45-1.1-3.5-3.19-.09-3.91,0-7.83,0-11.89Z"/><path class="cls-2" d="M168.61,106.18h6.1c0,2.19,0,4.36,0,6.52,0,1.72,0,3.44,0,5.16-.07,2.11-1.14,3.37-3.1,3.41-4,.08-7.94,0-12,0v-6h9Z"/><path class="cls-2" d="M16.37,32.91c0-4.09,0-8,0-11.92,0-1.65.91-3,2.63-3.07,4.13-.14,8.27,0,12.51,0V23.8h-9v9.1Z"/><path class="cls-2" d="M159.49,23.91V17.82h3.33c2.85,0,5.7,0,8.54,0A3,3,0,0,1,174.68,21c.09,3.91,0,7.82,0,11.88h-6v-9Z"/><path class="cls-2" d="M95.49,151.72a21.28,21.28,0,1,1,21.37-21.27A21.36,21.36,0,0,1,95.49,151.72Zm.07-6.11a15.18,15.18,0,1,0-15.24-15.14A15.26,15.26,0,0,0,95.56,145.61Z"/></svg>