<?xml version="1.0" encoding="UTF-8" standalone="no"?>
<!-- Created with Inkscape (http://www.inkscape.org/) -->

<svg
   version="1.1"
   id="svg2"
   width="1066.6665"
   height="1066.6667"
   viewBox="0 0 1066.6665 1066.6667"
   sodipodi:docname="ICONOS DE PRODUCTOS.svg"
   inkscape:version="1.2 (dc2aedaf03, 2022-05-15)"
   xmlns:inkscape="http://www.inkscape.org/namespaces/inkscape"
   xmlns:sodipodi="http://sodipodi.sourceforge.net/DTD/sodipodi-0.dtd"
   xmlns="http://www.w3.org/2000/svg"
   xmlns:svg="http://www.w3.org/2000/svg">
  <defs
     id="defs6">
    <clipPath
       clipPathUnits="userSpaceOnUse"
       id="clipPath286">
      <path
         d="M 0,800 H 800 V 0 H 0 Z"
         id="path284" />
    </clipPath>
  </defs>
  <sodipodi:namedview
     id="namedview4"
     pagecolor="#ffffff"
     bordercolor="#000000"
     borderopacity="0.25"
     inkscape:showpageshadow="2"
     inkscape:pageopacity="0.0"
     inkscape:pagecheckerboard="0"
     inkscape:deskcolor="#d1d1d1"
     showgrid="false"
     inkscape:lockguides="true"
     inkscape:zoom="0.55485779"
     inkscape:cx="9708.7941"
     inkscape:cy="427.13648"
     inkscape:window-width="1920"
     inkscape:window-height="1017"
     inkscape:window-x="-8"
     inkscape:window-y="-8"
     inkscape:window-maximized="1"
     inkscape:current-layer="g434" />
  <g
     id="g278"
     inkscape:groupmode="layer"
     inkscape:label="Page 6"
     transform="matrix(1.3333333,0,0,-1.3333333,-4.4083252e-4,1066.6667)"
     style="display:inline">
    <g
       id="g280"
       style="stroke:#1d8e2b;stroke-opacity:1">
      <g
         id="g282"
         clip-path="url(#clipPath286)"
         style="stroke:#1d8e2b;stroke-opacity:1">
        <g
           id="g288"
           transform="translate(400,640.3346)"
           style="stroke:#1d8e2b;stroke-opacity:1">
          <path
             d="M 0,0 C 186.934,-1.942 337.757,-126.007 336.843,-277.125 335.929,-428.243 183.679,-549.226 -3.255,-547.292"
             style="fill:none;stroke:#1d8e2b;stroke-width:4;stroke-linecap:round;stroke-linejoin:round;stroke-miterlimit:10;stroke-dasharray:none;stroke-opacity:1"
             id="path290" />
        </g>
        <g
           id="g292"
           transform="translate(396.7446,93.0421)"
           style="stroke:#1d8e2b;stroke-opacity:1">
          <path
             d="m 0,0 c -186.935,1.915 -337.736,125.989 -336.843,277.098 0.893,151.109 153.171,272.101 340.098,270.194"
             style="fill:none;stroke:#1d8e2b;stroke-width:4;stroke-linecap:butt;stroke-linejoin:miter;stroke-miterlimit:10;stroke-dasharray:none;stroke-opacity:1"
             id="path294" />
        </g>
        <g
           id="g296"
           transform="translate(399.8169,621.4772)"
           style="stroke:#1d8e2b;stroke-opacity:1">
          <path
             d="M 0,0 C 164.104,-1.692 296.542,-105.947 295.768,-232.863 294.995,-359.779 161.362,-461.263 -2.721,-459.58"
             style="fill:none;stroke:#1d8e2b;stroke-width:4;stroke-linecap:butt;stroke-linejoin:round;stroke-miterlimit:10;stroke-dasharray:none;stroke-opacity:1"
             id="path298" />
        </g>
        <g
           id="g300"
           transform="translate(397.0962,161.8976)"
           style="stroke:#1d8e2b;stroke-opacity:1">
          <path
             d="m 0,0 c -164.083,1.684 -296.527,105.93 -295.782,232.8 0.745,126.872 134.412,228.445 298.503,226.78"
             style="fill:none;stroke:#1d8e2b;stroke-width:4;stroke-linecap:butt;stroke-linejoin:round;stroke-miterlimit:10;stroke-dasharray:none;stroke-opacity:1"
             id="path302" />
        </g>
        <g
           id="g304"
           transform="translate(398.3545,161.9064)"
           style="stroke:#1d8e2b;stroke-opacity:1">
          <path
             d="M 0,0 C -160.308,1.657 -289.679,100.585 -288.976,220.98 -288.272,341.375 -157.713,437.667 2.595,435.992 162.902,434.317 292.245,335.407 291.528,214.977 290.811,94.546 160.272,-1.63 0,0"
             style="fill:none;stroke:#1d8e2b;stroke-width:4;stroke-linecap:round;stroke-linejoin:round;stroke-miterlimit:10;stroke-dasharray:none;stroke-opacity:1"
             id="path306" />
        </g>
      </g>
    </g>
  </g>
</svg>
