<svg width="485" height="394" viewBox="0 0 485 394" fill="none" xmlns="http://www.w3.org/2000/svg">
<path d="M243.851 4.01537C375.683 5.38493 482.049 92.8797 481.404 199.453C480.76 306.027 373.388 391.348 241.556 389.984" stroke="#1D8E2B" stroke-width="7" stroke-miterlimit="10" stroke-linecap="round" stroke-linejoin="round"/>
<path d="M241.556 389.984C109.723 388.634 3.37301 301.133 4.00278 194.565C4.63256 87.9984 112.024 2.67079 243.851 4.01567" stroke="#1D8E2B" stroke-width="7" stroke-miterlimit="10"/>
<path d="M243.722 17.3144C359.454 18.5076 452.854 92.0317 452.308 181.537C451.763 271.042 357.52 342.612 241.803 341.425" stroke="#1D8E2B" stroke-width="7" stroke-miterlimit="10" stroke-linejoin="round"/>
<path d="M241.804 341.425C126.087 340.237 32.6829 266.72 33.2083 177.247C33.7337 87.7724 128 16.1398 243.723 17.314" stroke="#1D8E2B" stroke-width="7" stroke-miterlimit="10" stroke-linejoin="round"/>
<path d="M242.691 341.419C129.636 340.25 38.3997 270.483 38.8955 185.576C39.392 100.67 131.467 32.7615 244.521 33.9428C357.575 35.1241 448.792 104.879 448.286 189.81C447.781 274.742 355.72 342.568 242.691 341.419Z" stroke="#1D8E2B" stroke-width="7" stroke-miterlimit="10" stroke-linecap="round" stroke-linejoin="round"/>
</svg>
