<svg width="480" height="394" viewBox="0 0 480 394" fill="none" xmlns="http://www.w3.org/2000/svg">
<path d="M237.497 251.833C315.3 251.833 378.371 280.194 378.371 315.178C378.371 350.164 315.3 378.524 237.497 378.524C159.695 378.524 96.6238 350.164 96.6238 315.178C96.6238 280.194 159.695 251.833 237.497 251.833Z" stroke="#1D8E2B" stroke-width="7" stroke-miterlimit="10"/>
<path d="M33.905 102.98C53.5755 69.5585 138.78 39.626 236.531 39.626C342.703 39.626 430.495 70.3964 439.874 108.115" stroke="#1D8E2B" stroke-width="7" stroke-miterlimit="10" stroke-linejoin="round"/>
<path d="M475.817 89.5154C475.817 136.737 370.197 175.07 239.909 175.07C109.62 175.07 4 136.737 4 89.5154C4 42.2934 109.62 4.00005 239.909 4.00005C370.197 4.00005 475.817 42.2852 475.817 89.5154Z" stroke="#1D8E2B" stroke-width="7" stroke-miterlimit="10" stroke-linejoin="round"/>
<path d="M460.372 87.7346C460.372 130.061 361.186 162.005 239.467 162.005C117.748 162.005 19.482 130.061 19.482 87.7745C19.482 45.4881 118.143 11.1234 239.909 11.1234C361.674 11.1234 460.372 45.4244 460.372 87.7346Z" stroke="#1D8E2B" stroke-width="7" stroke-miterlimit="10"/>
<path d="M438.512 135.18C438.512 135.18 400.553 320.984 391.57 331.55M40.017 134.781C40.017 134.781 77.1658 327.19 81.6666 332.996M393.318 320.522C393.318 358.894 322.905 390 236.043 390C149.181 390 78.7494 358.894 78.7494 320.522C78.7494 282.149 149.162 251.042 236.015 251.042C322.868 251.042 393.318 282.156 393.318 320.522V320.522Z" stroke="#1D8E2B" stroke-width="7" stroke-miterlimit="10" stroke-linejoin="round"/>
</svg>
