<svg id="Capa_1" data-name="Capa 1" xmlns="http://www.w3.org/2000/svg" viewBox="0 0 190 190"><defs><style>.cls-1{fill:#009839;}.cls-2{fill:#fff;}</style></defs><title>Iconos_Web</title><path class="cls-1" d="M184,61.55c-.88,2.22-1.42,4.67-2.71,6.62-2.75,4.15-7,5.83-11.88,5.83H133.44c0,3.47,0,6.8,0,10.12-.06,4.66-2.76,8-7,8.76a16.66,16.66,0,0,1-2.76.14Q91,93,58.32,93A4.1,4.1,0,0,0,55,94.39c-3.59,3.8-7.25,7.54-10.91,11.27a6.43,6.43,0,0,1-1.91,1.45c-2.36,1-4.66-.67-4.75-3.52s0-5.65,0-8.47c0-.62,0-1.25,0-2.1-1.14,0-2.16,0-3.18,0-5.12-.09-8.64-3.5-8.65-8.58q-.06-27.75,0-55.5c0-5.19,3.62-8.53,9-8.54q27.58,0,55.15,0h1.74c.65-2.71.92-5.34,1.92-7.66,1.79-4.17,5.23-6.6,9.66-7.6.33-.07.65-.2,1-.3h67.78c3.73.87,7.22,2.31,9.29,5.69,1.26,2.06,1.9,4.49,2.81,6.76Zm-46,5.53h30.95c5.26,0,8.14-2.83,8.14-8.06q0-19.62,0-39.25c0-5.18-2.86-8-8-8H107c-5.15,0-8,2.86-8.05,8q0,19.71,0,39.42c0,5,2.94,7.92,7.93,7.93ZM44.34,94.71l.41.24c2.26-2.27,4.57-4.5,6.76-6.84a6.21,6.21,0,0,1,4.9-2q33.45.07,66.9,0c.52,0,1.13.17,1.53,0,.62-.33,1.56-.9,1.58-1.41.14-3.49.07-7,.07-10.65h-2c-5.94,0-11.87.13-17.8-.07a18.15,18.15,0,0,1-6.83-1.45C94.25,69.93,92,65.08,92,59.18c-.06-10,0-19.94,0-29.91V27.5a2.91,2.91,0,0,0-.53-.16l-57,0c-1.43,0-1.92.71-1.91,2,0,3.05,0,6.11,0,9.16q0,22.47,0,44.95c0,2.45.19,2.63,2.69,2.64,1.84,0,3.69-.05,5.53,0a3.41,3.41,0,0,1,3.6,3.59C44.39,91.38,44.34,93,44.34,94.71Z"/><path class="cls-1" d="M50.12,162.53c0,6,0,11.92,0,17.8,0,4-1.05,5-5,5H34c-4,0-5-1-5-5.06q0-8.73,0-17.46v-1.89c-1.86-.15-3.58-.19-5.27-.44-11.31-1.67-18.85-13.21-16.41-24.41a20.23,20.23,0,0,1,20.05-15.74c5.36.07,10.72-.1,16.08,0,3.66.1,6.56-1.86,9.75-3.06.57-.21,1.05-.65,1.62-.88,12.8-5.17,25.62-10.31,38.41-15.5,3.65-1.48,7.22-3.18,10.86-4.7,4.18-1.74,6.15-.4,6.15,4.08q0,11.33,0,22.65v2a17.1,17.1,0,0,1,8.05,4.8,16.2,16.2,0,0,1,.33,20.93,14.52,14.52,0,0,1-7.38,5c-1.12.3-1,1-1,1.84q0,11.58,0,23.17c0,4-2.06,5.42-5.81,3.91q-18.58-7.45-37.15-14.94c-5.2-2.11-10.34-4.37-15.51-6.56C51.33,163,50.79,162.78,50.12,162.53Zm53.16,14.19V104.4c-2.38,1-4.59,1.94-6.85,2.73a2.1,2.1,0,0,0-1.63,2.37c.06,11.47,0,22.93,0,34.4a16.9,16.9,0,0,1-.07,2.07,3.41,3.41,0,0,1-3.23,3,3.35,3.35,0,0,1-3.38-2.63,11.15,11.15,0,0,1-.22-2.39q0-15.56,0-31.11v-2.22c-.71.26-1.25.44-1.77.66-5.38,2.28-10.74,4.6-16.14,6.83-6.17,2.54-12.37,5-18.57,7.46a1.72,1.72,0,0,0-1.34,1.85q.08,13.14,0,26.27a1.59,1.59,0,0,0,1.19,1.78c2.42.91,4.82,1.89,7.21,2.88,9.06,3.75,18.11,7.54,27.19,11.27C91.47,172,97.3,174.32,103.28,176.72ZM43.14,127.33c-5.82,0-11.47-.23-17.09.07-5.31.28-9.08,3.08-11.19,8.12-3.61,8.64,3.19,18.09,11.44,18.29,5.47.14,10.94,0,16.42,0,.15,0,.29-.15.42-.22Zm-.05,51.06V160.94h-7v17.45Zm67.33-45.87v15.76a8.23,8.23,0,0,0,5.09-7.77C115.49,137.19,113.24,133.62,110.41,132.52Z"/><path class="cls-1" d="M145.76,137.24c3,0,6.1,0,9.15,0,2.38,0,3.8,1.25,3.89,3.25s-1.32,3.6-3.72,3.62q-9.4.11-18.81,0c-2.37,0-3.88-1.53-3.83-3.55s1.54-3.32,4-3.34C139.55,137.22,142.66,137.24,145.76,137.24Z"/><path class="cls-1" d="M137.44,171.22a12.86,12.86,0,0,1-2.79-1.54c-2.28-2.25-4.47-4.6-6.65-6.95a3.51,3.51,0,0,1-.41-4.82,3.29,3.29,0,0,1,4.9-.34c2.48,2.31,4.86,4.74,7.2,7.19A3.26,3.26,0,0,1,140,169,12.46,12.46,0,0,1,137.44,171.22Z"/><path class="cls-1" d="M137.28,109.87c.9.74,2.15,1.3,2.56,2.22a3.86,3.86,0,0,1-.16,3.33,96.06,96.06,0,0,1-7.53,8,3.12,3.12,0,0,1-4.38-.28,3.23,3.23,0,0,1-.3-4.4c2.3-2.63,4.73-5.15,7.19-7.62A9.91,9.91,0,0,1,137.28,109.87Z"/><path class="cls-2" d="M138,67.09H106.84c-5,0-7.92-2.91-7.93-7.93q0-19.71,0-39.42c0-5.12,2.91-8,8.05-8H169c5.16,0,8,2.84,8,8q0,19.62,0,39.25c0,5.23-2.88,8.06-8.14,8.06ZM123.05,39.28c0,4.55-.06,9.11,0,13.66a5.22,5.22,0,0,0,1.07,2.95c1.06,1.32,2.79,1.29,4.72.15q10-5.91,20-11.87c.89-.53,1.8-1,2.68-1.57,2.75-1.72,2.73-4.63,0-6.35-3.36-2.08-6.71-4.17-10.11-6.18q-6.32-3.74-12.71-7.34c-3-1.7-5.61-.19-5.64,3.25C123,30.4,123.05,34.84,123.05,39.28Z"/><path class="cls-2" d="M44.34,94.71c0-1.66.05-3.33,0-5a3.41,3.41,0,0,0-3.6-3.59c-1.84-.07-3.69,0-5.53,0-2.49,0-2.68-.19-2.69-2.64q0-22.47,0-44.95c0-3.05,0-6.11,0-9.16,0-1.34.48-2,1.91-2l57,0a2.91,2.91,0,0,1,.53.16v1.77c0,10,0,19.94,0,29.91,0,5.91,2.25,10.75,7.83,13.32a18.15,18.15,0,0,0,6.83,1.45c5.93.2,11.87.07,17.8.07h2c0,3.66.06,7.16-.07,10.65,0,.5-1,1.08-1.58,1.41-.41.21-1,0-1.53,0q-33.45,0-66.9,0a6.21,6.21,0,0,0-4.9,2c-2.2,2.33-4.5,4.56-6.76,6.84Zm19.39-45.6H76.35c1.56,0,3.11.05,4.67,0a3.73,3.73,0,0,0,3.46-3.78,3.41,3.41,0,0,0-3.39-3.44c-.51,0-1,0-1.56,0H54.47c-2.54,0-5.07,0-7.61,0a3.45,3.45,0,0,0-3.39,2,3.68,3.68,0,0,0,.44,3.74,3.49,3.49,0,0,0,3.39,1.55ZM57.33,68.82c3.34,0,6.68,0,10,0,2.62,0,4.16-1.33,4.21-3.55s-1.53-3.7-4.22-3.7q-10,0-20,0c-2.67,0-4.13,1.27-4.17,3.55s1.43,3.69,4.19,3.7C50.65,68.83,54,68.82,57.33,68.82ZM77.7,65.18a3.4,3.4,0,1,0,3.4-3.6A3.46,3.46,0,0,0,77.7,65.18Z"/><path class="cls-2" d="M103.28,176.72c-6-2.4-11.81-4.69-17.6-7.07-9.07-3.73-18.12-7.52-27.19-11.27-2.39-1-4.79-2-7.21-2.88a1.59,1.59,0,0,1-1.19-1.78q.06-13.14,0-26.27a1.72,1.72,0,0,1,1.34-1.85c6.2-2.46,12.4-4.92,18.57-7.46,5.4-2.22,10.76-4.55,16.14-6.83.52-.22,1.06-.4,1.77-.66v2.22q0,15.56,0,31.11a11.15,11.15,0,0,0,.22,2.39A3.35,3.35,0,0,0,91.53,149a3.41,3.41,0,0,0,3.23-3,16.9,16.9,0,0,0,.07-2.07c0-11.47,0-22.93,0-34.4a2.1,2.1,0,0,1,1.63-2.37c2.27-.8,4.47-1.77,6.85-2.73Zm-8.49-16.67a3.42,3.42,0,0,0-3.4-3.41A3.47,3.47,0,0,0,88,160.07a3.53,3.53,0,0,0,3.43,3.43A3.47,3.47,0,0,0,94.79,160.05Z"/><path class="cls-2" d="M43.14,127.33v26.28c-.13.07-.28.22-.42.22-5.47,0-10.95.12-16.42,0-8.25-.21-15.05-9.66-11.44-18.29,2.11-5,5.88-7.84,11.19-8.12C31.67,127.1,37.32,127.33,43.14,127.33Z"/><path class="cls-2" d="M43.08,178.39h-7V160.94h7Z"/><path class="cls-2" d="M110.41,132.52c2.83,1.1,5.07,4.67,5.09,8a8.23,8.23,0,0,1-5.09,7.77Z"/><path class="cls-1" d="M123.05,39.28c0-4.44,0-8.87,0-13.31,0-3.45,2.63-5,5.64-3.25q6.39,3.62,12.71,7.34c3.4,2,6.75,4.1,10.11,6.18,2.78,1.72,2.8,4.63,0,6.35-.88.55-1.79,1-2.68,1.57q-10,5.94-20,11.87c-1.93,1.14-3.66,1.17-4.72-.15a5.22,5.22,0,0,1-1.07-2.95C123,48.38,123.05,43.83,123.05,39.28ZM130,47l13.18-7.62L130,31.81Z"/><path class="cls-1" d="M63.73,49.11H47.3a3.49,3.49,0,0,1-3.39-1.55,3.68,3.68,0,0,1-.44-3.74,3.45,3.45,0,0,1,3.39-2c2.54,0,5.07,0,7.61,0H79.53c.52,0,1,0,1.56,0a3.41,3.41,0,0,1,3.39,3.44A3.73,3.73,0,0,1,81,49.08c-1.55.08-3.11,0-4.67,0Z"/><path class="cls-1" d="M57.33,68.82c-3.34,0-6.68,0-10,0-2.75,0-4.23-1.34-4.19-3.7s1.49-3.54,4.17-3.55q10,0,20,0c2.69,0,4.27,1.42,4.22,3.7S70,68.8,67.35,68.81C64,68.83,60.67,68.82,57.33,68.82Z"/><path class="cls-1" d="M77.7,65.18a3.4,3.4,0,1,1,3.39,3.62A3.46,3.46,0,0,1,77.7,65.18Z"/><path class="cls-1" d="M94.79,160.05a3.47,3.47,0,0,1-3.38,3.45A3.53,3.53,0,0,1,88,160.07a3.47,3.47,0,0,1,3.41-3.43A3.42,3.42,0,0,1,94.79,160.05Z"/><path class="cls-2" d="M130,47V31.81l13.18,7.61Z"/></svg>