<?xml version="1.0" encoding="UTF-8" standalone="no"?>
<!-- Created with Inkscape (http://www.inkscape.org/) -->

<svg
   version="1.1"
   id="svg2"
   width="1066.6665"
   height="1066.6667"
   viewBox="0 0 1066.6665 1066.6667"
   sodipodi:docname="ICONOS DE PRODUCTOS.svg"
   inkscape:version="1.2 (dc2aedaf03, 2022-05-15)"
   xmlns:inkscape="http://www.inkscape.org/namespaces/inkscape"
   xmlns:sodipodi="http://sodipodi.sourceforge.net/DTD/sodipodi-0.dtd"
   xmlns="http://www.w3.org/2000/svg"
   xmlns:svg="http://www.w3.org/2000/svg">
  <defs
     id="defs6">
    <clipPath
       clipPathUnits="userSpaceOnUse"
       id="clipPath354">
      <path
         d="M 0,800 H 800 V 0 H 0 Z"
         id="path352" />
    </clipPath>
    <clipPath
       clipPathUnits="userSpaceOnUse"
       id="clipPath378">
      <path
         d="m 324.809,623.555 c -13.985,-6.532 -26.378,-3.042 -26.378,-3.042 v 0 L 529.455,85.893 c 24.567,-0.622 45.751,20.064 45.751,20.064 v 0 L 344.394,641.752 c 0,0 -5.599,-11.665 -19.585,-18.197"
         id="path376" />
    </clipPath>
    <clipPath
       clipPathUnits="userSpaceOnUse"
       id="clipPath390">
      <path
         d="M 0,800 H 800 V 0 H 0 Z"
         id="path388" />
    </clipPath>
  </defs>
  <sodipodi:namedview
     id="namedview4"
     pagecolor="#ffffff"
     bordercolor="#000000"
     borderopacity="0.25"
     inkscape:showpageshadow="2"
     inkscape:pageopacity="0.0"
     inkscape:pagecheckerboard="0"
     inkscape:deskcolor="#d1d1d1"
     showgrid="false"
     inkscape:lockguides="true"
     inkscape:zoom="0.55485779"
     inkscape:cx="6345.7701"
     inkscape:cy="428.93874"
     inkscape:window-width="1920"
     inkscape:window-height="1009"
     inkscape:window-x="-8"
     inkscape:window-y="-8"
     inkscape:window-maximized="1"
     inkscape:current-layer="g314" />
  <g
     id="g342"
     inkscape:groupmode="layer"
     inkscape:label="Page 8"
     transform="matrix(1.3333333,0,0,-1.3333333,-1.4654051e-4,1066.6667)"
     style="display:inline">
    <g
       id="g6991"
       transform="translate(-2.7033955)">
      <g
         id="g348"
         style="stroke:#1d8e2b;stroke-opacity:1">
        <g
           id="g350"
           clip-path="url(#clipPath354)"
           style="stroke:#1d8e2b;stroke-opacity:1">
          <g
             id="g356"
             transform="translate(343.4175,644.005)"
             style="stroke:#1d8e2b;stroke-opacity:1">
            <path
               d="m 0,0 230.812,-535.795 c 0,0 -21.153,-20.68 -45.752,-20.058 L -45.97,-21.24"
               style="fill:none;stroke:#1d8e2b;stroke-width:0.273;stroke-linecap:butt;stroke-linejoin:round;stroke-miterlimit:10;stroke-dasharray:none;stroke-opacity:1"
               id="path358" />
          </g>
          <g
             id="g360"
             transform="translate(297.9951,621.3029)"
             style="stroke:#1d8e2b;stroke-opacity:1">
            <path
               d="m 0,0 c -2.152,4.878 6.539,13.476 19.392,19.187 12.854,5.711 25.053,6.377 27.212,1.499 C 48.763,15.809 40.078,7.217 27.212,1.506 14.347,-4.206 2.159,-4.884 0,0 Z"
               style="fill:none;stroke:#1d8e2b;stroke-width:4;stroke-linecap:butt;stroke-linejoin:round;stroke-miterlimit:10;stroke-dasharray:none;stroke-opacity:1"
               id="path362" />
          </g>
          <g
             id="g364"
             transform="translate(471.4404,658.1954)"
             style="stroke:#1d8e2b;stroke-opacity:1">
            <path
               d="m 0,0 -1.599,-586.841 c 0,0 -27.505,-9.836 -49.659,1.189 l 0.933,585.851"
               style="fill:none;stroke:#1d8e2b;stroke-width:4;stroke-linecap:round;stroke-linejoin:round;stroke-miterlimit:10;stroke-dasharray:none;stroke-opacity:1"
               id="path366" />
          </g>
          <g
             id="g368"
             transform="translate(421.041,656.8331)"
             style="stroke:#1d8e2b;stroke-opacity:1">
            <path
               d="M 0,0 C -0.037,5.363 11.292,9.5 25.271,9.239 39.25,8.978 50.642,4.386 50.679,-1.008 50.717,-6.402 39.394,-10.483 25.383,-10.215 11.373,-9.948 0.031,-5.363 0,0 Z"
               style="fill:none;stroke:#1d8e2b;stroke-width:4;stroke-linecap:round;stroke-linejoin:round;stroke-miterlimit:10;stroke-dasharray:none;stroke-opacity:1"
               id="path370" />
          </g>
        </g>
      </g>
      <g
         id="g372"
         style="stroke:#1d8e2b;stroke-opacity:1">
        <g
           id="g374"
           clip-path="url(#clipPath378)"
           style="stroke:#1d8e2b;stroke-opacity:1">
          <g
             id="g380"
             transform="translate(644.854,89.8634)"
             style="stroke:#1d8e2b;stroke-opacity:1">
            <path
               d="m 0,0 -227.085,26.49 22.894,33.776 227.086,-26.491 z m -31.007,71.452 -227.092,26.49 22.895,33.77 227.092,-26.49 z m -31.014,71.445 -227.091,26.492 22.894,33.775 227.092,-26.49 z m -155.061,357.243 -227.091,26.49 22.895,33.776 227.091,-26.49 z m 31.008,-71.446 -227.086,26.491 22.895,33.769 227.092,-26.484 z m 31.013,-71.452 -227.085,26.49 22.895,33.776 227.085,-26.49 z m 31.014,-71.446 -227.092,26.491 22.901,33.775 227.085,-26.49 z m 31.013,-71.446 -227.091,26.491 22.894,33.769 227.092,-26.491 z"
               style="fill:none;stroke:#1d8e2b;stroke-width:4;stroke-linecap:round;stroke-linejoin:round;stroke-miterlimit:10;stroke-dasharray:none;stroke-opacity:1"
               id="path382" />
          </g>
        </g>
      </g>
      <g
         id="g384"
         style="stroke:#1d8e2b;stroke-opacity:1">
        <g
           id="g386"
           clip-path="url(#clipPath390)"
           style="stroke:#1d8e2b;stroke-opacity:1">
          <g
             id="g392"
             transform="translate(298.4307,620.5128)"
             style="stroke:#1d8e2b;stroke-opacity:1">
            <path
               d="m 0,0 231.024,-534.619 c 24.568,-0.622 45.751,20.063 45.751,20.063 L 45.963,21.24 c 0,0 -5.599,-11.665 -19.585,-18.198 C 12.393,-3.49 0,0 0,0 Z"
               style="fill:none;stroke:#1d8e2b;stroke-width:4;stroke-linecap:round;stroke-linejoin:round;stroke-miterlimit:10;stroke-dasharray:none;stroke-opacity:1"
               id="path394" />
          </g>
        </g>
      </g>
    </g>
  </g>
</svg>
