<svg width="294" height="375" viewBox="0 0 294 375" fill="none" xmlns="http://www.w3.org/2000/svg">
<path d="M90.9634 16.6064L233.205 346.798C233.205 346.798 220.169 359.542 205.009 359.159L62.6337 29.6958" stroke="#1D8E2B" stroke-width="6" stroke-miterlimit="10" stroke-linejoin="round"/>
<path d="M62.9712 30.5969C61.645 27.5907 67.0009 22.2921 74.9218 18.7726C82.8432 15.2531 90.361 14.8427 91.6916 17.8488C93.0221 20.8543 87.6698 26.1493 79.741 29.6688C71.8127 33.1889 64.3017 33.6067 62.9712 30.5969Z" stroke="#1D8E2B" stroke-width="6" stroke-miterlimit="10" stroke-linejoin="round"/>
<path d="M169.859 7.86135L168.874 369.511C168.874 369.511 151.924 375.572 138.271 368.778L138.846 7.73869" stroke="#1D8E2B" stroke-width="6" stroke-miterlimit="10" stroke-linecap="round" stroke-linejoin="round"/>
<path d="M138.8 8.70086C138.777 5.39583 145.759 2.84635 154.374 3.00719C162.988 3.16804 170.009 5.99792 170.032 9.32206C170.055 12.6462 163.077 15.1612 154.443 14.996C145.809 14.8315 138.819 12.0059 138.8 8.70086Z" stroke="#1D8E2B" stroke-width="6" stroke-miterlimit="10" stroke-linecap="round" stroke-linejoin="round"/>
<path d="M276.728 358.104L136.784 341.779L150.892 320.964L290.837 337.29L276.728 358.104ZM257.62 314.071L117.671 297.746L131.78 276.935L271.729 293.26L257.62 314.071ZM238.507 270.042L98.5586 253.716L112.667 232.901L252.616 249.226L238.507 270.042ZM142.948 49.8856L3 33.5608L17.1094 12.7458L157.058 29.0707L142.948 49.8856ZM162.057 93.9153L22.1122 77.5898L36.2216 56.7792L176.17 73.1003L162.057 93.9153ZM181.169 137.949L41.225 121.624L55.3344 100.809L195.279 117.134L181.169 137.949ZM200.282 181.978L60.3336 165.653L74.4466 144.838L214.391 161.163L200.282 181.978ZM219.395 226.008L79.4464 209.682L93.5552 188.872L233.504 205.197L219.395 226.008Z" stroke="#1D8E2B" stroke-width="6" stroke-miterlimit="10" stroke-linecap="round" stroke-linejoin="round"/>
<path d="M63.2396 31.0837L205.612 360.551C220.752 360.934 233.806 348.186 233.806 348.186L91.565 17.9943C91.565 17.9943 88.1145 25.183 79.4954 29.2091C70.877 33.2345 63.2396 31.0837 63.2396 31.0837Z" stroke="#1D8E2B" stroke-width="6" stroke-miterlimit="10" stroke-linecap="round" stroke-linejoin="round"/>
</svg>
