<?xml version="1.0" encoding="UTF-8" standalone="no"?>
<!-- Created with Inkscape (http://www.inkscape.org/) -->

<svg
   version="1.1"
   id="svg2"
   width="1066.667"
   height="1066.6667"
   viewBox="0 0 1066.6669 1066.6667"
   sodipodi:docname="ICONOS DE PRODUCTOS.svg"
   inkscape:version="1.2 (dc2aedaf03, 2022-05-15)"
   xmlns:inkscape="http://www.inkscape.org/namespaces/inkscape"
   xmlns:sodipodi="http://sodipodi.sourceforge.net/DTD/sodipodi-0.dtd"
   xmlns="http://www.w3.org/2000/svg"
   xmlns:svg="http://www.w3.org/2000/svg">
  <defs
     id="defs6">
    <clipPath
       clipPathUnits="userSpaceOnUse"
       id="clipPath410">
      <path
         d="M 0,800 H 800 V 0 H 0 Z"
         id="path408" />
    </clipPath>
  </defs>
  <sodipodi:namedview
     id="namedview4"
     pagecolor="#ffffff"
     bordercolor="#000000"
     borderopacity="0.25"
     inkscape:showpageshadow="2"
     inkscape:pageopacity="0.0"
     inkscape:pagecheckerboard="0"
     inkscape:deskcolor="#d1d1d1"
     showgrid="false"
     inkscape:lockguides="true"
     inkscape:zoom="0.55485779"
     inkscape:cx="6345.7701"
     inkscape:cy="428.93874"
     inkscape:window-width="1920"
     inkscape:window-height="1009"
     inkscape:window-x="-8"
     inkscape:window-y="-8"
     inkscape:window-maximized="1"
     inkscape:current-layer="g314" />
  <g
     id="g398"
     inkscape:groupmode="layer"
     inkscape:label="Page 9"
     transform="matrix(1.3333333,0,0,-1.3333333,-9.9394505e-5,1066.6667)"
     style="display:inline">
    <g
       id="g404"
       style="stroke:#1d8e2b;stroke-opacity:1">
      <g
         id="g406"
         clip-path="url(#clipPath410)"
         style="stroke:#1d8e2b;stroke-opacity:1">
        <g
           id="g412"
           transform="translate(644.1523,553.8014)"
           style="stroke:#1d8e2b;stroke-opacity:1">
          <path
             d="m 0,0 c 0,-40.571 -112.532,-48.398 -254.076,-48.398 -141.543,0 -256.267,23.12 -256.267,51.62 0,28.499 114.751,50.078 256.267,51.606 C -105.328,56.439 0,22.567 0,0 Z"
             style="fill:none;stroke:#1d8e2b;stroke-width:4;stroke-linecap:round;stroke-linejoin:round;stroke-miterlimit:10;stroke-dasharray:none;stroke-opacity:1"
             id="path414" />
        </g>
        <g
           id="g416"
           transform="translate(625.8921,554.7345)"
           style="stroke:#1d8e2b;stroke-opacity:1">
          <path
             d="m 0,0 c 1.549,-24.31 -103.606,-42.867 -234.35,-42.867 -130.744,0 -236.742,19.498 -236.742,43.558 0,24.061 106.005,42.252 236.742,43.559 C -96.955,45.591 -1.21,18.779 0,0 Z"
             style="fill:none;stroke:#1d8e2b;stroke-width:4;stroke-linecap:round;stroke-linejoin:round;stroke-miterlimit:10;stroke-dasharray:none;stroke-opacity:1"
             id="path418" />
        </g>
        <g
           id="g420"
           transform="translate(573.8091,400.6149)"
           style="stroke:#1d8e2b;stroke-opacity:1">
          <path
             d="m 0,0 c 0,-20.929 -82.671,-37.896 -184.604,-37.896 -101.933,0 -184.604,16.967 -184.604,37.896 0,20.929 82.671,37.882 184.604,37.882 C -82.671,37.882 0,20.929 0,0 Z m -400.21,137.582 c 29.959,17.499 113.59,30.083 212.08,30.083 101.912,0 188.752,-13.767 215.848,-32.227"
             style="fill:none;stroke:#1d8e2b;stroke-width:4;stroke-linecap:round;stroke-linejoin:round;stroke-miterlimit:10;stroke-dasharray:none;stroke-opacity:1"
             id="path422" />
        </g>
        <g
           id="g424"
           transform="translate(156.8672,535.2579)"
           style="stroke:#1d8e2b;stroke-opacity:1">
          <path
             d="m 0,0 7.267,-19.359 3.885,-3.222 c 0,0 27.981,-114.475 36.513,-114.475 l 25.658,-230.596 c 0,0 4.667,-16.123 8.56,-16.932 l 0.767,-27.414 c 0,0 23.321,-44.347 170.25,-39.5 0,0 83.95,2.413 118.921,34.667 0,0 6.223,1.61 3.886,29.834 0,0 9.327,5.648 10.882,21.765 l 24.123,219.284 c 0,0 10.109,8.878 11.658,20.97 l 27.994,95.946 5.753,7.654 c 0,0 8.988,9.548 9.79,14.388"
             style="fill:none;stroke:#1d8e2b;stroke-width:4;stroke-linecap:round;stroke-linejoin:round;stroke-miterlimit:10;stroke-dasharray:none;stroke-opacity:1"
             id="path426" />
        </g>
        <g
           id="g428"
           transform="translate(612.9839,513.88)"
           style="stroke:#1d8e2b;stroke-opacity:1">
          <path
             d="m 0,0 c -25.955,-20.638 -116.681,-35.863 -224.587,-35.863 -101.761,0 -188.22,13.538 -219.52,32.385 m 375.071,-333.441 c -13.662,-21.379 -78.627,-37.578 -156.72,-37.578 -82.512,0 -150.372,18.087 -158.538,41.269"
             style="fill:none;stroke:#1d8e2b;stroke-width:4;stroke-linecap:round;stroke-linejoin:round;stroke-miterlimit:10;stroke-dasharray:none;stroke-opacity:1"
             id="path430" />
        </g>
      </g>
    </g>
  </g>
</svg>
