<svg width="292" height="379" viewBox="0 0 292 379" fill="none" xmlns="http://www.w3.org/2000/svg">
<path d="M15.3858 41.1808L15.6267 40.5637M245.817 313.712L245.981 313.725M273.255 41.7258L276.469 42.0745M240.549 318.643L238.786 355.365M50.7485 319.151L53.6946 352.013M282.991 25.5635C282.991 37.0637 222.555 46.4078 148.002 46.4078C73.4482 46.4078 13.0169 37.0637 13.0169 25.5635C13.0169 14.0633 73.4482 4.74382 148.006 4.74382C222.563 4.74382 282.991 14.0674 282.991 25.5635Z" stroke="#1D8E2B" stroke-width="5.33333" stroke-miterlimit="10" stroke-linecap="round" stroke-linejoin="round"/>
<path d="M238.786 354.598C238.786 366.431 192.637 376 135.636 376M53.6945 351.708C53.6945 365.133 90.3442 376 135.636 376M246.117 312.846C246.117 326.102 197.478 336.821 137.395 336.821M44.8521 311.364C44.8521 325.433 88.6165 336.809 142.703 336.809M276.505 41.7619L245.852 314.823M15.3857 41.1805L44.988 313.019M288.887 29.6082C288.887 44.3112 224.893 56.2281 145.949 56.2281C67.0068 56.2281 3 44.3112 3 29.6082C3 14.9052 66.9986 3.00001 145.949 3.00001C224.9 3.00001 288.887 14.9251 288.887 29.6082V29.6082Z" stroke="#1D8E2B" stroke-width="5.33333" stroke-miterlimit="10" stroke-linecap="round" stroke-linejoin="round"/>
</svg>
