<svg width="372" height="383" viewBox="0 0 372 383" fill="none" xmlns="http://www.w3.org/2000/svg">
<path d="M368.326 43.1804C368.326 72.1434 287.991 77.731 186.945 77.731C85.8997 77.731 4 61.2259 4 40.8802C4 20.5352 85.9189 5.13032 186.945 4.03951C293.134 2.88944 368.326 27.0701 368.326 43.1804Z" stroke="#1D8E2B" stroke-width="7" stroke-miterlimit="10" stroke-linecap="round" stroke-linejoin="round"/>
<path d="M355.29 42.5144C356.396 59.8689 281.328 73.1165 187.991 73.1165C94.6553 73.1165 18.985 59.1971 18.985 42.0211C18.985 24.8443 94.6603 11.858 187.991 10.925C286.076 9.96765 354.426 29.1083 355.29 42.5144Z" stroke="#1D8E2B" stroke-width="7" stroke-miterlimit="10" stroke-linecap="round" stroke-linejoin="round"/>
<path d="M32.4053 54.3203C53.7925 41.828 113.495 32.8445 183.806 32.8445C256.559 32.8445 318.553 42.6725 337.896 55.8508M318.109 152.538C318.109 167.479 259.091 179.591 186.323 179.591C113.555 179.591 54.5371 167.479 54.5371 152.538C54.5371 137.597 113.555 125.495 186.323 125.495C259.091 125.495 318.109 137.597 318.109 152.538Z" stroke="#1D8E2B" stroke-width="7" stroke-miterlimit="10" stroke-linecap="round" stroke-linejoin="round"/>
<path d="M20.4606 56.4182L25.6484 70.2383L28.4219 72.5385C28.4219 72.5385 48.3971 154.26 54.4879 154.26L72.8048 318.879C72.8048 318.879 76.1365 330.389 78.9156 330.967L79.4632 350.537C79.4632 350.537 96.1117 382.196 201.002 378.736C201.002 378.736 260.933 377.013 285.898 353.987C285.898 353.987 290.34 352.838 288.672 332.689C288.672 332.689 295.33 328.657 296.441 317.152L313.662 160.608C313.662 160.608 320.878 154.27 321.984 145.638L341.969 77.1437L346.076 71.6797C346.076 71.6797 352.492 64.8635 353.064 61.4083" stroke="#1D8E2B" stroke-width="7" stroke-miterlimit="10" stroke-linecap="round" stroke-linejoin="round"/>
<path d="M346.075 71.6798C327.546 86.413 262.779 97.2818 185.746 97.2818C113.101 97.2818 51.3788 87.6173 29.0342 74.1627M296.792 312.201C287.039 327.463 240.661 339.027 184.912 339.027C126.008 339.027 77.5634 326.115 71.7338 309.566" stroke="#1D8E2B" stroke-width="7" stroke-miterlimit="10" stroke-linecap="round" stroke-linejoin="round"/>
</svg>
