<?xml version="1.0" encoding="UTF-8" standalone="no"?>
<!-- Created with Inkscape (http://www.inkscape.org/) -->

<svg
   version="1.1"
   id="svg2"
   width="1066.667"
   height="1066.6667"
   viewBox="0 0 1066.6669 1066.6667"
   sodipodi:docname="ICONOS DE PRODUCTOS.svg"
   inkscape:version="1.2 (dc2aedaf03, 2022-05-15)"
   xmlns:inkscape="http://www.inkscape.org/namespaces/inkscape"
   xmlns:sodipodi="http://sodipodi.sourceforge.net/DTD/sodipodi-0.dtd"
   xmlns:xlink="http://www.w3.org/1999/xlink"
   xmlns="http://www.w3.org/2000/svg"
   xmlns:svg="http://www.w3.org/2000/svg">
  <defs
     id="defs6">
    <linearGradient
       inkscape:collect="always"
       id="linearGradient7020">
      <stop
         style="stop-color:#1d8e2b;stop-opacity:1;"
         offset="0"
         id="stop7016" />
      <stop
         style="stop-color:#1d8e2b;stop-opacity:0;"
         offset="1"
         id="stop7018" />
    </linearGradient>
    <clipPath
       clipPathUnits="userSpaceOnUse"
       id="clipPath446">
      <path
         d="M 0,800 H 800 V 0 H 0 Z"
         id="path444" />
    </clipPath>
    <linearGradient
       inkscape:collect="always"
       xlink:href="#linearGradient7020"
       id="linearGradient7022"
       x1="193.9579"
       y1="362.7189"
       x2="614.45093"
       y2="362.7189"
       gradientUnits="userSpaceOnUse" />
    <linearGradient
       inkscape:collect="always"
       xlink:href="#linearGradient7020"
       id="linearGradient12539"
       gradientUnits="userSpaceOnUse"
       x1="193.9579"
       y1="362.7189"
       x2="614.45093"
       y2="362.7189" />
    <linearGradient
       inkscape:collect="always"
       xlink:href="#linearGradient7020"
       id="linearGradient12541"
       gradientUnits="userSpaceOnUse"
       x1="193.9579"
       y1="362.7189"
       x2="614.45093"
       y2="362.7189" />
    <linearGradient
       inkscape:collect="always"
       xlink:href="#linearGradient7020"
       id="linearGradient12543"
       gradientUnits="userSpaceOnUse"
       x1="193.9579"
       y1="362.7189"
       x2="614.45093"
       y2="362.7189" />
    <linearGradient
       inkscape:collect="always"
       xlink:href="#linearGradient7020"
       id="linearGradient12545"
       gradientUnits="userSpaceOnUse"
       x1="193.9579"
       y1="362.7189"
       x2="614.45093"
       y2="362.7189" />
    <linearGradient
       inkscape:collect="always"
       xlink:href="#linearGradient7020"
       id="linearGradient12547"
       gradientUnits="userSpaceOnUse"
       x1="193.9579"
       y1="362.7189"
       x2="614.45093"
       y2="362.7189" />
  </defs>
  <sodipodi:namedview
     id="namedview4"
     pagecolor="#ffffff"
     bordercolor="#000000"
     borderopacity="0.25"
     inkscape:showpageshadow="2"
     inkscape:pageopacity="0.0"
     inkscape:pagecheckerboard="0"
     inkscape:deskcolor="#d1d1d1"
     showgrid="false"
     inkscape:lockguides="true"
     inkscape:zoom="0.55485779"
     inkscape:cx="6345.7701"
     inkscape:cy="428.93874"
     inkscape:window-width="1920"
     inkscape:window-height="1009"
     inkscape:window-x="-8"
     inkscape:window-y="-8"
     inkscape:window-maximized="1"
     inkscape:current-layer="g314" />
  <g
     id="g434"
     inkscape:groupmode="layer"
     inkscape:label="Page 10"
     transform="matrix(1.3333333,0,0,-1.3333333,-4.4052977e-4,1066.6667)"
     style="display:inline">
    <g
       id="g440"
       style="stroke:url(#linearGradient7022)">
      <g
         id="g442"
         clip-path="url(#clipPath446)"
         style="stroke:url(#linearGradient12547)">
        <g
           id="g448"
           transform="translate(214.002,578.797)"
           style="stroke:url(#linearGradient12541)">
          <path
             d="m 0,0 0.351,0.899 m 335.351,-397.935 0.239,-0.018 m 39.734,396.26 4.683,-0.508 m -52.33,-402.917 -2.569,-53.498 M 51.518,-404.96 55.81,-452.834 M 389.859,22.752 c 0,-16.754 -88.046,-30.367 -196.658,-30.367 -108.613,0 -196.652,13.613 -196.652,30.367 0,16.754 88.039,30.331 196.658,30.331 108.618,0 196.652,-13.583 196.652,-30.331 z"
             style="fill:none;stroke:url(#linearGradient12539);stroke-width:4;stroke-linecap:round;stroke-linejoin:round;stroke-miterlimit:10;stroke-dasharray:none;stroke-opacity:1"
             id="path450" />
        </g>
        <g
           id="g452"
           transform="translate(539.4609,122.1964)"
           style="stroke:url(#linearGradient12545)">
          <path
             d="M 0,0 C 0,-17.239 -67.232,-31.179 -150.273,-31.179 M -269.649,4.21 c 0,-19.557 53.393,-35.389 119.376,-35.389 M 10.681,60.826 c 0,-19.312 -70.86,-34.928 -158.391,-34.928 m -134.821,37.088 c 0,-20.497 63.758,-37.07 142.553,-37.07 M 54.951,455.754 10.295,57.947 M -325.459,456.601 -282.333,60.575 M 72.99,473.46 c 0,-21.42 -93.23,-38.781 -208.238,-38.781 -115.007,0 -208.255,17.361 -208.255,38.781 0,21.42 93.236,38.764 208.255,38.764 115.019,0 208.238,-17.373 208.238,-38.764 z"
             style="fill:none;stroke:url(#linearGradient12543);stroke-width:4;stroke-linecap:round;stroke-linejoin:round;stroke-miterlimit:10;stroke-dasharray:none;stroke-opacity:1"
             id="path454" />
        </g>
      </g>
    </g>
  </g>
</svg>
