<svg width="26" height="24" viewBox="0 0 26 24" fill="none" xmlns="http://www.w3.org/2000/svg">
<path d="M5.70213 24V7.80724H0.31768V24H5.70213ZM3.0106 5.59507C4.88826 5.59507 6.05701 4.35165 6.05701 2.7978C6.02202 1.2089 4.88833 0 3.04623 0C1.20443 0 0 1.20893 0 2.7978C0 4.35172 1.16846 5.59507 2.97545 5.59507H3.01044H3.0106ZM8.68241 24H14.0669V14.9572C14.0669 14.4732 14.1019 13.9898 14.244 13.6438C14.6333 12.6769 15.5193 11.6754 17.0067 11.6754C18.9551 11.6754 19.7345 13.1603 19.7345 15.3371V23.9999H25.1187V14.7151C25.1187 9.74133 22.4623 7.42708 18.9196 7.42708C16.0149 7.42708 14.7396 9.05001 14.031 10.1554H14.067V7.8069H8.68253C8.7532 9.32634 8.68253 23.9997 8.68253 23.9997L8.68241 24Z" fill="#2F2D2D"/>
</svg>
