<svg width="27" height="21" viewBox="0 0 27 21" fill="none" xmlns="http://www.w3.org/2000/svg">
<path d="M26.88 2.49098C25.8915 2.91193 24.8296 3.19635 23.7133 3.32491C24.8651 2.66254 25.7269 1.62005 26.1377 0.391954C25.0555 1.00971 23.8711 1.44454 22.636 1.67754C21.8054 0.825258 20.7052 0.260353 19.5063 0.0705279C18.3074 -0.119297 17.0768 0.0765775 16.0056 0.627742C14.9344 1.17891 14.0826 2.05452 13.5822 3.11865C13.0819 4.18277 12.9612 5.37587 13.2387 6.5127C11.0459 6.40689 8.90076 5.85916 6.94247 4.90504C4.98418 3.95093 3.25652 2.61176 1.87163 0.974449C1.3981 1.75945 1.12582 2.6696 1.12582 3.63891C1.12529 4.51151 1.34889 5.37074 1.77678 6.14037C2.20467 6.91001 2.82362 7.56624 3.57871 8.05085C2.70301 8.02408 1.84662 7.79668 1.08084 7.38758V7.45584C1.08075 8.6797 1.52126 9.86589 2.32762 10.8132C3.13399 11.7604 4.25654 12.4104 5.5048 12.6528C4.69244 12.8641 3.84074 12.8952 3.01403 12.7438C3.36621 13.7969 4.05224 14.7177 4.97606 15.3775C5.89989 16.0372 7.01527 16.4028 8.16605 16.4231C6.21253 17.8969 3.79995 18.6963 1.31642 18.6928C0.876484 18.6929 0.436923 18.6682 0 18.6188C2.52093 20.1765 5.45548 21.0032 8.45253 21C18.5979 21 24.1442 12.9247 24.1442 5.92111C24.1442 5.69357 24.1383 5.46376 24.1276 5.23622C25.2064 4.48646 26.1376 3.55801 26.8776 2.4944L26.88 2.49098V2.49098Z" fill="#2F2D2D"/>
</svg>
