<svg width="39" height="39" viewBox="0 0 39 39" fill="none" xmlns="http://www.w3.org/2000/svg">
<path fill-rule="evenodd" clip-rule="evenodd" d="M36.5625 4.875C36.5625 4.22853 36.3057 3.60855 35.8486 3.15143C35.3915 2.69431 34.7715 2.4375 34.125 2.4375H4.875C4.22853 2.4375 3.60855 2.69431 3.15143 3.15143C2.69431 3.60855 2.4375 4.22853 2.4375 4.875V34.125C2.4375 34.7715 2.69431 35.3915 3.15143 35.8486C3.60855 36.3057 4.22853 36.5625 4.875 36.5625H34.125C34.7715 36.5625 35.3915 36.3057 35.8486 35.8486C36.3057 35.3915 36.5625 34.7715 36.5625 34.125V4.875ZM0 4.875C0 3.58207 0.513615 2.34209 1.42785 1.42785C2.34209 0.513615 3.58207 0 4.875 0L34.125 0C35.4179 0 36.6579 0.513615 37.5721 1.42785C38.4864 2.34209 39 3.58207 39 4.875V34.125C39 35.4179 38.4864 36.6579 37.5721 37.5721C36.6579 38.4864 35.4179 39 34.125 39H4.875C3.58207 39 2.34209 38.4864 1.42785 37.5721C0.513615 36.6579 0 35.4179 0 34.125V4.875ZM10.9688 18.2812C10.6455 18.2812 10.3355 18.4097 10.107 18.6382C9.8784 18.8668 9.75 19.1768 9.75 19.5C9.75 19.8232 9.8784 20.1332 10.107 20.3618C10.3355 20.5903 10.6455 20.7188 10.9688 20.7188H25.0892L19.8559 25.9496C19.7426 26.0629 19.6527 26.1975 19.5913 26.3455C19.53 26.4936 19.4985 26.6522 19.4985 26.8125C19.4985 26.9728 19.53 27.1314 19.5913 27.2795C19.6527 27.4275 19.7426 27.5621 19.8559 27.6754C19.9692 27.7887 20.1037 27.8786 20.2518 27.9399C20.3998 28.0012 20.5585 28.0328 20.7188 28.0328C20.879 28.0328 21.0377 28.0012 21.1857 27.9399C21.3338 27.8786 21.4683 27.7887 21.5816 27.6754L28.8941 20.3629C29.0076 20.2497 29.0977 20.1152 29.1591 19.9671C29.2206 19.819 29.2522 19.6603 29.2522 19.5C29.2522 19.3397 29.2206 19.181 29.1591 19.0329C29.0977 18.8848 29.0076 18.7503 28.8941 18.6371L21.5816 11.3246C21.4683 11.2113 21.3338 11.1214 21.1857 11.0601C21.0377 10.9988 20.879 10.9672 20.7188 10.9672C20.5585 10.9672 20.3998 10.9988 20.2518 11.0601C20.1037 11.1214 19.9692 11.2113 19.8559 11.3246C19.7426 11.4379 19.6527 11.5725 19.5913 11.7205C19.53 11.8686 19.4985 12.0272 19.4985 12.1875C19.4985 12.3478 19.53 12.5064 19.5913 12.6545C19.6527 12.8025 19.7426 12.9371 19.8559 13.0504L25.0892 18.2812H10.9688Z" fill="#61CC1F"/>
</svg>
