<svg width="39" height="39" viewBox="0 0 39 39" fill="none" xmlns="http://www.w3.org/2000/svg">
<path fill-rule="evenodd" clip-rule="evenodd" d="M2.4375 4.875C2.4375 4.22853 2.69431 3.60855 3.15143 3.15143C3.60855 2.69431 4.22853 2.4375 4.875 2.4375H34.125C34.7715 2.4375 35.3915 2.69431 35.8486 3.15143C36.3057 3.60855 36.5625 4.22853 36.5625 4.875V34.125C36.5625 34.7715 36.3057 35.3915 35.8486 35.8486C35.3915 36.3057 34.7715 36.5625 34.125 36.5625H4.875C4.22853 36.5625 3.60855 36.3057 3.15143 35.8486C2.69431 35.3915 2.4375 34.7715 2.4375 34.125V4.875ZM39 4.875C39 3.58207 38.4864 2.34209 37.5721 1.42785C36.6579 0.513615 35.4179 0 34.125 0L4.875 0C3.58207 0 2.34209 0.513615 1.42786 1.42785C0.513615 2.34209 0 3.58207 0 4.875V34.125C0 35.4179 0.513615 36.6579 1.42786 37.5721C2.34209 38.4864 3.58207 39 4.875 39H34.125C35.4179 39 36.6579 38.4864 37.5721 37.5721C38.4864 36.6579 39 35.4179 39 34.125V4.875ZM28.0312 18.2812C28.3545 18.2812 28.6645 18.4097 28.893 18.6382C29.1216 18.8668 29.25 19.1768 29.25 19.5C29.25 19.8232 29.1216 20.1332 28.893 20.3618C28.6645 20.5903 28.3545 20.7188 28.0312 20.7188H13.9108L19.1441 25.9496C19.2574 26.0629 19.3473 26.1975 19.4087 26.3455C19.47 26.4936 19.5015 26.6522 19.5015 26.8125C19.5015 26.9728 19.47 27.1314 19.4087 27.2795C19.3473 27.4275 19.2574 27.5621 19.1441 27.6754C19.0308 27.7887 18.8963 27.8786 18.7482 27.9399C18.6002 28.0012 18.4415 28.0328 18.2812 28.0328C18.121 28.0328 17.9623 28.0012 17.8143 27.9399C17.6662 27.8786 17.5317 27.7887 17.4184 27.6754L10.1059 20.3629C9.99238 20.2497 9.90233 20.1152 9.84089 19.9671C9.77945 19.819 9.74782 19.6603 9.74782 19.5C9.74782 19.3397 9.77945 19.181 9.84089 19.0329C9.90233 18.8848 9.99238 18.7503 10.1059 18.6371L17.4184 11.3246C17.5317 11.2113 17.6662 11.1214 17.8143 11.0601C17.9623 10.9988 18.121 10.9672 18.2812 10.9672C18.4415 10.9672 18.6002 10.9988 18.7482 11.0601C18.8963 11.1214 19.0308 11.2113 19.1441 11.3246C19.2574 11.4379 19.3473 11.5725 19.4087 11.7205C19.47 11.8686 19.5015 12.0272 19.5015 12.1875C19.5015 12.3478 19.47 12.5064 19.4087 12.6545C19.3473 12.8025 19.2574 12.9371 19.1441 13.0504L13.9108 18.2812H28.0312Z" fill="#4B9111"/>
</svg>
