<svg width="37" height="37" viewBox="0 0 37 37" fill="none" xmlns="http://www.w3.org/2000/svg">
<path fill-rule="evenodd" clip-rule="evenodd" d="M2.26346 4.52679C2.26346 3.9265 2.50193 3.35079 2.9264 2.92633C3.35086 2.50186 3.92657 2.26339 4.52686 2.26339H31.6876C32.2879 2.26339 32.8636 2.50186 33.288 2.92633C33.7125 3.35079 33.951 3.9265 33.951 4.52679V31.6875C33.951 32.2878 33.7125 32.8635 33.288 33.288C32.8636 33.7124 32.2879 33.9509 31.6876 33.9509H4.52686C3.92657 33.9509 3.35086 33.7124 2.9264 33.288C2.50193 32.8635 2.26346 32.2878 2.26346 31.6875V4.52679ZM36.2144 4.52679C36.2144 3.32621 35.7374 2.1748 34.8885 1.32586C34.0396 0.476928 32.8881 0 31.6876 0L4.52686 0C3.32627 0 2.17487 0.476928 1.32594 1.32586C0.476997 2.1748 6.86646e-05 3.32621 6.86646e-05 4.52679V31.6875C6.86646e-05 32.8881 0.476997 34.0395 1.32594 34.8884C2.17487 35.7374 3.32627 36.2143 4.52686 36.2143H31.6876C32.8881 36.2143 34.0396 35.7374 34.8885 34.8884C35.7374 34.0395 36.2144 32.8881 36.2144 31.6875V4.52679ZM26.0291 16.9754C26.3292 16.9754 26.6171 17.0947 26.8293 17.3069C27.0416 17.5191 27.1608 17.807 27.1608 18.1071C27.1608 18.4073 27.0416 18.6951 26.8293 18.9074C26.6171 19.1196 26.3292 19.2388 26.0291 19.2388H12.9173L17.7768 24.0961C17.882 24.2013 17.9654 24.3262 18.0224 24.4637C18.0793 24.6012 18.1086 24.7485 18.1086 24.8973C18.1086 25.0461 18.0793 25.1935 18.0224 25.331C17.9654 25.4684 17.882 25.5933 17.7768 25.6986C17.6715 25.8038 17.5466 25.8872 17.4091 25.9442C17.2717 26.0011 17.1243 26.0304 16.9755 26.0304C16.8267 26.0304 16.6794 26.0011 16.5419 25.9442C16.4044 25.8872 16.2795 25.8038 16.1743 25.6986L9.3841 18.9084C9.2787 18.8033 9.19509 18.6784 9.13804 18.5409C9.08098 18.4034 9.05162 18.256 9.05162 18.1071C9.05162 17.9583 9.08098 17.8109 9.13804 17.6734C9.19509 17.5359 9.2787 17.411 9.3841 17.3059L16.1743 10.5157C16.2795 10.4105 16.4044 10.327 16.5419 10.2701C16.6794 10.2131 16.8267 10.1838 16.9755 10.1838C17.1243 10.1838 17.2717 10.2131 17.4091 10.2701C17.5466 10.327 17.6715 10.4105 17.7768 10.5157C17.882 10.6209 17.9654 10.7459 18.0224 10.8833C18.0793 11.0208 18.1086 11.1682 18.1086 11.317C18.1086 11.4658 18.0793 11.6131 18.0224 11.7506C17.9654 11.8881 17.882 12.013 17.7768 12.1182L12.9173 16.9754H26.0291Z" fill="#61CC1F"/>
</svg>
