<svg width="37" height="37" viewBox="0 0 37 37" fill="none" xmlns="http://www.w3.org/2000/svg">
<path fill-rule="evenodd" clip-rule="evenodd" d="M34.7365 4.52679C34.7365 3.9265 34.4981 3.35079 34.0736 2.92633C33.6491 2.50186 33.0734 2.26339 32.4731 2.26339H5.31243C4.71214 2.26339 4.13644 2.50186 3.71197 2.92633C3.2875 3.35079 3.04904 3.9265 3.04904 4.52679V31.6875C3.04904 32.2878 3.2875 32.8635 3.71197 33.288C4.13644 33.7124 4.71214 33.9509 5.31243 33.9509H32.4731C33.0734 33.9509 33.6491 33.7124 34.0736 33.288C34.4981 32.8635 34.7365 32.2878 34.7365 31.6875V4.52679ZM0.785645 4.52679C0.785645 3.32621 1.26257 2.1748 2.11151 1.32586C2.96045 0.476928 4.11185 0 5.31243 0L32.4731 0C33.6737 0 34.8251 0.476928 35.6741 1.32586C36.523 2.1748 36.9999 3.32621 36.9999 4.52679V31.6875C36.9999 32.8881 36.523 34.0395 35.6741 34.8884C34.8251 35.7374 33.6737 36.2143 32.4731 36.2143H5.31243C4.11185 36.2143 2.96045 35.7374 2.11151 34.8884C1.26257 34.0395 0.785645 32.8881 0.785645 31.6875V4.52679ZM10.9709 16.9754C10.6708 16.9754 10.3829 17.0947 10.1707 17.3069C9.95845 17.5191 9.83922 17.807 9.83922 18.1071C9.83922 18.4073 9.95845 18.6951 10.1707 18.9074C10.3829 19.1196 10.6708 19.2388 10.9709 19.2388H24.0827L19.2232 24.0961C19.118 24.2013 19.0346 24.3262 18.9776 24.4637C18.9207 24.6012 18.8914 24.7485 18.8914 24.8973C18.8914 25.0461 18.9207 25.1935 18.9776 25.331C19.0346 25.4684 19.118 25.5933 19.2232 25.6986C19.3285 25.8038 19.4534 25.8872 19.5909 25.9442C19.7283 26.0011 19.8757 26.0304 20.0245 26.0304C20.1733 26.0304 20.3206 26.0011 20.4581 25.9442C20.5956 25.8872 20.7205 25.8038 20.8257 25.6986L27.6159 18.9084C27.7213 18.8033 27.8049 18.6784 27.862 18.5409C27.919 18.4034 27.9484 18.256 27.9484 18.1071C27.9484 17.9583 27.919 17.8109 27.862 17.6734C27.8049 17.5359 27.7213 17.411 27.6159 17.3059L20.8257 10.5157C20.7205 10.4105 20.5956 10.327 20.4581 10.2701C20.3206 10.2131 20.1733 10.1838 20.0245 10.1838C19.8757 10.1838 19.7283 10.2131 19.5909 10.2701C19.4534 10.327 19.3285 10.4105 19.2232 10.5157C19.118 10.6209 19.0346 10.7459 18.9776 10.8833C18.9207 11.0208 18.8914 11.1682 18.8914 11.317C18.8914 11.4658 18.9207 11.6131 18.9776 11.7506C19.0346 11.8881 19.118 12.013 19.2232 12.1182L24.0827 16.9754H10.9709Z" fill="#4B9111"/>
</svg>
