<svg width="168" height="30" viewBox="0 0 168 30" fill="none" xmlns="http://www.w3.org/2000/svg">
<path d="M29.8173 11.3982H18.437L14.9086 0L11.3803 11.3982H0L9.19365 18.4323L5.71497 29.7791L14.9086 22.7451L24.1023 29.7791L20.5739 18.3809L29.8173 11.3982Z" fill="#FFCE31"/>
<path d="M64.1522 11.3982H52.7719L49.2436 0L45.7152 11.3982H34.335L43.5286 18.4323L40.0499 29.7791L49.2436 22.7451L58.4372 29.7791L54.9089 18.3809L64.1522 11.3982Z" fill="#FFCE31"/>
<path d="M98.4874 11.3982H87.1072L83.5788 0L80.0504 11.3982H68.6702L77.8638 18.4323L74.3851 29.7791L83.5788 22.7451L92.7724 29.7791L89.2441 18.3809L98.4874 11.3982Z" fill="#FFCE31"/>
<path d="M132.822 11.3982H121.442L117.914 0L114.385 11.3982H103.005L112.199 18.4323L108.72 29.7791L117.914 22.7451L127.107 29.7791L123.579 18.3809L132.822 11.3982Z" fill="#FFCE31"/>
<path d="M167.157 11.3982H155.777L152.249 0L148.72 11.3982H137.34L146.534 18.4323L143.055 29.7791L152.249 22.7451L161.442 29.7791L157.914 18.3809L167.157 11.3982Z" fill="#FFCE31"/>
</svg>
