<svg width="34" height="44" viewBox="0 0 34 44" fill="none" xmlns="http://www.w3.org/2000/svg">
<path d="M3.45891 15.8834L2.3692 15.7734L2.41559 15.4362L5.06808 15.7042L5.02169 16.0414L3.9267 15.9307L3.55075 18.6646L3.08297 18.6173L3.45891 15.8834Z" fill="#1D8E2B" stroke="#1D8E2B" stroke-width="0.5"/>
<path d="M3.45891 15.8834L2.3692 15.7734L2.41559 15.4362L5.06808 15.7042L5.02169 16.0414L3.9267 15.9307L3.55075 18.6646L3.08297 18.6173L3.45891 15.8834Z" fill="#1D8E2B" stroke="#1D8E2B" stroke-width="0.5" stroke-miterlimit="10" stroke-linejoin="round"/>
<path d="M6.46059 15.8448L6.21061 17.6628C6.11597 18.3509 6.43199 18.6784 6.91042 18.7267C7.44204 18.7805 7.82361 18.5141 7.91698 17.8352L8.16704 16.0172L8.63474 16.0645L8.38851 17.8551C8.25879 18.7983 7.62614 19.127 6.84999 19.0487C6.11648 18.9745 5.61303 18.5587 5.74402 17.6064L5.99281 15.7975L6.46059 15.8448Z" fill="#1D8E2B" stroke="#1D8E2B" stroke-width="0.5"/>
<path d="M6.46059 15.8448L6.21061 17.6628C6.11597 18.3509 6.43199 18.6784 6.91042 18.7267C7.44204 18.7805 7.82361 18.5141 7.91698 17.8352L8.16704 16.0172L8.63474 16.0645L8.38851 17.8551C8.25879 18.7983 7.62614 19.127 6.84999 19.0487C6.11648 18.9745 5.61303 18.5587 5.74402 17.6064L5.99281 15.7975L6.46059 15.8448Z" fill="#1D8E2B" stroke="#1D8E2B" stroke-width="0.5" stroke-miterlimit="10" stroke-linejoin="round"/>
<path d="M11.6271 16.3669L12.0896 16.4137L11.713 19.152L13.244 19.3067L13.1982 19.6393L11.2048 19.4379L11.6271 16.3669Z" fill="#1D8E2B" stroke="#1D8E2B" stroke-width="0.5"/>
<path d="M11.6271 16.3669L12.0896 16.4137L11.713 19.152L13.244 19.3067L13.1982 19.6393L11.2048 19.4379L11.6271 16.3669Z" fill="#1D8E2B" stroke="#1D8E2B" stroke-width="0.5" stroke-miterlimit="10" stroke-linejoin="round"/>
<path d="M14.5283 18.2353C14.4381 18.8914 14.7719 19.5211 15.5001 19.5946C16.2337 19.6687 16.728 19.132 16.8238 18.4349C16.9078 17.8244 16.6234 17.1489 15.8526 17.071C15.0872 16.9936 14.6211 17.561 14.5283 18.2353ZM17.3154 18.4661C17.17 19.5232 16.3434 20.0078 15.4291 19.9154C14.4828 19.8198 13.9049 19.1239 14.0327 18.1945C14.1668 17.2194 14.9615 16.6529 15.9184 16.7496C16.8965 16.8485 17.4407 17.5548 17.3154 18.4661Z" fill="#1D8E2B" stroke="#1D8E2B" stroke-width="0.5"/>
<path d="M14.5283 18.2353C14.4381 18.8914 14.7719 19.5211 15.5001 19.5946C16.2337 19.6687 16.728 19.132 16.8238 18.4349C16.9078 17.8244 16.6234 17.1489 15.8526 17.071C15.0872 16.9936 14.6211 17.561 14.5283 18.2353ZM17.3154 18.4661C17.17 19.5232 16.3434 20.0078 15.4291 19.9154C14.4828 19.8198 13.9049 19.1239 14.0327 18.1945C14.1668 17.2194 14.9615 16.6529 15.9184 16.7496C16.8965 16.8485 17.4407 17.5548 17.3154 18.4661Z" fill="#1D8E2B" stroke="#1D8E2B" stroke-width="0.5" stroke-miterlimit="10" stroke-linejoin="round"/>
<path d="M20.9776 20.2868C20.7615 20.3296 20.3377 20.3931 19.854 20.3443C19.3118 20.2895 18.8816 20.1258 18.5702 19.8034C18.297 19.517 18.162 19.0876 18.2278 18.6093C18.3591 17.6939 19.1848 17.0982 20.3861 17.2196C20.8008 17.2616 21.1144 17.3717 21.2597 17.4511L21.1036 17.7633C20.9223 17.6711 20.6912 17.5877 20.3297 17.5512C19.458 17.4631 18.8252 17.8703 18.7194 18.6404C18.6122 19.4196 19.0965 19.9351 19.931 20.0193C20.234 20.05 20.4464 20.0345 20.559 19.9996L20.685 19.0839L19.9567 19.0103L20.0006 18.6913L21.1806 18.8105L20.9776 20.2868Z" fill="#1D8E2B" stroke="#1D8E2B" stroke-width="0.5"/>
<path d="M20.9776 20.2868C20.7615 20.3296 20.3377 20.3931 19.854 20.3443C19.3118 20.2895 18.8816 20.1258 18.5702 19.8034C18.297 19.517 18.162 19.0876 18.2278 18.6093C18.3591 17.6939 19.1848 17.0982 20.3861 17.2196C20.8008 17.2616 21.1144 17.3717 21.2597 17.4511L21.1036 17.7633C20.9223 17.6711 20.6912 17.5877 20.3297 17.5512C19.458 17.4631 18.8252 17.8703 18.7194 18.6404C18.6122 19.4196 19.0965 19.9351 19.931 20.0193C20.234 20.05 20.4464 20.0345 20.559 19.9996L20.685 19.0839L19.9567 19.0103L20.0006 18.6913L21.1806 18.8105L20.9776 20.2868Z" fill="#1D8E2B" stroke="#1D8E2B" stroke-width="0.5" stroke-miterlimit="10" stroke-linejoin="round"/>
<path d="M22.6874 19.0598C22.5972 19.7159 22.931 20.3455 23.6593 20.4191C24.3929 20.4932 24.8871 19.9565 24.983 19.2593C25.067 18.6488 24.7826 17.9734 24.0117 17.8955C23.2463 17.8181 22.7801 18.3855 22.6874 19.0598ZM25.4746 19.2906C25.3292 20.3477 24.5026 20.8323 23.5882 20.7399C22.6421 20.6443 22.0641 19.9484 22.1919 19.0189C22.326 18.0439 23.1208 17.4774 24.0775 17.5741C25.0557 17.6729 25.5999 18.3793 25.4746 19.2906Z" fill="#1D8E2B" stroke="#1D8E2B" stroke-width="0.5"/>
<path d="M22.6874 19.0598C22.5972 19.7159 22.931 20.3455 23.6593 20.4191C24.3929 20.4932 24.8871 19.9565 24.983 19.2593C25.067 18.6488 24.7826 17.9734 24.0117 17.8955C23.2463 17.8181 22.7801 18.3855 22.6874 19.0598ZM25.4746 19.2906C25.3292 20.3477 24.5026 20.8323 23.5882 20.7399C22.6421 20.6443 22.0641 19.9484 22.1919 19.0189C22.326 18.0439 23.1208 17.4774 24.0775 17.5741C25.0557 17.6729 25.5999 18.3793 25.4746 19.2906Z" fill="#1D8E2B" stroke="#1D8E2B" stroke-width="0.5" stroke-miterlimit="10" stroke-linejoin="round"/>
<path d="M9.53624 23.5191L9.30694 22.5997C9.25477 22.3912 9.22668 22.2036 9.198 22.0205L9.18736 22.0194C9.10914 22.1963 9.02496 22.3772 8.93014 22.557L8.45708 23.4101L9.53624 23.5191ZM8.31885 23.7102L7.81387 24.6386L7.33545 24.5903L8.97508 21.6422L9.53326 21.6986L10.3336 24.8932L9.83916 24.8432L9.58926 23.8386L8.31885 23.7102Z" fill="#1D8E2B" stroke="#1D8E2B" stroke-width="0.5"/>
<path d="M9.53624 23.5191L9.30694 22.5997C9.25477 22.3912 9.22668 22.2036 9.198 22.0205L9.18736 22.0194C9.10914 22.1963 9.02496 22.3772 8.93014 22.557L8.45708 23.4101L9.53624 23.5191ZM8.31885 23.7102L7.81387 24.6386L7.33545 24.5903L8.97508 21.6422L9.53326 21.6986L10.3336 24.8932L9.83916 24.8432L9.58926 23.8386L8.31885 23.7102Z" fill="#1D8E2B" stroke="#1D8E2B" stroke-width="0.5" stroke-miterlimit="10" stroke-linejoin="round"/>
<path d="M13.5658 23.649C13.6504 23.0339 13.3654 22.363 12.6052 22.2862C11.8238 22.2073 11.3558 22.7882 11.2696 23.454C11.1747 24.105 11.5139 24.7352 12.2368 24.8083C12.9757 24.8829 13.4693 24.3507 13.5658 23.649ZM13.6735 25.6879C13.2048 25.5296 12.7485 25.3588 12.3509 25.194C12.2796 25.1638 12.2083 25.1333 12.1391 25.1263C11.2924 25.0131 10.6381 24.4018 10.7741 23.4131C10.9094 22.4289 11.6982 21.8665 12.6656 21.9643C13.6385 22.0626 14.182 22.7735 14.0573 23.6802C13.9489 24.4685 13.4541 24.9313 12.8343 25.0488L12.8318 25.067C13.1773 25.1805 13.5553 25.2926 13.8521 25.3688L13.6735 25.6879Z" fill="#1D8E2B" stroke="#1D8E2B" stroke-width="0.5"/>
<path d="M13.5658 23.649C13.6504 23.0339 13.3654 22.363 12.6052 22.2862C11.8238 22.2073 11.3558 22.7882 11.2696 23.454C11.1747 24.105 11.5139 24.7352 12.2368 24.8083C12.9757 24.8829 13.4693 24.3507 13.5658 23.649ZM13.6735 25.6879C13.2048 25.5296 12.7485 25.3588 12.3509 25.194C12.2796 25.1638 12.2083 25.1333 12.1391 25.1263C11.2924 25.0131 10.6381 24.4018 10.7741 23.4131C10.9094 22.4289 11.6982 21.8665 12.6656 21.9643C13.6385 22.0626 14.182 22.7735 14.0573 23.6802C13.9489 24.4685 13.4541 24.9313 12.8343 25.0488L12.8318 25.067C13.1773 25.1805 13.5553 25.2926 13.8521 25.3688L13.6735 25.6879Z" fill="#1D8E2B" stroke="#1D8E2B" stroke-width="0.5" stroke-miterlimit="10" stroke-linejoin="round"/>
<path d="M15.327 22.2839L15.077 24.102C14.9824 24.79 15.2984 25.1176 15.7768 25.1659C16.3085 25.2196 16.69 24.9534 16.7834 24.2744L17.0334 22.4563L17.5012 22.5037L17.2549 24.2944C17.1252 25.2374 16.4926 25.5662 15.7164 25.4878C14.9829 25.4136 14.4795 24.9979 14.6104 24.0456L14.8592 22.2367L15.327 22.2839Z" fill="#1D8E2B" stroke="#1D8E2B" stroke-width="0.5"/>
<path d="M15.327 22.2839L15.077 24.102C14.9824 24.79 15.2984 25.1176 15.7768 25.1659C16.3085 25.2196 16.69 24.9534 16.7834 24.2744L17.0334 22.4563L17.5012 22.5037L17.2549 24.2944C17.1252 25.2374 16.4926 25.5662 15.7164 25.4878C14.9829 25.4136 14.4795 24.9979 14.6104 24.0456L14.8592 22.2367L15.327 22.2839Z" fill="#1D8E2B" stroke="#1D8E2B" stroke-width="0.5" stroke-miterlimit="10" stroke-linejoin="round"/>
<path d="M18.7661 22.6315L18.3437 25.7025L17.8812 25.6558L18.3036 22.5848L18.7661 22.6315ZM19.4094 21.9897L18.6558 22.4541L18.2783 22.416L18.8407 21.9322L19.4094 21.9897Z" fill="#1D8E2B" stroke="#1D8E2B" stroke-width="0.5"/>
<path d="M18.7661 22.6315L18.3437 25.7025L17.8812 25.6558L18.3036 22.5848L18.7661 22.6315ZM19.4094 21.9897L18.6558 22.4541L18.2783 22.416L18.8407 21.9322L19.4094 21.9897Z" fill="#1D8E2B" stroke="#1D8E2B" stroke-width="0.5" stroke-miterlimit="10" stroke-linejoin="round"/>
<path d="M27.0348 1.00004H33.3339V37.0833L27.0348 43M27.0348 1.00004V43M27.0348 1.00004H1V36.3873L27.0348 43" stroke="#1D8E2B" stroke-width="0.5" stroke-miterlimit="10" stroke-linecap="round" stroke-linejoin="round"/>
<path d="M28.4525 36.2369V1.00004M28.4525 36.2369L27.0348 43M28.4525 36.2369L33.3339 37.0834" stroke="#1D8E2B" stroke-width="0.5" stroke-miterlimit="10" stroke-linejoin="round"/>
</svg>
