<svg width="34" height="24" viewBox="0 0 34 24" fill="none" xmlns="http://www.w3.org/2000/svg">
<path d="M20.7527 17.2418C20.7765 16.9092 20.5526 16.9071 20.5526 16.9071L19.8421 16.8564L19.1316 16.8057C19.1316 16.8057 18.9097 16.7761 18.886 17.1086L18.9155 19.4164C18.9218 19.9126 18.8833 20.4102 18.8006 20.8991L18.4808 22.791C18.4808 22.791 18.4441 22.9918 18.6664 23.0077C18.8886 23.0235 19.3997 23.06 19.3997 23.06C19.3997 23.06 19.9109 23.0964 20.1331 23.1123C20.3553 23.1281 20.3476 22.9241 20.3476 22.9241L20.2994 21.006C20.287 20.5103 20.3194 20.0122 20.3961 19.522L20.7527 17.2418Z" fill="white" stroke="#1D8E2B" stroke-width="0.25"/>
<path d="M19.12 16.6449C19.3423 16.6608 19.8534 16.6972 19.8534 16.6972C19.8534 16.6972 20.3646 16.7337 20.5868 16.7495C20.809 16.7653 20.8013 16.5613 20.8013 16.5613L20.7531 14.6432C20.7407 14.1475 20.7731 13.6494 20.8498 13.1592L21.2064 10.8789C21.2302 10.5464 21.0063 10.5443 21.0063 10.5443L20.2958 10.4936L19.5852 10.443C19.5852 10.443 19.3634 10.4133 19.3396 10.7458L19.3692 13.0536C19.3755 13.5498 19.337 14.0474 19.2543 14.5363L18.9344 16.4282C18.9344 16.4282 18.8978 16.6291 19.12 16.6449Z" fill="white" stroke="#1D8E2B" stroke-width="0.25"/>
<path d="M19.5712 10.3181C19.7934 10.334 20.3046 10.3704 20.3046 10.3704C20.3046 10.3704 20.8157 10.4069 21.0379 10.4227C21.2602 10.4386 21.2524 10.2346 21.2524 10.2346L21.2042 8.31645C21.1918 7.82075 21.2243 7.32268 21.3009 6.83242L21.6576 4.55218C21.6813 4.21964 21.4575 4.21754 21.4575 4.21754L20.7469 4.16685L20.0364 4.1162C20.0364 4.1162 19.8145 4.08651 19.7908 4.41909L19.8203 6.72685C19.8267 7.22303 19.7882 7.72066 19.7055 8.20955L19.3856 10.1015C19.3856 10.1015 19.349 10.3023 19.5712 10.3181Z" fill="white" stroke="#1D8E2B" stroke-width="0.25"/>
<path d="M22.8902 17.0414L22.1833 16.9531L21.4765 16.8648C21.4765 16.8648 21.2565 16.8234 21.2152 17.1542L21.1221 19.4602C21.102 19.9561 21.0371 20.4509 20.9286 20.9348L20.5088 22.807C20.5088 22.807 20.4615 23.0056 20.6826 23.0333C20.9036 23.0609 21.4121 23.1245 21.4121 23.1245C21.4121 23.1245 21.9206 23.188 22.1417 23.2156C22.3628 23.2432 22.3658 23.0391 22.3658 23.0391L22.4196 21.1211C22.4335 20.6255 22.4924 20.1298 22.595 19.6443L23.0723 17.3863C23.1136 17.0554 22.8902 17.0414 22.8902 17.0414Z" fill="white" stroke="#1D8E2B" stroke-width="0.25"/>
<path d="M24.3346 10.8111L23.6402 10.6525L22.9457 10.4939C22.9457 10.4939 22.7309 10.4308 22.6567 10.7558L22.3334 13.041C22.2639 13.5323 22.1498 14.0182 21.9934 14.4888L21.3884 16.3096C21.3884 16.3096 21.3215 16.5025 21.5387 16.5521C21.7559 16.6017 22.2555 16.7158 22.2555 16.7158C22.2555 16.7158 22.755 16.8299 22.9723 16.8794C23.1895 16.9291 23.2129 16.7262 23.2129 16.7262L23.4583 14.8233C23.5217 14.3315 23.6299 13.8443 23.7805 13.3715L24.4813 11.1724C24.5555 10.8474 24.3346 10.8111 24.3346 10.8111Z" fill="white" stroke="#1D8E2B" stroke-width="0.25"/>
<path d="M26.9012 4.90692L26.2488 4.62095L25.5964 4.33498C25.5964 4.33498 25.3973 4.23264 25.2635 4.53798L24.5175 6.72204C24.4696 6.86222 24.4166 7.00075 24.3612 7.13828C24.3345 7.09577 24.3068 7.05108 24.2769 7.00208C24.1922 6.85759 24.0944 6.68743 24.0027 6.49857C23.9549 6.40489 23.9096 6.30633 23.8663 6.20487C23.8194 6.10457 23.7829 5.999 23.7418 5.8944C23.7017 5.78948 23.6719 5.68165 23.6367 5.57648C23.6097 5.46978 23.582 5.36429 23.5596 5.26134C23.5537 5.22294 23.5471 5.18547 23.5406 5.14796C23.965 5.24591 25.8988 3.5812 25.8988 3.5812C25.8988 3.5812 23.8493 4.48061 23.5116 4.94387C23.5064 4.86662 23.5004 4.79305 23.4968 4.72322C23.8875 4.60229 24.225 1.97319 24.225 1.97319C24.225 1.97319 23.0603 4.54814 23.4323 4.71931C23.4279 4.79659 23.4261 4.87855 23.4225 4.96615C23.4223 4.99996 23.4244 5.03509 23.4262 5.07003C23.0675 4.52896 21.3276 3.39609 21.3276 3.39609C21.3276 3.39609 23.0885 5.5019 23.4421 5.31376C23.4534 5.41116 23.4675 5.51032 23.4821 5.61206C23.5064 5.72339 23.5256 5.83884 23.5551 5.95114C23.5857 6.06307 23.6122 6.17706 23.6493 6.28525C23.6828 6.39489 23.7187 6.50183 23.7576 6.60374C23.8317 6.80928 23.9137 6.996 23.9857 7.15568C24.0603 7.31408 24.1256 7.44495 24.1751 7.53558C24.1777 7.54041 24.1796 7.54388 24.1822 7.54851C24.0979 7.72883 24.009 7.90692 23.9121 8.08043L22.9764 9.75553C22.9764 9.75553 22.8745 9.93246 23.0786 10.0219C23.2826 10.1114 23.752 10.3171 23.752 10.3171C23.752 10.3171 24.2213 10.5228 24.4254 10.6123C24.6294 10.7017 24.6905 10.5069 24.6905 10.5069L25.2883 8.68363C25.4428 8.21247 25.6403 7.75413 25.877 7.31795L26.9776 5.28931C27.1114 4.98396 26.9012 4.90692 26.9012 4.90692Z" fill="white" stroke="#1D8E2B" stroke-width="0.25"/>
<path d="M17.921 20.9167C17.8454 20.4266 17.814 19.9285 17.8275 19.4325L17.8902 17.1253C17.8713 16.7924 17.649 16.819 17.649 16.819L16.9378 16.8594L16.2266 16.8998C16.2266 16.8998 16.0028 16.8987 16.0217 17.2316L16.3455 19.5167C16.4152 20.008 16.4404 20.5065 16.4209 21.002L16.3451 22.9192C16.3451 22.9192 16.3344 23.1231 16.5568 23.1104C16.7793 23.0978 17.2909 23.0687 17.2909 23.0687C17.2909 23.0687 17.8025 23.0396 18.025 23.0269C18.2474 23.0143 18.2136 22.813 18.2136 22.813L17.921 20.9167Z" fill="white" stroke="#1D8E2B" stroke-width="0.25"/>
<path d="M15.983 16.5505C15.983 16.5505 15.9723 16.7545 16.1947 16.7418C16.4172 16.7292 16.9288 16.7001 16.9288 16.7001C16.9288 16.7001 17.4404 16.6709 17.6628 16.6583C17.8853 16.6456 17.8515 16.4443 17.8515 16.4443L17.5589 14.548C17.4833 14.058 17.4519 13.5598 17.4654 13.0638L17.5281 10.7567C17.5092 10.4238 17.2869 10.4503 17.2869 10.4503L16.5757 10.4907L15.8645 10.5312C15.8645 10.5312 15.6406 10.53 15.6596 10.8629L15.9834 13.1481C16.053 13.6394 16.0783 14.1379 16.0587 14.6333L15.983 16.5505Z" fill="white" stroke="#1D8E2B" stroke-width="0.25"/>
<path d="M15.6229 10.218C15.6229 10.218 15.6122 10.4218 15.8346 10.4092C16.057 10.3965 16.5687 10.3674 16.5687 10.3674C16.5687 10.3674 17.0803 10.3384 17.3027 10.3257C17.5252 10.3131 17.4914 10.1117 17.4914 10.1117L17.1988 8.21543C17.1232 7.72537 17.0918 7.22726 17.1053 6.7312L17.168 4.42409C17.1491 4.09122 16.9268 4.11773 16.9268 4.11773L16.2156 4.15814L15.5044 4.1986C15.5044 4.1986 15.2805 4.19747 15.2995 4.53034L15.6233 6.81549C15.6929 7.3068 15.7182 7.80527 15.6986 8.30073L15.6229 10.218Z" fill="white" stroke="#1D8E2B" stroke-width="0.25"/>
<path d="M16.9456 1.58602C8.22768 1.58602 2.37152 2.8164 2.37152 3.96566C2.37152 5.11493 8.22768 6.34454 16.9456 6.34454C25.6635 6.34454 31.5193 5.11307 31.5193 3.96381C31.5193 2.81454 25.6635 1.58421 16.9456 1.58421V1.58602ZM16.9456 6.63574C9.60328 6.63574 2.00879 5.63613 2.00879 3.96381C2.00879 2.29153 9.60179 1.29223 16.9456 1.29223C24.2894 1.29223 31.8824 2.29003 31.8824 3.96381C31.8824 5.63758 24.2879 6.63574 16.9456 6.63574Z" fill="white" stroke="#1D8E2B" stroke-width="0.25" stroke-miterlimit="10" stroke-linecap="round" stroke-linejoin="round"/>
<path d="M16.9998 1.29191C12.789 1.29191 8.83219 1.62361 5.85841 2.22294C3.00144 2.79979 1.36269 3.57126 1.36269 4.33978C1.36269 4.80087 1.97197 5.19305 2.48322 5.44078C4.92032 6.6232 10.6188 7.3873 16.9998 7.3873C21.211 7.3873 25.1678 7.05556 28.1416 6.45623C30.9986 5.87938 32.6384 5.10795 32.6384 4.33978C32.6373 2.8676 26.3539 1.29191 16.9998 1.29191ZM16.9998 7.67923C10.5572 7.67923 4.78578 6.8989 2.29598 5.69104C1.43602 5.27565 1 4.81932 1 4.33978C1 2.24913 9.13479 0.999976 16.9998 0.999976C24.8648 0.999976 33 2.24913 33 4.33978C33 6.43044 24.8648 7.67923 16.9998 7.67923Z" fill="white" stroke="#1D8E2B" stroke-width="0.25" stroke-miterlimit="10" stroke-linecap="round" stroke-linejoin="round"/>
<path d="M16.5608 23.4103C14.8425 23.4103 13.649 23.3407 13.6309 23.3395L13.4632 23.3296V23.2094H13.3681C4.47582 22.3683 4.32174 19.8516 4.31952 19.7447L2.14264 5.51997L2.50238 5.48314L4.68076 19.7244C4.68334 19.7612 4.89049 22.1133 13.3906 22.9183H13.8259V23.0557C15.1897 23.1209 24.4351 23.4741 28.0296 21.2061C28.09 21.1756 29.0539 20.7008 29.0056 19.5578V19.5457L29.0075 19.5335L31.2846 5.64419L31.644 5.68106L29.3683 19.5626C29.417 20.8763 28.2813 21.4266 28.2327 21.4494C26.5803 22.4947 23.6061 23.1357 19.4167 23.3432C18.3891 23.3945 17.4104 23.4103 16.5608 23.4103Z" fill="white" stroke="#1D8E2B" stroke-width="0.25" stroke-miterlimit="10" stroke-linecap="round" stroke-linejoin="round"/>
<path d="M13.4632 23.0683L13.1145 7.45659L13.4772 7.45143L13.8259 23.0631L13.4632 23.0683Z" fill="white" stroke="#1D8E2B" stroke-width="0.25" stroke-miterlimit="10" stroke-linecap="round" stroke-linejoin="round"/>
</svg>
