<svg width="34" height="43" viewBox="0 0 34 43" fill="none" xmlns="http://www.w3.org/2000/svg">
<path d="M5.3713 17.3579L4.54123 39.834C4.54123 41.0257 5.48555 42 6.63916 42C6.67881 42 6.71655 41.9916 6.755 41.9877C6.81054 41.9816 6.86648 41.9785 6.92162 41.97V41.9616C7.94095 41.8164 8.73661 40.925 8.73661 39.834L7.90646 17.3579C10.1588 16.5071 12.5935 15.0044 12.5935 11.4048C12.5935 6.92759 9.46092 1.36305 6.92162 0.969208V0.959952C6.86815 0.951523 6.81507 0.946179 6.76192 0.938427C6.75953 0.938427 6.75707 0.936846 6.755 0.936846C6.71655 0.931503 6.6773 0.921568 6.63916 0.921568C4.05687 0.921568 0.685127 6.76171 0.685127 11.4048C0.685127 15.0044 3.11978 16.5064 5.3713 17.3579Z" stroke="#1D8E2B" stroke-width="0.4" stroke-miterlimit="10"/>
<path d="M29.116 1.00258C29.1394 1.0126 29.1631 1.01495 29.1859 1.0258C30.8696 1.84622 33.2997 5.36019 33.2997 15.1932C33.2997 20.4772 30.933 23.6623 30.2878 25.424C29.1598 28.5029 31.3554 36.2229 31.7644 39.8166C31.9005 41.0109 30.8132 42 29.6504 42C29.4649 42 29.2877 41.9668 29.116 41.9203V41.911C28.2116 41.6649 27.5353 40.826 27.5353 39.8166V2.14035C27.5353 1.27495 28.3753 0.701472 29.116 1.00258Z" stroke="#1D8E2B" stroke-width="0.4" stroke-miterlimit="10"/>
<path d="M16.8585 0.911743L16.9544 13.7618H18.0688L18.3179 0.911743H18.8947L19.1623 13.7618H19.8563H20.0952H20.2766L20.5204 0.911743H21.0449L21.3247 13.7618H22.4391L22.5616 0.911743H23.0979C23.5879 3.89291 24.0598 9.6738 24.0598 12.6349C24.0598 16.2735 23.2769 16.2308 21.0002 17.0907L21.8393 39.8105C21.8393 40.8801 21.0813 41.7594 20.0952 41.945V41.9605C19.9726 41.9838 19.8477 42 19.7191 42C18.553 42 17.5984 41.0152 17.5984 39.8105L18.4375 17.0907C16.1616 16.23 15.3786 16.2735 15.3786 12.6349C15.3786 9.6738 15.8543 3.95971 16.3525 0.911743H16.8585Z" stroke="#1D8E2B" stroke-width="0.4" stroke-miterlimit="10"/>
</svg>
