<svg width="34" height="19" viewBox="0 0 34 19" fill="none" xmlns="http://www.w3.org/2000/svg">
<path d="M3.33017 8.01631C3.33017 8.01631 1.54972 8.20593 1.18439 8.44297C0.819012 8.68006 1.00186 9.05355 1.68654 9.29321C2.37126 9.53287 6.25149 11.0974 7.16473 11.4291C8.07793 11.7609 9.49275 11.998 10.9536 11.8558C12.4144 11.7137 18.0294 10.8132 18.0294 10.8132C18.0294 10.8132 18.3625 10.8603 18.5384 11.05C18.7144 11.2395 24.9224 10.3864 24.9224 10.1969C24.9224 10.0073 24.5117 10.1443 24.6028 9.95724C24.6939 9.77023 32.7743 8.58454 32.9568 8.25339C33.1394 7.92224 32.7284 7.49497 31.9982 7.30538C31.2681 7.11576 25.3331 6.16888 24.6485 6.12058C23.9637 6.07223 22.5486 6.35734 21.9097 6.35734C21.2707 6.35734 21.4526 5.97817 21.9097 5.836C22.3667 5.69391 29.9895 4.41411 30.5363 4.17735C31.083 3.94055 31.5406 3.70318 31.3124 3.46642C31.0842 3.22962 30.3537 3.6094 29.9884 3.46642C29.6231 3.32341 28.9866 1.90184 28.5744 1.42796C28.1622 0.95412 27.844 1.00129 27.2504 1.00129C26.6569 1.00129 9.94923 2.1861 8.71665 2.47064C7.48407 2.75518 4.06056 3.79786 3.55841 4.41528C3.05622 5.0327 3.19247 6.49975 3.01055 6.64191C2.82858 6.78404 2.05188 6.97363 1.73225 7.21071C1.41259 7.44779 3.46698 7.77951 3.46698 7.77951C3.46698 7.77951 3.74065 7.96684 3.33017 8.01631Z" stroke="#1D8E2B" stroke-width="0.4" stroke-miterlimit="10" stroke-linecap="round" stroke-linejoin="round"/>
<path d="M3.01054 6.6419C3.01054 6.6419 8.00199 5.65155 8.73238 5.46192C9.21799 5.33583 10.4777 5.38901 11.2438 5.26976C11.6291 5.20941 11.5109 4.91315 11.9614 4.78589C12.6072 4.60343 14.2054 4.58571 14.7987 4.58571C15.392 4.58571 15.244 5.08219 15.8373 5.08219C16.4306 5.08219 23.9638 4.27172 24.3306 4.17705C24.6973 4.08238 25.061 3.79784 25.3803 3.75038C25.6996 3.70288 27.6155 3.51217 28.1322 3.53243C28.5222 3.5479 28.5893 3.98718 28.8638 3.98718C29.1383 3.98718 30.5091 4.02348 31.2578 3.78696M2.81573 9.72557C2.81573 9.72557 5.11036 15.5057 5.33856 15.6479C5.5668 15.79 5.70394 16.2638 6.06899 16.2638C6.43405 16.2638 6.84509 16.1689 7.07333 16.2638C7.30157 16.3588 8.16906 17.0697 8.30563 17.1647C8.44217 17.2596 8.62526 17.4964 8.99116 17.781C9.3571 18.0655 10.3606 18.3023 10.7716 18.3023C11.1827 18.3023 13.8301 17.9706 14.2865 17.8756C14.743 17.7807 24.1014 16.217 24.4208 16.217H25.6991C26.2924 16.217 27.1599 16.122 27.4338 15.8852C27.7078 15.6484 30.5837 10.1085 30.7662 9.72586C30.9487 9.34322 31.2804 8.7032 31.7546 8.5991" stroke="#1D8E2B" stroke-width="0.4" stroke-miterlimit="10" stroke-linecap="round" stroke-linejoin="round"/>
<path d="M22.0347 6.3894C22.0347 6.3894 21.8459 9.08787 21.756 9.61553M3.43669 8.07811C3.43669 8.07811 2.05188 8.23313 1.96046 8.59973C1.86903 8.96633 3.28442 9.20027 4.15167 9.62923C5.01891 10.0582 8.57924 11.1449 8.85375 11.1449C9.12827 11.1449 9.76784 11.1924 10.9535 11.1449C12.1393 11.0974 31.3135 8.25343 31.4503 7.92168C31.5872 7.58992 24.9224 6.59446 24.4202 6.64196C23.918 6.68941 22.3064 6.47578 21.9096 6.35738" stroke="#1D8E2B" stroke-width="0.4" stroke-miterlimit="10" stroke-linecap="round" stroke-linejoin="round"/>
<path d="M3.43671 8.07806C3.43671 8.07806 19.5162 6.77256 21.5794 6.39081" stroke="#1D8E2B" stroke-width="0.4" stroke-miterlimit="10"/>
</svg>
