<svg width="34" height="28" viewBox="0 0 34 28" fill="none" xmlns="http://www.w3.org/2000/svg">
<path d="M16.8364 17.8087C22.1132 17.8087 26.3909 19.7322 26.3909 22.105C26.3909 24.4778 22.1132 26.4012 16.8364 26.4012C11.5596 26.4012 7.28198 24.4778 7.28198 22.105C7.28198 19.7322 11.5596 17.8087 16.8364 17.8087Z" stroke="#1D8E2B" stroke-width="0.5" stroke-miterlimit="10"/>
<path d="M3.02826 7.71315C4.36236 5.44642 10.1412 3.41632 16.7709 3.41632C23.9719 3.41632 29.9261 5.50325 30.5623 8.0614" stroke="#1D8E2B" stroke-width="0.5" stroke-miterlimit="10" stroke-linejoin="round"/>
<path d="M33 6.79986C33 10.0026 25.8365 12.6024 17 12.6024C8.16348 12.6024 1 10.0026 1 6.79986C1 3.59713 8.16348 0.999969 17 0.999969C25.8365 0.999969 33 3.59658 33 6.79986Z" stroke="#1D8E2B" stroke-width="0.5" stroke-miterlimit="10" stroke-linejoin="round"/>
<path d="M31.9525 6.67909C31.9525 9.54979 25.2254 11.7163 16.97 11.7163C8.7147 11.7163 2.05005 9.54979 2.05005 6.6818C2.05005 3.81381 8.74155 1.48311 17 1.48311C25.2585 1.48311 31.9525 3.8095 31.9525 6.67909Z" stroke="#1D8E2B" stroke-width="0.5" stroke-miterlimit="10"/>
<path d="M30.4698 9.89692C30.4698 9.89692 27.8953 22.4987 27.2861 23.2153M3.44275 9.86986C3.44275 9.86986 5.96228 22.9196 6.26754 23.3134M27.4046 22.4674C27.4046 25.0699 22.629 27.1796 16.7378 27.1796C10.8466 27.1796 6.06969 25.0699 6.06969 22.4674C6.06969 19.8648 10.8453 17.755 16.7359 17.755C22.6265 17.755 27.4046 19.8653 27.4046 22.4674V22.4674Z" stroke="#1D8E2B" stroke-width="0.5" stroke-miterlimit="10" stroke-linejoin="round"/>
</svg>
