<svg width="34" height="43" viewBox="0 0 34 43" fill="none" xmlns="http://www.w3.org/2000/svg">
<path d="M2.38636 5.27365L2.41333 5.20458M28.179 35.7787L28.1974 35.7801M31.2502 5.33466L31.61 5.37369M27.5894 36.3306L27.392 40.441M6.3446 36.3876L6.67436 40.0658M32.34 3.52557C32.34 4.81281 25.5753 5.85873 17.2304 5.85873C8.88543 5.85873 2.12122 4.81281 2.12122 3.52557C2.12122 2.23833 8.88543 1.19518 17.2309 1.19518C25.5762 1.19518 32.34 2.23879 32.34 3.52557Z" stroke="#1D8E2B" stroke-width="0.4" stroke-miterlimit="10" stroke-linecap="round" stroke-linejoin="round"/>
<path d="M27.392 40.3552C27.392 41.6797 22.2265 42.7507 15.8463 42.7507M6.67435 40.0317C6.67435 41.5343 10.7766 42.7507 15.8463 42.7507M28.2127 35.6818C28.2127 37.1656 22.7684 38.3654 16.0432 38.3654M5.6846 35.5158C5.6846 37.0907 10.5833 38.364 16.6372 38.364M31.614 5.33868L28.183 35.903M2.38636 5.2736L5.69981 35.7011M33 3.97829C33 5.62404 25.837 6.95792 17.0007 6.95792C8.16443 6.95792 1 5.62404 1 3.97829C1 2.33255 8.16351 0.999974 17.0007 0.999974C25.8378 0.999974 33 2.33478 33 3.97829V3.97829Z" stroke="#1D8E2B" stroke-width="0.4" stroke-miterlimit="10" stroke-linecap="round" stroke-linejoin="round"/>
</svg>
