<svg width="38" height="38" viewBox="0 0 38 38" fill="none" xmlns="http://www.w3.org/2000/svg">
<path d="M19 38C22.7578 38 26.4313 36.8857 29.5558 34.7979C32.6804 32.7102 35.1156 29.7428 36.5537 26.271C37.9918 22.7992 38.368 18.9789 37.6349 15.2933C36.9018 11.6077 35.0922 8.22217 32.435 5.56498C29.7778 2.90778 26.3923 1.09821 22.7067 0.365087C19.0211 -0.368032 15.2008 0.0082301 11.729 1.44629C8.25722 2.88436 5.28982 5.31964 3.20207 8.44417C1.11433 11.5687 -1.49674e-06 15.2422 -1.49674e-06 19C0.00567924 24.0374 2.00928 28.8668 5.57124 32.4288C9.1332 35.9907 13.9626 37.9943 19 38V38ZM19 4.22223C21.9228 4.22223 24.7799 5.08893 27.2101 6.71273C29.6403 8.33654 31.5344 10.6445 32.6529 13.3448C33.7714 16.0451 34.064 19.0164 33.4938 21.883C32.9236 24.7496 31.5162 27.3828 29.4495 29.4495C27.3828 31.5162 24.7496 32.9236 21.883 33.4938C19.0164 34.064 16.0451 33.7714 13.3448 32.6529C10.6445 31.5344 8.33653 29.6403 6.71272 27.2101C5.08892 24.7799 4.22222 21.9228 4.22222 19C4.22669 15.0821 5.78506 11.3259 8.55547 8.55547C11.3259 5.78507 15.0821 4.2267 19 4.22223ZM10.4702 20.4927C10.0743 20.0968 9.85195 19.5599 9.85195 19C9.85195 18.4401 10.0743 17.9032 10.4702 17.5073L16.4413 11.536C16.8383 11.1454 17.3736 10.9275 17.9305 10.9298C18.4874 10.9321 19.0209 11.1543 19.4147 11.5481C19.8085 11.9419 20.0307 12.4754 20.033 13.0323C20.0353 13.5892 19.8174 14.1245 19.4268 14.5215L17.0599 16.8889H26.037C26.5969 16.8889 27.1339 17.1113 27.5298 17.5072C27.9257 17.9031 28.1481 18.4401 28.1481 19C28.1481 19.5599 27.9257 20.0969 27.5298 20.4928C27.1339 20.8887 26.5969 21.1111 26.037 21.1111H17.0595L19.427 23.4784C19.8211 23.8747 20.042 24.4111 20.0412 24.97C20.0404 25.5289 19.818 26.0647 19.4228 26.4599C19.0276 26.8551 18.4918 27.0774 17.9329 27.0782C17.374 27.0789 16.8376 26.858 16.4413 26.4638L10.4702 20.4927Z" fill="#4B9111"/>
</svg>
