<svg width="38" height="39" viewBox="0 0 38 39" fill="none" xmlns="http://www.w3.org/2000/svg">
<path d="M19 0.664062C15.2422 0.664063 11.5687 1.77839 8.44417 3.86614C5.31964 5.95389 2.88436 8.92128 1.4463 12.3931C0.00823243 15.8649 -0.368031 19.6851 0.365088 23.3708C1.09821 27.0564 2.90778 30.4419 5.56498 33.0991C8.22218 35.7563 11.6077 37.5659 15.2933 38.299C18.9789 39.0321 22.7992 38.6558 26.271 37.2178C29.7428 35.7797 32.7102 33.3444 34.7979 30.2199C36.8857 27.0954 38 23.4219 38 19.6641C37.9943 14.6267 35.9907 9.79727 32.4288 6.23531C28.8668 2.67335 24.0374 0.669743 19 0.664062ZM19 34.4418C16.0772 34.4418 13.2201 33.5751 10.7899 31.9513C8.35972 30.3275 6.46562 28.0196 5.34712 25.3193C4.22863 22.619 3.93598 19.6477 4.50618 16.7811C5.07638 13.9145 6.48383 11.2813 8.55054 9.21459C10.6172 7.14788 13.2504 5.74044 16.117 5.17023C18.9836 4.60003 21.9549 4.89268 24.6552 6.01118C27.3555 7.12967 29.6635 9.02377 31.2873 11.454C32.9111 13.8842 33.7778 16.7413 33.7778 19.6641C33.7733 23.582 32.2149 27.3382 29.4445 30.1086C26.6741 32.879 22.9179 34.4374 19 34.4418ZM27.5298 18.1713C27.9257 18.5672 28.1481 19.1042 28.1481 19.6641C28.1481 20.2239 27.9257 20.7609 27.5298 21.1568L21.5587 27.1281C21.1617 27.5187 20.6264 27.7365 20.0695 27.7343C19.5126 27.732 18.9791 27.5098 18.5853 27.116C18.1915 26.7222 17.9693 26.1887 17.967 25.6318C17.9647 25.0749 18.1826 24.5396 18.5732 24.1426L20.9401 21.7752H11.963C11.4031 21.7752 10.8661 21.5527 10.4702 21.1568C10.0743 20.7609 9.85186 20.224 9.85186 19.6641C9.85186 19.1042 10.0743 18.5672 10.4702 18.1713C10.8661 17.7754 11.4031 17.5529 11.963 17.5529H20.9405L18.573 15.1857C18.1789 14.7894 17.958 14.253 17.9588 13.6941C17.9596 13.1352 18.182 12.5994 18.5772 12.2042C18.9724 11.809 19.5082 11.5867 20.0671 11.5859C20.626 11.5852 21.1624 11.8061 21.5587 12.2002L27.5298 18.1713Z" fill="#61CC1F"/>
</svg>
