<svg width="38" height="39" viewBox="0 0 38 39" fill="none" xmlns="http://www.w3.org/2000/svg">
<path d="M19 38.6641C22.7578 38.6641 26.4313 37.5497 29.5558 35.462C32.6804 33.3742 35.1156 30.4068 36.5537 26.9351C37.9918 23.4633 38.368 19.643 37.6349 15.9574C36.9018 12.2717 35.0922 8.88624 32.435 6.22904C29.7778 3.57184 26.3923 1.76227 22.7067 1.02915C19.0211 0.296032 15.2008 0.672291 11.729 2.11036C8.25722 3.54842 5.28982 5.9837 3.20208 9.10823C1.11433 12.2328 0 15.9062 0 19.6641C0.00568008 24.7014 2.00928 29.5309 5.57124 33.0928C9.1332 36.6548 13.9626 38.6584 19 38.6641ZM19 4.88629C21.9228 4.88629 24.7799 5.75299 27.2101 7.37679C29.6403 9.0006 31.5344 11.3086 32.6529 14.0089C33.7714 16.7091 34.064 19.6805 33.4938 22.5471C32.9236 25.4137 31.5162 28.0468 29.4495 30.1135C27.3828 32.1802 24.7496 33.5877 21.883 34.1579C19.0164 34.7281 16.0451 34.4354 13.3448 33.3169C10.6445 32.1985 8.33653 30.3044 6.71272 27.8742C5.08892 25.444 4.22222 22.5868 4.22222 19.6641C4.22669 15.7461 5.78506 11.9899 8.55547 9.21954C11.3259 6.44913 15.0821 4.89076 19 4.88629ZM10.4702 21.1568C10.0743 20.7609 9.85195 20.2239 9.85195 19.6641C9.85195 19.1042 10.0743 18.5672 10.4702 18.1713L16.4413 12.2001C16.8383 11.8095 17.3736 11.5916 17.9305 11.5939C18.4874 11.5961 19.0209 11.8184 19.4147 12.2122C19.8085 12.606 20.0307 13.1394 20.033 13.6963C20.0353 14.2533 19.8174 14.7885 19.4268 15.1855L17.0599 17.553H26.037C26.5969 17.553 27.1339 17.7754 27.5298 18.1713C27.9257 18.5672 28.1481 19.1042 28.1481 19.6641C28.1481 20.224 27.9257 20.7609 27.5298 21.1568C27.1339 21.5528 26.5969 21.7752 26.037 21.7752H17.0595L19.427 24.1424C19.8211 24.5387 20.042 25.0751 20.0412 25.634C20.0404 26.1929 19.818 26.7287 19.4228 27.1239C19.0276 27.5191 18.4918 27.7415 17.9329 27.7422C17.374 27.743 16.8376 27.522 16.4413 27.1279L10.4702 21.1568Z" fill="#61CC1F"/>
</svg>
