<svg width="55" height="55" viewBox="0 0 55 55" fill="none" xmlns="http://www.w3.org/2000/svg">
<g filter="url(#filter0_d)">
<path d="M12.02 34.6646C12.02 34.6646 7.32306 31.2028 6.84337 30.6551C6.36367 30.1074 4.75138 29.3028 4.65145 30.9053C4.55151 32.5077 7.48295 34.171 8.33574 35.6382C9.18852 37.1055 11.0007 40.5876 14.0654 41.5274C14.0654 41.5274 10.6343 40.4523 8.81543 37.7816C6.9966 35.1109 6.86335 34.8607 5.38431 33.4408C3.90526 32.0209 3.59213 30.9729 3.99187 30.1818C4.11704 29.9479 4.30176 29.7524 4.52675 29.6156C4.75175 29.4789 5.00878 29.4059 5.27105 29.4043C5.27105 29.4043 5.09116 23.6301 4.7314 22.2237C4.37163 20.8173 2.91257 19.8504 2.6594 21.3379C2.40623 22.8254 1.84659 31.3313 2.0398 32.1561C2.23301 32.981 4.54485 36.9702 4.8713 38.194C5.19776 39.4179 6.10384 40.4997 8.86872 41.5747C11.6336 42.6498 16.6504 46.7134 17.7097 48.4916C18.2251 49.2811 18.6604 50.1216 19.0088 51.0001H25.8711C25.8711 51.0001 25.8378 41.6288 22.3867 39.3502C18.9356 37.0717 16.3972 37.998 12.02 34.6646Z" fill="#4B9111"/>
<path d="M5.47778 24.5425V29.3972C6.01427 29.4844 6.51045 29.7398 6.89687 30.1274C6.89687 30.1274 7.32326 25.2863 5.77093 24.3667C5.74073 24.3505 5.70696 24.3425 5.67283 24.3433C5.63869 24.3442 5.60534 24.3538 5.57594 24.3715C5.54655 24.3891 5.52209 24.4141 5.50491 24.444C5.48773 24.474 5.47839 24.5079 5.47778 24.5425Z" fill="#4B9111"/>
<path d="M7.16351 26.4833V30.3508C7.16351 30.3508 7.6965 30.8849 8.27613 31.3988C8.27613 31.3988 8.61591 27.0783 7.3967 26.3413C7.37249 26.3286 7.34549 26.3224 7.31826 26.3233C7.29104 26.3242 7.26449 26.3321 7.24113 26.3464C7.21777 26.3606 7.19838 26.3806 7.1848 26.4046C7.17121 26.4286 7.16389 26.4556 7.16351 26.4833Z" fill="#4B9111"/>
<path d="M8.54211 28.6262V31.5674C8.54211 31.5674 8.85525 31.8987 9.47485 32.4667C9.47485 32.4667 9.78131 29.1333 8.74199 28.5113C8.72189 28.4995 8.6991 28.4933 8.67589 28.4932C8.65268 28.4931 8.62985 28.4991 8.60965 28.5107C8.58946 28.5224 8.5726 28.5391 8.56076 28.5594C8.54891 28.5796 8.54248 28.6027 8.54211 28.6262Z" fill="#4B9111"/>
<path d="M42.8668 34.6646C42.8668 34.6646 47.5305 31.2027 48.0368 30.6551C48.5431 30.1074 50.1354 29.3028 50.2287 30.9052C50.322 32.5077 47.4039 34.171 46.5511 35.6382C45.6983 37.1054 43.8861 40.5875 40.8148 41.5274C40.8148 41.5274 44.2459 40.4523 46.0714 37.7816C47.8969 35.1108 48.0235 34.8606 49.5025 33.4408C50.9816 32.0209 51.2947 30.9729 50.895 30.1818C50.7703 29.9474 50.5858 29.7515 50.3606 29.6146C50.1355 29.4778 49.8782 29.4051 49.6158 29.4042C49.6158 29.4042 49.7957 23.6097 50.1488 22.2236C50.5019 20.8376 51.9743 19.8504 52.2341 21.3379C52.4939 22.8254 53.0469 31.3312 52.847 32.1561C52.6472 32.981 50.3486 36.9702 50.0222 38.194C49.6957 39.4178 48.783 40.4996 46.0248 41.5747C43.2665 42.6497 38.2498 46.7133 37.1771 48.4916C36.6502 49.2796 36.2037 50.1201 35.8447 51H29.0157C29.0157 51 29.0157 41.6288 32.4935 39.3502C35.9713 37.0716 38.4896 37.9979 42.8668 34.6646Z" fill="#4B9111"/>
<path d="M49.4028 24.5426V29.3973C48.8586 29.4787 48.3544 29.7346 47.9637 30.1275C47.9637 30.1275 47.5506 25.2864 49.083 24.3669C49.1136 24.3434 49.1502 24.3294 49.1884 24.3265C49.2266 24.3236 49.2649 24.3319 49.2986 24.3504C49.3323 24.3689 49.36 24.3969 49.3785 24.431C49.397 24.4651 49.4054 24.5038 49.4028 24.5426Z" fill="#4B9111"/>
<path d="M47.7172 26.4833V30.3508C47.7172 30.3508 47.1909 30.8849 46.6112 31.3988C46.6112 31.3988 46.2648 27.0783 47.484 26.3413C47.5082 26.3286 47.5352 26.3224 47.5624 26.3233C47.5897 26.3242 47.6162 26.3321 47.6396 26.3464C47.6629 26.3606 47.6823 26.3806 47.6959 26.4046C47.7095 26.4286 47.7168 26.4556 47.7172 26.4833Z" fill="#4B9111"/>
<path d="M46.3446 28.6262V31.5674C46.3446 31.5674 46.0314 31.8987 45.4052 32.4667C45.4052 32.4667 45.1054 29.1333 46.1447 28.5113C46.1648 28.4995 46.1876 28.4933 46.2108 28.4932C46.234 28.4931 46.2568 28.4991 46.277 28.5107C46.2972 28.5224 46.3141 28.5391 46.3259 28.5594C46.3378 28.5796 46.3442 28.6027 46.3446 28.6262Z" fill="#4B9111"/>
<path d="M47.2975 21.0267C48.1167 18.8457 48.2134 16.4532 47.5728 14.2114C46.9322 11.9696 45.5893 10.0008 43.7473 8.603C41.9054 7.20522 39.6648 6.45465 37.3649 6.46497C35.065 6.47528 32.831 7.24592 31.0013 8.66016C30.4841 5.99782 28.9927 3.63298 26.8272 2.04124C24.6617 0.4495 21.9826 -0.251058 19.3288 0.08046C16.6749 0.411978 14.2432 1.75098 12.5227 3.82817C10.8021 5.90536 9.92042 8.56665 10.0548 11.2768C10.0548 11.2768 10.2414 21.8584 21.3809 34.1708V34.2317H21.4475L21.4941 34.279V34.2249C37.8702 32.5481 44.9523 24.759 44.9523 24.759C45.9813 23.694 46.78 22.4228 47.2975 21.0267Z" fill="#4B9111"/>
</g>
<defs>
<filter id="filter0_d" x="0" y="0" width="54.8897" height="55.0001" filterUnits="userSpaceOnUse" color-interpolation-filters="sRGB">
<feFlood flood-opacity="0" result="BackgroundImageFix"/>
<feColorMatrix in="SourceAlpha" type="matrix" values="0 0 0 0 0 0 0 0 0 0 0 0 0 0 0 0 0 0 127 0"/>
<feOffset dy="2"/>
<feGaussianBlur stdDeviation="1"/>
<feColorMatrix type="matrix" values="0 0 0 0 0 0 0 0 0 0 0 0 0 0 0 0 0 0 0.45 0"/>
<feBlend mode="normal" in2="BackgroundImageFix" result="effect1_dropShadow"/>
<feBlend mode="normal" in="SourceGraphic" in2="effect1_dropShadow" result="shape"/>
</filter>
</defs>
</svg>
