<svg width="58" height="56" viewBox="0 0 58 56" fill="none" xmlns="http://www.w3.org/2000/svg">
<g filter="url(#filter0_d)">
<path d="M25.7896 15.1098L23.0099 13.3708L31.8452 0H21.2833C20.618 4.57795e-05 19.9637 0.169239 19.3815 0.491719C18.7994 0.814199 18.3086 1.27941 17.9551 1.84373L14.1897 7.85656L11.4893 6.16661L15.5399 15.5982L25.7896 15.1098Z" fill="#61CC1F"/>
<path d="M30.9642 2.58567L28.8444 6.0095L34.7059 16.6984L37.6206 11.1875L44.2653 11.3886L39.8333 2.91014C39.4156 2.11047 38.794 1.43569 38.0317 0.954257C37.2694 0.472827 36.3935 0.201889 35.4928 0.168939C34.5922 0.135989 33.6988 0.342199 32.9035 0.766644C32.1081 1.19109 31.439 1.81866 30.9642 2.58567Z" fill="#61CC1F"/>
<path d="M20.2518 38.13L4.27051 37.1549L9.55147 46.3127C9.88411 46.8897 10.3577 47.3725 10.9277 47.716C11.4978 48.0595 12.1456 48.2523 12.8105 48.2765L19.899 48.5367L19.7893 51.7256L25.9243 43.499L20.3733 34.8481L20.2518 38.13Z" fill="#61CC1F"/>
<path d="M10.9675 36.7512L17.2831 26.3242L11.0587 26.5507L7.91101 20.6899L2.79376 28.7729C2.31142 29.5349 2.0389 30.4111 2.00387 31.3126C1.96883 32.2141 2.17251 33.1088 2.59425 33.906C3.01599 34.7032 3.64079 35.3746 4.40529 35.852C5.16978 36.3294 6.04677 36.5959 6.94731 36.6244L10.9675 36.7512Z" fill="#61CC1F"/>
<path d="M55.5427 29.5217L52.2263 23.2503L55.0398 21.7513L44.861 20.5447L40.1522 29.6839L43.0466 28.141L50.1926 42.4869L55.4735 33.3291C55.8063 32.7523 55.9872 32.1003 55.9993 31.4343C56.0114 30.7683 55.8543 30.1102 55.5427 29.5217Z" fill="#61CC1F"/>
<path d="M46.4962 36.8816L34.3191 36.6196L37.6271 41.9108L34.1318 47.5722L43.6794 47.9608C44.5805 47.9999 45.476 47.7994 46.2747 47.3797C47.0735 46.9601 47.7471 46.3362 48.2271 45.5715C48.707 44.8068 48.9764 43.9285 49.0076 43.0258C49.0389 42.1232 48.831 41.2283 48.405 40.4321L46.4962 36.8816Z" fill="#61CC1F"/>
<path d="M34.9034 25.7545C35.8088 25.0818 36.5201 24.1808 36.9648 23.1433C37.4095 22.1058 37.5717 20.9689 37.435 19.8482C36.6257 19.4879 35.7503 19.3004 34.8646 19.2976C33.9789 19.2949 33.1024 19.4769 32.2909 19.832C31.4793 20.1872 30.7506 20.7078 30.1511 21.3606C29.5516 22.0134 29.0945 22.7841 28.8089 23.6235C28.2383 22.516 27.2664 21.6689 26.0922 21.2557C24.918 20.8425 23.6304 20.8946 22.4934 21.4012C22.3976 22.1867 22.494 22.9836 22.7742 23.7234C23.0543 24.4633 23.5098 25.1238 24.1015 25.6483C24.6932 26.1727 25.4033 26.5453 26.1707 26.734C26.9381 26.9227 27.7398 26.9218 28.5068 26.7313V34.3817H29.3507V26.7584C30.291 27.0295 31.2811 27.08 32.2441 26.9059C33.2071 26.7318 34.1171 26.3378 34.9034 25.7545Z" fill="#61CC1F"/>
</g>
<defs>
<filter id="filter0_d" x="0" y="0" width="58" height="55.7256" filterUnits="userSpaceOnUse" color-interpolation-filters="sRGB">
<feFlood flood-opacity="0" result="BackgroundImageFix"/>
<feColorMatrix in="SourceAlpha" type="matrix" values="0 0 0 0 0 0 0 0 0 0 0 0 0 0 0 0 0 0 127 0"/>
<feOffset dy="2"/>
<feGaussianBlur stdDeviation="1"/>
<feColorMatrix type="matrix" values="0 0 0 0 0 0 0 0 0 0 0 0 0 0 0 0 0 0 0.45 0"/>
<feBlend mode="normal" in2="BackgroundImageFix" result="effect1_dropShadow"/>
<feBlend mode="normal" in="SourceGraphic" in2="effect1_dropShadow" result="shape"/>
</filter>
</defs>
</svg>
