<svg width="64" height="80" viewBox="0 0 64 80" fill="none" xmlns="http://www.w3.org/2000/svg">
<g filter="url(#filter0_d)">
<path d="M40.3663 55.4114C40.4048 55.2538 40.4048 55.0893 40.3663 54.9318C39.8514 53.1192 39.5199 51.2362 38.4056 49.6634C38.0836 49.2917 37.9011 48.8195 37.8895 48.3278C37.8779 47.8361 38.038 47.3558 38.3422 46.9693C38.6921 46.3593 38.9985 45.7254 39.259 45.0722C37.8485 45.0722 37.1432 44.1342 36.318 43.3231C36.0991 43.1123 35.8295 42.9617 35.5352 42.8858C34.5549 42.6319 33.5675 42.4204 32.5801 42.1806C32.45 42.1644 32.3269 42.1123 32.2248 42.0301C32.1226 41.9479 32.0454 41.8388 32.0018 41.7151C31.6915 41.0098 31.3459 40.3046 31.0215 39.6416H30.9228V40.9534C30.7793 41.0193 30.6158 41.0268 30.467 40.9741C30.3182 40.9214 30.1958 40.8128 30.1258 40.6713C29.2019 39.3948 28.2498 38.1394 27.3047 36.8629C27.1648 36.6537 27.0865 36.4092 27.0791 36.1576C27.0791 35.1914 27.0791 34.2252 27.0791 33.259C27.0703 33.028 27.0049 32.8028 26.8886 32.6031C26.2751 31.5663 25.6192 30.5578 25.0197 29.514C24.9458 29.3346 24.8057 29.1905 24.6284 29.1117C24.4511 29.0329 24.2502 29.0255 24.0676 29.0908C22.49 29.45 20.8818 29.6578 19.2647 29.7115C18.4668 29.7009 17.696 29.4199 17.0784 28.9145L18.5665 27.7156C18.1301 27.7575 17.6982 27.8377 17.2759 27.9554C17.1394 27.9992 17.0222 28.0889 16.9444 28.2093C15.6972 30.3571 14.8243 32.7015 14.3631 35.142C14.1656 36.207 14.0598 37.2578 13.9117 38.358V40.763C14.0316 41.6587 14.1022 42.5614 14.2714 43.4501C14.8571 46.887 16.231 50.1415 18.2855 52.9583C20.34 55.7751 23.0191 58.0777 26.1128 59.6853C28.8771 61.1873 31.9367 62.0659 35.0768 62.2595C35.1934 62.2755 35.3088 62.2991 35.4224 62.33H37.926L39.6187 62.1184C39.6187 61.8716 39.5834 61.653 39.5693 61.4132C39.393 60.3889 39.4146 59.3403 39.6328 58.3241C39.9361 57.3861 40.1335 56.4199 40.3663 55.4114Z" fill="#61CC1F"/>
<path d="M47.1717 26.4886C46.8718 26.2453 46.6589 25.9112 46.5651 25.5365C46.2853 24.2126 45.5733 23.0192 44.541 22.1442C43.6877 21.4389 42.7355 21.5377 41.8328 21.2415C41.7304 21.5003 41.7149 21.7854 41.7887 22.0539C41.8625 22.3223 42.0215 22.5594 42.2419 22.7296C42.743 23.1678 43.2142 23.639 43.6524 24.1401C44.0614 24.5633 44.4352 25.0217 44.809 25.4519C44.5292 25.7534 44.1539 25.9489 43.7465 26.0055C43.3391 26.062 42.9247 25.9761 42.5733 25.7622C42.395 25.6562 42.2027 25.5754 42.0021 25.5224C41.8854 25.5217 41.7706 25.4919 41.6682 25.4359C41.5658 25.3799 41.4789 25.2994 41.4153 25.2015C41.3517 25.1037 41.3134 24.9916 41.3038 24.8752C41.2942 24.7589 41.3136 24.642 41.3603 24.535C41.3603 24.3869 41.3603 24.1119 41.2545 24.0696C40.6973 23.8016 40.119 23.59 39.5336 23.3643C39.3644 24.0696 39.174 24.7114 39.0752 25.3743C39.0752 25.4833 39.0536 25.5911 39.0117 25.6917C38.9698 25.7923 38.9084 25.8836 38.831 25.9603C38.7537 26.037 38.6619 26.0976 38.5609 26.1387C38.46 26.1797 38.352 26.2004 38.243 26.1995C37.8763 26.2418 37.3332 26.2488 37.2063 26.4675C37.0793 26.6861 37.1639 27.2503 37.2063 27.6523C37.2063 27.7652 37.3262 27.9556 37.4178 27.9767C38.1231 28.139 38.8989 28.2659 39.6676 28.414C39.8157 27.603 39.9568 26.8342 40.1049 26.0091C40.8255 26.0623 41.5365 26.2069 42.2207 26.4393C42.8006 26.7635 43.462 26.9129 44.1249 26.8695C44.2548 26.8397 44.3913 26.8622 44.5047 26.9321C44.6182 27.0021 44.6996 27.1138 44.7314 27.2433C45.1925 28.4248 45.9388 29.4739 46.9037 30.2971C47.2281 30.5792 47.5102 30.9036 47.8135 31.2139C48.3495 31.757 48.3847 32.0109 47.9686 32.8078C46.5581 32.2577 45.338 32.7091 44.0403 33.372C42.7132 34.0002 41.5551 34.9359 40.6621 36.1014C40.0203 36.9759 39.1598 37.7094 39.0611 38.9225C39.0431 38.9724 39.0131 39.0172 38.9738 39.0529C38.9344 39.0885 38.8869 39.114 38.8354 39.127C38.454 39.1195 38.075 39.065 37.707 38.9648C37.2768 38.8308 36.8748 38.5839 36.4516 38.4076C36.3311 38.3628 36.1984 38.3628 36.0778 38.4076C35.5348 38.6474 35.0058 38.9084 34.4487 39.1693C34.5968 39.7899 34.7378 40.3753 34.8718 40.9607L34.9565 41.0665C35.3585 40.0791 36.1343 40.0297 37.0088 40.1496C37.0088 40.6927 36.9524 41.2357 36.9242 41.8141C37.2686 41.8271 37.6055 41.9191 37.9087 42.0829C38.212 42.2468 38.4736 42.4781 38.6732 42.7591C38.7261 42.8636 38.8001 42.956 38.8905 43.0304C38.9808 43.1048 39.0857 43.1597 39.1984 43.1915C39.3111 43.2233 39.4292 43.2314 39.5451 43.2152C39.6611 43.1991 39.7725 43.159 39.8722 43.0976C40.2877 42.9077 40.7414 42.816 41.1981 42.8296C42.2842 42.9777 43.3562 43.2528 44.4282 43.4714C45.0559 43.6054 45.6836 43.7112 46.3042 43.8664C46.5562 43.9084 46.7883 44.0295 46.9671 44.212C48.0569 45.6483 49.4673 46.81 51.0859 47.6043C51.5373 47.8229 51.9604 48.1121 52.3977 48.366L52.7292 48.5917C51.8969 50.1856 51.0859 51.7513 50.2537 53.3099C50.1631 53.4425 50.0356 53.5455 49.8869 53.6061C49.1817 53.9376 48.4764 54.2408 47.7711 54.5935C47.5715 54.7032 47.4149 54.8772 47.3268 55.0872C47.0447 55.7924 46.8261 56.4554 46.544 57.1254C46.4424 57.3772 46.2742 57.5967 46.0573 57.7601C45.0911 58.4654 44.139 59.1354 43.1234 59.7137C42.3194 60.158 42.3194 60.8915 42.1008 61.5968C42.1498 61.605 42.1999 61.605 42.2489 61.5968L42.4252 61.5545C46.6815 60.4601 50.5328 58.1638 53.5192 54.9397C56.5057 51.7156 58.501 47.7001 59.267 43.3727C59.4362 42.4135 59.4997 41.4332 59.6126 40.4599V38.4076C59.6126 38.2666 59.5561 38.1185 59.5491 37.9774C59.3149 34.2372 58.1488 30.615 56.1568 27.4407C55.7759 26.8272 55.7759 26.8272 55.0918 26.9682C55.0191 26.9751 54.9459 26.9751 54.8732 26.9682C53.8646 27.0528 52.8561 27.1586 51.8476 27.2292C51.7024 27.2233 51.5587 27.2594 51.4336 27.3332C51.3085 27.407 51.2074 27.5154 51.1423 27.6453C50.9025 28.0825 50.6134 28.4986 50.2889 29.0135C49.8886 28.7803 49.5024 28.5236 49.1323 28.2447C48.4835 27.6946 47.8417 27.067 47.1717 26.4886Z" fill="#61CC1F"/>
<path d="M36.8475 14.5346C40.8957 5.02058 47.2008 5.0911 47.2008 5.0911C40.1975 7.09406 37.722 15.6701 37.722 15.6701C47.0809 17.1723 49.8878 3.92036 49.8878 3.92036C49.8878 3.92036 42.941 2.82015 38.9915 5.38026C35.042 7.94038 36.8475 14.5346 36.8475 14.5346Z" fill="#61CC1F"/>
<path d="M25.9783 13.3992C29.3566 16.4601 35.4853 15.0495 35.4853 15.0495C35.8822 15.5096 36.1971 16.0344 36.4163 16.6011H35.3302C34.5685 16.6998 33.8068 16.7845 33.0451 16.9114C28.8547 17.5845 24.9416 19.4334 21.7608 22.2432C20.8652 23.0261 20.0541 23.9147 19.2078 24.754L19.2924 24.8598L19.7085 24.7469C21.2846 24.2188 22.9143 23.8663 24.5678 23.6961C25.7731 23.6623 26.9443 23.2883 27.946 22.617C28.0689 22.5309 28.2117 22.4774 28.3609 22.4613C28.5101 22.4453 28.661 22.4673 28.7994 22.5253C29.3815 22.7458 29.9875 22.8973 30.6049 22.9767C31.5728 22.9848 32.5405 22.9401 33.5035 22.8427C33.6969 22.8079 33.8704 22.7023 33.9902 22.5465C34.2864 22.1374 34.5191 21.6861 34.8224 21.277C34.8788 21.2152 34.9474 21.1658 35.0239 21.1318C35.1003 21.0978 35.183 21.08 35.2667 21.0795C35.8531 21.1682 36.4442 21.2224 37.0369 21.2418C38.1794 21.1924 39.3149 21.0443 40.4504 20.9173C40.6348 20.8891 40.8053 20.8026 40.937 20.6705C41.3743 20.2755 41.7833 19.8453 42.2065 19.4363C42.5583 19.0863 43.0019 18.843 43.4861 18.7344C43.9703 18.6259 44.4754 18.6565 44.9429 18.8227C45.408 18.9071 45.8816 18.9356 46.3535 18.9073V18.7592C44.5606 17.919 42.6629 17.3236 40.7113 16.989C39.8791 16.8409 39.0399 16.7492 38.2006 16.6293H37.1497C31.5147 3.79348 18.6154 2.11494 18.6154 2.11494C27.4594 1.16989 35.5911 11.0225 35.5911 11.0225C35.2032 9.19581 36.4797 6.60044 36.4797 6.60044C27.8332 -5.07171 15.6321 2.29126 15.6321 2.29126C19.6803 4.05443 22.5789 10.3666 25.9783 13.3992ZM30.9152 21.1571C30.8142 21.1624 30.7145 21.1325 30.6331 21.0725L29.3636 20.3249L30.9152 19.133C30.9337 19.1285 30.9531 19.1285 30.9716 19.133C31.2507 19.3162 31.575 19.4185 31.9087 19.4285C32.2424 19.4384 32.5723 19.3557 32.8617 19.1894C33.1368 19.0625 33.2919 19.1401 33.4189 19.4081C33.5458 19.6761 33.7504 19.9934 33.9549 20.3461L30.9152 21.1571ZM39.9144 17.7154C39.9643 17.693 40.0184 17.6815 40.0731 17.6815C40.1278 17.6815 40.1818 17.693 40.2318 17.7154C40.662 17.9482 41.0781 18.195 41.5647 18.4771C40.9142 19.0692 40.2053 19.5938 39.4489 20.0428C38.7922 20.2791 38.0906 20.3634 37.3966 20.2896C37.0792 20.2896 36.7689 19.9511 36.3598 19.7113L37.5941 19.0061C37.6773 18.989 37.7535 18.9472 37.8127 18.8862L39.9144 17.7154Z" fill="#61CC1F"/>
<path d="M57.7942 25.5086C57.7248 25.4048 57.624 25.3259 57.5066 25.2834C57.3891 25.2409 57.2611 25.2372 57.1414 25.2726C57.0216 25.3081 56.9163 25.3809 56.8409 25.4805C56.7655 25.58 56.7239 25.7011 56.7222 25.826C58.8606 28.9515 60.2352 32.5355 60.7351 36.2893C61.235 40.0432 60.8464 43.862 59.6005 47.4382C58.3545 51.0144 56.2862 54.248 53.562 56.8786C50.8377 59.5092 47.5338 61.4632 43.9162 62.5834C40.2986 63.7035 36.4686 63.9584 32.7345 63.3275C29.0004 62.6966 25.4666 61.1976 22.4179 58.9512C19.3691 56.7048 16.8904 53.7738 15.1816 50.3943C13.4728 47.0147 12.5815 43.2811 12.5796 39.4941C12.4753 34.7863 13.8546 30.165 16.5221 26.2844C16.5522 26.14 16.5266 25.9895 16.4506 25.8631C16.3745 25.7367 16.2534 25.6436 16.1117 25.6026C15.97 25.5616 15.818 25.5757 15.6861 25.6419C15.5543 25.7082 15.4523 25.8218 15.4007 25.96C12.9612 29.8 11.6036 34.2274 11.4712 38.7749C11.3387 43.3223 12.4364 47.8212 14.6484 51.7966C16.8603 55.7721 20.1045 59.0767 24.0384 61.3616C27.9724 63.6465 32.4502 64.8271 36.9993 64.7786C41.5485 64.7301 46.0001 63.4545 49.8845 61.0862C53.7689 58.718 56.9419 55.3451 59.0686 51.3234C61.1954 47.3017 62.197 42.7805 61.9677 38.2369C61.7384 33.6933 60.2868 29.2958 57.766 25.5086H57.7942Z" fill="#61CC1F"/>
<path d="M6.93708 57.1263C6.85852 57.1263 6.78318 57.0951 6.72763 57.0395C6.67208 56.984 6.64087 56.9086 6.64087 56.8301V51.9496C6.64086 51.9111 6.64856 51.8729 6.66353 51.8373C6.67851 51.8018 6.70044 51.7696 6.72804 51.7426C6.75564 51.7157 6.78836 51.6945 6.82426 51.6804C6.86016 51.6663 6.89852 51.6595 6.93708 51.6605C7.01377 51.6605 7.08732 51.691 7.14155 51.7452C7.19577 51.7994 7.22624 51.873 7.22624 51.9496V56.8301C7.22718 56.8686 7.2204 56.907 7.20629 56.9429C7.19218 56.9788 7.17103 57.0115 7.14408 57.0391C7.11714 57.0667 7.08494 57.0887 7.04939 57.1036C7.01384 57.1186 6.97565 57.1263 6.93708 57.1263Z" fill="#61CC1F"/>
<path d="M6.93708 64.3547C6.89852 64.3557 6.86016 64.3489 6.82426 64.3348C6.78836 64.3207 6.75564 64.2995 6.72804 64.2726C6.70044 64.2456 6.67851 64.2134 6.66353 64.1779C6.64856 64.1423 6.64086 64.1041 6.64087 64.0656V59.1851C6.64087 59.1462 6.64853 59.1077 6.66342 59.0718C6.6783 59.0358 6.70012 59.0032 6.72763 58.9757C6.75513 58.9482 6.78779 58.9263 6.82373 58.9115C6.85966 58.8966 6.89818 58.8889 6.93708 58.8889C6.97565 58.8889 7.01384 58.8966 7.04939 58.9116C7.08494 58.9266 7.11714 58.9485 7.14408 58.9761C7.17103 59.0037 7.19218 59.0364 7.20629 59.0723C7.2204 59.1082 7.22718 59.1466 7.22624 59.1851V64.0656C7.22624 64.1423 7.19577 64.2158 7.14155 64.27C7.08732 64.3243 7.01377 64.3547 6.93708 64.3547Z" fill="#61CC1F"/>
<path d="M2 58.0635C2 57.9013 2.09168 57.7673 2.20453 57.7673H5.60391C5.71675 57.7673 5.80844 57.9013 5.80844 58.0635C5.80844 58.2258 5.71675 58.3527 5.60391 58.3527H2.20453C2.09168 58.3527 2 58.2258 2 58.0635Z" fill="#61CC1F"/>
<path d="M8.1225 58.0635C8.1225 57.9013 8.21418 57.7673 8.32702 57.7673H11.7264C11.8392 57.7673 11.9309 57.9013 11.9309 58.0635C11.9309 58.2258 11.8392 58.3527 11.7264 58.3527H8.34818C8.21418 58.3527 8.1225 58.2258 8.1225 58.0635Z" fill="#61CC1F"/>
<path d="M53.0679 13.7165C53.0274 13.7167 52.9874 13.7084 52.9503 13.6922C52.9132 13.6759 52.88 13.652 52.8528 13.6221C52.8255 13.5922 52.8048 13.5569 52.7921 13.5185C52.7793 13.4801 52.7748 13.4394 52.7787 13.3992V8.54694C52.7778 8.50838 52.7846 8.47002 52.7987 8.43412C52.8128 8.39822 52.8339 8.36551 52.8609 8.3379C52.8878 8.3103 52.92 8.28837 52.9556 8.2734C52.9911 8.25843 53.0293 8.25072 53.0679 8.25073C53.1464 8.25073 53.2218 8.28194 53.2773 8.33749C53.3329 8.39304 53.3641 8.46838 53.3641 8.54694V13.3992C53.3681 13.44 53.3634 13.4813 53.3502 13.5202C53.337 13.5591 53.3157 13.5948 53.2877 13.6248C53.2597 13.6548 53.2256 13.6785 53.1877 13.6944C53.1498 13.7102 53.1089 13.7177 53.0679 13.7165Z" fill="#61CC1F"/>
<path d="M53.069 20.9527C53.0305 20.9527 52.9923 20.945 52.9567 20.93C52.9212 20.9151 52.889 20.8931 52.862 20.8655C52.8351 20.8379 52.8139 20.8052 52.7998 20.7693C52.7857 20.7334 52.7789 20.6951 52.7799 20.6565V15.7761C52.7799 15.6994 52.8103 15.6258 52.8646 15.5716C52.9188 15.5174 52.9923 15.4869 53.069 15.4869C53.1076 15.486 53.146 15.4927 53.1819 15.5069C53.2178 15.521 53.2505 15.5421 53.2781 15.5691C53.3057 15.596 53.3276 15.6282 53.3426 15.6638C53.3575 15.6993 53.3653 15.7375 53.3652 15.7761V20.6565C53.3652 20.7351 53.334 20.8104 53.2785 20.866C53.2229 20.9215 53.1476 20.9527 53.069 20.9527Z" fill="#61CC1F"/>
<path d="M48.1375 14.6544C48.1375 14.4922 48.2291 14.3582 48.342 14.3582H51.7414C51.8542 14.3582 51.9459 14.4922 51.9459 14.6544C51.9459 14.8166 51.8542 14.9435 51.7414 14.9435H48.342C48.2291 14.9435 48.1375 14.8095 48.1375 14.6544Z" fill="#61CC1F"/>
<path d="M54.2667 14.6544C54.2667 14.4922 54.3583 14.3582 54.4712 14.3582H57.8706C57.9834 14.3582 58.0751 14.4922 58.0751 14.6544C58.0751 14.8166 57.9834 14.9435 57.8706 14.9435H54.4712C54.3583 14.9435 54.2667 14.8095 54.2667 14.6544Z" fill="#61CC1F"/>
<path d="M16.8746 14.4435C16.8316 14.4435 16.7903 14.4264 16.7599 14.396C16.7295 14.3655 16.7124 14.3243 16.7124 14.2813V11.5025C16.7114 11.4806 16.7149 11.4588 16.7226 11.4383C16.7304 11.4178 16.7422 11.399 16.7573 11.3832C16.7725 11.3674 16.7907 11.3548 16.8108 11.3462C16.831 11.3376 16.8527 11.3332 16.8746 11.3333C16.9195 11.3333 16.9625 11.3511 16.9943 11.3828C17.026 11.4146 17.0438 11.4576 17.0438 11.5025V14.2813C17.0439 14.3032 17.0395 14.3249 17.0309 14.345C17.0223 14.3652 17.0097 14.3834 16.9939 14.3985C16.9781 14.4137 16.9593 14.4255 16.9388 14.4332C16.9183 14.4409 16.8965 14.4444 16.8746 14.4435Z" fill="#61CC1F"/>
<path d="M16.8746 18.5611C16.8527 18.5611 16.831 18.5567 16.8108 18.5481C16.7907 18.5395 16.7725 18.5269 16.7573 18.5111C16.7422 18.4953 16.7304 18.4765 16.7226 18.456C16.7149 18.4355 16.7114 18.4137 16.7124 18.3918V15.613C16.7124 15.57 16.7295 15.5288 16.7599 15.4983C16.7903 15.4679 16.8316 15.4508 16.8746 15.4508C16.8965 15.4499 16.9183 15.4534 16.9388 15.4611C16.9593 15.4688 16.9781 15.4806 16.9939 15.4958C17.0097 15.5109 17.0223 15.5291 17.0309 15.5493C17.0395 15.5695 17.0439 15.5911 17.0438 15.613V18.3918C17.0438 18.4367 17.026 18.4797 16.9943 18.5115C16.9625 18.5432 16.9195 18.5611 16.8746 18.5611Z" fill="#61CC1F"/>
<path d="M14.0659 14.9791C14.0659 14.8874 14.1223 14.8098 14.1858 14.8098H16.1041C16.1676 14.8098 16.224 14.8874 16.224 14.9791C16.224 15.0708 16.1676 15.1413 16.1041 15.1413H14.1858C14.1223 15.1413 14.0659 15.0708 14.0659 14.9791Z" fill="#61CC1F"/>
<path d="M17.5575 14.9791C17.5575 14.8874 17.6069 14.8098 17.6703 14.8098H19.631C19.6945 14.8098 19.7438 14.8874 19.7438 14.9791C19.7438 15.0708 19.6945 15.1413 19.631 15.1413H17.6703C17.6069 15.1413 17.5575 15.0708 17.5575 14.9791Z" fill="#61CC1F"/>
<path d="M58.0548 71.16C58.0329 71.161 58.0111 71.1575 57.9906 71.1498C57.9701 71.142 57.9514 71.1302 57.9355 71.1151C57.9197 71.0999 57.9071 71.0817 57.8985 71.0616C57.89 71.0414 57.8855 71.0197 57.8856 70.9978V68.2191C57.8856 68.1742 57.9034 68.1311 57.9351 68.0994C57.9669 68.0676 58.0099 68.0498 58.0548 68.0498C58.0767 68.0498 58.0984 68.0542 58.1186 68.0628C58.1387 68.0714 58.1569 68.084 58.1721 68.0998C58.1873 68.1156 58.199 68.1343 58.2068 68.1548C58.2145 68.1753 58.218 68.1972 58.217 68.2191V70.9978C58.217 71.0408 58.1999 71.0821 58.1695 71.1125C58.1391 71.1429 58.0978 71.16 58.0548 71.16Z" fill="#61CC1F"/>
<path d="M58.0548 75.2789C58.0329 75.2799 58.0111 75.2764 57.9906 75.2687C57.9701 75.2609 57.9514 75.2491 57.9355 75.234C57.9197 75.2188 57.9071 75.2006 57.8985 75.1805C57.89 75.1603 57.8855 75.1386 57.8856 75.1167V72.338C57.8856 72.2931 57.9034 72.25 57.9351 72.2183C57.9669 72.1865 58.0099 72.1687 58.0548 72.1687C58.0767 72.1687 58.0984 72.1731 58.1186 72.1817C58.1387 72.1903 58.1569 72.2029 58.1721 72.2187C58.1873 72.2345 58.199 72.2532 58.2068 72.2737C58.2145 72.2942 58.218 72.3161 58.217 72.338V75.1167C58.217 75.1597 58.1999 75.201 58.1695 75.2314C58.1391 75.2618 58.0978 75.2789 58.0548 75.2789Z" fill="#61CC1F"/>
<path d="M55.2484 71.6966C55.2484 71.6049 55.2977 71.5273 55.3612 71.5273H57.3007C57.3642 71.5273 57.4135 71.6049 57.4135 71.6966C57.4135 71.7883 57.3642 71.8659 57.3007 71.8659H55.3612C55.2977 71.8659 55.2484 71.7883 55.2484 71.6966Z" fill="#61CC1F"/>
<path d="M58.7318 71.6966C58.7318 71.6049 58.7812 71.5273 58.8517 71.5273H60.7841C60.8476 71.5273 60.897 71.6049 60.897 71.6966C60.897 71.7883 60.8476 71.8659 60.7841 71.8659H58.8517C58.7812 71.8659 58.7318 71.7883 58.7318 71.6966Z" fill="#61CC1F"/>
</g>
<defs>
<filter id="filter0_d" x="0" y="0" width="63.9998" height="79.2791" filterUnits="userSpaceOnUse" color-interpolation-filters="sRGB">
<feFlood flood-opacity="0" result="BackgroundImageFix"/>
<feColorMatrix in="SourceAlpha" type="matrix" values="0 0 0 0 0 0 0 0 0 0 0 0 0 0 0 0 0 0 127 0"/>
<feOffset dy="2"/>
<feGaussianBlur stdDeviation="1"/>
<feColorMatrix type="matrix" values="0 0 0 0 0 0 0 0 0 0 0 0 0 0 0 0 0 0 0.45 0"/>
<feBlend mode="normal" in2="BackgroundImageFix" result="effect1_dropShadow"/>
<feBlend mode="normal" in="SourceGraphic" in2="effect1_dropShadow" result="shape"/>
</filter>
</defs>
</svg>
