<svg width="64" height="50" viewBox="0 0 64 50" fill="none" xmlns="http://www.w3.org/2000/svg">
<g filter="url(#filter0_d)">
<path d="M32 22.6415L2 7.37029V3.77359C2 2.71227 2.37109 1.818 3.11328 1.0908C3.85547 0.363601 4.73438 0 5.75 0H58.25C59.2656 0 60.1445 0.363601 60.8867 1.0908C61.6289 1.818 62 2.71227 62 3.77359V7.37029L32 22.6415ZM30.125 26.4151H33.875L62 11.7335V41.5094C62 42.5315 61.6289 43.4159 60.8867 44.1628C60.1445 44.9096 59.2656 45.283 58.25 45.283H5.75C4.73438 45.283 3.85547 44.9096 3.11328 44.1628C2.37109 43.4159 2 42.5315 2 41.5094V11.7335L30.125 26.4151Z" fill="#61CC1F"/>
</g>
<defs>
<filter id="filter0_d" x="0" y="0" width="64" height="49.283" filterUnits="userSpaceOnUse" color-interpolation-filters="sRGB">
<feFlood flood-opacity="0" result="BackgroundImageFix"/>
<feColorMatrix in="SourceAlpha" type="matrix" values="0 0 0 0 0 0 0 0 0 0 0 0 0 0 0 0 0 0 127 0"/>
<feOffset dy="2"/>
<feGaussianBlur stdDeviation="1"/>
<feColorMatrix type="matrix" values="0 0 0 0 0 0 0 0 0 0 0 0 0 0 0 0 0 0 0.45 0"/>
<feBlend mode="normal" in2="BackgroundImageFix" result="effect1_dropShadow"/>
<feBlend mode="normal" in="SourceGraphic" in2="effect1_dropShadow" result="shape"/>
</filter>
</defs>
</svg>
