<svg width="33" height="26" viewBox="0 0 33 26" fill="none" xmlns="http://www.w3.org/2000/svg">
<path d="M16.5 12.6729L0 4.24186V2.25618C0 1.67025 0.204102 1.17654 0.612305 0.775065C1.02051 0.373589 1.50391 0.172852 2.0625 0.172852H30.9375C31.4961 0.172852 31.9795 0.373589 32.3877 0.775065C32.7959 1.17654 33 1.67025 33 2.25618V4.24186L16.5 12.6729ZM15.4688 14.7562H17.5312L33 6.65072V23.0895C33 23.6538 32.7959 24.142 32.3877 24.5544C31.9795 24.9667 31.4961 25.1729 30.9375 25.1729H2.0625C1.50391 25.1729 1.02051 24.9667 0.612305 24.5544C0.204102 24.142 0 23.6538 0 23.0895V6.65072L15.4688 14.7562Z" fill="white"/>
</svg>
