<svg width="60" height="46" viewBox="0 0 60 46" fill="none" xmlns="http://www.w3.org/2000/svg">
<path d="M30 22.6415L0 7.37029V3.77359C0 2.71226 0.371094 1.818 1.11328 1.0908C1.85547 0.363601 2.73437 0 3.75 0H56.25C57.2656 0 58.1445 0.363601 58.8867 1.0908C59.6289 1.818 60 2.71226 60 3.77359V7.37029L30 22.6415ZM28.125 26.4151H31.875L60 11.7335V41.5094C60 42.5315 59.6289 43.4159 58.8867 44.1627C58.1445 44.9096 57.2656 45.283 56.25 45.283H3.75C2.73437 45.283 1.85547 44.9096 1.11328 44.1627C0.371094 43.4159 0 42.5315 0 41.5094V11.7335L28.125 26.4151Z" fill="#4B9111"/>
</svg>
