<svg width="49" height="49" viewBox="0 0 49 49" fill="none" xmlns="http://www.w3.org/2000/svg">
<circle cx="24.5" cy="24.5" r="24.5" fill="#4B9111"/>
<path d="M34.7632 14.216C33.4277 12.8741 31.8373 11.8103 30.0846 11.0865C28.3319 10.3627 26.4521 9.99339 24.5546 10.0001C16.6037 10.0001 10.1238 16.4489 10.1165 24.3659C10.1165 26.9016 10.7829 29.3684 12.041 31.5525L10 39L17.6542 37.0026C19.7717 38.1498 22.1439 38.7511 24.5546 38.7517H24.5619C32.5147 38.7517 38.9927 32.3028 39 24.3786C39.0018 22.4901 38.6282 20.6198 37.9008 18.8757C37.1733 17.1315 36.1064 15.5478 34.7614 14.216H34.7632ZM24.5546 36.3193C22.4044 36.32 20.2937 35.744 18.4444 34.6518L18.0074 34.3908L13.4666 35.5762L14.6792 31.1664L14.3952 30.7115C13.1931 28.8089 12.5574 26.6062 12.5617 24.3587C12.5617 17.7866 17.9455 12.4252 24.5619 12.4252C26.1381 12.4224 27.6994 12.7302 29.1555 13.3309C30.6117 13.9316 31.9341 14.8133 33.0463 15.9251C34.1625 17.0327 35.0473 18.3492 35.6498 19.7989C36.2523 21.2485 36.5605 22.8025 36.5566 24.3714C36.5493 30.967 31.1656 36.3193 24.5546 36.3193V36.3193ZM31.1364 27.3765C30.7777 27.197 29.0062 26.3289 28.673 26.2056C28.3417 26.0878 28.0995 26.0262 27.8628 26.385C27.6207 26.7421 26.9288 27.5559 26.7212 27.7897C26.5137 28.0308 26.2988 28.058 25.9383 27.8803C25.5797 27.6991 24.4162 27.3221 23.0398 26.095C21.9656 25.1435 21.2464 23.9654 21.0316 23.6083C20.824 23.2494 21.0115 23.0573 21.1918 22.8779C21.3502 22.7184 21.5505 22.4574 21.7307 22.2507C21.9128 22.0441 21.9729 21.8919 22.0912 21.6526C22.2096 21.4097 22.1531 21.2031 22.0639 21.0237C21.9729 20.8442 21.2537 19.0734 20.9496 18.3593C20.6583 17.6543 20.3616 17.7521 20.1394 17.7431C19.9319 17.7304 19.6897 17.7304 19.4476 17.7304C19.2647 17.7349 19.0848 17.777 18.919 17.854C18.7533 17.9311 18.6053 18.0414 18.4844 18.1781C18.1531 18.5369 17.2263 19.4051 17.2263 21.1759C17.2263 22.9467 18.519 24.6487 18.7011 24.8897C18.8795 25.1308 21.2391 28.754 24.8605 30.3127C25.7162 30.6843 26.3899 30.9036 26.9161 31.0703C27.7809 31.3458 28.562 31.3041 29.1846 31.2153C29.8765 31.1102 31.3167 30.3453 31.6207 29.5062C31.9193 28.6652 31.9193 27.9474 31.8283 27.797C31.7391 27.6447 31.4969 27.5559 31.1364 27.3765V27.3765Z" fill="white"/>
</svg>
