<svg width="53" height="53" viewBox="0 0 53 53" fill="none" xmlns="http://www.w3.org/2000/svg">
<g filter="url(#filter0_d)">
<circle cx="26.5" cy="24.5" r="24.5" fill="#41A318"/>
</g>
<path d="M36.7632 14.216C35.4277 12.8741 33.8373 11.8103 32.0846 11.0865C30.3319 10.3627 28.4521 9.99339 26.5546 10.0001C18.6037 10.0001 12.1238 16.4489 12.1165 24.3659C12.1165 26.9016 12.7829 29.3684 14.041 31.5525L12 39L19.6542 37.0026C21.7717 38.1498 24.1439 38.7511 26.5546 38.7517H26.5619C34.5147 38.7517 40.9927 32.3028 41 24.3786C41.0018 22.4901 40.6282 20.6198 39.9008 18.8757C39.1733 17.1315 38.1064 15.5478 36.7614 14.216H36.7632ZM26.5546 36.3193C24.4044 36.32 22.2937 35.744 20.4444 34.6518L20.0074 34.3908L15.4666 35.5762L16.6792 31.1664L16.3952 30.7115C15.1931 28.8089 14.5574 26.6062 14.5617 24.3587C14.5617 17.7866 19.9455 12.4252 26.5619 12.4252C28.1381 12.4224 29.6994 12.7302 31.1555 13.3309C32.6117 13.9316 33.9341 14.8133 35.0463 15.9251C36.1625 17.0327 37.0473 18.3492 37.6498 19.7989C38.2523 21.2485 38.5605 22.8025 38.5566 24.3714C38.5493 30.967 33.1656 36.3193 26.5546 36.3193V36.3193ZM33.1364 27.3765C32.7777 27.197 31.0062 26.3289 30.673 26.2056C30.3417 26.0878 30.0995 26.0262 29.8628 26.385C29.6207 26.7421 28.9288 27.5559 28.7212 27.7897C28.5137 28.0308 28.2988 28.058 27.9383 27.8803C27.5797 27.6991 26.4162 27.3221 25.0398 26.095C23.9656 25.1435 23.2464 23.9654 23.0316 23.6083C22.824 23.2494 23.0115 23.0573 23.1918 22.8779C23.3502 22.7184 23.5505 22.4574 23.7307 22.2507C23.9128 22.0441 23.9729 21.8919 24.0912 21.6526C24.2096 21.4097 24.1531 21.2031 24.0639 21.0237C23.9729 20.8442 23.2537 19.0734 22.9496 18.3593C22.6583 17.6543 22.3616 17.7521 22.1394 17.7431C21.9319 17.7304 21.6897 17.7304 21.4476 17.7304C21.2647 17.7349 21.0848 17.777 20.919 17.854C20.7533 17.9311 20.6053 18.0414 20.4844 18.1781C20.1531 18.5369 19.2263 19.4051 19.2263 21.1759C19.2263 22.9467 20.519 24.6487 20.7011 24.8897C20.8795 25.1308 23.2391 28.754 26.8605 30.3127C27.7162 30.6843 28.3899 30.9036 28.9161 31.0703C29.7809 31.3458 30.562 31.3041 31.1846 31.2153C31.8765 31.1102 33.3167 30.3453 33.6207 29.5062C33.9193 28.6652 33.9193 27.9474 33.8283 27.797C33.7391 27.6447 33.4969 27.5559 33.1364 27.3765V27.3765Z" fill="white"/>
<defs>
<filter id="filter0_d" x="0" y="0" width="53" height="53" filterUnits="userSpaceOnUse" color-interpolation-filters="sRGB">
<feFlood flood-opacity="0" result="BackgroundImageFix"/>
<feColorMatrix in="SourceAlpha" type="matrix" values="0 0 0 0 0 0 0 0 0 0 0 0 0 0 0 0 0 0 127 0"/>
<feOffset dy="2"/>
<feGaussianBlur stdDeviation="1"/>
<feColorMatrix type="matrix" values="0 0 0 0 0 0 0 0 0 0 0 0 0 0 0 0 0 0 0.45 0"/>
<feBlend mode="normal" in2="BackgroundImageFix" result="effect1_dropShadow"/>
<feBlend mode="normal" in="SourceGraphic" in2="effect1_dropShadow" result="shape"/>
</filter>
</defs>
</svg>
