<svg width="49" height="49" viewBox="0 0 49 49" fill="none" xmlns="http://www.w3.org/2000/svg">
<circle cx="24.5" cy="24.5" r="24.5" fill="#4B9111"/>
<path fill-rule="evenodd" clip-rule="evenodd" d="M19.2282 11.084C20.7211 11.0153 21.1971 11 25 11C28.8029 11 29.2789 11.0165 30.7705 11.084C32.2622 11.1515 33.2804 11.3895 34.1713 11.7344C35.1042 12.0869 35.9505 12.638 36.6505 13.3507C37.3633 14.0495 37.9131 14.8945 38.2644 15.8287C38.6105 16.7196 38.8473 17.7378 38.916 19.2269C38.9847 20.7224 39 21.1984 39 25C39 28.8029 38.9835 29.2789 38.916 30.7718C38.8485 32.2609 38.6105 33.2791 38.2644 34.17C37.9131 35.1043 37.3624 35.9508 36.6505 36.6505C35.9505 37.3633 35.1042 37.9131 34.1713 38.2644C33.2804 38.6105 32.2622 38.8473 30.7731 38.916C29.2789 38.9847 28.8029 39 25 39C21.1971 39 20.7211 38.9835 19.2282 38.916C17.7391 38.8485 16.7209 38.6105 15.83 38.2644C14.8957 37.913 14.0492 37.3623 13.3495 36.6505C12.6372 35.9514 12.086 35.1053 11.7344 34.1713C11.3895 33.2804 11.1527 32.2622 11.084 30.7731C11.0153 29.2776 11 28.8016 11 25C11 21.1971 11.0165 20.7211 11.084 19.2295C11.1515 17.7378 11.3895 16.7196 11.7344 15.8287C12.0866 14.8946 12.6382 14.0486 13.3507 13.3495C14.0495 12.6374 14.8951 12.0862 15.8287 11.7344C16.7196 11.3895 17.7378 11.1527 19.2269 11.084H19.2282ZM30.6573 13.604C29.1809 13.5365 28.738 13.5225 25 13.5225C21.262 13.5225 20.8191 13.5365 19.3427 13.604C17.9771 13.6664 17.2364 13.8942 16.7425 14.0864C16.0896 14.3409 15.6225 14.6425 15.1325 15.1325C14.6681 15.5844 14.3106 16.1345 14.0864 16.7425C13.8942 17.2364 13.6664 17.9771 13.604 19.3427C13.5365 20.8191 13.5225 21.262 13.5225 25C13.5225 28.738 13.5365 29.1809 13.604 30.6573C13.6664 32.0229 13.8942 32.7636 14.0864 33.2575C14.3104 33.8645 14.668 34.4156 15.1325 34.8675C15.5844 35.332 16.1355 35.6896 16.7425 35.9136C17.2364 36.1058 17.9771 36.3336 19.3427 36.396C20.8191 36.4635 21.2607 36.4775 25 36.4775C28.7393 36.4775 29.1809 36.4635 30.6573 36.396C32.0229 36.3336 32.7636 36.1058 33.2575 35.9136C33.9104 35.6591 34.3775 35.3575 34.8675 34.8675C35.332 34.4156 35.6896 33.8645 35.9136 33.2575C36.1058 32.7636 36.3336 32.0229 36.396 30.6573C36.4635 29.1809 36.4775 28.738 36.4775 25C36.4775 21.262 36.4635 20.8191 36.396 19.3427C36.3336 17.9771 36.1058 17.2364 35.9136 16.7425C35.6591 16.0896 35.3575 15.6225 34.8675 15.1325C34.4155 14.6681 33.8654 14.3106 33.2575 14.0864C32.7636 13.8942 32.0229 13.6664 30.6573 13.604V13.604ZM23.2118 29.3158C24.2105 29.7315 25.3225 29.7876 26.3579 29.4746C27.3933 29.1615 28.288 28.4986 28.889 27.5992C29.49 26.6998 29.7601 25.6197 29.6532 24.5432C29.5462 23.4668 29.0689 22.4609 28.3027 21.6973C27.8143 21.2092 27.2237 20.8354 26.5735 20.6029C25.9233 20.3704 25.2296 20.285 24.5424 20.3528C23.8553 20.4206 23.1916 20.6399 22.5994 20.9949C22.0071 21.3499 21.5009 21.8319 21.1173 22.406C20.7336 22.9801 20.4821 23.6322 20.3807 24.3152C20.2793 24.9983 20.3306 25.6953 20.5309 26.3561C20.7312 27.0169 21.0755 27.6251 21.5391 28.1369C22.0027 28.6487 22.574 29.0513 23.2118 29.3158ZM19.9116 19.9116C20.5798 19.2434 21.3731 18.7134 22.2462 18.3517C23.1193 17.9901 24.055 17.804 25 17.804C25.945 17.804 26.8807 17.9901 27.7538 18.3517C28.6269 18.7134 29.4202 19.2434 30.0884 19.9116C30.7566 20.5798 31.2866 21.3731 31.6483 22.2462C32.0099 23.1193 32.196 24.055 32.196 25C32.196 25.945 32.0099 26.8807 31.6483 27.7538C31.2866 28.6269 30.7566 29.4202 30.0884 30.0884C28.7388 31.4379 26.9085 32.196 25 32.196C23.0915 32.196 21.2612 31.4379 19.9116 30.0884C18.5621 28.7388 17.804 26.9085 17.804 25C17.804 23.0915 18.5621 21.2612 19.9116 19.9116V19.9116ZM33.792 18.8756C33.9576 18.7194 34.0902 18.5316 34.1818 18.3232C34.2735 18.1149 34.3225 17.8903 34.3258 17.6626C34.3291 17.435 34.2867 17.2091 34.2012 16.9981C34.1156 16.7872 33.9885 16.5956 33.8276 16.4346C33.6666 16.2736 33.475 16.1466 33.2641 16.061C33.0531 15.9754 32.8272 15.9331 32.5995 15.9364C32.3719 15.9397 32.1473 15.9887 31.9389 16.0803C31.7306 16.172 31.5427 16.3046 31.3865 16.4702C31.0828 16.7922 30.9164 17.22 30.9229 17.6626C30.9293 18.1053 31.1081 18.528 31.4211 18.8411C31.7342 19.1541 32.1569 19.3328 32.5995 19.3393C33.0422 19.3457 33.47 19.1794 33.792 18.8756V18.8756Z" fill="white"/>
</svg>
