<svg width="53" height="53" viewBox="0 0 53 53" fill="none" xmlns="http://www.w3.org/2000/svg">
<g filter="url(#filter0_d)">
<circle cx="26.5" cy="24.5" r="24.5" fill="#41A318"/>
</g>
<path fill-rule="evenodd" clip-rule="evenodd" d="M21.2282 11.084C22.7211 11.0153 23.1971 11 27 11C30.8029 11 31.2789 11.0165 32.7705 11.084C34.2622 11.1515 35.2804 11.3895 36.1713 11.7344C37.1042 12.0869 37.9505 12.638 38.6505 13.3507C39.3633 14.0495 39.9131 14.8945 40.2644 15.8287C40.6105 16.7196 40.8473 17.7378 40.916 19.2269C40.9847 20.7224 41 21.1984 41 25C41 28.8029 40.9835 29.2789 40.916 30.7718C40.8485 32.2609 40.6105 33.2791 40.2644 34.17C39.9131 35.1043 39.3624 35.9508 38.6505 36.6505C37.9505 37.3633 37.1042 37.9131 36.1713 38.2644C35.2804 38.6105 34.2622 38.8473 32.7731 38.916C31.2789 38.9847 30.8029 39 27 39C23.1971 39 22.7211 38.9835 21.2282 38.916C19.7391 38.8485 18.7209 38.6105 17.83 38.2644C16.8957 37.913 16.0492 37.3623 15.3495 36.6505C14.6372 35.9514 14.086 35.1053 13.7344 34.1713C13.3895 33.2804 13.1527 32.2622 13.084 30.7731C13.0153 29.2776 13 28.8016 13 25C13 21.1971 13.0165 20.7211 13.084 19.2295C13.1515 17.7378 13.3895 16.7196 13.7344 15.8287C14.0866 14.8946 14.6382 14.0486 15.3507 13.3495C16.0495 12.6374 16.8951 12.0862 17.8287 11.7344C18.7196 11.3895 19.7378 11.1527 21.2269 11.084H21.2282ZM32.6573 13.604C31.1809 13.5365 30.738 13.5225 27 13.5225C23.262 13.5225 22.8191 13.5365 21.3427 13.604C19.9771 13.6664 19.2364 13.8942 18.7425 14.0864C18.0896 14.3409 17.6225 14.6425 17.1325 15.1325C16.6681 15.5844 16.3106 16.1345 16.0864 16.7425C15.8942 17.2364 15.6664 17.9771 15.604 19.3427C15.5365 20.8191 15.5225 21.262 15.5225 25C15.5225 28.738 15.5365 29.1809 15.604 30.6573C15.6664 32.0229 15.8942 32.7636 16.0864 33.2575C16.3104 33.8645 16.668 34.4156 17.1325 34.8675C17.5844 35.332 18.1355 35.6896 18.7425 35.9136C19.2364 36.1058 19.9771 36.3336 21.3427 36.396C22.8191 36.4635 23.2607 36.4775 27 36.4775C30.7393 36.4775 31.1809 36.4635 32.6573 36.396C34.0229 36.3336 34.7636 36.1058 35.2575 35.9136C35.9104 35.6591 36.3775 35.3575 36.8675 34.8675C37.332 34.4156 37.6896 33.8645 37.9136 33.2575C38.1058 32.7636 38.3336 32.0229 38.396 30.6573C38.4635 29.1809 38.4775 28.738 38.4775 25C38.4775 21.262 38.4635 20.8191 38.396 19.3427C38.3336 17.9771 38.1058 17.2364 37.9136 16.7425C37.6591 16.0896 37.3575 15.6225 36.8675 15.1325C36.4155 14.6681 35.8654 14.3106 35.2575 14.0864C34.7636 13.8942 34.0229 13.6664 32.6573 13.604ZM25.2118 29.3158C26.2105 29.7315 27.3225 29.7876 28.3579 29.4746C29.3933 29.1615 30.288 28.4986 30.889 27.5992C31.49 26.6998 31.7601 25.6197 31.6532 24.5432C31.5462 23.4668 31.0689 22.4609 30.3027 21.6973C29.8143 21.2092 29.2237 20.8354 28.5735 20.6029C27.9233 20.3704 27.2296 20.285 26.5424 20.3528C25.8553 20.4206 25.1916 20.6399 24.5994 20.9949C24.0071 21.3499 23.5009 21.8319 23.1173 22.406C22.7336 22.9801 22.4821 23.6322 22.3807 24.3152C22.2793 24.9983 22.3306 25.6953 22.5309 26.3561C22.7312 27.0169 23.0755 27.6251 23.5391 28.1369C24.0027 28.6487 24.574 29.0513 25.2118 29.3158ZM21.9116 19.9116C22.5798 19.2434 23.3731 18.7134 24.2462 18.3517C25.1193 17.9901 26.055 17.804 27 17.804C27.945 17.804 28.8807 17.9901 29.7538 18.3517C30.6269 18.7134 31.4202 19.2434 32.0884 19.9116C32.7566 20.5798 33.2866 21.3731 33.6483 22.2462C34.0099 23.1193 34.196 24.055 34.196 25C34.196 25.945 34.0099 26.8807 33.6483 27.7538C33.2866 28.6269 32.7566 29.4202 32.0884 30.0884C30.7388 31.4379 28.9085 32.196 27 32.196C25.0915 32.196 23.2612 31.4379 21.9116 30.0884C20.5621 28.7388 19.804 26.9085 19.804 25C19.804 23.0915 20.5621 21.2612 21.9116 19.9116ZM35.792 18.8756C35.9576 18.7194 36.0902 18.5316 36.1818 18.3232C36.2735 18.1149 36.3225 17.8903 36.3258 17.6626C36.3291 17.435 36.2867 17.2091 36.2012 16.9981C36.1156 16.7872 35.9886 16.5956 35.8276 16.4346C35.6666 16.2736 35.475 16.1466 35.2641 16.061C35.0531 15.9754 34.8272 15.9331 34.5995 15.9364C34.3719 15.9397 34.1473 15.9887 33.9389 16.0803C33.7306 16.172 33.5427 16.3046 33.3865 16.4702C33.0828 16.7922 32.9164 17.22 32.9229 17.6626C32.9293 18.1053 33.1081 18.528 33.4211 18.8411C33.7342 19.1541 34.1569 19.3328 34.5995 19.3393C35.0422 19.3457 35.47 19.1794 35.792 18.8756Z" fill="white"/>
<defs>
<filter id="filter0_d" x="0" y="0" width="53" height="53" filterUnits="userSpaceOnUse" color-interpolation-filters="sRGB">
<feFlood flood-opacity="0" result="BackgroundImageFix"/>
<feColorMatrix in="SourceAlpha" type="matrix" values="0 0 0 0 0 0 0 0 0 0 0 0 0 0 0 0 0 0 127 0"/>
<feOffset dy="2"/>
<feGaussianBlur stdDeviation="1"/>
<feColorMatrix type="matrix" values="0 0 0 0 0 0 0 0 0 0 0 0 0 0 0 0 0 0 0.45 0"/>
<feBlend mode="normal" in2="BackgroundImageFix" result="effect1_dropShadow"/>
<feBlend mode="normal" in="SourceGraphic" in2="effect1_dropShadow" result="shape"/>
</filter>
</defs>
</svg>
