<svg width="53" height="53" viewBox="0 0 53 53" fill="none" xmlns="http://www.w3.org/2000/svg">
<g filter="url(#filter0_d)">
<circle cx="26.5" cy="24.5" r="24.5" fill="#41A318"/>
</g>
<g filter="url(#filter1_d)">
<path d="M19.6752 36V19.8072H14.3162V36H19.6752ZM16.9964 17.5951C18.8652 17.5951 20.0284 16.3517 20.0284 14.7978C19.9936 13.2089 18.8652 12 17.0318 12C15.1987 12 14 13.2089 14 14.7978C14 16.3517 15.1629 17.5951 16.9614 17.5951H16.9962H16.9964ZM22.6414 36H28.0004V26.9572C28.0004 26.4732 28.0352 25.9898 28.1767 25.6438C28.5642 24.6769 29.4459 23.6754 30.9263 23.6754C32.8655 23.6754 33.6413 25.1603 33.6413 27.3371V35.9999H39V26.7151C39 21.7413 36.3561 19.4271 32.8302 19.4271C29.9393 19.4271 28.6699 21.05 27.9648 22.1554H28.0005V19.8069H22.6415C22.7118 21.3263 22.6415 35.9997 22.6415 35.9997L22.6414 36Z" fill="white"/>
</g>
<defs>
<filter id="filter0_d" x="0" y="0" width="53" height="53" filterUnits="userSpaceOnUse" color-interpolation-filters="sRGB">
<feFlood flood-opacity="0" result="BackgroundImageFix"/>
<feColorMatrix in="SourceAlpha" type="matrix" values="0 0 0 0 0 0 0 0 0 0 0 0 0 0 0 0 0 0 127 0"/>
<feOffset dy="2"/>
<feGaussianBlur stdDeviation="1"/>
<feColorMatrix type="matrix" values="0 0 0 0 0 0 0 0 0 0 0 0 0 0 0 0 0 0 0.45 0"/>
<feBlend mode="normal" in2="BackgroundImageFix" result="effect1_dropShadow"/>
<feBlend mode="normal" in="SourceGraphic" in2="effect1_dropShadow" result="shape"/>
</filter>
<filter id="filter1_d" x="12" y="12" width="29" height="28" filterUnits="userSpaceOnUse" color-interpolation-filters="sRGB">
<feFlood flood-opacity="0" result="BackgroundImageFix"/>
<feColorMatrix in="SourceAlpha" type="matrix" values="0 0 0 0 0 0 0 0 0 0 0 0 0 0 0 0 0 0 127 0"/>
<feOffset dy="2"/>
<feGaussianBlur stdDeviation="1"/>
<feColorMatrix type="matrix" values="0 0 0 0 0 0 0 0 0 0 0 0 0 0 0 0 0 0 0.45 0"/>
<feBlend mode="normal" in2="BackgroundImageFix" result="effect1_dropShadow"/>
<feBlend mode="normal" in="SourceGraphic" in2="effect1_dropShadow" result="shape"/>
</filter>
</defs>
</svg>
