<svg width="39" height="39" viewBox="0 0 39 39" fill="none" xmlns="http://www.w3.org/2000/svg">
<g filter="url(#filter0_d)">
<circle cx="19.4915" cy="17.3367" r="17.1638" fill="white"/>
</g>
<path fill-rule="evenodd" clip-rule="evenodd" d="M15.7979 7.93775C16.8438 7.88961 17.1773 7.87891 19.8415 7.87891C22.5057 7.87891 22.8391 7.8905 23.8841 7.93775C24.9291 7.98501 25.6424 8.15174 26.2666 8.39338C26.9201 8.64036 27.513 9.02643 28.0034 9.52574C28.5028 10.0152 28.8879 10.6073 29.134 11.2617C29.3766 11.8859 29.5424 12.5992 29.5905 13.6424C29.6387 14.6901 29.6494 15.0235 29.6494 17.6868C29.6494 20.351 29.6378 20.6845 29.5905 21.7304C29.5433 22.7736 29.3766 23.4869 29.134 24.111C28.8879 24.7655 28.5021 25.3586 28.0034 25.8488C27.513 26.3481 26.9201 26.7333 26.2666 26.9794C25.6424 27.2219 24.9291 27.3877 23.8859 27.4359C22.8391 27.484 22.5057 27.4947 19.8415 27.4947C17.1773 27.4947 16.8438 27.4831 15.7979 27.4359C14.7547 27.3886 14.0414 27.2219 13.4173 26.9794C12.7628 26.7332 12.1698 26.3474 11.6795 25.8488C11.1805 25.359 10.7944 24.7662 10.548 24.1119C10.3064 23.4877 10.1406 22.7744 10.0924 21.7312C10.0443 20.6836 10.0336 20.3501 10.0336 17.6868C10.0336 15.0226 10.0452 14.6892 10.0924 13.6442C10.1397 12.5992 10.3064 11.8859 10.548 11.2617C10.7948 10.6074 11.1812 10.0146 11.6804 9.52485C12.1699 9.02599 12.7624 8.63986 13.4164 8.39338C14.0405 8.15174 14.7538 7.9859 15.7971 7.93775H15.7979ZM23.8048 9.70318C22.7705 9.65592 22.4602 9.64611 19.8415 9.64611C17.2228 9.64611 16.9125 9.65592 15.8782 9.70318C14.9215 9.74687 14.4025 9.90647 14.0566 10.0411C13.5992 10.2194 13.272 10.4307 12.9287 10.774C12.6033 11.0906 12.3529 11.476 12.1958 11.9019C12.0611 12.2479 11.9015 12.7668 11.8578 13.7235C11.8106 14.7578 11.8008 15.0681 11.8008 17.6868C11.8008 20.3055 11.8106 20.6158 11.8578 21.6501C11.9015 22.6068 12.0611 23.1257 12.1958 23.4717C12.3527 23.897 12.6032 24.2831 12.9287 24.5996C13.2452 24.9251 13.6313 25.1756 14.0566 25.3325C14.4025 25.4672 14.9215 25.6268 15.8782 25.6705C16.9125 25.7177 17.2219 25.7275 19.8415 25.7275C22.4611 25.7275 22.7705 25.7177 23.8048 25.6705C24.7615 25.6268 25.2804 25.4672 25.6264 25.3325C26.0838 25.1542 26.411 24.9429 26.7543 24.5996C27.0797 24.2831 27.3303 23.897 27.4872 23.4717C27.6218 23.1257 27.7814 22.6068 27.8251 21.6501C27.8724 20.6158 27.8822 20.3055 27.8822 17.6868C27.8822 15.0681 27.8724 14.7578 27.8251 13.7235C27.7814 12.7668 27.6218 12.2479 27.4872 11.9019C27.3089 11.4445 27.0975 11.1173 26.7543 10.774C26.4377 10.4486 26.0523 10.1982 25.6264 10.0411C25.2804 9.90647 24.7615 9.74687 23.8048 9.70318ZM18.5887 20.7103C19.2884 21.0016 20.0674 21.0409 20.7928 20.8215C21.5182 20.6022 22.1449 20.1378 22.5659 19.5077C22.987 18.8776 23.1762 18.1209 23.1013 17.3668C23.0264 16.6127 22.692 15.908 22.1553 15.373C21.8131 15.0311 21.3993 14.7692 20.9438 14.6064C20.4883 14.4435 20.0024 14.3837 19.5209 14.4311C19.0395 14.4786 18.5746 14.6323 18.1597 14.881C17.7448 15.1297 17.3902 15.4673 17.1214 15.8695C16.8526 16.2718 16.6764 16.7286 16.6053 17.2071C16.5343 17.6856 16.5702 18.1739 16.7106 18.6369C16.8509 19.0998 17.0921 19.5259 17.4169 19.8844C17.7417 20.243 18.1419 20.525 18.5887 20.7103ZM16.2768 14.1221C16.7449 13.654 17.3006 13.2826 17.9123 13.0293C18.5239 12.7759 19.1794 12.6455 19.8415 12.6455C20.5035 12.6455 21.1591 12.7759 21.7707 13.0293C22.3823 13.2826 22.9381 13.654 23.4062 14.1221C23.8743 14.5902 24.2457 15.146 24.499 15.7576C24.7524 16.3692 24.8828 17.0248 24.8828 17.6868C24.8828 18.3488 24.7524 19.0044 24.499 19.616C24.2457 20.2277 23.8743 20.7834 23.4062 21.2515C22.4608 22.197 21.1785 22.7281 19.8415 22.7281C18.5044 22.7281 17.2222 22.197 16.2768 21.2515C15.3313 20.3061 14.8002 19.0238 14.8002 17.6868C14.8002 16.3498 15.3313 15.0675 16.2768 14.1221ZM26.0008 13.3963C26.1169 13.2869 26.2097 13.1553 26.274 13.0093C26.3382 12.8633 26.3725 12.706 26.3748 12.5465C26.3771 12.3871 26.3474 12.2288 26.2875 12.081C26.2275 11.9332 26.1385 11.799 26.0258 11.6862C25.913 11.5734 25.7788 11.4844 25.631 11.4245C25.4832 11.3645 25.3249 11.3348 25.1655 11.3372C25.006 11.3395 24.8486 11.3738 24.7027 11.438C24.5567 11.5023 24.4251 11.5951 24.3157 11.7111C24.1028 11.9367 23.9863 12.2364 23.9909 12.5465C23.9954 12.8566 24.1206 13.1528 24.3399 13.3721C24.5592 13.5914 24.8553 13.7166 25.1655 13.7211C25.4756 13.7256 25.7752 13.6091 26.0008 13.3963Z" fill="#61CC1F"/>
<defs>
<filter id="filter0_d" x="0.327637" y="0.172852" width="38.3277" height="38.3277" filterUnits="userSpaceOnUse" color-interpolation-filters="sRGB">
<feFlood flood-opacity="0" result="BackgroundImageFix"/>
<feColorMatrix in="SourceAlpha" type="matrix" values="0 0 0 0 0 0 0 0 0 0 0 0 0 0 0 0 0 0 127 0"/>
<feOffset dy="2"/>
<feGaussianBlur stdDeviation="1"/>
<feColorMatrix type="matrix" values="0 0 0 0 0 0 0 0 0 0 0 0 0 0 0 0 0 0 0.45 0"/>
<feBlend mode="normal" in2="BackgroundImageFix" result="effect1_dropShadow"/>
<feBlend mode="normal" in="SourceGraphic" in2="effect1_dropShadow" result="shape"/>
</filter>
</defs>
</svg>
