<svg width="173" height="38" viewBox="0 0 173 38" fill="none" xmlns="http://www.w3.org/2000/svg">
<g filter="url(#filter0_d)">
<path d="M18.5597 2L22.5102 13.1222H33.1177L24.4623 19.6546L27.5575 31.1177L18.5597 24.2445L9.56348 31.1177L12.6571 19.6546L4 13.1222H14.6075L18.5597 2Z" fill="#FFCE31"/>
<path d="M52.5295 2L56.48 13.1222H67.0875L58.4321 19.6546L61.5274 31.1177L52.5295 24.2445L43.5333 31.1177L46.6269 19.6546L37.9698 13.1222H48.5774L52.5295 2Z" fill="#FFCE31"/>
<path d="M86.5014 2L90.4519 13.1222H101.059L92.404 19.6546L95.4992 31.1177L86.5014 24.2445L77.5052 31.1177L80.5988 19.6546L71.9417 13.1222H82.5492L86.5014 2Z" fill="#FFCE31"/>
<path d="M120.471 2L124.422 13.1222H135.029L126.374 19.6546L129.469 31.1177L120.471 24.2445L111.475 31.1177L114.569 19.6546L105.912 13.1222H116.519L120.471 2Z" fill="#FFCE31"/>
<path d="M154.442 2L158.393 13.1222H169L160.345 19.6546L163.44 31.1177L154.442 24.2445L145.446 31.1177L148.54 19.6546L139.882 13.1222H150.49L154.442 2Z" fill="#FFCE31"/>
</g>
<defs>
<filter id="filter0_d" x="0" y="0" width="173" height="37.1177" filterUnits="userSpaceOnUse" color-interpolation-filters="sRGB">
<feFlood flood-opacity="0" result="BackgroundImageFix"/>
<feColorMatrix in="SourceAlpha" type="matrix" values="0 0 0 0 0 0 0 0 0 0 0 0 0 0 0 0 0 0 127 0"/>
<feOffset dy="2"/>
<feGaussianBlur stdDeviation="2"/>
<feColorMatrix type="matrix" values="0 0 0 0 0 0 0 0 0 0 0 0 0 0 0 0 0 0 0.25 0"/>
<feBlend mode="normal" in2="BackgroundImageFix" result="effect1_dropShadow"/>
<feBlend mode="normal" in="SourceGraphic" in2="effect1_dropShadow" result="shape"/>
</filter>
</defs>
</svg>
