<svg width="33" height="34" viewBox="0 0 33 34" fill="none" xmlns="http://www.w3.org/2000/svg">
<path d="M22.0014 23.6257L24.843 20.783C25.2258 20.4048 25.71 20.146 26.2369 20.0378C26.7639 19.9297 27.3109 19.9769 27.8115 20.1738L31.2747 21.5571C31.7806 21.7625 32.2145 22.1132 32.5215 22.5649C32.8285 23.0166 32.995 23.5491 33 24.0953V30.4408C32.9971 30.8123 32.919 31.1794 32.7705 31.52C32.622 31.8606 32.4061 32.1676 32.1359 32.4225C31.8656 32.6774 31.5466 32.875 31.1981 33.0034C30.8495 33.1317 30.4786 33.1882 30.1076 33.1693C5.83968 31.6591 0.942958 11.0998 0.0168943 3.23142C-0.0260942 2.84502 0.0131832 2.4539 0.132143 2.08379C0.251102 1.71367 0.447047 1.37295 0.707088 1.08403C0.967128 0.795114 1.28537 0.564551 1.64088 0.407513C1.99639 0.250474 2.3811 0.170517 2.76972 0.172903H8.89696C9.44373 0.174523 9.97751 0.339748 10.4297 0.647327C10.8818 0.954907 11.2316 1.39078 11.4341 1.89887L12.8169 5.36349C13.0202 5.86233 13.072 6.41004 12.966 6.9382C12.86 7.46635 12.6007 7.95155 12.2206 8.33317L9.37902 11.1759C9.37902 11.1759 11.0155 22.2551 22.0014 23.6257Z" fill="white"/>
</svg>
