<svg width="53" height="53" viewBox="0 0 53 53" fill="none" xmlns="http://www.w3.org/2000/svg">
<g filter="url(#filter0_d)">
<path d="M34.6687 34.824L38.8881 30.6029C39.4564 30.0414 40.1754 29.6571 40.9579 29.4965C41.7403 29.3359 42.5525 29.4061 43.2959 29.6984L48.4382 31.7524C49.1894 32.0574 49.8336 32.5781 50.2895 33.2488C50.7454 33.9195 50.9926 34.7102 51 35.5212V44.9433C50.9956 45.495 50.8797 46.0401 50.6592 46.5458C50.4387 47.0515 50.1181 47.5074 49.7169 47.8859C49.3156 48.2644 48.842 48.5578 48.3244 48.7483C47.8068 48.9389 47.2561 49.0227 46.7053 48.9947C10.671 46.7523 3.40015 16.2248 2.02509 4.5415C1.96125 3.96777 2.01958 3.38702 2.19621 2.83745C2.37285 2.28788 2.6638 1.78196 3.04992 1.35296C3.43604 0.923965 3.90858 0.581615 4.43646 0.348436C4.96433 0.115257 5.53557 -0.00346573 6.11261 7.7014e-05H15.2106C16.0225 0.00248112 16.8151 0.247816 17.4865 0.704525C18.1578 1.16123 18.6772 1.80843 18.9779 2.56287L21.0311 7.70731C21.333 8.44802 21.41 9.26128 21.2525 10.0455C21.0951 10.8297 20.7101 11.5502 20.1458 12.1168L15.9264 16.3379C15.9264 16.3379 18.3563 32.7888 34.6687 34.824Z" fill="#61CC1F"/>
</g>
<defs>
<filter id="filter0_d" x="0" y="0" width="53" height="53" filterUnits="userSpaceOnUse" color-interpolation-filters="sRGB">
<feFlood flood-opacity="0" result="BackgroundImageFix"/>
<feColorMatrix in="SourceAlpha" type="matrix" values="0 0 0 0 0 0 0 0 0 0 0 0 0 0 0 0 0 0 127 0"/>
<feOffset dy="2"/>
<feGaussianBlur stdDeviation="1"/>
<feColorMatrix type="matrix" values="0 0 0 0 0 0 0 0 0 0 0 0 0 0 0 0 0 0 0.45 0"/>
<feBlend mode="normal" in2="BackgroundImageFix" result="effect1_dropShadow"/>
<feBlend mode="normal" in="SourceGraphic" in2="effect1_dropShadow" result="shape"/>
</filter>
</defs>
</svg>
