<svg width="28" height="40" viewBox="0 0 28 40" fill="none" xmlns="http://www.w3.org/2000/svg">
<path d="M14 0.172852C6.26 0.172852 0 6.27635 0 13.8229C0 24.0604 14 39.1729 14 39.1729C14 39.1729 28 24.0604 28 13.8229C28 6.27635 21.74 0.172852 14 0.172852ZM14 18.6979C12.6739 18.6979 11.4021 18.1842 10.4645 17.27C9.52678 16.3558 9 15.1158 9 13.8229C9 12.5299 9.52678 11.2899 10.4645 10.3757C11.4021 9.46147 12.6739 8.94785 14 8.94785C15.3261 8.94785 16.5979 9.46147 17.5355 10.3757C18.4732 11.2899 19 12.5299 19 13.8229C19 15.1158 18.4732 16.3558 17.5355 17.27C16.5979 18.1842 15.3261 18.6979 14 18.6979Z" fill="white"/>
</svg>
