<svg width="40" height="56" viewBox="0 0 40 56" fill="none" xmlns="http://www.w3.org/2000/svg">
<path d="M20 0C8.94286 0 0 8.73105 0 19.5263C0 34.1711 20 55.7895 20 55.7895C20 55.7895 40 34.1711 40 19.5263C40 8.73105 31.0571 0 20 0ZM20 26.5C18.1056 26.5 16.2888 25.7653 14.9492 24.4575C13.6097 23.1496 12.8571 21.3759 12.8571 19.5263C12.8571 17.6768 13.6097 15.903 14.9492 14.5952C16.2888 13.2874 18.1056 12.5526 20 12.5526C21.8944 12.5526 23.7112 13.2874 25.0508 14.5952C26.3903 15.903 27.1429 17.6768 27.1429 19.5263C27.1429 21.3759 26.3903 23.1496 25.0508 24.4575C23.7112 25.7653 21.8944 26.5 20 26.5V26.5Z" fill="#4B9111"/>
</svg>
