<svg width="202" height="223" viewBox="0 0 202 223" fill="none" xmlns="http://www.w3.org/2000/svg">
<g filter="url(#filter0_d)">
<path d="M63.6299 218.618C70.4419 218.616 76.9745 215.905 81.7927 211.081C86.6109 206.256 89.3206 199.713 89.3265 192.888V174.889C88.7427 165.403 85.8459 155.961 79.1841 148.956C75.0897 144.652 70.5312 143.174 65.2168 140.88L53.1431 135.63L38.1802 129.143C31.3837 126.781 30.0064 132.045 30.0064 132.045C26.7953 138.457 31.8403 140.392 31.8403 140.392L61.9532 154.199C64.0266 154.948 63.076 156.193 63.076 156.193C62.8215 158.091 61.0101 157.026 61.0101 157.026L23.7039 139.867L17.1394 62.5408C15.7247 54.2389 8.04488 55.8513 8.04488 55.8513C2.16901 56.8862 3.04478 63.2607 3.04478 63.2607L7.25894 134.88C7.87829 145.392 12.5833 155.243 20.3655 162.32L31.4436 172.377C34.4813 175.14 36.3927 178.93 36.8105 183.019L38.0755 195.468C38.7202 201.811 41.6899 207.689 46.4102 211.965C51.1305 216.242 57.266 218.612 63.6299 218.618Z" fill="#61CC1F"/>
<path d="M139.23 218.618C132.419 218.614 125.887 215.903 121.07 211.079C116.252 206.254 113.542 199.712 113.534 192.888V174.889C114.125 165.403 117.022 155.961 123.684 148.956C127.778 144.652 132.336 143.174 137.651 140.879L149.725 135.63L164.68 129.143C171.469 126.781 172.854 132.045 172.854 132.045C176.095 138.442 171.05 140.339 171.05 140.339L140.929 154.146C138.864 154.896 139.807 156.141 139.807 156.141C140.069 158.038 141.88 156.973 141.88 156.973L179.186 139.852L185.751 62.5256C187.128 54.2238 194.845 55.8362 194.845 55.8362C200.714 56.8711 199.845 63.2456 199.845 63.2456L195.624 134.865C195.011 145.377 190.308 155.229 182.525 162.305L171.476 172.362C168.439 175.125 166.527 178.915 166.11 183.004L164.845 195.453C164.202 201.809 161.226 207.699 156.492 211.98C151.759 216.261 145.607 218.627 139.23 218.618Z" fill="#61CC1F"/>
<path d="M101.43 0.153077C87.7362 0.153077 74.3497 4.22153 62.9636 11.844C51.5775 19.4664 42.7031 30.3004 37.4626 42.976C32.2221 55.6517 30.851 69.5996 33.5226 83.0559C36.1941 96.5123 42.7884 108.873 52.4715 118.574C62.1546 128.276 74.4916 134.883 87.9225 137.559C101.353 140.236 115.275 138.862 127.926 133.612C140.578 128.361 151.391 119.47 158.999 108.062C166.607 96.6545 170.668 83.2426 170.668 69.5226C170.669 60.4126 168.879 51.3916 165.4 42.9749C161.921 34.5581 156.821 26.9105 150.391 20.4687C143.961 14.027 136.328 8.91731 127.928 5.43151C119.527 1.94572 110.523 0.152092 101.43 0.153077ZM143.721 47.3994C142.999 50.2859 142.681 53.2593 142.778 56.2337C143.108 63.7331 144.65 70.8575 143.677 78.4619C141.79 93.1908 130.705 105.46 115.158 105.257C110.55 105.183 106.032 103.967 102.007 101.718C100.36 100.788 92.3731 95.7181 92.7399 93.4682C96.5947 69.8451 116.064 62.0457 116.064 62.0457C99.1846 65.5329 90.7114 84.9864 89.0721 89.1636V89.0586C88.0167 86.3813 82.5899 73.9098 71.7664 71.6824C75.7207 73.5483 79.1553 76.3616 81.7664 79.8736C84.3774 83.3856 86.0846 87.4881 86.7367 91.8184C86.9688 93.2658 81.8489 96.513 80.7935 97.0679C78.2138 98.5066 75.3174 99.2798 72.3652 99.3178C62.4024 99.4453 55.2915 91.5859 54.0863 82.1441C53.4576 77.2695 54.4531 72.7249 54.6627 67.8952C54.7263 65.9888 54.5222 64.0828 54.0564 62.2332C53.8618 61.4383 52.7989 57.7335 51.6537 57.7335C51.6537 57.7335 76.25 57.7785 86.6394 68.8327C93.8776 40.3724 147.516 40.3349 147.516 40.3349C145.698 40.3199 144.036 46.162 143.721 47.3994Z" fill="#61CC1F"/>
</g>
<defs>
<filter id="filter0_d" x="0.998596" y="0.153076" width="200.892" height="222.465" filterUnits="userSpaceOnUse" color-interpolation-filters="sRGB">
<feFlood flood-opacity="0" result="BackgroundImageFix"/>
<feColorMatrix in="SourceAlpha" type="matrix" values="0 0 0 0 0 0 0 0 0 0 0 0 0 0 0 0 0 0 127 0"/>
<feOffset dy="2"/>
<feGaussianBlur stdDeviation="1"/>
<feColorMatrix type="matrix" values="0 0 0 0 0 0 0 0 0 0 0 0 0 0 0 0 0 0 0.45 0"/>
<feBlend mode="normal" in2="BackgroundImageFix" result="effect1_dropShadow"/>
<feBlend mode="normal" in="SourceGraphic" in2="effect1_dropShadow" result="shape"/>
</filter>
</defs>
</svg>
