<svg width="202" height="220" viewBox="0 0 202 220" fill="none" xmlns="http://www.w3.org/2000/svg">
<g filter="url(#filter0_d)">
<path d="M151.879 56.1842H138.451V22.0889C138.449 19.9263 137.591 17.8528 136.064 16.3236C134.537 14.7945 132.467 13.9345 130.308 13.9325H72.157C69.9979 13.9345 67.9278 14.7945 66.4011 16.3236C64.8744 17.8528 64.0158 19.9263 64.0137 22.0889V56.1842H50.5861V22.0889C50.5921 16.3598 52.8665 10.8671 56.9103 6.81533C60.9541 2.76359 66.4372 0.483649 72.157 0.475586L130.308 0.475586C136.028 0.483649 141.511 2.76359 145.555 6.81533C149.599 10.8671 151.873 16.3598 151.879 22.0889V56.1842Z" fill="#61CC1F"/>
<path d="M193.743 55.5064H8.72157C7.88802 55.5028 7.06309 55.6753 6.30057 56.0126C5.53805 56.3498 4.85508 56.8443 4.2962 57.4637C3.73731 58.0832 3.31507 58.8136 3.057 59.6075C2.79894 60.4014 2.71086 61.2408 2.7985 62.0711L16.4162 190.327C17.1522 197.27 20.4269 203.695 25.6097 208.364C30.7926 213.034 37.517 215.618 44.4881 215.618H157.977C164.947 215.616 171.669 213.031 176.85 208.362C182.032 203.693 185.305 197.269 186.041 190.327L199.628 62.0711C199.717 61.2438 199.631 60.4071 199.375 59.6153C199.12 58.8236 198.701 58.0945 198.146 57.4754C197.591 56.8563 196.912 56.3611 196.154 56.0218C195.395 55.6826 194.574 55.507 193.743 55.5064ZM156.699 103.698C155.791 107.321 155.392 111.053 155.513 114.787C155.924 124.23 157.87 133.133 156.646 142.675C154.282 161.166 140.36 176.557 120.849 176.306C115.059 176.208 109.384 174.669 104.335 171.828C102.267 170.671 92.2376 164.304 92.7014 161.478C97.5372 131.838 121.982 122.044 121.982 122.044C100.791 126.416 90.1543 150.832 88.1013 156.079C88.1013 156.033 88.1013 155.988 88.0481 155.949C86.7251 152.591 79.9125 136.91 66.3327 134.138C71.2884 136.487 75.5916 140.021 78.8638 144.427C82.1359 148.833 84.2768 153.977 85.098 159.407C85.3945 161.219 78.9696 165.301 77.639 166.048C74.4002 167.859 70.7638 168.837 67.0551 168.896C54.5474 169.056 45.6286 159.194 44.1079 147.344C43.3476 141.251 44.5717 135.517 44.8683 129.47C44.9459 127.075 44.69 124.681 44.1079 122.357C43.8646 121.367 42.5264 116.66 41.0666 116.66C41.0666 116.66 71.9365 116.721 84.9763 130.597C94.1005 94.8794 161.398 94.8032 161.398 94.8032C159.171 94.8109 157.08 102.145 156.699 103.698Z" fill="#61CC1F"/>
</g>
<defs>
<filter id="filter0_d" x="0.765625" y="0.475586" width="200.897" height="219.143" filterUnits="userSpaceOnUse" color-interpolation-filters="sRGB">
<feFlood flood-opacity="0" result="BackgroundImageFix"/>
<feColorMatrix in="SourceAlpha" type="matrix" values="0 0 0 0 0 0 0 0 0 0 0 0 0 0 0 0 0 0 127 0"/>
<feOffset dy="2"/>
<feGaussianBlur stdDeviation="1"/>
<feColorMatrix type="matrix" values="0 0 0 0 0 0 0 0 0 0 0 0 0 0 0 0 0 0 0.45 0"/>
<feBlend mode="normal" in2="BackgroundImageFix" result="effect1_dropShadow"/>
<feBlend mode="normal" in="SourceGraphic" in2="effect1_dropShadow" result="shape"/>
</filter>
</defs>
</svg>
