<svg width="146" height="245" viewBox="0 0 146 245" fill="none" xmlns="http://www.w3.org/2000/svg">
<g filter="url(#filter0_d)">
<path d="M98.4448 180.67H48.231V191.759H98.4448V180.67Z" fill="#61CC1F"/>
<path d="M99.1841 193.604H47.4917C45.4456 193.604 43.7869 195.262 43.7869 197.308V217.435C43.7869 219.481 45.4456 221.14 47.4917 221.14H99.1841C101.23 221.14 102.889 219.481 102.889 217.435V197.308C102.889 195.262 101.23 193.604 99.1841 193.604Z" fill="#61CC1F"/>
<path d="M142.163 52.0994C135.775 16.1066 103.014 0 73.3342 0C43.6545 0 10.8598 16.1066 4.53008 52.0994C-0.154878 78.6143 5.07001 98.0851 21.9741 117.215C30.5715 126.951 35.7715 142.285 34.3427 153.673C32.5235 168.044 41.7024 175.802 46.8027 177.896C47.3456 178.119 47.9268 178.235 48.5139 178.236H98.1545C98.7418 178.236 99.3233 178.121 99.8657 177.896C104.966 175.802 114.145 168.044 112.326 153.673C110.889 142.285 116.097 126.951 124.703 117.215C141.632 98.0851 146.848 78.6143 142.163 52.0994ZM117.193 51.5013C116.476 54.3621 116.16 57.3087 116.255 60.2565C116.587 67.7325 118.115 74.7351 117.152 82.2692C115.283 96.8723 104.277 109.017 88.8427 108.851C84.2691 108.777 79.7851 107.57 75.793 105.337C74.1316 104.423 66.2237 99.3976 66.5892 97.1631C67.5982 90.4728 70.2377 84.1335 74.275 78.7041C78.3123 73.2748 83.6233 68.922 89.7399 66.0297C72.9853 69.4853 64.579 88.765 62.9509 92.9017V92.8021C61.8461 90.1356 56.48 77.7836 45.7395 75.5907C49.6584 77.4411 53.0616 80.2277 55.6489 83.7045C58.2363 87.1812 59.9281 91.2414 60.5752 95.5266C60.8077 96.9554 55.7324 100.178 54.6774 100.76C52.1183 102.189 49.2437 102.96 46.3126 103.003C36.4277 103.127 29.367 95.3439 28.1709 85.9823C27.5479 81.1561 28.5363 76.6539 28.744 71.861C28.8066 69.9705 28.6053 68.0805 28.1459 66.2457C27.9466 65.4648 26.8916 61.7517 25.7619 61.7517C25.7619 61.7517 50.1669 61.8016 60.4838 72.7498C67.6607 44.557 120.915 44.5071 120.915 44.5071C119.162 44.4988 117.501 50.2885 117.193 51.5013Z" fill="#61CC1F"/>
<path fill-rule="evenodd" clip-rule="evenodd" d="M101.834 222.992H44.8335C44.4106 222.978 43.989 223.047 43.593 223.196C43.1969 223.345 42.8341 223.571 42.5254 223.86C42.2167 224.149 41.9682 224.497 41.7941 224.882C41.62 225.268 41.5237 225.684 41.5109 226.107V226.896C41.5237 227.319 41.62 227.736 41.7941 228.121C41.9682 228.507 42.2167 228.854 42.5254 229.144C42.8341 229.433 43.1969 229.659 43.593 229.808C43.989 229.957 44.4106 230.026 44.8335 230.011H46.7524C50.5817 232.213 53.5971 234.821 55.7817 236.208C60.9568 239.531 67.2947 240.802 73.2257 240.827H73.3586C79.3311 240.827 85.6691 239.498 90.8026 236.208C92.9956 234.821 96.0026 232.213 99.8403 230.011H101.751C102.174 230.026 102.595 229.957 102.991 229.808C103.387 229.659 103.75 229.433 104.059 229.144C104.368 228.854 104.616 228.507 104.79 228.121C104.964 227.736 105.061 227.319 105.073 226.896V226.107C105.047 225.268 104.694 224.472 104.088 223.89C103.483 223.307 102.674 222.985 101.834 222.992Z" fill="#61CC1F"/>
</g>
<defs>
<filter id="filter0_d" x="0.891602" y="0" width="144.911" height="244.827" filterUnits="userSpaceOnUse" color-interpolation-filters="sRGB">
<feFlood flood-opacity="0" result="BackgroundImageFix"/>
<feColorMatrix in="SourceAlpha" type="matrix" values="0 0 0 0 0 0 0 0 0 0 0 0 0 0 0 0 0 0 127 0"/>
<feOffset dy="2"/>
<feGaussianBlur stdDeviation="1"/>
<feColorMatrix type="matrix" values="0 0 0 0 0 0 0 0 0 0 0 0 0 0 0 0 0 0 0.45 0"/>
<feBlend mode="normal" in2="BackgroundImageFix" result="effect1_dropShadow"/>
<feBlend mode="normal" in="SourceGraphic" in2="effect1_dropShadow" result="shape"/>
</filter>
</defs>
</svg>
