<svg width="53" height="47" viewBox="0 0 53 47" fill="none" xmlns="http://www.w3.org/2000/svg">
<g filter="url(#filter0_d)">
<path d="M48.4647 0.816525C47.9883 -0.233139 46.627 -0.275125 46.057 0.715757C43.4196 5.24191 38.6978 8.06341 33.3039 8.06341H26.4977C17.4795 8.06341 10.1628 15.2851 10.1628 24.1862C10.1628 24.7741 10.2308 25.3367 10.2904 25.9077C15.7184 22.0701 23.554 18.812 34.6651 18.812C35.4138 18.812 36.0264 19.4166 36.0264 20.1555C36.0264 20.8945 35.4138 21.4991 34.6651 21.4991C13.2766 21.4991 4.20736 34.4394 2.19953 39.3014C1.63802 40.6702 2.30162 42.2321 3.68839 42.7947C5.08366 43.3657 6.6661 42.7023 7.24463 41.3419C7.37224 41.0396 9.02275 37.3196 13.3617 33.734C16.1182 37.4204 21.359 40.9389 28.2418 40.2167C41.5989 39.2594 51 27.436 51 12.959C51 8.74359 50.0812 4.37699 48.4647 0.816525Z" fill="#61CC1F"/>
</g>
<defs>
<filter id="filter0_d" x="0" y="0" width="53" height="47" filterUnits="userSpaceOnUse" color-interpolation-filters="sRGB">
<feFlood flood-opacity="0" result="BackgroundImageFix"/>
<feColorMatrix in="SourceAlpha" type="matrix" values="0 0 0 0 0 0 0 0 0 0 0 0 0 0 0 0 0 0 127 0"/>
<feOffset dy="2"/>
<feGaussianBlur stdDeviation="1"/>
<feColorMatrix type="matrix" values="0 0 0 0 0 0 0 0 0 0 0 0 0 0 0 0 0 0 0.45 0"/>
<feBlend mode="normal" in2="BackgroundImageFix" result="effect1_dropShadow"/>
<feBlend mode="normal" in="SourceGraphic" in2="effect1_dropShadow" result="shape"/>
</filter>
</defs>
</svg>
