<svg width="53" height="43" viewBox="0 0 53 43" fill="none" xmlns="http://www.w3.org/2000/svg">
<g filter="url(#filter0_d)">
<path d="M49.1332 0H34.2004C33.175 0 31.739 0.587909 31.0147 1.30373L12.5005 19.6027C12.1514 19.9494 11.9554 20.4186 11.9554 20.9077C11.9554 21.3968 12.1514 21.866 12.5005 22.2126L28.5259 38.0517C28.8766 38.3968 29.3514 38.5905 29.8462 38.5905C30.3411 38.5905 30.8158 38.3968 31.1665 38.0517L49.6808 19.7528C50.4075 19.0345 50.9999 17.6176 50.9999 16.6041V1.8449C50.9985 1.356 50.8015 0.887499 50.4517 0.541794C50.1019 0.196089 49.6279 0.00129854 49.1332 0V0ZM39.8002 14.7592C39.3098 14.7591 38.8242 14.6634 38.3712 14.4778C37.9182 14.2921 37.5066 14.0201 37.1599 13.6773C36.8133 13.3344 36.5383 12.9274 36.3508 12.4795C36.1633 12.0317 36.0668 11.5517 36.067 11.067C36.0672 10.5822 36.1639 10.1023 36.3517 9.65455C36.5396 9.20679 36.8148 8.79999 37.1617 8.45736C37.5086 8.11473 37.9203 7.84298 38.3735 7.65764C38.8266 7.4723 39.3123 7.37699 39.8027 7.37715C40.7931 7.37747 41.7429 7.76666 42.443 8.4591C43.1431 9.15153 43.5362 10.0905 43.5359 11.0694C43.5356 12.0483 43.1418 12.987 42.4412 13.679C41.7407 14.371 40.7907 14.7595 39.8002 14.7592Z" fill="#61CC1F"/>
<path d="M6.20114 20.9089L27.356 0H24.245C23.2196 0 21.7836 0.587909 21.0593 1.30373L2.54508 19.6027C2.19599 19.9494 2 20.4186 2 20.9077C2 21.3968 2.19599 21.866 2.54508 22.2126L18.5705 38.0517C18.9213 38.3968 19.396 38.5905 19.8908 38.5905C20.3857 38.5905 20.8604 38.3968 21.2112 38.0517L22.3809 36.8956L6.20363 20.9064L6.20114 20.9089Z" fill="#61CC1F"/>
</g>
<defs>
<filter id="filter0_d" x="0" y="0" width="52.9999" height="42.5905" filterUnits="userSpaceOnUse" color-interpolation-filters="sRGB">
<feFlood flood-opacity="0" result="BackgroundImageFix"/>
<feColorMatrix in="SourceAlpha" type="matrix" values="0 0 0 0 0 0 0 0 0 0 0 0 0 0 0 0 0 0 127 0"/>
<feOffset dy="2"/>
<feGaussianBlur stdDeviation="1"/>
<feColorMatrix type="matrix" values="0 0 0 0 0 0 0 0 0 0 0 0 0 0 0 0 0 0 0.45 0"/>
<feBlend mode="normal" in2="BackgroundImageFix" result="effect1_dropShadow"/>
<feBlend mode="normal" in="SourceGraphic" in2="effect1_dropShadow" result="shape"/>
</filter>
</defs>
</svg>
