<svg width="53" height="52" viewBox="0 0 53 52" fill="none" xmlns="http://www.w3.org/2000/svg">
<g filter="url(#filter0_d)">
<path d="M35.1451 22.2038L43.8944 38.2153L50.4381 26.5997C51.1664 25.3172 51.1872 23.745 50.5005 22.4417L46.4744 14.7877C46.1415 14.1464 45.2156 14.1567 44.8931 14.8084L42.105 20.3938L36.2791 20.342C35.3012 20.342 34.6874 21.366 35.1451 22.2038Z" fill="#4B9111"/>
<path d="M49.148 28.8856L47.8059 29.8062C46.5055 30.6957 44.9554 31.1611 43.3741 31.1508L31.2021 31.0474L31.2229 28.2754C31.2229 27.9237 30.7652 27.7996 30.5883 28.0995L24.9185 37.9567L30.4739 47.8242C30.6403 48.1242 31.0981 48.0104 31.1085 47.6794L31.2749 44.4006L36.9344 44.4523C39.2023 44.473 41.2934 43.2421 42.3754 41.2666L49.148 28.8856Z" fill="#4B9111"/>
<path d="M21.1839 16.7632L30.7551 1.22754L17.3659 1.39303C15.8782 1.41372 14.5049 2.17912 13.7143 3.42032L9.06397 10.7227C8.67904 11.333 9.14719 12.119 9.86503 12.0673L16.1279 11.6743L18.9992 16.7218C19.4778 17.5596 20.6742 17.5803 21.1839 16.7632Z" fill="#4B9111"/>
<path d="M23.1187 31.2335L4.79834 30.7577L11.6438 42.1974C12.4032 43.4696 13.7557 44.2661 15.2329 44.3281L23.9094 44.6798C24.6272 44.7108 25.085 43.9144 24.6792 43.3145L21.2149 38.1221L24.1695 33.1263C24.6688 32.2988 24.0862 31.2542 23.1187 31.2335Z" fill="#4B9111"/>
<path d="M10.2914 39.9529L10.1666 38.3393C10.0417 36.7775 10.4058 35.2053 11.2069 33.8503L17.3865 23.4243L19.7897 24.831C20.0914 25.0068 20.4347 24.6655 20.2579 24.3655L14.5152 14.5497L3.14426 14.4049C2.80095 14.4049 2.66571 14.8393 2.957 15.0255L5.7243 16.8149L2.85297 21.6659C1.69819 23.6105 1.719 26.0204 2.90498 27.9443L10.2914 39.9529Z" fill="#4B9111"/>
<path d="M19.998 1.36201L21.4649 2.06536C22.8902 2.74801 24.0658 3.84441 24.846 5.20972L30.8384 15.7392L28.4248 17.1045C28.1231 17.2804 28.2479 17.7355 28.5913 17.7355L40.0142 17.6941L45.8297 7.97139C46.0065 7.68177 45.684 7.34044 45.3823 7.49559L42.4382 8.98503L39.6501 4.09264C38.5369 2.12742 36.425 0.937936 34.1571 0.999996L19.998 1.36201Z" fill="#4B9111"/>
</g>
<defs>
<filter id="filter0_d" x="0.000976562" y="0.997681" width="52.9994" height="51.0005" filterUnits="userSpaceOnUse" color-interpolation-filters="sRGB">
<feFlood flood-opacity="0" result="BackgroundImageFix"/>
<feColorMatrix in="SourceAlpha" type="matrix" values="0 0 0 0 0 0 0 0 0 0 0 0 0 0 0 0 0 0 127 0"/>
<feOffset dy="2"/>
<feGaussianBlur stdDeviation="1"/>
<feColorMatrix type="matrix" values="0 0 0 0 0 0 0 0 0 0 0 0 0 0 0 0 0 0 0.45 0"/>
<feBlend mode="normal" in2="BackgroundImageFix" result="effect1_dropShadow"/>
<feBlend mode="normal" in="SourceGraphic" in2="effect1_dropShadow" result="shape"/>
</filter>
</defs>
</svg>
