<svg width="53" height="54" viewBox="0 0 53 54" fill="none" xmlns="http://www.w3.org/2000/svg">
<g filter="url(#filter0_d)">
<path d="M11.6211 19.0407C13.1606 16.6141 19.6401 7.51287 30.4809 7.08682C30.4809 7.08682 21.4889 10.418 19.303 14.5435C19.303 14.5435 23.9806 18.2359 27.8815 15.9461C31.7823 13.6564 35.4104 6.59941 46.7308 8.73139C42.5067 -1.38502 16.2744 -4.88282 15.7479 10.2024C14.2136 11.8277 11.3292 14.7609 9.64372 17.8484C9.55765 18.0047 9.50833 18.1788 9.49958 18.3573C9.49083 18.5359 9.52288 18.714 9.59325 18.8781C9.66362 19.0421 9.77043 19.1876 9.90542 19.3034C10.0404 19.4191 10.2 19.502 10.3718 19.5456L10.4117 19.5561C10.6414 19.6062 10.8808 19.5836 11.0972 19.4914C11.3136 19.3991 11.4966 19.2417 11.6211 19.0407Z" fill="#61CC1F"/>
<path d="M30.4634 42.0893C27.6121 41.956 16.5627 40.8445 10.7748 31.5854C10.7748 31.5854 18.1318 37.7762 22.7642 37.6254C22.7642 37.6254 23.5947 31.6906 19.6747 29.4306C15.7547 27.1706 7.88868 27.5266 4.0573 16.5651C-2.50905 25.3139 7.60372 49.9843 20.8163 42.9028C22.9779 43.4288 26.9431 44.4808 30.4304 44.4141C30.6075 44.4109 30.7815 44.3668 30.9389 44.2851C31.0964 44.2034 31.2332 44.0863 31.3388 43.9428C31.4444 43.7994 31.5159 43.6334 31.5479 43.4576C31.5799 43.2819 31.5715 43.1011 31.5234 42.9291C31.5234 42.9151 31.5234 42.9011 31.5112 42.8888C31.4392 42.663 31.3 42.4651 31.1125 42.3221C30.925 42.179 30.6983 42.0977 30.4634 42.0893Z" fill="#61CC1F"/>
<path d="M40.8248 14.1C42.1384 16.6563 46.71 26.8709 41.6553 36.556C41.6553 36.556 43.2887 27.0322 40.8439 23.0558C40.8439 23.0558 35.3357 25.2964 35.3548 29.8532C35.374 34.41 39.6119 41.1057 32.1229 49.9335C42.9134 51.2976 59.0312 30.1215 46.3486 22.1195C45.7196 19.97 44.6405 15.9795 42.8334 12.9744C42.7421 12.8213 42.6172 12.6914 42.4683 12.5947C42.3194 12.498 42.1505 12.437 41.9746 12.4165C41.7987 12.396 41.6205 12.4165 41.4537 12.4765C41.2869 12.5364 41.1359 12.6342 41.0124 12.7623L40.9846 12.7938C40.8294 12.9692 40.7309 13.1883 40.7024 13.4217C40.6738 13.6551 40.7165 13.8917 40.8248 14.1Z" fill="#61CC1F"/>
</g>
<defs>
<filter id="filter0_d" x="0" y="0.00109863" width="53.0001" height="53.9953" filterUnits="userSpaceOnUse" color-interpolation-filters="sRGB">
<feFlood flood-opacity="0" result="BackgroundImageFix"/>
<feColorMatrix in="SourceAlpha" type="matrix" values="0 0 0 0 0 0 0 0 0 0 0 0 0 0 0 0 0 0 127 0"/>
<feOffset dy="2"/>
<feGaussianBlur stdDeviation="1"/>
<feColorMatrix type="matrix" values="0 0 0 0 0 0 0 0 0 0 0 0 0 0 0 0 0 0 0.45 0"/>
<feBlend mode="normal" in2="BackgroundImageFix" result="effect1_dropShadow"/>
<feBlend mode="normal" in="SourceGraphic" in2="effect1_dropShadow" result="shape"/>
</filter>
</defs>
</svg>
