<svg width="53" height="53" viewBox="0 0 53 53" fill="none" xmlns="http://www.w3.org/2000/svg">
<g filter="url(#filter0_d)">
<path d="M23.4145 12.5132L16.7985 1.48723C16.5265 1.03365 16.1416 0.658264 15.6814 0.397631C15.2212 0.136998 14.7013 6.4937e-06 14.1724 0H3.53503C2.29567 0 1.57024 1.39439 2.28036 2.4098L12.9292 17.6228C15.7735 14.9651 19.3911 13.141 23.4145 12.5132ZM49.4668 0H38.8294C37.7537 0 36.7565 0.564648 36.2033 1.48723L29.5873 12.5132C33.6107 13.141 37.2283 14.9651 40.0726 17.6218L50.7215 2.4098C51.4316 1.39439 50.7061 0 49.4668 0ZM26.5009 15.3125C17.1986 15.3125 9.65716 22.8539 9.65716 32.1562C9.65716 41.4586 17.1986 49 26.5009 49C35.8033 49 43.3447 41.4586 43.3447 32.1562C43.3447 22.8539 35.8033 15.3125 26.5009 15.3125ZM35.3554 30.3628L31.7253 33.9L32.5838 38.8976C32.7369 39.7934 31.7933 40.4776 30.9903 40.0546L26.5009 37.6955L22.0124 40.0546C21.2085 40.4805 20.2658 39.7924 20.419 38.8976L21.2774 33.9L17.6474 30.3628C16.9947 29.7273 17.3555 28.6181 18.2551 28.488L23.2728 27.7568L25.5152 23.209C25.7171 22.7994 26.1076 22.5974 26.499 22.5974C26.8923 22.5974 27.2857 22.8022 27.4876 23.209L29.7299 27.7568L34.7476 28.488C35.6473 28.6181 36.0081 29.7273 35.3554 30.3628Z" fill="#61CC1F"/>
</g>
<defs>
<filter id="filter0_d" x="0.000976562" y="0" width="52.9999" height="53" filterUnits="userSpaceOnUse" color-interpolation-filters="sRGB">
<feFlood flood-opacity="0" result="BackgroundImageFix"/>
<feColorMatrix in="SourceAlpha" type="matrix" values="0 0 0 0 0 0 0 0 0 0 0 0 0 0 0 0 0 0 127 0"/>
<feOffset dy="2"/>
<feGaussianBlur stdDeviation="1"/>
<feColorMatrix type="matrix" values="0 0 0 0 0 0 0 0 0 0 0 0 0 0 0 0 0 0 0.45 0"/>
<feBlend mode="normal" in2="BackgroundImageFix" result="effect1_dropShadow"/>
<feBlend mode="normal" in="SourceGraphic" in2="effect1_dropShadow" result="shape"/>
</filter>
</defs>
</svg>
