<svg width="54" height="44" viewBox="0 0 54 44" fill="none" xmlns="http://www.w3.org/2000/svg">
<g filter="url(#filter0_d)">
<path d="M50.7501 27.5H49.5001V19.0547C49.5001 18.0625 49.1017 17.1094 48.3986 16.4062L40.5939 8.60156C39.8907 7.89844 38.9376 7.5 37.9454 7.5H34.5001V3.75C34.5001 1.67969 32.8204 0 30.7501 0H10.7501C8.67981 0 7.00012 1.67969 7.00012 3.75V7.5H2.62512C2.28137 7.5 2.00012 7.78125 2.00012 8.125V9.375C2.00012 9.71875 2.28137 10 2.62512 10H23.8751C24.2189 10 24.5001 10.2812 24.5001 10.625V11.875C24.5001 12.2188 24.2189 12.5 23.8751 12.5H5.12512C4.78137 12.5 4.50012 12.7812 4.50012 13.125V14.375C4.50012 14.7188 4.78137 15 5.12512 15H21.3751C21.7189 15 22.0001 15.2812 22.0001 15.625V16.875C22.0001 17.2188 21.7189 17.5 21.3751 17.5H2.62512C2.28137 17.5 2.00012 17.7812 2.00012 18.125V19.375C2.00012 19.7188 2.28137 20 2.62512 20H18.8751C19.2189 20 19.5001 20.2812 19.5001 20.625V21.875C19.5001 22.2188 19.2189 22.5 18.8751 22.5H7.00012V32.5C7.00012 36.6406 10.3595 40 14.5001 40C18.6407 40 22.0001 36.6406 22.0001 32.5H32.0001C32.0001 36.6406 35.3595 40 39.5001 40C43.6407 40 47.0001 36.6406 47.0001 32.5H50.7501C51.4376 32.5 52.0001 31.9375 52.0001 31.25V28.75C52.0001 28.0625 51.4376 27.5 50.7501 27.5ZM14.5001 36.25C12.4298 36.25 10.7501 34.5703 10.7501 32.5C10.7501 30.4297 12.4298 28.75 14.5001 28.75C16.5704 28.75 18.2501 30.4297 18.2501 32.5C18.2501 34.5703 16.5704 36.25 14.5001 36.25ZM39.5001 36.25C37.4298 36.25 35.7501 34.5703 35.7501 32.5C35.7501 30.4297 37.4298 28.75 39.5001 28.75C41.5704 28.75 43.2501 30.4297 43.2501 32.5C43.2501 34.5703 41.5704 36.25 39.5001 36.25ZM45.7501 20H34.5001V11.25H37.9454L45.7501 19.0547V20Z" fill="#4B9111"/>
</g>
<defs>
<filter id="filter0_d" x="0.00012207" y="0" width="54" height="44" filterUnits="userSpaceOnUse" color-interpolation-filters="sRGB">
<feFlood flood-opacity="0" result="BackgroundImageFix"/>
<feColorMatrix in="SourceAlpha" type="matrix" values="0 0 0 0 0 0 0 0 0 0 0 0 0 0 0 0 0 0 127 0"/>
<feOffset dy="2"/>
<feGaussianBlur stdDeviation="1"/>
<feColorMatrix type="matrix" values="0 0 0 0 0 0 0 0 0 0 0 0 0 0 0 0 0 0 0.45 0"/>
<feBlend mode="normal" in2="BackgroundImageFix" result="effect1_dropShadow"/>
<feBlend mode="normal" in="SourceGraphic" in2="effect1_dropShadow" result="shape"/>
</filter>
</defs>
</svg>
