<svg width="53" height="38" viewBox="0 0 53 38" fill="none" xmlns="http://www.w3.org/2000/svg">
<g filter="url(#filter0_d)">
<path d="M6.9 0C5.60044 0 4.3541 0.511733 3.43518 1.42262C2.51625 2.33351 2 3.56895 2 4.85714V29.1429C2 30.4311 2.51625 31.6665 3.43518 32.5774C4.3541 33.4883 5.60044 34 6.9 34H46.1C47.3996 34 48.6459 33.4883 49.5648 32.5774C50.4838 31.6665 51 30.4311 51 29.1429V4.85714C51 3.56895 50.4838 2.33351 49.5648 1.42262C48.6459 0.511733 47.3996 0 46.1 0H6.9ZM6.9 4.85714H36.3V29.1429H6.9V4.85714ZM43.65 4.85714C44.2998 4.85714 44.923 5.11301 45.3824 5.56846C45.8419 6.0239 46.1 6.64162 46.1 7.28571C46.1 7.92981 45.8419 8.54753 45.3824 9.00297C44.923 9.45842 44.2998 9.71429 43.65 9.71429C43.0002 9.71429 42.3771 9.45842 41.9176 9.00297C41.4581 8.54753 41.2 7.92981 41.2 7.28571C41.2 6.64162 41.4581 6.0239 41.9176 5.56846C42.3771 5.11301 43.0002 4.85714 43.65 4.85714ZM28.95 9.71429V24.2857H33.85V9.71429H28.95ZM43.65 14.5714C44.2998 14.5714 44.923 14.8273 45.3824 15.2827C45.8419 15.7382 46.1 16.3559 46.1 17C46.1 17.6441 45.8419 18.2618 45.3824 18.7173C44.923 19.1727 44.2998 19.4286 43.65 19.4286C43.0002 19.4286 42.3771 19.1727 41.9176 18.7173C41.4581 18.2618 41.2 17.6441 41.2 17C41.2 16.3559 41.4581 15.7382 41.9176 15.2827C42.3771 14.8273 43.0002 14.5714 43.65 14.5714Z" fill="#61CC1F"/>
</g>
<defs>
<filter id="filter0_d" x="0" y="0" width="53" height="38" filterUnits="userSpaceOnUse" color-interpolation-filters="sRGB">
<feFlood flood-opacity="0" result="BackgroundImageFix"/>
<feColorMatrix in="SourceAlpha" type="matrix" values="0 0 0 0 0 0 0 0 0 0 0 0 0 0 0 0 0 0 127 0"/>
<feOffset dy="2"/>
<feGaussianBlur stdDeviation="1"/>
<feColorMatrix type="matrix" values="0 0 0 0 0 0 0 0 0 0 0 0 0 0 0 0 0 0 0.45 0"/>
<feBlend mode="normal" in2="BackgroundImageFix" result="effect1_dropShadow"/>
<feBlend mode="normal" in="SourceGraphic" in2="effect1_dropShadow" result="shape"/>
</filter>
</defs>
</svg>
