<svg width="39" height="39" viewBox="0 0 39 39" fill="none" xmlns="http://www.w3.org/2000/svg">
<g filter="url(#filter0_d)">
<circle cx="19.8191" cy="17.3367" r="17.1638" fill="white"/>
</g>
<path d="M26.7365 9.8494C25.8339 8.94251 24.759 8.22352 23.5744 7.73433C22.3899 7.24514 21.1193 6.99554 19.8369 7.00006C14.4632 7.00006 10.0837 11.3586 10.0788 16.7094C10.0788 18.4232 10.5291 20.0904 11.3794 21.5665L10 26.6L15.1732 25.2501C16.6043 26.0254 18.2076 26.4318 19.8369 26.4322H19.8418C25.2168 26.4322 29.5951 22.0736 29.6 16.718C29.6012 15.4416 29.3487 14.1775 28.8571 12.9987C28.3654 11.8199 27.6443 10.7496 26.7353 9.8494H26.7365ZM19.8369 24.7882C18.3836 24.7887 16.9571 24.3994 15.7072 23.6612L15.4119 23.4848L12.3429 24.286L13.1625 21.3056L12.9705 20.9981C12.1581 19.7122 11.7285 18.2235 11.7314 16.7045C11.7314 12.2626 15.3701 8.63911 19.8418 8.63911C20.9072 8.6372 21.9623 8.84524 22.9465 9.25123C23.9307 9.65721 24.8244 10.2531 25.5761 11.0046C26.3305 11.7531 26.9285 12.6429 27.3357 13.6227C27.7429 14.6024 27.9512 15.6528 27.9486 16.7131C27.9437 21.1708 24.305 24.7882 19.8369 24.7882V24.7882ZM24.2853 18.7441C24.0429 18.6228 22.8456 18.0361 22.6204 17.9528C22.3964 17.8731 22.2328 17.8315 22.0728 18.074C21.9091 18.3154 21.4415 18.8654 21.3013 19.0234C21.161 19.1863 21.0158 19.2047 20.7721 19.0846C20.5297 18.9621 19.7434 18.7073 18.8131 17.878C18.0871 17.2349 17.601 16.4387 17.4558 16.1973C17.3155 15.9548 17.4423 15.8249 17.5641 15.7037C17.6712 15.5959 17.8065 15.4195 17.9284 15.2798C18.0514 15.1402 18.092 15.0373 18.172 14.8756C18.252 14.7114 18.2138 14.5718 18.1535 14.4505C18.092 14.3292 17.6059 13.1324 17.4004 12.6497C17.2036 12.1732 17.003 12.2394 16.8529 12.2332C16.7126 12.2247 16.5489 12.2247 16.3853 12.2247C16.2617 12.2277 16.14 12.2562 16.028 12.3083C15.916 12.3603 15.816 12.4349 15.7343 12.5272C15.5103 12.7698 14.884 13.3566 14.884 14.5534C14.884 15.7502 15.7577 16.9005 15.8807 17.0634C16.0013 17.2263 17.5961 19.6751 20.0436 20.7286C20.622 20.9797 21.0773 21.1279 21.4329 21.2406C22.0174 21.4268 22.5453 21.3987 22.9662 21.3386C23.4338 21.2676 24.4071 20.7506 24.6126 20.1835C24.8144 19.6151 24.8144 19.13 24.7529 19.0283C24.6926 18.9254 24.529 18.8654 24.2853 18.7441V18.7441Z" fill="#4B9111"/>
<defs>
<filter id="filter0_d" x="0.655273" y="0.172852" width="38.3277" height="38.3277" filterUnits="userSpaceOnUse" color-interpolation-filters="sRGB">
<feFlood flood-opacity="0" result="BackgroundImageFix"/>
<feColorMatrix in="SourceAlpha" type="matrix" values="0 0 0 0 0 0 0 0 0 0 0 0 0 0 0 0 0 0 127 0"/>
<feOffset dy="2"/>
<feGaussianBlur stdDeviation="1"/>
<feColorMatrix type="matrix" values="0 0 0 0 0 0 0 0 0 0 0 0 0 0 0 0 0 0 0.45 0"/>
<feBlend mode="normal" in2="BackgroundImageFix" result="effect1_dropShadow"/>
<feBlend mode="normal" in="SourceGraphic" in2="effect1_dropShadow" result="shape"/>
</filter>
</defs>
</svg>
