<svg width="35" height="35" viewBox="0 0 35 35" fill="none" xmlns="http://www.w3.org/2000/svg">
<path fill-rule="evenodd" clip-rule="evenodd" d="M2.1875 4.375C2.1875 3.79484 2.41797 3.23844 2.8282 2.8282C3.23844 2.41797 3.79484 2.1875 4.375 2.1875H30.625C31.2052 2.1875 31.7616 2.41797 32.1718 2.8282C32.582 3.23844 32.8125 3.79484 32.8125 4.375V30.625C32.8125 31.2052 32.582 31.7616 32.1718 32.1718C31.7616 32.582 31.2052 32.8125 30.625 32.8125H4.375C3.79484 32.8125 3.23844 32.582 2.8282 32.1718C2.41797 31.7616 2.1875 31.2052 2.1875 30.625V4.375ZM35 4.375C35 3.21468 34.5391 2.10188 33.7186 1.28141C32.8981 0.460936 31.7853 0 30.625 0L4.375 0C3.21468 0 2.10188 0.460936 1.28141 1.28141C0.460937 2.10188 0 3.21468 0 4.375V30.625C0 31.7853 0.460937 32.8981 1.28141 33.7186C2.10188 34.5391 3.21468 35 4.375 35H30.625C31.7853 35 32.8981 34.5391 33.7186 33.7186C34.5391 32.8981 35 31.7853 35 30.625V4.375ZM25.1562 16.4062C25.4463 16.4062 25.7245 16.5215 25.9296 16.7266C26.1348 16.9317 26.25 17.2099 26.25 17.5C26.25 17.7901 26.1348 18.0683 25.9296 18.2734C25.7245 18.4785 25.4463 18.5938 25.1562 18.5938H12.4841L17.1806 23.2881C17.2823 23.3898 17.363 23.5105 17.418 23.6434C17.4731 23.7763 17.5014 23.9187 17.5014 24.0625C17.5014 24.2063 17.4731 24.3487 17.418 24.4816C17.363 24.6145 17.2823 24.7352 17.1806 24.8369C17.0789 24.9386 16.9582 25.0192 16.8253 25.0743C16.6925 25.1293 16.5501 25.1576 16.4062 25.1576C16.2624 25.1576 16.12 25.1293 15.9872 25.0743C15.8543 25.0192 15.7336 24.9386 15.6319 24.8369L9.06937 18.2744C8.96752 18.1728 8.88671 18.0521 8.83157 17.9192C8.77643 17.7863 8.74805 17.6439 8.74805 17.5C8.74805 17.3561 8.77643 17.2137 8.83157 17.0808C8.88671 16.9479 8.96752 16.8272 9.06937 16.7256L15.6319 10.1631C15.7336 10.0614 15.8543 9.98077 15.9872 9.92573C16.12 9.87069 16.2624 9.84237 16.4062 9.84237C16.5501 9.84237 16.6925 9.87069 16.8253 9.92573C16.9582 9.98077 17.0789 10.0614 17.1806 10.1631C17.2823 10.2648 17.363 10.3855 17.418 10.5184C17.4731 10.6513 17.5014 10.7937 17.5014 10.9375C17.5014 11.0813 17.4731 11.2237 17.418 11.3566C17.363 11.4895 17.2823 11.6102 17.1806 11.7119L12.4841 16.4062H25.1562Z" fill="#4B9111"/>
</svg>
