<svg width="175" height="31" viewBox="0 0 175 31" fill="none" xmlns="http://www.w3.org/2000/svg">
<path d="M31.0736 11.8631H19.2138L15.5368 0L11.8598 11.8631H0L9.58103 19.184L5.95577 30.9936L15.5368 23.6727L25.1178 30.9936L21.4408 19.1305L31.0736 11.8631Z" fill="#FFCE31"/>
<path d="M66.8553 11.8631H54.9956L51.3185 0L47.6415 11.8631H35.7817L45.3628 19.184L41.7375 30.9936L51.3185 23.6727L60.8995 30.9936L57.2225 19.1305L66.8553 11.8631Z" fill="#FFCE31"/>
<path d="M102.637 11.8631H90.7773L87.1003 0L83.4232 11.8631H71.5635L81.1445 19.184L77.5193 30.9936L87.1003 23.6727L96.6813 30.9936L93.0043 19.1305L102.637 11.8631Z" fill="#FFCE31"/>
<path d="M138.419 11.8631H126.559L122.882 0L119.205 11.8631H107.345L116.926 19.184L113.301 30.9936L122.882 23.6727L132.463 30.9936L128.786 19.1305L138.419 11.8631Z" fill="#FFCE31"/>
<path d="M174.201 11.8631H162.341L158.664 0L154.987 11.8631H143.127L152.708 19.184L149.083 30.9936L158.664 23.6727L168.245 30.9936L164.568 19.1305L174.201 11.8631Z" fill="#FFCE31"/>
</svg>
