<svg width="37" height="36" viewBox="0 0 37 36" fill="none" xmlns="http://www.w3.org/2000/svg">
<path d="M25.0277 16.013L31.6344 28.1034L36.5756 19.3324C37.1255 18.3639 37.1412 17.1767 36.6228 16.1926L33.5826 10.413C33.3312 9.92874 32.6321 9.93655 32.3885 10.4286L30.2832 14.6462L25.884 14.6071C25.1456 14.6071 24.6821 15.3804 25.0277 16.013Z" fill="#4B9111"/>
<path d="M35.6011 21.0585L34.5877 21.7536C33.6058 22.4253 32.4353 22.7767 31.2412 22.7689L22.05 22.6908L22.0657 20.5977C22.0657 20.3321 21.7201 20.2384 21.5865 20.4649L17.3052 27.9081L21.5001 35.3592C21.6258 35.5857 21.9715 35.4998 21.9793 35.2499L22.105 32.774L26.3785 32.813C28.0911 32.8286 29.6701 31.8992 30.4871 30.4074L35.6011 21.0585Z" fill="#4B9111"/>
<path d="M14.4853 11.9047L21.7125 0.173584L11.6022 0.298549C10.4788 0.31417 9.44189 0.892135 8.84485 1.82938L5.33335 7.34348C5.04269 7.80429 5.3962 8.39787 5.93824 8.35882L10.6674 8.06203L12.8356 11.8735C13.1969 12.5061 14.1003 12.5217 14.4853 11.9047Z" fill="#4B9111"/>
<path d="M15.9462 22.8314L2.1123 22.4721L7.28136 31.1103C7.85483 32.071 8.87607 32.6724 9.99158 32.7193L16.5432 32.9848C17.0853 33.0083 17.4309 32.4069 17.1246 31.9539L14.5086 28.0331L16.7396 24.2607C17.1167 23.6358 16.6768 22.847 15.9462 22.8314Z" fill="#4B9111"/>
<path d="M6.26018 29.4155L6.16591 28.1971C6.07164 27.0177 6.34659 25.8306 6.95148 24.8074L11.6178 16.9346L13.4324 17.9968C13.6603 18.1296 13.9195 17.8718 13.786 17.6453L9.4496 10.2333L0.863307 10.124C0.604068 10.124 0.501944 10.452 0.721904 10.5926L2.81152 11.9438L0.643347 15.6068C-0.228637 17.0752 -0.212926 18.895 0.682625 20.3477L6.26018 29.4155Z" fill="#4B9111"/>
<path d="M13.5894 0.27511L14.697 0.806213C15.7732 1.3217 16.6609 2.14959 17.2501 3.18056L21.775 11.1315L19.9525 12.1624C19.7247 12.2952 19.8189 12.6389 20.0782 12.6389L28.7037 12.6076L33.0951 5.26591C33.2286 5.04723 32.9851 4.78948 32.7573 4.90664L30.5341 6.03133L28.4288 2.33704C27.5882 0.853075 25.9935 -0.0451137 24.281 0.00174832L13.5894 0.27511Z" fill="#4B9111"/>
</svg>
