<svg width="164" height="30" viewBox="0 0 164 30" fill="none" xmlns="http://www.w3.org/2000/svg">
<path d="M14.3843 0L18.2872 11.2039H28.7669L20.2158 17.7842L23.2737 29.3315L14.3843 22.4078L5.49645 29.3315L8.55276 17.7842L0 11.2039H10.4797L14.3843 0Z" fill="#FFCE31"/>
<path d="M47.9447 0L51.8477 11.2039H62.3274L53.7762 17.7842L56.8342 29.3315L47.9447 22.4078L39.0569 29.3315L42.1132 17.7842L33.5605 11.2039H44.0402L47.9447 0Z" fill="#FFCE31"/>
<path d="M81.5076 0L85.4105 11.2039H95.8902L87.3391 17.7842L90.3971 29.3315L81.5076 22.4078L72.6198 29.3315L75.6761 17.7842L67.1234 11.2039H77.6031L81.5076 0Z" fill="#FFCE31"/>
<path d="M115.068 0L118.971 11.2039H129.451L120.9 17.7842L123.958 29.3315L115.068 22.4078L106.18 29.3315L109.237 17.7842L100.684 11.2039H111.164L115.068 0Z" fill="#FFCE31"/>
<path d="M148.629 0L152.532 11.2039H163.012L154.461 17.7842L157.519 29.3315L148.629 22.4078L139.742 29.3315L142.798 17.7842L134.245 11.2039H144.725L148.629 0Z" fill="#FFCE31"/>
</svg>
