<svg width="20" height="21" viewBox="0 0 20 21" fill="none" xmlns="http://www.w3.org/2000/svg">
<path d="M1.2 20.1884C1.2 20.6373 1.5575 21 2 21H9.15V11.4638H1.2V20.1884ZM10.85 21H18C18.4425 21 18.8 20.6373 18.8 20.1884V11.4638H10.85V21ZM19.2 5.37681H15.51C15.85 4.83406 16.05 4.18986 16.05 3.5C16.05 1.56993 14.5025 0 12.6 0C11.565 0 10.6325 0.466666 10 1.20217C9.3675 0.466666 8.435 0 7.4 0C5.4975 0 3.95 1.56993 3.95 3.5C3.95 4.18986 4.1475 4.83406 4.49 5.37681H0.8C0.3575 5.37681 0 5.73949 0 6.18841V9.73913H9.15V5.37681H10.85V9.73913H20V6.18841C20 5.73949 19.6425 5.37681 19.2 5.37681ZM9.15 5.27536H7.4C6.435 5.27536 5.65 4.47899 5.65 3.5C5.65 2.52101 6.435 1.72464 7.4 1.72464C8.365 1.72464 9.15 2.52101 9.15 3.5V5.27536ZM12.6 5.27536H10.85V3.5C10.85 2.52101 11.635 1.72464 12.6 1.72464C13.565 1.72464 14.35 2.52101 14.35 3.5C14.35 4.47899 13.565 5.27536 12.6 5.27536Z" fill="white"/>
</svg>
