<svg width="142" height="90" viewBox="0 0 142 90" fill="none" xmlns="http://www.w3.org/2000/svg">
<path d="M72.4143 52.5517C72.1793 11.1624 95.6341 13.6678 95.6341 13.6678C83.4132 19.9777 79.6246 28.1642 79.6246 28.1642C105.101 41.4453 122.487 8.21006 122.487 8.21006C97.5284 -6.28641 80.3109 1.72786 76.3532 7.18558C72.3955 12.6433 74.7927 19.4654 74.7927 19.4654C72.7668 23.3399 71.4084 28.3505 70.5012 33.4636C69.5941 28.3412 68.2357 23.3399 66.2098 19.4654C66.2098 19.4654 68.607 12.6433 64.6493 7.18558C60.6916 1.72786 43.4976 -6.28641 18.5151 8.21006C18.5151 8.21006 35.9065 41.4639 61.3778 28.1642C61.3778 28.1642 57.5893 19.9777 45.3731 13.6678C45.3731 13.6678 68.8232 11.1624 68.5882 52.5517H72.4143Z" fill="#4B9111"/>
<path d="M56.1794 53.4077L51.2346 53.1516C47.5695 52.9603 43.9831 52.0249 40.6979 50.4036C37.4128 48.7823 34.4989 46.5095 32.137 43.7263C31.1066 42.5099 29.8199 41.5319 28.3671 40.8609C26.9143 40.1899 25.3309 39.8423 23.728 39.8426C23.453 39.8401 23.1813 39.9032 22.936 40.0266C22.6907 40.1499 22.479 40.3299 22.3186 40.5513C22.1582 40.7728 22.054 41.0292 22.0146 41.2989C21.9752 41.5686 22.0019 41.8437 22.0923 47.9011C22.9666 44.532 25.5706 48.439 27.681 51.4146C10.9524 48.2061 10.9336 39.2605 5.5611 34.1427C3.15921 31.8469 -0.784404 34.2917 0.136869 37.4863C5.67861 56.6116 23.3896 64.5979 40.043 65.8925C42.7706 65.8925 45.3865 66.966 47.3152 68.8768C49.2439 70.7876 50.3274 73.3792 50.3274 76.0815V89.1716H69.2793V67.1684C69.2805 63.6518 67.9245 60.2677 65.4891 57.7094C63.0536 55.1511 59.723 53.6121 56.1794 53.4077V53.4077Z" fill="#4B9111"/>
<path d="M84.8241 53.4086L89.75 53.1525C93.4192 52.9643 97.0101 52.0305 100.3 50.4091C103.589 48.7876 106.507 46.5132 108.871 43.7273V43.7273C109.9 42.5107 111.186 41.5325 112.638 40.8615C114.09 40.1905 115.673 39.843 117.275 39.8435C117.551 39.8395 117.824 39.9015 118.071 40.0243C118.317 40.147 118.53 40.3268 118.692 40.5484C118.853 40.77 118.958 41.027 118.998 41.2975C119.038 41.5679 119.011 41.8439 118.921 47.902C118.046 44.5329 115.442 48.4399 113.336 51.4156C130.06 48.2071 130.079 39.2614 135.452 34.1436C137.868 31.8432 141.811 34.288 140.89 37.4825C135.348 56.6078 117.637 64.5942 100.984 65.8888C98.2563 65.8888 95.6404 66.9622 93.7117 68.873C91.783 70.7838 90.6995 73.3754 90.6995 76.0777V89.1679H71.7241V67.1694C71.7229 63.6527 73.0789 60.2687 75.5144 57.7103C77.9498 55.152 81.2805 53.6131 84.8241 53.4086V53.4086Z" fill="#4B9111"/>
</svg>
