<svg width="92" height="92" viewBox="0 0 92 92" fill="none" xmlns="http://www.w3.org/2000/svg">
<path d="M40.2051 23.4941L27.7832 2.79234C27.2725 1.94073 26.5499 1.23592 25.6858 0.746573C24.8217 0.257221 23.8456 1.21923e-05 22.8526 0H2.88027C0.553309 0 -0.808726 2.61805 0.524559 4.52453L20.5184 33.0877C25.8588 28.0977 32.651 24.6729 40.2051 23.4941ZM89.1197 0H69.1474C67.1277 0 65.2554 1.06016 64.2168 2.79234L51.7949 23.4941C59.349 24.6729 66.1412 28.0977 71.4816 33.0859L91.4754 4.52453C92.8087 2.61805 91.4467 0 89.1197 0ZM46 28.75C28.5343 28.75 14.3749 42.9094 14.3749 60.375C14.3749 77.8406 28.5343 92 46 92C63.4657 92 77.6251 77.8406 77.6251 60.375C77.6251 42.9094 63.4657 28.75 46 28.75ZM62.6247 57.0077L55.8092 63.6489L57.421 73.0322C57.7085 74.7141 55.9368 75.9988 54.4292 75.2046L46 70.7753L37.5726 75.2046C36.0633 76.0042 34.2933 74.7123 34.5808 73.0322L36.1926 63.6489L29.3771 57.0077C28.1516 55.8145 28.829 53.732 30.5181 53.4876L39.9391 52.1148L44.1492 43.576C44.5284 42.807 45.2615 42.4278 45.9964 42.4278C46.7349 42.4278 47.4734 42.8123 47.8526 43.576L52.0627 52.1148L61.4837 53.4876C63.1728 53.732 63.8502 55.8145 62.6247 57.0077V57.0077Z" fill="#4B9111"/>
</svg>
