<svg width="20" height="20" viewBox="0 0 20 20" fill="none" xmlns="http://www.w3.org/2000/svg">
<path d="M10.2217 5.26477C7.51357 5.26477 5.32921 7.44914 5.32921 10.1572C5.32921 12.8653 7.51357 15.0497 10.2217 15.0497C12.9298 15.0497 15.1141 12.8653 15.1141 10.1572C15.1141 7.44914 12.9298 5.26477 10.2217 5.26477ZM10.2217 13.338C8.47163 13.338 7.04093 11.9115 7.04093 10.1572C7.04093 8.40293 8.46737 6.9765 10.2217 6.9765C11.976 6.9765 13.4024 8.40293 13.4024 10.1572C13.4024 11.9115 11.9717 13.338 10.2217 13.338ZM16.4554 5.06465C16.4554 5.69909 15.9444 6.2058 15.3143 6.2058C14.6798 6.2058 14.1731 5.69483 14.1731 5.06465C14.1731 4.43446 14.6841 3.9235 15.3143 3.9235C15.9444 3.9235 16.4554 4.43446 16.4554 5.06465ZM19.6958 6.22283C19.6234 4.6942 19.2742 3.34015 18.1543 2.22455C17.0387 1.10895 15.6847 0.759797 14.1561 0.683153C12.5806 0.593734 7.85847 0.593734 6.28301 0.683153C4.75864 0.755539 3.40459 1.1047 2.28473 2.2203C1.16488 3.3359 0.819977 4.68994 0.743333 6.21857C0.653915 7.79403 0.653915 12.5162 0.743333 14.0916C0.815719 15.6203 1.16488 16.9743 2.28473 18.0899C3.40459 19.2055 4.75438 19.5547 6.28301 19.6313C7.85847 19.7207 12.5806 19.7207 14.1561 19.6313C15.6847 19.5589 17.0387 19.2098 18.1543 18.0899C19.2699 16.9743 19.6191 15.6203 19.6958 14.0916C19.7852 12.5162 19.7852 7.79829 19.6958 6.22283ZM17.6604 15.7821C17.3283 16.6166 16.6853 17.2596 15.8465 17.596C14.5904 18.0942 11.6098 17.9792 10.2217 17.9792C8.83356 17.9792 5.84869 18.0899 4.59683 17.596C3.76226 17.2639 3.1193 16.6209 2.78292 15.7821C2.28473 14.526 2.3997 11.5453 2.3997 10.1572C2.3997 8.76912 2.28899 5.78425 2.78292 4.5324C3.11505 3.69783 3.75801 3.05487 4.59683 2.71848C5.85295 2.2203 8.83356 2.33526 10.2217 2.33526C11.6098 2.33526 14.5947 2.22455 15.8465 2.71848C16.6811 3.05061 17.324 3.69357 17.6604 4.5324C18.1586 5.78851 18.0436 8.76912 18.0436 10.1572C18.0436 11.5453 18.1586 14.5302 17.6604 15.7821Z" fill="#37474F"/>
</svg>
