<svg width="38" height="38" viewBox="0 0 38 38" fill="none" xmlns="http://www.w3.org/2000/svg">
<path d="M37.582 9.08201C37.781 8.88273 37.9165 8.62893 37.9714 8.35267C38.0263 8.07641 37.9981 7.79009 37.8903 7.52986C37.7826 7.26963 37.6001 7.04717 37.366 6.89057C37.1319 6.73397 36.8566 6.65026 36.575 6.65001H31.35V1.42502C31.3497 1.14336 31.266 0.868094 31.1094 0.633984C30.9528 0.399875 30.7304 0.217422 30.4701 0.109671C30.2099 0.00191925 29.9236 -0.0262984 29.6473 0.028582C29.3711 0.0834623 29.1173 0.218979 28.918 0.418016L24.168 5.16801C23.9007 5.435 23.7503 5.79721 23.75 6.17501V11.5634L19.9842 15.3292C19.1762 15.1126 18.3193 15.1687 17.5464 15.4888C16.7735 15.8089 16.1279 16.3751 15.7096 17.0995C15.2913 17.8239 15.1237 18.6662 15.2329 19.4956C15.342 20.3249 15.7218 21.0951 16.3134 21.6866C16.9049 22.2782 17.6751 22.658 18.5044 22.7671C19.3338 22.8763 20.1761 22.7088 20.9005 22.2905C21.625 21.8722 22.1911 21.2265 22.5112 20.4536C22.8313 19.6807 22.8874 18.8238 22.6708 18.0158L26.4366 14.25H31.825C32.2028 14.2497 32.565 14.0993 32.832 13.832L37.582 9.08201ZM19 1.60892e-05C21.2186 -0.00287402 23.4206 0.383622 25.5056 1.14192L22.8228 3.82471C22.705 3.94251 22.5948 4.07171 22.4979 4.20471C19.2793 3.44456 15.9005 3.75489 12.8742 5.08862C9.8479 6.42236 7.33915 8.70674 5.72853 11.5952C4.1179 14.4837 3.49329 17.8187 3.94944 21.0942C4.40559 24.3698 5.91761 27.4072 8.25614 29.7458C10.5947 32.0843 13.6321 33.5963 16.9077 34.0525C20.1832 34.5086 23.5182 33.884 26.4067 32.2734C29.2952 30.6628 31.5795 28.154 32.9133 25.1277C34.247 22.1014 34.5573 18.7226 33.7972 15.504C33.9302 15.4052 34.0575 15.295 34.1772 15.1753L36.8562 12.4963C37.6148 14.5806 38.002 16.7819 38 19C38 29.4937 29.4937 38 19 38C8.5063 38 0 29.4937 0 19C0 8.50631 8.5063 1.60892e-05 19 1.60892e-05ZM19 7.60001C19.9842 7.60001 20.938 7.72541 21.85 7.95911V10.7749L21.0634 11.5634C21.0318 11.5945 21.0008 11.6262 20.9703 11.6584C19.8441 11.3581 18.664 11.3205 17.521 11.5484C16.378 11.7764 15.3027 12.2639 14.3779 12.9733C13.4531 13.6827 12.7037 14.5951 12.1874 15.64C11.6711 16.6849 11.4017 17.8345 11.4 19C11.4008 20.0815 11.6323 21.1504 12.0793 22.1352C12.5262 23.1201 13.1781 23.9982 13.9916 24.7109C14.805 25.4236 15.7612 25.9545 16.7963 26.2681C17.8313 26.5817 18.9214 26.6708 19.9936 26.5294C21.0658 26.388 22.0955 26.0194 23.0139 25.4482C23.9322 24.877 24.7181 24.1164 25.319 23.2172C25.9199 22.318 26.3219 21.3009 26.4983 20.2339C26.6746 19.1668 26.6212 18.0744 26.3416 17.0297L26.4366 16.9366L27.2232 16.15H30.0409C30.6352 18.4519 30.4951 20.882 29.64 23.1003C28.7849 25.3186 27.2577 27.2141 25.272 28.5215C23.2864 29.8288 20.9417 30.4827 18.566 30.3916C16.1904 30.3005 13.9027 29.469 12.023 28.0134C10.1433 26.5578 8.76574 24.5509 8.08304 22.2737C7.40034 19.9964 7.44668 17.5627 8.21557 15.3131C8.98446 13.0634 10.4374 11.1105 12.3712 9.72747C14.3049 8.34447 16.6226 7.60062 19 7.60001Z" fill="#4B9111"/>
</svg>
