<svg width="41" height="38" viewBox="0 0 41 38" fill="none" xmlns="http://www.w3.org/2000/svg">
<path fill-rule="evenodd" clip-rule="evenodd" d="M32.8488 0H8.47481V2.80043H0V15.9361C0 21.0127 5.72119 25.1903 11.3354 25.6249C13.1785 27.5806 16.4203 29.0011 19.3056 29.6069V33.0402C16.5465 33.8795 11.6179 35.8515 11.3354 38H30.2707C29.9855 35.8515 24.555 33.8768 21.7904 33.0402V29.6069C24.6867 29.0011 28.0739 27.5806 29.9197 25.6249C35.5311 25.1903 41 21.0127 41 15.9361V2.80043H32.8488V0ZM2.60278 5.28849H8.27734V16.6043C8.27734 18.837 8.85879 20.9611 9.8818 22.8733C5.63616 21.5342 2.60278 18.0846 2.60278 14.0483V5.28849ZM24.8293 19.0896L20.5946 16.7781L16.3545 19.0896L17.1636 14.2004L13.7352 10.74L18.4718 10.0256L20.5946 5.58184L22.712 10.0256L27.4485 10.74L24.0202 14.2004L24.8293 19.0896ZM31.1237 23.2346C32.1522 21.2355 32.7419 19.0244 32.7419 16.6858V5.36183H38.4301V14.0157C38.4301 18.234 35.383 21.8357 31.1237 23.2346Z" fill="#4B9111"/>
</svg>
