<svg width="22" height="17" viewBox="0 0 22 17" fill="none" xmlns="http://www.w3.org/2000/svg">
<path d="M20.2139 0H13.9085C13.4756 0 12.8692 0.251163 12.5634 0.556973L4.74579 8.37457C4.59838 8.52266 4.51562 8.72311 4.51562 8.93207C4.51562 9.14102 4.59838 9.34147 4.74579 9.48957L11.5125 16.2563C11.6606 16.4037 11.861 16.4864 12.07 16.4864C12.2789 16.4864 12.4794 16.4037 12.6275 16.2563L20.4451 8.43867C20.7519 8.13181 21.0021 7.5265 21.0021 7.09353V0.78817C21.0015 0.579305 20.9183 0.379153 20.7706 0.231462C20.6229 0.083772 20.4227 0.000554757 20.2139 0V0ZM16.273 6.30536C16.066 6.30529 15.8609 6.26444 15.6696 6.18513C15.4783 6.10582 15.3046 5.98961 15.1582 5.84313C15.0118 5.69666 14.8957 5.52279 14.8165 5.33145C14.7373 5.14011 14.6966 4.93505 14.6967 4.72797C14.6968 4.52089 14.7376 4.31586 14.8169 4.12457C14.8962 3.93328 15.0124 3.75949 15.1589 3.61311C15.3054 3.46673 15.4793 3.35064 15.6706 3.27146C15.8619 3.19228 16.067 3.15156 16.2741 3.15163C16.6923 3.15177 17.0933 3.31804 17.3889 3.61385C17.6846 3.90967 17.8506 4.31081 17.8504 4.72902C17.8503 5.14723 17.684 5.54826 17.3882 5.84388C17.0924 6.1395 16.6912 6.3055 16.273 6.30536V6.30536Z" fill="white"/>
<path d="M2.08593 8.93259L11.0185 0H9.70491C9.27194 0 8.66558 0.251163 8.35977 0.556973L0.542172 8.37457C0.394766 8.52266 0.312012 8.72311 0.312012 8.93207C0.312012 9.14102 0.394766 9.34147 0.542172 9.48957L7.30887 16.2563C7.45697 16.4037 7.65742 16.4864 7.86637 16.4864C8.07533 16.4864 8.27577 16.4037 8.42387 16.2563L8.91779 15.7623L2.08699 8.93154L2.08593 8.93259Z" fill="white"/>
</svg>
