<svg width="570" height="545" viewBox="0 0 570 545" fill="none" xmlns="http://www.w3.org/2000/svg">
<g clip-path="url(#clip0)">
<path d="M490.946 351.587C486.205 329.923 478.624 308.683 483.336 275.521C487.61 245.475 503.385 218.632 525.893 215.545C541.054 213.527 554.297 230.422 539.444 252.116C536.985 255.729 504.834 287.223 510.175 330.625L507.249 359.501L490.946 351.587Z" fill="#4B9111"/>
<g opacity="0.2">
<path opacity="0.2" d="M490.946 351.587C486.205 329.923 478.624 308.683 483.336 275.521C487.61 245.475 503.385 218.632 525.893 215.545C541.054 213.527 554.297 230.422 539.444 252.116C536.985 255.729 504.834 287.223 510.175 330.625L507.249 359.501L490.946 351.587Z" fill="#4B9111"/>
</g>
<path d="M498.805 348.369C498.999 348.28 499.159 348.131 499.262 347.944C499.364 347.757 499.404 347.542 499.375 347.33C490.595 291.743 501.79 250.243 528.644 227.38C528.797 227.201 528.88 226.973 528.879 226.738C528.878 226.503 528.793 226.277 528.638 226.099C528.484 225.922 528.271 225.806 528.038 225.773C527.806 225.739 527.569 225.79 527.371 225.917C500.166 249.029 488.605 291.348 497.429 347.608C497.449 347.736 497.494 347.859 497.561 347.97C497.628 348.08 497.717 348.176 497.822 348.253C497.926 348.329 498.045 348.383 498.171 348.413C498.297 348.443 498.428 348.448 498.556 348.427L498.805 348.369Z" fill="white"/>
<path d="M516.293 368.131C516.175 359.706 520.829 341.347 531.863 325.315C545.766 305.099 567.439 298.487 569.663 287.896C572.327 275.17 558.995 267.9 541.727 274.073C520.975 281.504 496.463 311.389 504.951 361.768L516.293 368.131Z" fill="#455A64"/>
<path d="M510.615 359.223C510.803 359.15 510.967 359.025 511.087 358.861C511.206 358.698 511.276 358.503 511.288 358.301C513.629 313.583 540.19 290.163 553.917 284.034C554.171 283.919 554.369 283.709 554.467 283.448C554.566 283.188 554.558 282.899 554.444 282.645C554.388 282.518 554.308 282.403 554.208 282.308C554.107 282.212 553.989 282.138 553.86 282.089C553.73 282.04 553.592 282.017 553.454 282.022C553.315 282.027 553.179 282.06 553.053 282.118C537.878 288.891 511.566 312.545 509.151 358.184C509.139 358.461 509.237 358.732 509.423 358.937C509.609 359.143 509.869 359.266 510.146 359.281C510.305 359.305 510.467 359.285 510.615 359.223V359.223Z" fill="white"/>
<path d="M301.917 498.731L282.585 509.878C281.366 510.539 279.991 510.862 278.605 510.814C277.223 510.865 275.853 510.541 274.639 509.878L259.58 501.189L213.102 528.075C211.867 528.705 210.501 529.033 209.115 529.033C207.728 529.033 206.362 528.705 205.127 528.075L189.483 519.05C186.927 517.587 185.463 515.997 185.093 514.281L173.59 456.719C173.528 456.382 173.498 456.039 173.502 455.695C173.502 456.807 173.502 471.172 173.502 471.874C173.505 472.169 173.535 472.462 173.59 472.752L185.093 530.313C185.483 532.02 186.946 533.614 189.483 535.097L205.127 544.122C206.366 544.738 207.731 545.059 209.115 545.059C210.498 545.059 211.863 544.738 213.102 544.122L259.58 517.294L274.639 525.983C275.853 526.647 277.223 526.97 278.605 526.92C279.991 526.968 281.366 526.644 282.585 525.983L301.917 514.822C302.376 514.627 302.772 514.307 303.059 513.898C303.346 513.49 303.513 513.009 303.541 512.511V496.42C303.507 496.917 303.337 497.394 303.051 497.801C302.765 498.209 302.373 498.53 301.917 498.731V498.731Z" fill="#54DB00"/>
<path d="M301.185 491.856V475.765C301.152 476.262 300.983 476.74 300.697 477.148C300.41 477.556 300.017 477.877 299.561 478.076L286.859 485.39L300.571 493.29C300.945 492.904 301.164 492.393 301.185 491.856V491.856Z" fill="#54DB00"/>
<path d="M213.176 489.589L222.79 495.177L236.707 487.146L209.546 471.464L213.161 489.589H213.176Z" fill="#54DB00"/>
<path opacity="0.35" d="M213.176 489.589L222.79 495.177L236.707 487.146L209.546 471.464L213.161 489.589H213.176Z" fill="#184000"/>
<path opacity="0.2" d="M301.185 491.856V475.765C301.152 476.262 300.983 476.74 300.697 477.148C300.41 477.556 300.017 477.877 299.561 478.076L286.859 485.39L300.571 493.29C300.945 492.904 301.164 492.393 301.185 491.856V491.856Z" fill="#184000"/>
<path opacity="0.2" d="M301.917 498.731L282.585 509.878C281.366 510.539 279.991 510.862 278.605 510.814V526.905C279.991 526.953 281.366 526.63 282.585 525.969L301.917 514.808C302.376 514.612 302.772 514.292 303.059 513.884C303.346 513.475 303.513 512.995 303.541 512.496V496.405C303.509 496.904 303.341 497.385 303.054 497.795C302.768 498.205 302.375 498.529 301.917 498.731Z" fill="#184000"/>
<path opacity="0.25" d="M185.049 514.222L173.546 456.661C173.484 456.323 173.454 455.98 173.459 455.637C173.459 456.749 173.459 471.113 173.459 471.816C173.462 472.11 173.491 472.404 173.546 472.693L185.049 530.255C185.123 530.597 185.246 530.928 185.415 531.235V515.144C185.255 514.853 185.132 514.544 185.049 514.222V514.222Z" fill="#184000"/>
<path opacity="0.35" d="M209.107 528.968C207.72 529.001 206.349 528.673 205.127 528.017L189.483 518.991C187.778 518.164 186.361 516.844 185.415 515.203V531.293C186.359 532.94 187.776 534.265 189.483 535.097L205.127 544.122C206.35 544.774 207.722 545.096 209.107 545.058C209.258 545.073 209.41 545.073 209.561 545.058V528.968C209.411 528.989 209.258 528.989 209.107 528.968V528.968Z" fill="#184000"/>
<path opacity="0.2" d="M213.102 528.075C212.018 528.672 210.799 528.984 209.561 528.982V545.073C210.799 545.071 212.016 544.759 213.102 544.166L259.581 517.338V501.247L213.102 528.075Z" fill="#184000"/>
<path opacity="0.35" d="M274.639 509.878L259.581 501.189V517.28L274.639 525.969C275.853 526.632 277.223 526.955 278.605 526.905V510.814C277.223 510.865 275.853 510.541 274.639 509.878V509.878Z" fill="black"/>
<path d="M282.6 509.878C281.361 510.494 279.996 510.814 278.612 510.814C277.228 510.814 275.863 510.494 274.624 509.878L259.581 501.189L213.088 528.075C211.851 528.691 210.489 529.011 209.107 529.011C207.726 529.011 206.363 528.691 205.127 528.075L189.483 519.05C186.922 517.587 185.459 515.978 185.093 514.281L173.576 456.719C173.356 455.83 173.46 454.892 173.868 454.072C174.547 453.213 175.406 452.513 176.385 452.024L198.659 439.166C199.898 438.55 201.263 438.229 202.646 438.229C204.03 438.229 205.395 438.55 206.634 439.166L263.298 471.874L275.985 464.56C277.222 463.944 278.584 463.624 279.966 463.624C281.347 463.624 282.71 463.944 283.946 464.56L299.59 473.585C300.067 473.754 300.48 474.065 300.773 474.478C301.065 474.891 301.222 475.384 301.222 475.889C301.222 476.395 301.065 476.888 300.773 477.301C300.48 477.713 300.067 478.025 299.59 478.193L286.902 485.507L301.946 494.196C302.418 494.368 302.826 494.68 303.114 495.091C303.403 495.502 303.557 495.991 303.557 496.493C303.557 496.995 303.403 497.485 303.114 497.896C302.826 498.306 302.418 498.619 301.946 498.79L282.6 509.878ZM236.707 487.116L209.546 471.45L215.122 499.58L236.707 487.116Z" fill="#4B9111"/>
<path d="M405.805 427.507C405.557 431.824 403.978 435.958 401.283 439.341C398.141 443.642 392.878 447.928 385.493 452.199C378.54 456.28 371.04 459.349 363.22 461.312C356.039 463.09 348.665 463.965 341.268 463.916C334.313 463.828 327.397 462.845 320.693 460.991C314.359 459.277 308.223 456.904 302.385 453.911C298.156 451.716 293.751 449.259 289.112 446.597C284.473 443.934 280.171 441.33 276.132 438.771C271.532 435.903 267.405 432.34 263.898 428.209C260.945 424.927 259.2 420.737 258.951 416.331C259.039 418.876 258.849 429.569 258.951 432.422C259.203 436.832 260.947 441.026 263.898 444.315C267.41 448.437 271.536 451.994 276.132 454.861C280.171 457.426 284.498 460.04 289.112 462.702C293.751 465.364 298.156 467.807 302.385 470.016C308.227 472.998 314.362 475.366 320.693 477.082C327.397 478.936 334.313 479.919 341.268 480.007C348.666 480.063 356.041 479.189 363.22 477.403C371.04 475.44 378.54 472.371 385.493 468.29C392.878 464.038 398.141 459.752 401.283 455.432C404.18 451.854 405.77 447.396 405.79 442.793C405.702 440.38 405.849 431.149 405.805 427.507Z" fill="#4B9111"/>
<path opacity="0.35" d="M345.249 463.829C343.932 463.829 342.615 463.931 341.298 463.916C334.342 463.828 327.426 462.845 320.722 460.991C314.389 459.277 308.253 456.904 302.415 453.911C298.185 451.716 293.78 449.259 289.141 446.597C284.502 443.934 280.2 441.33 276.161 438.771C271.562 435.903 267.435 432.34 263.927 428.209C260.974 424.927 259.229 420.737 258.98 416.331C259.068 418.876 258.878 429.569 258.98 432.422C259.232 436.832 260.976 441.026 263.927 444.315C267.439 448.437 271.566 451.994 276.161 454.861C280.2 457.426 284.527 460.04 289.141 462.702C293.78 465.364 298.185 467.807 302.415 470.016C308.256 472.998 314.391 475.366 320.722 477.082C327.426 478.936 334.342 479.919 341.298 480.007C342.615 480.007 343.932 480.007 345.249 479.919V463.829Z" fill="#184000"/>
<path opacity="0.2" d="M405.805 427.507C405.557 431.824 403.978 435.958 401.283 439.341C398.141 443.642 392.878 447.928 385.493 452.199C378.54 456.28 371.04 459.349 363.22 461.313C357.329 462.75 351.308 463.593 345.249 463.829V479.919C351.309 479.698 357.331 478.855 363.22 477.403C371.04 475.44 378.54 472.371 385.493 468.29C392.878 464.038 398.141 459.752 401.283 455.432C404.18 451.854 405.77 447.396 405.79 442.793C405.702 440.38 405.849 431.149 405.805 427.507Z" fill="black"/>
<path d="M279.263 390.878C286.22 386.801 293.726 383.742 301.551 381.794C308.73 380.012 316.106 379.142 323.502 379.205C330.458 379.292 337.374 380.275 344.078 382.131C350.391 383.818 356.512 386.156 362.341 389.108C366.761 391.429 371.283 393.926 375.907 396.598C380.532 399.27 384.761 401.825 388.595 404.263C393.196 407.134 397.327 410.697 400.844 414.824C403.782 418.115 405.524 422.3 405.79 426.702C405.775 431.304 404.19 435.762 401.298 439.341C398.137 443.661 392.873 447.952 385.507 452.214C378.548 456.292 371.043 459.361 363.22 461.327C356.04 463.108 348.665 463.978 341.268 463.916C334.311 463.853 327.39 462.894 320.678 461.064C314.351 459.351 308.22 456.983 302.385 453.998C298.161 451.785 293.732 449.347 289.098 446.684C284.463 444.022 280.151 441.409 276.161 438.844C271.564 435.968 267.433 432.406 263.912 428.282C260.98 424.988 259.239 420.805 258.966 416.404C258.966 411.799 260.535 407.331 263.415 403.736C266.605 399.426 271.888 395.14 279.263 390.878ZM360.571 419.578C352.6 414.527 344.337 409.758 335.78 405.272C333.22 404.01 330.58 402.916 327.878 401.995C325.303 401.123 322.628 400.578 319.917 400.372C317.12 400.183 314.311 400.4 311.576 401.015C308.51 401.725 305.573 402.904 302.868 404.512C300.503 405.711 298.438 407.425 296.824 409.529C296.319 410.212 295.96 410.992 295.768 411.82C295.577 412.648 295.558 413.506 295.712 414.342C296.18 416.11 297.127 417.714 298.449 418.979C300.173 420.716 302.105 422.234 304.2 423.499C312.215 428.686 320.489 433.461 328.99 437.805C331.475 439.136 334.064 440.261 336.732 441.17C339.332 442.049 342.04 442.576 344.781 442.735C347.598 442.908 350.426 442.681 353.18 442.062C356.247 441.355 359.184 440.176 361.888 438.566C364.256 437.366 366.326 435.651 367.946 433.548C368.455 432.857 368.82 432.072 369.021 431.238C369.222 430.404 369.255 429.538 369.117 428.692C368.717 426.9 367.765 425.278 366.395 424.055C364.622 422.356 362.669 420.855 360.571 419.578V419.578Z" fill="#4B9111"/>
<path opacity="0.35" d="M298.449 418.979C299.353 419.901 300.332 420.747 301.376 421.509C301.873 421.188 302.371 420.866 302.927 420.544C305.636 418.946 308.572 417.768 311.634 417.048C314.37 416.437 317.179 416.225 319.976 416.419C322.691 416.621 325.37 417.162 327.951 418.028C330.645 418.958 333.279 420.053 335.839 421.305C344.385 425.81 352.649 430.584 360.629 435.625C361.668 436.269 362.619 436.942 363.556 437.586C365.318 436.554 366.851 435.176 368.063 433.534C369.078 432.132 369.499 430.387 369.234 428.677C368.821 426.89 367.871 425.272 366.512 424.04C364.723 422.352 362.761 420.857 360.659 419.578C352.688 414.517 344.424 409.748 335.868 405.272C333.311 404.009 330.677 402.91 327.98 401.981C325.397 401.126 322.718 400.591 320.005 400.386C317.209 400.193 314.399 400.405 311.663 401.015C308.602 401.73 305.666 402.903 302.956 404.497C300.593 405.706 298.529 407.425 296.912 409.529C296.404 410.208 296.043 410.985 295.851 411.811C295.66 412.637 295.642 413.494 295.8 414.327C296.239 416.091 297.155 417.701 298.449 418.979Z" fill="#4B9111"/>
<path d="M298.449 418.979C299.353 419.901 300.332 420.747 301.376 421.509C301.873 421.188 302.371 420.866 302.927 420.544C305.636 418.946 308.572 417.768 311.634 417.048C314.37 416.437 317.179 416.225 319.976 416.419C322.691 416.621 325.37 417.162 327.951 418.028C330.645 418.958 333.279 420.053 335.839 421.305C344.385 425.81 352.649 430.584 360.629 435.625C361.668 436.269 362.619 436.942 363.556 437.586C365.318 436.554 366.851 435.176 368.063 433.534C369.078 432.132 369.499 430.387 369.234 428.677C368.821 426.89 367.871 425.272 366.512 424.04C364.723 422.352 362.761 420.857 360.659 419.578C352.688 414.517 344.424 409.748 335.868 405.272C333.311 404.009 330.677 402.91 327.98 401.981C325.397 401.126 322.718 400.591 320.005 400.386C317.209 400.193 314.399 400.405 311.663 401.015C308.602 401.73 305.666 402.903 302.956 404.497C300.593 405.706 298.529 407.425 296.912 409.529C296.404 410.208 296.043 410.985 295.851 411.811C295.66 412.637 295.642 413.494 295.8 414.327C296.239 416.091 297.155 417.701 298.449 418.979Z" fill="#3FA500"/>
<path d="M517.463 374.334L498.132 385.48C496.899 386.107 495.535 386.434 494.151 386.434C492.768 386.434 491.404 386.107 490.171 385.48L475.112 376.791L428.634 403.634C427.395 404.25 426.03 404.57 424.646 404.57C423.263 404.57 421.898 404.25 420.659 403.634L405.029 394.594C402.454 393.131 400.99 391.536 400.639 389.825L389.122 332.263C389.059 331.926 389.029 331.583 389.034 331.239C389.034 332.351 389.034 346.716 389.034 347.418C389.044 347.717 389.073 348.015 389.122 348.31L400.639 405.872C401.034 407.583 402.498 409.163 405.029 410.641L420.659 419.666C421.894 420.296 423.26 420.624 424.646 420.624C426.033 420.624 427.399 420.296 428.634 419.666L475.112 392.838L490.244 401.527C491.48 402.143 492.843 402.464 494.224 402.464C495.606 402.464 496.968 402.143 498.205 401.527L517.537 390.381C517.991 390.178 518.382 389.856 518.668 389.449C518.954 389.042 519.125 388.566 519.161 388.069V371.979C519.126 372.49 518.948 372.982 518.648 373.398C518.348 373.814 517.938 374.138 517.463 374.334V374.334Z" fill="#4B9111"/>
<path d="M516.717 367.458V351.368C516.685 351.863 516.516 352.339 516.229 352.745C515.942 353.15 515.549 353.468 515.093 353.664L502.405 360.978L516.102 368.877C516.471 368.493 516.689 367.99 516.717 367.458Z" fill="#4B9111"/>
<path d="M428.722 365.206L438.337 370.779L452.239 362.763L425.093 347.081L428.707 365.206H428.722Z" fill="#184000"/>
<path opacity="0.35" d="M428.722 365.206L438.337 370.779L452.239 362.763L425.093 347.081L428.707 365.206H428.722Z" fill="#61FF00"/>
<path opacity="0.2" d="M516.717 367.458V351.368C516.685 351.863 516.516 352.339 516.229 352.745C515.942 353.15 515.549 353.468 515.093 353.664L502.405 360.978L516.102 368.877C516.471 368.493 516.689 367.99 516.717 367.458Z" fill="#184000"/>
<path opacity="0.2" d="M517.463 374.334L498.132 385.48C496.911 386.153 495.53 386.482 494.137 386.431V402.522C495.528 402.571 496.907 402.247 498.132 401.586L517.463 390.439C517.918 390.237 518.309 389.915 518.595 389.508C518.881 389.101 519.051 388.624 519.088 388.128V372.037C519.049 372.531 518.877 373.004 518.592 373.409C518.306 373.813 517.916 374.132 517.463 374.334V374.334Z" fill="#184000"/>
<path opacity="0.25" d="M400.595 389.825L389.078 332.263C389.015 331.926 388.986 331.583 388.99 331.239C388.99 332.351 388.99 346.716 388.99 347.418C389 347.717 389.029 348.015 389.078 348.31L400.595 405.872C400.669 406.213 400.787 406.542 400.946 406.852V390.761C400.786 390.467 400.668 390.152 400.595 389.825Z" fill="#184000"/>
<path opacity="0.35" d="M424.654 404.57C423.263 404.61 421.886 404.287 420.659 403.634L405.029 394.594C403.318 393.77 401.895 392.45 400.946 390.805V406.896C401.899 408.538 403.321 409.857 405.029 410.685L420.659 419.71C421.885 420.368 423.262 420.696 424.654 420.661C424.799 420.682 424.947 420.682 425.093 420.661V404.57C424.947 404.584 424.8 404.584 424.654 404.57Z" fill="#184000"/>
<path opacity="0.2" d="M428.634 403.634C427.546 404.222 426.33 404.534 425.093 404.541V420.632C426.331 420.638 427.551 420.326 428.634 419.725L475.112 392.897V376.806L428.634 403.634Z" fill="#184000"/>
<path opacity="0.35" d="M490.244 385.48L475.185 376.791V392.882L490.244 401.527C491.459 402.187 492.828 402.51 494.21 402.464V386.373C492.831 386.439 491.461 386.131 490.244 385.48Z" fill="#184000"/>
<path d="M498.132 385.48C496.914 386.147 495.538 386.47 494.151 386.417C492.765 386.465 491.39 386.141 490.171 385.48L475.112 376.806L428.634 403.619C427.409 404.281 426.03 404.604 424.639 404.555C423.252 404.609 421.876 404.286 420.659 403.619L405.029 394.594C402.468 393.131 400.99 391.536 400.639 389.825L389.137 332.263C388.9 331.38 389.005 330.44 389.429 329.63C390.097 328.766 390.953 328.066 391.932 327.582L414.146 314.724C415.383 314.108 416.745 313.788 418.127 313.788C419.508 313.788 420.871 314.108 422.107 314.724L478.771 347.418L491.458 340.104C492.694 339.475 494.06 339.146 495.446 339.146C496.833 339.146 498.199 339.475 499.434 340.104L515.122 349.129C515.594 349.3 516.002 349.613 516.29 350.024C516.578 350.435 516.733 350.924 516.733 351.426C516.733 351.928 516.578 352.418 516.29 352.828C516.002 353.239 515.594 353.552 515.122 353.723L502.434 361.037L517.493 369.711C517.97 369.879 518.383 370.191 518.675 370.604C518.967 371.016 519.124 371.51 519.124 372.015C519.124 372.521 518.967 373.014 518.675 373.426C518.383 373.839 517.97 374.151 517.493 374.319L498.132 385.48ZM452.195 362.777L425.049 347.111L430.654 375.211L452.195 362.777Z" fill="#4B9111"/>
<path d="M398.049 510.185C398.418 509.974 398.839 509.873 399.263 509.893C399.682 509.882 400.097 509.983 400.463 510.185L405.234 512.935C405.428 512.935 405.614 513.012 405.752 513.149C405.889 513.287 405.966 513.473 405.966 513.667C405.966 513.861 405.889 514.047 405.752 514.184C405.614 514.321 405.428 514.398 405.234 514.398L383.985 526.612C383.613 526.814 383.194 526.914 382.771 526.905C382.347 526.918 381.928 526.817 381.556 526.612L352.493 509.849C352.324 509.815 352.172 509.723 352.062 509.59C351.953 509.457 351.893 509.29 351.893 509.117C351.893 508.945 351.953 508.778 352.062 508.645C352.172 508.511 352.324 508.42 352.493 508.386L373.449 496.303C373.821 496.102 374.24 496.001 374.663 496.01C375.087 495.998 375.507 496.099 375.878 496.303L380.649 499.053C380.843 499.053 381.029 499.13 381.166 499.267C381.303 499.404 381.38 499.59 381.38 499.784C381.38 499.978 381.303 500.164 381.166 500.302C381.029 500.439 380.843 500.516 380.649 500.516L366.79 508.517L371.649 511.326L384.512 503.895C384.886 503.699 385.305 503.603 385.727 503.617C386.149 503.6 386.569 503.696 386.941 503.895L391.712 506.645C391.881 506.679 392.033 506.77 392.143 506.904C392.252 507.037 392.311 507.204 392.311 507.376C392.311 507.549 392.252 507.716 392.143 507.849C392.033 507.983 391.881 508.074 391.712 508.108L378.849 515.524L383.883 518.45L398.049 510.185Z" fill="#4B9111"/>
<path d="M405.205 487.394C405.576 487.19 405.996 487.089 406.419 487.102C406.843 487.091 407.262 487.191 407.634 487.394L412.171 490.013C412.34 490.047 412.492 490.138 412.601 490.272C412.71 490.405 412.77 490.572 412.77 490.744C412.77 490.917 412.71 491.084 412.601 491.217C412.492 491.35 412.34 491.442 412.171 491.476L408.088 493.831C405.327 495.42 405.327 497.015 408.088 498.614L419.151 504.992C419.32 505.026 419.472 505.117 419.582 505.251C419.691 505.384 419.75 505.551 419.75 505.724C419.75 505.896 419.691 506.063 419.582 506.196C419.472 506.33 419.32 506.421 419.151 506.455L413.488 509.717C413.118 509.925 412.697 510.026 412.273 510.01C411.849 510.029 411.427 509.928 411.059 509.717L390.088 497.634C389.919 497.6 389.767 497.509 389.657 497.375C389.548 497.242 389.489 497.075 389.489 496.903C389.489 496.73 389.548 496.563 389.657 496.43C389.767 496.297 389.919 496.205 390.088 496.171L395.312 493.158C395.685 492.959 396.104 492.863 396.527 492.88C396.949 492.864 397.368 492.96 397.741 493.158L398.78 493.758C398.843 492.898 399.141 492.073 399.644 491.373C400.432 490.377 401.432 489.568 402.571 489.004L405.205 487.394Z" fill="#4B9111"/>
<path d="M426.966 474.829C427.344 474.636 427.763 474.536 428.188 474.536C428.613 474.536 429.031 474.636 429.41 474.829L433.946 477.447C434.115 477.481 434.267 477.573 434.377 477.706C434.486 477.839 434.546 478.006 434.546 478.179C434.546 478.351 434.486 478.518 434.377 478.651C434.267 478.785 434.115 478.876 433.946 478.91L429.849 481.265C427.098 482.865 427.098 484.459 429.849 486.049L440.912 492.426C441.081 492.46 441.233 492.552 441.343 492.685C441.452 492.819 441.511 492.986 441.511 493.158C441.511 493.33 441.452 493.497 441.343 493.631C441.233 493.764 441.081 493.855 440.912 493.889L435.249 497.166C434.875 497.364 434.456 497.46 434.034 497.444C433.612 497.461 433.192 497.365 432.82 497.166L411.863 485.069C411.694 485.035 411.542 484.943 411.433 484.81C411.324 484.677 411.264 484.51 411.264 484.337C411.264 484.165 411.324 483.998 411.433 483.864C411.542 483.731 411.694 483.64 411.863 483.606L417.073 480.534C417.447 480.338 417.866 480.242 418.288 480.256C418.71 480.239 419.13 480.335 419.502 480.534L420.541 481.134C420.6 480.276 420.905 479.453 421.42 478.764C422.191 477.776 423.164 476.964 424.273 476.38L426.966 474.829Z" fill="#4B9111"/>
<path d="M465.644 464.033C466.127 464.267 466.727 464.604 467.429 464.999C468.132 465.394 468.688 465.759 469.112 466.023C470.339 466.755 471.385 467.755 472.171 468.948C472.808 469.938 473.101 471.11 473.005 472.284C472.841 473.577 472.29 474.79 471.424 475.765C470.255 477.122 468.846 478.252 467.268 479.1C465.454 480.149 463.511 480.955 461.488 481.499C459.52 482.036 457.497 482.34 455.459 482.406C453.495 482.475 451.53 482.313 449.605 481.924C447.852 481.579 446.158 480.988 444.571 480.168C444.088 479.919 443.502 479.598 442.8 479.188C442.098 478.778 441.527 478.442 441.117 478.164C439.861 477.455 438.796 476.451 438.015 475.238C437.367 474.248 437.077 473.066 437.195 471.889C437.371 470.595 437.921 469.38 438.776 468.393C439.93 467.023 441.336 465.886 442.917 465.043C444.753 463.987 446.722 463.18 448.771 462.644C450.756 462.122 452.793 461.818 454.844 461.737C456.783 461.672 458.723 461.834 460.624 462.219C462.376 462.582 464.066 463.193 465.644 464.033ZM452.473 475.341C453.682 475.951 455.028 476.238 456.38 476.175C457.746 476.132 459.079 475.75 460.259 475.063C461.459 474.38 462.102 473.634 462.19 472.825C462.278 472.035 461.795 471.274 460.727 470.572C460.255 470.235 459.767 469.923 459.263 469.636C458.693 469.314 458.151 469.036 457.654 468.802C456.433 468.204 455.083 467.917 453.724 467.968C452.365 468.019 451.041 468.406 449.868 469.095C448.668 469.782 448.024 470.557 447.937 471.318C447.849 472.079 448.317 472.869 449.4 473.585C449.795 473.878 450.278 474.185 450.863 474.522C451.398 474.849 451.95 475.147 452.517 475.414L452.473 475.341Z" fill="#4B9111"/>
<path d="M477.337 445.763C477.715 445.57 478.134 445.47 478.559 445.47C478.983 445.47 479.402 445.57 479.781 445.763L484.317 448.381C484.486 448.415 484.638 448.507 484.747 448.64C484.857 448.773 484.916 448.94 484.916 449.113C484.916 449.285 484.857 449.452 484.747 449.585C484.638 449.719 484.486 449.81 484.317 449.844L480.22 452.199C477.468 453.799 477.468 455.393 480.22 456.983L491.283 463.36C491.452 463.394 491.604 463.486 491.713 463.619C491.823 463.753 491.882 463.92 491.882 464.092C491.882 464.264 491.823 464.431 491.713 464.565C491.604 464.698 491.452 464.789 491.283 464.823L485.62 468.085C485.248 468.288 484.829 468.389 484.405 468.378C483.98 468.398 483.559 468.296 483.19 468.085L462.234 456.003C462.065 455.969 461.913 455.877 461.804 455.744C461.695 455.61 461.635 455.443 461.635 455.271C461.635 455.099 461.695 454.932 461.804 454.798C461.913 454.665 462.065 454.574 462.234 454.54L467.444 451.526C467.818 451.33 468.236 451.235 468.659 451.248C469.081 451.231 469.5 451.327 469.873 451.526L470.912 452.126C470.973 451.264 471.278 450.437 471.79 449.742C472.559 448.755 473.533 447.947 474.644 447.372L477.337 445.763Z" fill="#4B9111"/>
<path d="M167.195 313.042C161.02 312.793 158.283 313.408 159.249 319.932C160.215 326.456 160.493 331.488 160.493 331.488C160.493 331.488 171.483 331.81 176.59 328.957C181.698 326.105 176.473 313.349 167.195 313.042Z" fill="#27DEBF"/>
<path opacity="0.5" d="M167.195 313.042C161.02 312.793 158.283 313.408 159.249 319.932C160.215 326.456 160.493 331.488 160.493 331.488C160.493 331.488 171.483 331.81 176.59 328.957C181.698 326.105 176.473 313.349 167.195 313.042Z" fill="black"/>
<path d="M168.176 341.011C167.768 341.007 167.362 340.968 166.961 340.894C166.159 340.735 165.397 340.419 164.718 339.965C164.038 339.512 163.455 338.928 163.001 338.249C162.547 337.57 162.231 336.808 162.072 336.007C161.913 335.206 161.913 334.381 162.073 333.58C163.668 325.476 165.249 319.215 166.639 313.7C168.775 306.028 170.321 298.203 171.263 290.295C172.425 278.019 169.773 265.683 163.668 254.968C162.886 253.553 162.686 251.889 163.111 250.33C163.535 248.77 164.551 247.437 165.942 246.613C167.334 245.789 168.992 245.539 170.564 245.917C172.137 246.294 173.5 247.269 174.366 248.634C181.849 261.659 185.082 276.693 183.615 291.641C182.613 300.111 180.969 308.492 178.698 316.713C177.337 322.082 175.771 328.167 174.307 335.949C174.04 337.377 173.28 338.666 172.159 339.591C171.039 340.516 169.629 341.018 168.176 341.011V341.011Z" fill="#455A64"/>
<path d="M153.307 349.407C153.01 350.603 153.01 351.854 153.307 353.05C154.171 354.659 158.956 356.634 161.473 357.672C164.947 359.014 167.778 361.63 169.39 364.986C172.215 370.121 177.337 373.602 183.059 375.767C190.733 378.465 199.048 378.766 206.898 376.63C216.688 374.187 217.141 368.292 217.141 368.292C217.141 368.292 217.302 362.763 214.771 362.061C212.239 361.359 153.307 349.407 153.307 349.407Z" fill="#455A64"/>
<path d="M157.259 328.869C156.981 330.611 156.585 332.331 156.073 334.019C154.61 338.656 152.341 343.439 153.307 349.407C154.917 352.333 158.268 353.357 160.785 354.469C164.18 355.932 166.639 356.97 169.039 359.896C173.429 365.147 177.527 371.788 190.683 373.5C203.839 375.211 213.395 370.428 215.561 366.566C217.727 362.704 215.283 359.384 206.678 355.463C202.288 353.459 192.322 345.224 191.166 344.17C190.114 343.096 189.177 341.914 188.371 340.645C186.553 338.022 185.352 335.021 184.859 331.868C184.473 328.534 184.631 325.16 185.327 321.877C185.488 321.117 185.868 320.341 185.546 319.639C184.698 317.796 181.815 318.279 180.234 318.41C177.848 318.653 175.482 319.059 173.151 319.624C172.374 319.718 171.639 320.027 171.029 320.517C170.558 321.102 170.241 321.796 170.107 322.535C169.815 323.633 169.493 324.73 169.127 325.812C169.052 326.2 168.899 326.568 168.677 326.895C168.456 327.221 168.171 327.5 167.839 327.714C167.476 327.859 167.077 327.887 166.697 327.795C166.316 327.704 165.974 327.496 165.717 327.202C165.219 326.593 164.936 325.837 164.912 325.052C164.912 324.262 164.912 323.486 165 322.711C165.077 321.963 164.93 321.209 164.576 320.546C163.712 319.186 161.532 318.981 160.976 317.46C160.85 317.047 160.845 316.608 160.962 316.193C161.079 315.778 161.312 315.405 161.634 315.119C162.287 314.548 163.11 314.209 163.976 314.154C164.833 314.087 165.694 314.087 166.551 314.154L167.005 312.354C164.97 312.016 162.882 312.254 160.976 313.042C159.782 313.54 158.809 314.455 158.239 315.616C157.726 317.059 157.65 318.621 158.02 320.107C158.429 323.589 157.8 325.446 157.259 328.869Z" fill="#4B9111"/>
<path opacity="0.35" d="M157.259 328.869C156.981 330.611 156.585 332.331 156.073 334.019C154.61 338.656 152.341 343.439 153.307 349.407C154.917 352.333 158.268 353.357 160.785 354.469C164.18 355.932 166.639 356.97 169.039 359.896C173.429 365.147 177.527 371.788 190.683 373.5C203.839 375.211 213.395 370.428 215.561 366.566C217.727 362.704 215.283 359.384 206.678 355.463C202.288 353.459 192.322 345.224 191.166 344.17C190.114 343.096 189.177 341.914 188.371 340.645C186.553 338.022 185.352 335.021 184.859 331.868C184.473 328.534 184.631 325.16 185.327 321.877C185.488 321.117 185.868 320.341 185.546 319.639C184.698 317.796 181.815 318.279 180.234 318.41C177.848 318.653 175.482 319.059 173.151 319.624C172.374 319.718 171.639 320.027 171.029 320.517C170.558 321.102 170.241 321.796 170.107 322.535C169.815 323.633 169.493 324.73 169.127 325.812C169.052 326.2 168.899 326.568 168.677 326.895C168.456 327.221 168.171 327.5 167.839 327.714C167.476 327.859 167.077 327.887 166.697 327.795C166.316 327.704 165.974 327.496 165.717 327.202C165.219 326.593 164.936 325.837 164.912 325.052C164.912 324.262 164.912 323.486 165 322.711C165.077 321.963 164.93 321.209 164.576 320.546C163.712 319.186 161.532 318.981 160.976 317.46C160.85 317.047 160.845 316.608 160.962 316.193C161.079 315.778 161.312 315.405 161.634 315.119C162.287 314.548 163.11 314.209 163.976 314.154C164.833 314.087 165.694 314.087 166.551 314.154L167.005 312.354C164.97 312.016 162.882 312.254 160.976 313.042C159.782 313.54 158.809 314.455 158.239 315.616C157.726 317.059 157.65 318.621 158.02 320.107C158.429 323.589 157.8 325.446 157.259 328.869Z" fill="#42AC00"/>
<path d="M181.961 371.218C181.951 368.164 182.76 365.164 184.304 362.529C185.848 359.895 188.071 357.722 190.741 356.239C200.195 350.592 206.356 353.415 209.488 355.361C213.234 357.687 218.693 362.675 215.854 366.8C212.795 371.189 207.571 373.588 197.59 374.363C187.61 375.138 181.961 371.218 181.961 371.218Z" fill="#FAFAFA"/>
<path d="M168.937 337.266C169.109 337.281 169.283 337.258 169.445 337.197C169.607 337.136 169.753 337.04 169.873 336.915C171.176 335.452 179.093 330.727 185.078 333.185C185.224 332.965 185.473 331.503 184.741 331.049C181.83 330.404 178.807 330.466 175.925 331.23C173.042 331.993 170.385 333.436 168.176 335.437C168.001 335.649 167.915 335.92 167.937 336.193C167.959 336.466 168.087 336.72 168.293 336.9C168.462 337.089 168.688 337.217 168.937 337.266V337.266Z" fill="#FAFAFA"/>
<path d="M187.58 339.504C187.588 339.086 187.505 338.671 187.339 338.288C187.172 337.904 186.925 337.561 186.615 337.281C179.81 336.301 172.961 340.587 171.454 342.21C171.322 342.364 171.237 342.55 173.206 342.75C171.175 342.949 173.201 343.153 171.28 343.339C171.359 343.524 171.489 343.684 171.654 343.8C171.819 343.916 172.013 343.983 172.215 343.995C172.387 344.01 172.561 343.987 172.723 343.926C172.885 343.865 173.031 343.769 173.151 343.644C174.41 342.298 182.195 337.763 187.58 339.504Z" fill="#FAFAFA"/>
<path d="M197.912 349.612C197.81 348.91 196.449 347.857 195.278 347.564C187.741 347.052 181.39 352.786 180.146 354.688C180.07 354.806 180.018 354.939 179.995 355.077C179.971 355.216 179.975 355.358 180.008 355.495C180.041 355.632 180.101 355.76 180.186 355.873C180.27 355.986 180.376 356.08 180.498 356.151C180.704 356.276 180.945 356.332 181.185 356.312C181.357 356.299 181.524 356.247 181.673 356.161C181.823 356.075 181.951 355.957 182.049 355.815C183.161 354.162 190.771 347.74 197.912 349.612Z" fill="#FAFAFA"/>
<path d="M176.122 350.548C176.296 350.55 176.468 350.51 176.624 350.431C176.779 350.352 176.913 350.237 177.015 350.095C178.127 348.559 184.727 342.781 191.546 344.522C191.546 343.922 190.332 342.752 189.732 342.576C182.971 341.962 176.459 347.067 175.098 348.866C175.016 348.979 174.958 349.108 174.928 349.244C174.897 349.38 174.895 349.52 174.921 349.657C174.947 349.794 175.001 349.925 175.079 350.04C175.157 350.156 175.258 350.254 175.376 350.329C175.59 350.488 175.855 350.566 176.122 350.548V350.548Z" fill="#FAFAFA"/>
<path d="M98.5171 334.56C92.3561 334.062 89.6049 334.56 90.2927 341.113C90.9805 347.667 91.039 352.713 91.039 352.713C91.039 352.713 102.015 353.489 107.224 350.856C112.434 348.222 107.766 335.32 98.5171 334.56Z" fill="#27DEBF"/>
<path opacity="0.5" d="M98.5171 334.56C92.3561 334.062 89.6049 334.56 90.2927 341.113C90.9805 347.667 91.039 352.713 91.039 352.713C91.039 352.713 102.015 353.489 107.224 350.856C112.434 348.222 107.766 335.32 98.5171 334.56Z" fill="black"/>
<path d="M98.3268 362.602C97.9228 362.584 97.5212 362.53 97.1268 362.441C96.3319 362.25 95.5823 361.905 94.921 361.425C94.2597 360.944 93.6997 360.338 93.2729 359.641C92.8461 358.944 92.561 358.17 92.4338 357.363C92.3066 356.555 92.3399 355.731 92.5317 354.937C94.4781 346.906 96.322 340.733 97.9464 335.277C100.388 327.704 102.256 319.958 103.537 312.106C105.222 299.884 103.096 287.441 97.4488 276.472C97.0003 275.749 96.7047 274.943 96.5804 274.102C96.4561 273.261 96.5056 272.403 96.726 271.582C96.9464 270.761 97.3329 269.994 97.8617 269.328C98.3904 268.662 99.0502 268.111 99.8002 267.711C100.55 267.31 101.374 267.067 102.222 266.997C103.07 266.927 103.923 267.032 104.728 267.304C105.534 267.577 106.275 268.012 106.905 268.582C107.536 269.153 108.043 269.846 108.395 270.62C115.323 283.943 117.922 299.094 115.829 313.963C114.465 322.391 112.469 330.703 109.859 338.831C108.278 344.141 106.493 350.153 104.62 357.848C104.285 359.247 103.474 360.486 102.326 361.353C101.178 362.22 99.7645 362.662 98.3268 362.602V362.602Z" fill="#455A64"/>
<path d="M83.122 370.369C82.7567 371.549 82.6864 372.799 82.9171 374.012C83.722 375.65 88.4049 377.83 90.878 378.971C94.3052 380.469 97.0282 383.222 98.4878 386.665C101.093 391.902 106.054 395.588 111.659 398.002C119.214 401.017 127.507 401.665 135.439 399.86C145.332 397.841 145.99 391.961 145.99 391.961C145.99 391.961 146.371 386.446 143.883 385.641C141.395 384.837 83.122 370.369 83.122 370.369Z" fill="#455A64"/>
<path d="M87.9219 350.022C87.5514 351.75 87.0624 353.451 86.4585 355.112C84.8634 359.691 82.3317 364.357 83.0634 370.369C84.5268 373.295 87.8488 374.524 90.3805 375.753C93.7024 377.391 96.0878 378.488 98.3854 381.516C102.512 386.943 106.376 393.76 119.444 396.013C132.512 398.265 142.273 393.892 144.571 390.161C146.868 386.431 144.571 382.964 136.156 378.678C131.883 376.499 122.254 367.883 121.156 366.756C120.165 365.626 119.288 364.401 118.537 363.099C116.838 360.402 115.768 357.357 115.405 354.191C115.154 350.844 115.455 347.478 116.298 344.229C116.488 343.483 116.898 342.766 116.605 341.991C115.844 340.133 112.946 340.528 111.351 340.528C108.957 340.674 106.576 340.982 104.224 341.45C103.445 341.506 102.698 341.785 102.073 342.254C101.567 342.811 101.219 343.493 101.063 344.229C100.727 345.311 100.346 346.394 99.9512 347.462C99.8584 347.846 99.6886 348.207 99.4522 348.524C99.2157 348.841 98.9176 349.107 98.5756 349.305C98.2075 349.433 97.8088 349.444 97.4341 349.337C97.0594 349.23 96.7271 349.009 96.4829 348.705C96.0002 348.083 95.7469 347.313 95.7658 346.526C95.7658 345.736 95.8829 344.96 95.9415 344.185C96.0516 343.443 95.9396 342.684 95.6195 342.006C94.8146 340.616 92.6927 340.309 92.1512 338.773C92.0434 338.355 92.0578 337.915 92.1927 337.506C92.3276 337.096 92.5773 336.733 92.9122 336.461C93.5875 335.914 94.4279 335.61 95.2976 335.598C96.1502 335.541 97.0058 335.541 97.8585 335.598L98.4 333.814C96.3867 333.439 94.3098 333.611 92.3854 334.311C91.1736 334.769 90.1663 335.646 89.5463 336.783C88.9798 338.204 88.8375 339.759 89.1366 341.259C89.2683 344.785 88.6098 346.687 87.9219 350.022Z" fill="#42AC00"/>
<path opacity="0.35" d="M87.9219 350.022C87.5514 351.75 87.0624 353.451 86.4585 355.112C84.8634 359.691 82.3317 364.357 83.0634 370.369C84.5268 373.295 87.8488 374.524 90.3805 375.753C93.7024 377.391 96.0878 378.488 98.3854 381.516C102.512 386.943 106.376 393.76 119.444 396.013C132.512 398.265 142.273 393.892 144.571 390.161C146.868 386.431 144.571 382.964 136.156 378.678C131.883 376.499 122.254 367.883 121.156 366.756C120.165 365.626 119.288 364.401 118.537 363.099C116.838 360.402 115.768 357.357 115.405 354.191C115.154 350.844 115.455 347.478 116.298 344.229C116.488 343.483 116.898 342.766 116.605 341.991C115.844 340.133 112.946 340.528 111.351 340.528C108.957 340.674 106.576 340.982 104.224 341.45C103.445 341.506 102.698 341.785 102.073 342.254C101.567 342.811 101.219 343.493 101.063 344.229C100.727 345.311 100.346 346.394 99.9512 347.462C99.8584 347.846 99.6886 348.207 99.4522 348.524C99.2157 348.841 98.9176 349.107 98.5756 349.305C98.2075 349.433 97.8088 349.444 97.4341 349.337C97.0594 349.23 96.7271 349.009 96.4829 348.705C96.0002 348.083 95.7469 347.313 95.7658 346.526C95.7658 345.736 95.8829 344.96 95.9415 344.185C96.0516 343.443 95.9396 342.684 95.6195 342.006C94.8146 340.616 92.6927 340.309 92.1512 338.773C92.0434 338.355 92.0578 337.915 92.1927 337.506C92.3276 337.096 92.5773 336.733 92.9122 336.461C93.5875 335.914 94.4279 335.61 95.2976 335.598C96.1502 335.541 97.0058 335.541 97.8585 335.598L98.4 333.814C96.3867 333.439 94.3098 333.611 92.3854 334.311C91.1736 334.769 90.1663 335.646 89.5463 336.783C88.9798 338.204 88.8375 339.759 89.1366 341.259C89.2683 344.785 88.6098 346.687 87.9219 350.022Z" fill="#4B9111"/>
<path d="M110.824 393.38C110.936 390.324 111.867 387.354 113.52 384.781C115.172 382.207 117.486 380.125 120.219 378.751C129.893 373.5 135.937 376.572 138.98 378.664C142.624 381.136 147.863 386.373 144.834 390.366C141.6 394.652 136.288 396.788 126.278 397.154C116.268 397.519 110.824 393.38 110.824 393.38Z" fill="#FAFAFA"/>
<path d="M99.2341 358.901C99.4091 358.926 99.5874 358.91 99.755 358.854C99.9226 358.798 100.075 358.704 100.2 358.579C101.546 357.233 109.654 352.728 115.537 355.507C115.698 355.288 116.005 353.84 115.302 353.357C112.418 352.592 109.392 352.53 106.479 353.176C103.566 353.823 100.85 355.159 98.561 357.072C98.3679 357.267 98.2596 357.53 98.2596 357.804C98.2596 358.078 98.3679 358.341 98.561 358.535C98.7373 358.73 98.9747 358.859 99.2341 358.901V358.901Z" fill="#FAFAFA"/>
<path d="M117.776 361.929C117.796 361.51 117.73 361.091 117.581 360.698C117.433 360.306 117.205 359.948 116.912 359.647C110.137 358.389 103.112 362.382 101.546 363.948C101.353 364.142 101.245 364.405 101.245 364.679C101.245 364.953 101.353 365.216 101.546 365.41C101.728 365.569 101.952 365.671 102.19 365.703C102.362 365.727 102.536 365.712 102.701 365.659C102.866 365.606 103.017 365.516 103.141 365.396C104.502 364.138 112.463 359.954 117.776 361.929Z" fill="#FAFAFA"/>
<path d="M127.668 372.476C127.668 371.774 126.205 370.662 125.137 370.326C117.615 369.492 111.029 374.963 109.698 376.806C109.585 376.973 109.522 377.169 109.515 377.371C109.509 377.572 109.558 377.772 109.659 377.946C109.759 378.121 109.906 378.265 110.084 378.36C110.261 378.456 110.462 378.5 110.663 378.488C110.838 378.484 111.009 378.439 111.164 378.358C111.319 378.277 111.453 378.161 111.556 378.02C112.683 376.382 120.615 370.282 127.668 372.476Z" fill="#FAFAFA"/>
<path d="M105.863 372.476C106.037 372.479 106.209 372.442 106.366 372.369C106.523 372.295 106.662 372.187 106.771 372.052C107.941 370.589 114.79 365.059 121.522 367.093C121.522 366.508 120.395 365.279 119.795 365.074C113.063 364.182 106.346 369.009 104.971 370.75C104.809 370.975 104.743 371.255 104.787 371.529C104.831 371.803 104.981 372.049 105.205 372.213C105.389 372.372 105.621 372.465 105.863 372.476V372.476Z" fill="#FAFAFA"/>
<path d="M257.151 226.736C251.21 226.736 243.805 224.644 235.58 219.042C234.61 218.378 233.943 217.357 233.726 216.202C233.51 215.047 233.761 213.853 234.424 212.883C235.088 211.913 236.11 211.247 237.265 211.03C238.421 210.813 239.615 211.064 240.585 211.727C251.663 219.276 259.61 218.398 262.537 216.686C263.226 216.13 263.791 215.435 264.194 214.646C264.598 213.857 264.831 212.992 264.878 212.108C265.58 207.719 264.132 200.669 258.029 193.764C245.093 179.136 228.863 171.661 203.751 168.662C202.587 168.523 201.526 167.926 200.801 167.005C200.077 166.083 199.748 164.911 199.888 163.747C200.028 162.583 200.624 161.523 201.546 160.798C202.468 160.074 203.641 159.746 204.805 159.885C231.893 163.104 250.361 171.749 264.673 187.913C271.61 195.739 274.917 205.32 273.644 213.541C273.406 215.724 272.681 217.824 271.52 219.688C270.36 221.552 268.795 223.131 266.941 224.308C263.949 225.965 260.572 226.803 257.151 226.736V226.736Z" fill="#455A64"/>
<path d="M200.985 112.9C207.702 106.566 213.615 88.032 210.571 68.4157C207.527 48.7994 189.454 30.602 182.254 26.6378C175.054 22.6736 169.99 27.8081 172.01 35.0929C174.673 44.9961 177.98 67.2747 159.483 77.1195C161.566 86.6331 165.762 95.5569 171.761 103.231C181.229 114.787 200.985 112.9 200.985 112.9Z" fill="#93E75F"/>
<path opacity="0.75" d="M200.985 112.9C207.702 106.566 213.615 88.032 210.571 68.4157C207.527 48.7994 189.454 30.602 182.254 26.6378C175.054 22.6736 169.99 27.8081 172.01 35.0929C174.673 44.9961 177.98 67.2747 159.483 77.1195C161.566 86.6331 165.762 95.5569 171.761 103.231C181.229 114.787 200.985 112.9 200.985 112.9Z" fill="#93E75F"/>
<path d="M175.873 38.9254C174.266 38.9323 172.668 38.6956 171.132 38.2233C170.906 38.1494 170.718 37.9901 170.609 37.7795C170.5 37.5689 170.477 37.3239 170.546 37.0969C170.62 36.8752 170.778 36.6913 170.986 36.5846C171.194 36.4779 171.435 36.457 171.659 36.5264C177.512 38.3842 185.356 36.2192 187.317 30.1339C187.354 30.0225 187.412 29.9193 187.488 29.8303C187.564 29.7413 187.658 29.6682 187.762 29.6152C187.867 29.5623 187.981 29.5304 188.098 29.5215C188.215 29.5126 188.332 29.5269 188.444 29.5634C188.666 29.6372 188.85 29.7949 188.956 30.0028C189.063 30.2107 189.084 30.4521 189.015 30.6752C187.317 36.1461 181.463 38.9254 175.873 38.9254Z" fill="white"/>
<path d="M182.532 51.1984C179.066 51.1896 175.666 50.2553 172.683 48.4922C172.574 48.4385 172.477 48.3631 172.398 48.2707C172.32 48.1782 172.26 48.0707 172.225 47.9546C172.189 47.8385 172.177 47.7164 172.19 47.5956C172.204 47.4749 172.241 47.3581 172.301 47.2524C172.361 47.1467 172.442 47.0544 172.538 46.981C172.635 46.9076 172.746 46.8547 172.864 46.8256C172.982 46.7965 173.105 46.7918 173.224 46.8118C173.344 46.8317 173.459 46.8759 173.561 46.9416C175.516 48.1267 177.687 48.9115 179.948 49.2505C182.209 49.5895 184.515 49.476 186.732 48.9164C194.795 46.9709 196.522 42.246 196.888 40.3005C196.93 40.0677 197.064 39.8614 197.259 39.727C197.454 39.5926 197.694 39.541 197.927 39.5837C198.16 39.6264 198.366 39.7598 198.501 39.9545C198.635 40.1493 198.687 40.3895 198.644 40.6223C198.205 42.9043 196.229 48.4483 187.141 50.6426C185.631 51.0019 184.084 51.1884 182.532 51.1984V51.1984Z" fill="white"/>
<path d="M191.707 66.6018C188.009 66.6478 184.34 65.9311 180.931 64.4965C177.522 63.0619 174.445 60.9402 171.893 58.2638C171.803 58.1804 171.731 58.0793 171.683 57.967C171.634 57.8547 171.608 57.7336 171.608 57.6111C171.608 57.4886 171.633 57.3674 171.682 57.2551C171.731 57.1428 171.803 57.0417 171.892 56.9582C171.982 56.8746 172.088 56.8104 172.203 56.7696C172.319 56.7287 172.441 56.712 172.564 56.7206C172.686 56.7292 172.805 56.7628 172.914 56.8195C173.022 56.8761 173.118 56.9544 173.195 57.0497C175.578 59.5511 178.452 61.5325 181.638 62.8693C184.824 64.2061 188.252 64.8693 191.707 64.8172V64.8172C203.107 64.8172 206.502 59.4633 207.951 57.1813C208.011 57.0815 208.09 56.9948 208.185 56.9265C208.279 56.8581 208.386 56.8095 208.499 56.7835C208.613 56.7576 208.73 56.7548 208.845 56.7754C208.959 56.796 209.069 56.8395 209.166 56.9034C209.266 56.9646 209.353 57.0453 209.422 57.1407C209.49 57.2362 209.539 57.3444 209.565 57.459C209.591 57.5736 209.594 57.6922 209.573 57.8078C209.552 57.9235 209.508 58.0338 209.444 58.1322C207.995 60.4434 204.102 66.6018 191.707 66.6018Z" fill="white"/>
<path d="M196.376 84.4482C192.849 84.4484 189.346 83.8804 186 82.7659C177.6 79.9281 171.541 75.0569 167.985 68.2987C167.914 68.1952 167.866 68.0778 167.843 67.9542C167.821 67.8307 167.824 67.7037 167.854 67.5817C167.884 67.4597 167.939 67.3454 168.017 67.2462C168.094 67.1471 168.191 67.0653 168.302 67.0062C168.413 66.9472 168.535 66.9122 168.66 66.9036C168.785 66.8949 168.911 66.9129 169.029 66.9562C169.147 66.9994 169.255 67.0671 169.344 67.1548C169.434 67.2425 169.505 67.3482 169.551 67.4649C172.946 73.9159 178.507 78.3629 186.571 81.0837C197.707 84.8285 208.332 81.0837 211.288 78.3629C211.455 78.1967 211.681 78.1034 211.917 78.1034C212.153 78.1034 212.379 78.1967 212.546 78.3629C212.628 78.4444 212.693 78.5413 212.737 78.648C212.782 78.7547 212.805 78.869 212.805 78.9845C212.805 79.1001 212.782 79.2144 212.737 79.3211C212.693 79.4278 212.628 79.5247 212.546 79.6062C210.176 81.8151 203.985 84.4482 196.376 84.4482Z" fill="white"/>
<path opacity="0.1" d="M173.927 97.0284C189.849 78.8456 183.702 50.2184 179.78 41.9681C174.263 30.4119 176.605 25.3359 181.42 26.2429C174.673 23.1124 170.063 28.086 171.951 35.0197C174.615 44.923 177.922 67.2016 159.424 77.0463C161.306 85.627 164.878 93.7473 169.932 100.934C171.359 99.734 172.695 98.4284 173.927 97.0284V97.0284Z" fill="black"/>
<path d="M215.62 220.885C210.205 207.719 207.498 171.281 208.624 147.349C212.254 146.588 216.688 141.644 214.888 135.252C213.278 129.503 211.712 128.742 206.868 122.54C203.415 118.151 201.015 112.3 197.898 107.502C187.317 91.1332 173.722 80.2645 153.79 75.5689C152.976 75.3811 152.209 75.0293 151.535 74.5351C150.862 74.0408 150.296 73.4145 149.873 72.6944C149.45 71.9742 149.178 71.1754 149.074 70.3467C148.97 69.518 149.036 68.6768 149.268 67.8745C150.541 63.4861 151.624 57.7518 150.293 53.5389C147.82 45.7714 142.976 44.9815 139.639 46.415C136.302 47.8486 136.156 51.0814 137.137 56.3036C138.117 61.5259 136.58 62.4475 134.824 61.8916C133.068 61.3357 131.795 51.8274 119.634 47.3659C107.473 42.9043 99.2927 48.7555 99.5122 53.7876C99.7463 59.2585 103.727 59.6388 112.156 60.5897C115.829 60.9277 119.286 62.4707 121.99 64.9781C122.748 65.776 123.279 66.7615 123.529 67.8329C123.779 68.9043 123.739 70.023 123.412 71.0736C123.086 72.1242 122.485 73.0689 121.672 73.8102C120.858 74.5515 119.862 75.0626 118.785 75.2909C87.8049 82.1662 63.8195 107.926 57.0732 142.683C55.9487 148.925 55.2253 155.233 54.9073 161.568V161.568C52.7527 157.909 49.2567 155.233 45.161 154.107C39.1756 152.644 36.8195 155.57 36.8927 158.159C36.9658 160.748 40.3024 162.094 43.6536 163.484C49.0244 165.707 49.9024 167.77 49.9024 167.77C47.1009 167.341 44.2363 167.628 41.5756 168.604C37.9171 170.227 36.9512 174.192 40.4927 175.713C42.4829 176.547 45.5122 175.04 48.6293 174.25C50.5902 173.797 54.2195 173.08 54.4829 175.435C54.4829 180.95 54.4829 186.699 54.6146 192.623C55.0683 209.314 57.9951 220.738 55.3171 235.879C53.2975 247.347 43.2585 256.358 53.3415 265.881C55.1771 267.594 57.4 268.839 59.8206 269.509C62.2412 270.179 64.7879 270.254 67.2439 269.728C68.8545 269.439 70.5145 269.783 71.8777 270.688C73.2408 271.593 74.2021 272.989 74.561 274.585C75.6732 279.339 79.1268 285.131 88.8439 287.75C97.8 290.134 103.478 287.399 107.034 284.078C107.615 283.496 108.308 283.039 109.072 282.734C109.835 282.429 110.653 282.283 111.475 282.305C112.297 282.327 113.106 282.516 113.852 282.861C114.598 283.206 115.266 283.7 115.815 284.312C119.546 288.701 126.454 293.557 138.966 293.499C151.478 293.44 157.785 288.013 160.917 283.391C161.776 282.061 163.11 281.111 164.647 280.733C166.184 280.355 167.808 280.578 169.185 281.357C173.941 284.166 181.58 286.419 191.137 281.357C198.22 277.598 200.049 270.81 200.21 265.266C200.239 264.412 200.447 263.573 200.82 262.804C201.194 262.035 201.725 261.353 202.378 260.801C203.032 260.25 203.794 259.841 204.615 259.603C205.437 259.364 206.299 259.3 207.146 259.415C209.955 259.995 212.873 259.707 215.513 258.588C218.153 257.47 220.39 255.574 221.927 253.154C228.571 242.959 220.493 232.69 215.62 220.885Z" fill="#4B9111"/>
<g opacity="0.1">
<path opacity="0.1" d="M43.6097 163.484C48.9805 165.707 49.8585 167.77 49.8585 167.77C47.057 167.341 44.1924 167.628 41.5317 168.604C37.8732 170.227 36.9073 174.192 40.4488 175.713C42.439 176.547 45.4683 175.04 48.5854 174.25C50.5463 173.797 54.1756 173.08 54.439 175.435C54.439 180.95 54.439 186.699 54.5707 192.623C55.0244 209.314 57.9512 220.738 55.2732 235.878C53.2537 247.347 43.2146 256.358 53.2975 265.881C55.3549 267.85 57.9356 269.185 60.7317 269.728C60.439 269.567 55.7122 261.975 61.2732 251.048C69.0878 235.688 68.5902 226.063 66.5561 194.92C64.0537 156.887 68.7366 140.547 82.5658 113.631C96.6732 86.1011 119.224 84.8431 128.78 77.529C133.976 73.5502 132.205 66.3385 127.654 61.7599C123.834 57.9127 117.863 56.3475 114.337 55.9087C106.639 55.1188 99.5122 53.7876 100.976 49.9404C100.038 51.0033 99.5178 52.3704 99.5122 53.7876C99.7463 59.2585 103.727 59.6388 112.156 60.5897C115.829 60.9277 119.286 62.4707 121.99 64.9781C122.748 65.776 123.279 66.7615 123.529 67.8329C123.779 68.9043 123.739 70.023 123.412 71.0736C123.086 72.1242 122.485 73.0689 121.672 73.8102C120.858 74.5514 119.862 75.0626 118.785 75.2909C87.8049 82.1662 63.8195 107.926 57.0732 142.683C55.9487 148.925 55.2253 155.233 54.9073 161.568V161.568C52.7527 157.909 49.2567 155.233 45.161 154.107C39.1756 152.644 36.8195 155.57 36.8927 158.159C36.9658 160.748 40.2585 162.094 43.6097 163.484Z" fill="black"/>
<path opacity="0.1" d="M82.5073 274.789C78.5707 269.626 75.4097 268.777 69.9512 269.918C71.0637 270.218 72.0736 270.815 72.8728 271.645C73.6719 272.474 74.2302 273.506 74.4878 274.628C75.6 279.383 79.0536 285.175 88.7707 287.794C95.0927 289.476 99.8049 288.598 103.273 286.77C89.2683 289.783 86.4293 279.953 82.5073 274.789Z" fill="black"/>
<path opacity="0.1" d="M149.927 291.699C143.019 292.606 136.537 291.041 129.249 285.702C121.39 279.953 117.541 280.494 112.683 282.44C113.886 282.708 114.966 283.366 115.756 284.312C119.488 288.701 126.395 293.557 138.907 293.499C142.656 293.532 146.383 292.923 149.927 291.699V291.699Z" fill="black"/>
<path opacity="0.1" d="M140.385 54.0363C140.122 49.4284 143.063 45.9323 146.678 47.4536C145.735 46.6225 144.571 46.0821 143.327 45.8978C142.083 45.7135 140.812 45.8932 139.668 46.415C136.419 47.8778 136.185 51.0814 137.166 56.3036C138.146 61.5259 136.61 62.4474 134.854 61.8916C134.518 61.7032 134.248 61.4176 134.078 61.0724V61.0724C135.41 63.998 136.727 66.9968 139.771 65.3438C142.815 63.6908 140.634 58.6441 140.385 54.0363Z" fill="black"/>
</g>
<path opacity="0.2" d="M110.927 159.447C111.484 161.525 112.73 163.353 114.46 164.633C116.19 165.914 118.302 166.571 120.454 166.497C128.283 166.395 129.146 162.84 132.351 157.984C135.556 153.127 142.449 152.045 148.449 151.942C150.036 151.867 151.581 151.403 152.948 150.592C154.315 149.781 155.461 148.647 156.288 147.289C157.114 145.932 157.594 144.393 157.687 142.807C157.78 141.221 157.482 139.636 156.82 138.192C156.984 139.768 156.699 141.359 155.997 142.78C155.295 144.201 154.206 145.395 152.854 146.223C148.054 149.353 141.673 146.53 135.395 149.543C129.117 152.557 128.576 159.3 123.951 161.451C121.805 162.344 119.455 162.63 117.158 162.276C114.86 161.923 112.704 160.944 110.927 159.447V159.447Z" fill="black"/>
<path d="M147.6 155.438C147.348 157.893 146.327 160.205 144.682 162.045C143.037 163.884 140.852 165.157 138.44 165.681C136.028 166.205 133.512 165.954 131.252 164.963C128.991 163.972 127.102 162.292 125.854 160.163C128.971 157.238 130.141 152.264 135.38 149.587C139.522 147.466 142.698 148.432 146.122 148.344C147.365 150.488 147.883 152.976 147.6 155.438V155.438Z" fill="#455A64"/>
<path d="M108.454 155.892C109.917 159.139 113.195 163.016 120.761 162.358C128.663 161.67 128.078 153.317 135.395 149.587C142.112 146.164 146.224 150.801 153.263 146.003C159.615 141.615 156.015 133.116 153.615 131.375" stroke="#455A64" stroke-width="1.21" stroke-miterlimit="10" stroke-linecap="round"/>
<path d="M144.541 154.166C144.533 154.802 144.335 155.422 143.974 155.946C143.613 156.47 143.105 156.876 142.513 157.111C141.922 157.347 141.274 157.402 140.651 157.269C140.028 157.136 139.459 156.822 139.015 156.366C138.571 155.91 138.272 155.332 138.156 154.706C138.041 154.081 138.113 153.434 138.365 152.85C138.616 152.265 139.036 151.768 139.57 151.422C140.104 151.075 140.729 150.895 141.366 150.904C141.789 150.908 142.208 150.995 142.597 151.161C142.986 151.328 143.339 151.57 143.634 151.873C143.929 152.176 144.161 152.535 144.317 152.929C144.473 153.322 144.549 153.743 144.541 154.166V154.166Z" fill="white"/>
<path opacity="0.2" d="M208.61 147.744L207.819 147.349C206.253 147.23 204.754 146.661 203.502 145.711C201.937 144.248 200.18 139.523 195.161 138.309C190.141 137.095 187.346 139.523 181.8 139.772C176.254 140.02 174.366 136.173 173.254 132.955C172.668 138.411 174.219 142.068 178.171 143.677C182.561 145.462 190.507 141.717 193.917 143.677C197.327 145.638 199.273 149.69 203.502 150.158C205.252 150.423 207.039 150.066 208.551 149.148C208.566 148.592 208.58 148.139 208.61 147.744Z" fill="black"/>
<path d="M203.502 145.638C202.737 148.325 200.999 150.632 198.626 152.108C196.252 153.585 193.414 154.126 190.664 153.626C187.914 153.125 185.448 151.62 183.748 149.402C182.047 147.185 181.233 144.414 181.463 141.629C181.529 140.969 181.661 140.317 181.859 139.684C185.971 139.582 189.746 136.758 195.234 138.221C200.005 139.567 200.327 143.356 203.502 145.638Z" fill="#455A64"/>
<path d="M173.488 129.196C172.985 130.905 173.064 132.734 173.713 134.394C174.362 136.054 175.544 137.451 177.073 138.367C183.454 142.215 187.698 136.173 195.161 138.236C200.766 139.699 200.312 144.628 205.229 146.574C206.312 147.001 207.461 147.239 208.624 147.276" stroke="#455A64" stroke-width="1.21" stroke-miterlimit="10" stroke-linecap="round"/>
<path d="M198.629 145.038C198.623 145.636 198.439 146.219 198.1 146.713C197.761 147.206 197.283 147.587 196.727 147.808C196.17 148.029 195.561 148.079 194.976 147.952C194.391 147.825 193.857 147.527 193.442 147.096C193.027 146.665 192.75 146.119 192.646 145.53C192.542 144.941 192.616 144.334 192.859 143.787C193.101 143.24 193.501 142.777 194.007 142.458C194.514 142.139 195.104 141.978 195.702 141.995C196.492 142.018 197.241 142.35 197.788 142.919C198.335 143.488 198.637 144.249 198.629 145.038Z" fill="white"/>
<path d="M163.127 170.037C147.922 176.839 134.561 190.283 128.385 205.145C124.58 214.287 126.644 221.879 131.751 223.605C141.82 226.999 153.102 211.318 164.312 205.847C175.522 200.376 184.683 205.671 190.376 202C197.078 197.684 196.098 186.669 192.498 178.814C188.473 170.023 178.346 163.25 163.127 170.037Z" fill="#455A64"/>
<path d="M189.98 202.175C184.39 182.852 166.215 176.766 147.805 179.677C139.405 186.484 132.765 195.208 128.444 205.116C124.639 214.258 126.702 221.85 131.81 223.576C141.878 226.97 153.161 211.289 164.371 205.818C175.185 200.522 184.259 205.393 189.98 202.175Z" fill="#F28F8F"/>
<path opacity="0.1" d="M177.966 203.199C159.293 198.167 147.234 214.229 141.38 214.068C135.527 213.907 132.6 208.758 140.81 195.666C149.02 182.574 166.566 178.99 174.249 182.822C166.595 179.048 157.244 178.185 147.805 179.677C139.405 186.484 132.765 195.208 128.444 205.116C124.639 214.258 126.702 221.85 131.81 223.576C141.878 226.97 153.161 211.289 164.371 205.818C168.616 203.834 173.287 202.934 177.966 203.199V203.199Z" fill="black"/>
<path d="M185.151 184.636C181.537 186.201 181.595 190.985 178.624 201.151C178.405 201.868 178.2 202.614 178.01 203.199C183.015 203.316 187.229 203.989 190.376 201.97C191.002 201.552 191.577 201.061 192.088 200.508C192.819 192.828 188.956 182.983 185.151 184.636Z" fill="#F5F5F5"/>
<path d="M192.088 200.537C192.171 199.623 192.195 198.704 192.161 197.787C191.127 199.167 189.649 200.149 187.976 200.566C186.037 200.882 184.06 200.882 182.122 200.566C182.122 200.566 183.073 194.627 183.995 189.522C184.624 186.099 186.673 184.607 188.385 185.792C188.051 185.272 187.554 184.877 186.972 184.668C186.39 184.459 185.755 184.448 185.166 184.636C181.551 186.201 181.61 190.985 178.639 201.151C178.42 201.868 178.215 202.614 178.024 203.199C183.029 203.316 187.244 203.989 190.39 201.97C191.01 201.56 191.58 201.079 192.088 200.537V200.537Z" fill="#E0E0E0"/>
<path d="M146.517 197.26C142.917 198.825 142.961 203.609 139.99 213.775C138.702 218.164 137.59 221.499 136.727 223.854C142.083 222.816 147.717 218.003 153.454 213.351C154.259 205.613 150.366 195.607 146.517 197.26Z" fill="#F5F5F5"/>
<path d="M153.454 213.351C153.571 212.076 153.571 210.793 153.454 209.519C147.776 213.205 144.351 217.154 143.444 216.657C142.537 216.16 143.415 212.108 143.737 207.719C144.205 202.409 144.863 196.909 148.39 197.289C148.104 197.138 147.787 197.052 147.463 197.037C147.14 197.022 146.817 197.078 146.517 197.202C142.917 198.767 142.961 203.55 139.99 213.717C138.702 218.105 137.59 221.441 136.727 223.796C142.083 222.757 147.717 217.944 153.454 213.293V213.351Z" fill="#E0E0E0"/>
<path d="M22.5659 263.306C22.0683 263.312 21.5734 263.233 21.1024 263.072C20.5501 262.888 20.0401 262.595 19.6019 262.212C19.1637 261.829 18.8062 261.362 18.5502 260.839C18.2941 260.317 18.1447 259.748 18.1105 259.167C18.0764 258.586 18.1582 258.004 18.3512 257.455C30.1756 222.216 47.6195 207.324 71.7366 194.715C72.7806 194.17 73.9985 194.062 75.1224 194.414C76.2462 194.767 77.184 195.551 77.7293 196.595C78.2746 197.638 78.3828 198.856 78.0301 199.979C77.6775 201.102 76.8928 202.04 75.8488 202.585C53.0341 214.478 37.6976 227.716 26.7659 260.278C26.4773 261.163 25.915 261.933 25.16 262.477C24.4051 263.021 23.4966 263.312 22.5659 263.306V263.306Z" fill="#455A64"/>
<path d="M19.4341 254.266C17.561 259.093 14.7366 261.053 12.0146 263.891C9.29268 266.729 6.39512 268.47 3.57073 272.932C0.746344 277.393 -0.599998 284.912 0.248783 288.437C0.73171 290.427 3.49756 290.441 3.65854 288.701C4.25854 282.206 5.32683 276.632 9.89269 273.151C8.08184 276.922 6.90039 280.964 6.39512 285.117C5.98537 290.822 6.73171 297.638 9.10244 297.975C11.4732 298.311 11.3707 295.898 11.0488 292.46C10.7268 289.022 10.4049 279.953 14.9707 273.444C14.9707 273.444 13.3463 283.01 14.9707 289.125C16.5951 295.239 19.7707 299.599 21.5268 298.853C23.2829 298.107 23.1951 296.936 21.2927 292.241C19.8293 288.598 19.8293 283.976 20.2683 280.055C20.3492 276.485 21.77 273.075 24.2488 270.503C25.166 269.494 26.3315 268.743 27.6293 268.324C28.3557 268.232 29.0936 268.302 29.7895 268.53C30.4855 268.757 31.1222 269.137 31.6537 269.64C33.6337 271.462 34.8953 273.932 35.2098 276.603C35.6341 279.675 40.7122 279.953 38.8244 271.322C36.9366 262.692 26.2829 261.171 28.961 254.12L19.4341 254.266Z" fill="#455A64"/>
<path d="M240.483 221.952L244.537 214.112C238.244 210.835 245.429 201.195 241.8 193.135C238.171 185.075 234.263 188.322 235.756 191.043C236.48 192.172 236.969 193.436 237.192 194.758C237.416 196.08 237.371 197.434 237.059 198.738C236.444 200.888 235.054 202.146 233.561 200.873C232.068 199.601 231.132 195.417 225.702 190.809C222.508 187.874 218.411 186.11 214.083 185.806C209.839 185.806 211.332 188.732 213.366 189.58C222.146 193.091 223.215 195.037 225.424 197.904C227.634 200.771 227.341 202.409 226.185 202.073C225.029 201.736 223.259 199.25 217.961 196.792C212.663 194.335 206.693 194.349 205.756 195.476C204.82 196.602 204.951 198.05 207.483 198.65C211.228 199.434 214.868 200.657 218.327 202.292C222.059 204.443 223.771 207.222 223.156 208.027C222.541 208.831 219.351 206.564 214.493 205.686C209.634 204.808 207.176 204.794 205.127 205.584C203.663 206.154 204.161 209.153 208.624 209.372C213.141 209.746 217.51 211.163 221.385 213.512C223.698 215.191 226.174 216.632 228.776 217.813C232.597 219.411 236.506 220.793 240.483 221.952V221.952Z" fill="#455A64"/>
<path d="M95.122 103.523C100.259 106.215 108.498 120.229 98.4 135.135C95.1835 140.209 90.5043 144.19 84.9791 146.554C79.4538 148.917 73.3419 149.551 67.4488 148.373C63.3512 146.384 41.8976 137.095 40.8439 107.414C39.7903 77.7338 58.039 66.4556 62.6049 63.8079C67.1707 61.1602 76.2585 60.3849 75.1463 70.5368C74.0342 80.6887 72.9512 89.6996 80.3268 96.2238C86.1659 101.373 95.122 103.523 95.122 103.523Z" fill="#4B9111"/>
<path opacity="0.75" d="M95.122 103.523C100.259 106.215 108.498 120.229 98.4 135.135C95.1835 140.209 90.5043 144.19 84.9791 146.554C79.4538 148.917 73.3419 149.551 67.4488 148.373C63.3512 146.384 41.8976 137.095 40.8439 107.414C39.7903 77.7338 58.039 66.4556 62.6049 63.8079C67.1707 61.1602 76.2585 60.3849 75.1463 70.5368C74.0342 80.6887 72.9512 89.6996 80.3268 96.2238C86.1659 101.373 95.122 103.523 95.122 103.523Z" fill="#93E75F"/>
<path d="M56.7512 142.068C55.9171 142.068 55.1854 142.068 54.6 141.966C54.3777 141.926 54.1788 141.803 54.0433 141.623C53.9079 141.442 53.846 141.217 53.8701 140.992C53.8943 140.768 54.0026 140.561 54.1734 140.413C54.3441 140.265 54.5645 140.188 54.7902 140.196C59.2537 140.679 72.8634 139.684 82.2585 129.43C91.8878 118.941 92.2683 108.716 90.8927 102.002C90.8493 101.769 90.8985 101.529 91.0297 101.333C91.1609 101.136 91.3638 100.998 91.5951 100.949C91.7086 100.925 91.8255 100.924 91.9392 100.946C92.0529 100.968 92.1612 101.012 92.2578 101.076C92.3544 101.14 92.4374 101.223 92.5019 101.319C92.5665 101.415 92.6115 101.523 92.6342 101.636C94.0976 108.775 93.7025 119.585 83.5756 130.629C74.8976 140.094 62.7805 142.068 56.7512 142.068Z" fill="white"/>
<path d="M51.322 122.496C48.0693 122.512 44.8234 122.199 41.6341 121.56C41.4052 121.509 41.2056 121.37 41.0793 121.172C40.9531 120.975 40.9105 120.735 40.961 120.506C41.0114 120.278 41.1508 120.078 41.3484 119.952C41.546 119.826 41.7856 119.783 42.0146 119.834C42.6878 119.98 58.5951 123.432 70.0098 115.782C80.3415 108.862 81.2341 100.51 81.6293 96.9406C81.6551 96.7089 81.7707 96.4965 81.9512 96.3489C82.1317 96.2013 82.3628 96.1301 82.5951 96.1507C82.712 96.1615 82.8256 96.1957 82.929 96.2512C83.0325 96.3067 83.1237 96.3824 83.1974 96.4738C83.2711 96.5652 83.3257 96.6704 83.358 96.7832C83.3903 96.8961 83.3996 97.0142 83.3854 97.1307C83.0049 100.612 82.0098 109.872 71.0049 117.259C64.7122 121.413 57.1902 122.496 51.322 122.496Z" fill="white"/>
<path d="M55.6098 98.8715C50.2367 99.0327 44.9346 97.6136 40.361 94.7902C40.2068 94.6455 40.109 94.4507 40.0851 94.2406C40.0612 94.0305 40.1127 93.8187 40.2304 93.6431C40.3482 93.4674 40.5245 93.3392 40.728 93.2814C40.9315 93.2236 41.1489 93.2399 41.3415 93.3274C44.2683 95.2583 50.8244 98.2717 61.4049 96.648C69.761 95.3754 73.3756 92.6838 76.039 89.9776C76.1208 89.8935 76.2187 89.8267 76.3268 89.7811C76.4348 89.7355 76.551 89.712 76.6683 89.712C76.7856 89.712 76.9017 89.7355 77.0098 89.7811C77.1179 89.8267 77.2157 89.8935 77.2976 89.9776C77.4638 90.1448 77.5571 90.3709 77.5571 90.6066C77.5571 90.8423 77.4638 91.0684 77.2976 91.2356C74.3707 94.1612 70.522 97.0869 61.6537 98.418C59.6533 98.7208 57.6329 98.8724 55.6098 98.8715V98.8715Z" fill="white"/>
<path d="M64.8732 81.7712C63.0646 81.7606 61.2648 81.5198 59.5171 81.0544C57.3623 80.5773 55.3379 79.6349 53.586 78.293C51.8341 76.9512 50.3971 75.2426 49.3756 73.2869C49.2726 73.0748 49.2563 72.831 49.33 72.6071C49.4038 72.3832 49.5618 72.1968 49.7707 72.0874C49.8755 72.0345 49.9896 72.0027 50.1066 71.9939C50.2236 71.9851 50.3412 71.9995 50.4527 72.0362C50.5641 72.0729 50.6672 72.1312 50.7561 72.2077C50.845 72.2843 50.918 72.3776 50.9708 72.4823C51.8694 74.226 53.1466 75.7469 54.7088 76.9339C56.271 78.1209 58.0788 78.944 60 79.3429C62.4635 80.0337 65.0476 80.1822 67.5741 79.7781C70.1005 79.3741 72.5093 78.4271 74.6342 77.0024C74.8267 76.9149 75.0442 76.8986 75.2476 76.9564C75.4511 77.0142 75.6275 77.1424 75.7452 77.3181C75.863 77.4938 75.9145 77.7055 75.8906 77.9156C75.8666 78.1257 75.7689 78.3205 75.6146 78.4653C72.4434 80.6119 68.7031 81.7631 64.8732 81.7712V81.7712Z" fill="white"/>
<path opacity="0.1" d="M79.0244 137.797C72.5561 137.212 64.3902 135.369 57.439 124.632C50.4878 113.895 48.2927 91.4843 54.7024 77.9971C58.9171 69.1179 67.3317 60.9846 73.4049 63.7055C70.6829 61.1748 65.6781 62.0964 62.6634 63.8371C58.0976 66.4556 39.8341 77.7923 40.9756 107.444C42.1171 137.095 63.4829 146.384 67.5805 148.402C73.4736 149.58 79.5855 148.946 85.1108 146.583C90.636 144.22 95.3152 140.238 98.5317 135.164C105.22 125.158 103.756 115.562 100.507 109.521C105.571 125.422 88.6976 138.675 79.0244 137.797Z" fill="black"/>
<path d="M92.3561 134.725C92.3561 134.725 84.7317 143.136 84.6732 151.226C84.6279 152.263 84.7932 153.299 85.1593 154.271C85.5253 155.244 86.0845 156.132 86.803 156.882C87.5216 157.632 88.3847 158.229 89.3403 158.637C90.296 159.045 91.3243 159.255 92.3634 159.255C93.4025 159.255 94.4309 159.045 95.3865 158.637C96.3421 158.229 97.2052 157.632 97.9238 156.882C98.6423 156.132 99.2015 155.244 99.5676 154.271C99.9336 153.299 100.099 152.263 100.054 151.226C99.9951 143.136 92.3561 134.725 92.3561 134.725Z" fill="white"/>
<path d="M353.663 0.438832L259.302 54.8262C258.786 55.1623 258.356 55.6158 258.048 56.1497C257.741 56.6836 257.563 57.2827 257.532 57.8981V117.201C257.566 117.815 257.746 118.412 258.056 118.944C258.367 119.475 258.799 119.926 259.317 120.258L265.683 123.812C266.234 124.09 266.843 124.235 267.461 124.235C268.079 124.235 268.687 124.09 269.239 123.812L363.6 69.4251C364.117 69.088 364.548 68.6345 364.858 68.1011C365.168 67.5676 365.348 66.969 365.385 66.3532V7.03611C365.351 6.4217 365.171 5.82424 364.861 5.29277C364.55 4.76131 364.118 4.31101 363.6 3.97884L357.234 0.409576C356.678 0.136163 356.065 -0.00357235 355.445 0.00150697C354.825 0.00658629 354.215 0.156339 353.663 0.438832V0.438832Z" fill="#4B9111"/>
<path d="M267.468 122.774V63.4714C267.502 62.8566 267.68 62.2584 267.988 61.7248C268.295 61.1913 268.724 60.7374 269.239 60.3995L363.6 6.01216C364.581 5.44166 365.385 5.90976 365.385 7.03612V66.3385C365.348 66.9544 365.168 67.553 364.858 68.0865C364.548 68.6199 364.117 69.0734 363.6 69.4104L269.268 123.798C268.258 124.339 267.468 123.915 267.468 122.774Z" fill="#4B9111"/>
<path opacity="0.2" d="M269.268 123.798C268.718 124.079 268.108 124.226 267.49 124.226C266.872 124.226 266.263 124.079 265.712 123.798L259.317 120.243C258.804 119.912 258.377 119.463 258.071 118.934C257.766 118.405 257.591 117.811 257.561 117.2V57.8981C257.586 57.2534 257.783 56.627 258.132 56.0842L268.024 61.7307C267.698 62.254 267.516 62.8547 267.498 63.4714V122.774C267.468 123.812 268.2 124.412 269.268 123.798Z" fill="#184000"/>
<path opacity="0.4" d="M365.356 6.71429C365.21 5.82198 364.493 5.50016 363.6 6.01214L269.268 60.3995C268.748 60.7308 268.32 61.1888 268.024 61.7307L258.117 56.0842C258.413 55.567 258.836 55.134 259.346 54.8262L353.678 0.424202C354.231 0.149731 354.839 0.00689697 355.456 0.00689697C356.073 0.00689697 356.682 0.149731 357.234 0.424202L363.585 3.99346C364.06 4.2921 364.464 4.68998 364.769 5.1597C365.075 5.62942 365.275 6.1598 365.356 6.71429V6.71429Z" fill="#358D00"/>
<path d="M257.561 78.9919L243.263 93.5176C243.098 93.6855 242.972 93.8883 242.895 94.1111C242.818 94.3339 242.792 94.5712 242.818 94.8054C242.845 95.0397 242.924 95.265 243.049 95.4649C243.174 95.6647 243.342 95.8341 243.541 95.9605C243.834 96.1506 253.434 101.636 253.434 101.636L267.498 84.7114L257.561 78.9919Z" fill="#4B9111"/>
<path opacity="0.1" d="M257.561 78.9919L243.263 93.5176C243.098 93.6855 242.972 93.8883 242.895 94.1111C242.818 94.3339 242.792 94.5712 242.818 94.8054C242.845 95.0397 242.924 95.265 243.049 95.4649C243.174 95.6647 243.342 95.8341 243.541 95.9605C243.834 96.1506 253.434 101.636 253.434 101.636L267.498 84.7114L257.561 78.9919Z" fill="#184000"/>
<path d="M267.468 84.6822L253.171 99.2225C252.94 99.4563 252.788 99.7569 252.738 100.082C252.687 100.406 252.74 100.739 252.889 101.032C253.038 101.324 253.275 101.563 253.568 101.714C253.86 101.864 254.192 101.919 254.517 101.87L267.468 99.9978C268.859 99.9978 268.859 84.6822 267.468 84.6822Z" fill="#4B9111"/>
<path d="M279.029 79.8988C279.086 78.2168 279.316 76.5451 279.717 74.9106C280.115 73.2857 280.694 71.7106 281.444 70.215C282.179 68.7461 283.088 67.3709 284.151 66.1191C285.202 64.9023 286.448 63.8691 287.839 63.0618C288.939 62.3429 290.213 61.9336 291.527 61.8769C292.52 61.8524 293.487 62.1905 294.249 62.8278C295.064 63.5643 295.661 64.5105 295.976 65.5632C296.407 66.922 296.639 68.3362 296.663 69.7615C296.663 70.9756 296.663 72.2775 296.663 73.638C296.663 74.9984 296.663 76.2857 296.663 77.4998C296.606 79.1817 296.376 80.8533 295.976 82.488C295.579 84.132 295 85.7265 294.249 87.2421C293.521 88.7231 292.606 90.1045 291.527 91.3526C290.472 92.5569 289.226 93.5798 287.839 94.3806C286.735 95.0973 285.465 95.5156 284.151 95.5948C283.162 95.6239 282.197 95.2851 281.444 94.6439C280.628 93.8901 280.031 92.9297 279.717 91.8646C279.286 90.5108 279.054 89.1015 279.029 87.681C279.029 86.5107 279.029 85.2527 279.029 83.8923C279.029 82.5319 278.985 81.1568 279.029 79.8988ZM291.439 80.2645C291.439 79.7233 291.439 79.1381 291.439 78.4799C291.439 77.8216 291.439 77.178 291.439 76.5051C291.439 75.8322 291.439 75.2032 291.439 74.5888C291.439 73.9744 291.439 73.4332 291.439 72.9504C291.406 72.3323 291.308 71.7194 291.146 71.1219C291.021 70.6708 290.785 70.2583 290.459 69.9224C290.165 69.6457 289.779 69.4891 289.376 69.4836C288.827 69.502 288.294 69.6744 287.839 69.9809C287.289 70.3225 286.796 70.7469 286.376 71.239C285.941 71.7541 285.577 72.3247 285.293 72.9358C284.994 73.5729 284.763 74.2397 284.605 74.9252C284.447 75.6375 284.349 76.3617 284.312 77.0902C284.312 77.6022 284.312 78.1727 284.239 78.8017C284.166 79.4307 284.239 80.089 284.239 80.7472C284.239 81.4055 284.239 82.0638 284.239 82.7074C284.239 83.351 284.239 83.9069 284.312 84.4043C284.285 85.5002 284.631 86.5729 285.293 87.4469C285.863 88.0759 286.756 88.0467 287.898 87.3738C289.065 86.7121 289.98 85.6836 290.502 84.4481C291.06 83.1199 291.377 81.7034 291.439 80.2645Z" fill="white"/>
<path d="M314.385 65.6217C314.385 66.046 314.385 66.6018 314.385 67.2747C314.385 67.9476 314.385 68.5181 314.385 68.9716C314.344 70.4142 314.138 71.8473 313.771 73.243C313.398 74.6588 312.879 76.0316 312.22 77.3389C311.567 78.6079 310.761 79.7919 309.82 80.8642C308.933 81.8963 307.88 82.7716 306.702 83.4534C305.763 84.0563 304.685 84.4088 303.571 84.4774C302.709 84.5106 301.863 84.2357 301.185 83.7021C300.476 83.0859 299.941 82.2938 299.634 81.4055C299.232 80.2629 299.019 79.0621 299.005 77.8509C299.005 77.412 299.005 76.8708 299.005 76.1833C299.005 75.4957 299.005 74.9399 299.005 74.501C299.035 73.0585 299.236 71.6246 299.605 70.2296C299.982 68.8133 300.507 67.4406 301.171 66.1337C301.832 64.8562 302.637 63.6586 303.571 62.5645C304.463 61.5329 305.521 60.6578 306.702 59.9753C307.638 59.3804 308.712 59.0377 309.82 58.9806C310.691 58.9596 311.544 59.2384 312.234 59.7705C312.954 60.3774 313.491 61.1726 313.785 62.0671C314.177 63.2117 314.379 64.4122 314.385 65.6217V65.6217ZM304.141 74.6912C304.116 75.0815 304.171 75.4728 304.305 75.8405C304.438 76.2081 304.647 76.544 304.917 76.8269C305.385 77.1926 305.985 77.1487 306.746 76.7099C307.533 76.2337 308.167 75.5437 308.576 74.7204C309.045 73.7772 309.309 72.7452 309.351 71.6924C309.351 71.2243 309.351 70.727 309.351 70.2296C309.351 69.7322 309.351 69.2056 309.351 68.7668C309.371 68.3771 309.313 67.9874 309.179 67.6206C309.046 67.2538 308.841 66.9174 308.576 66.6311C308.296 66.4581 307.97 66.3765 307.642 66.3975C307.314 66.4184 307.001 66.541 306.746 66.7481C305.939 67.2177 305.287 67.9147 304.873 68.7522C304.418 69.6643 304.154 70.6599 304.098 71.6778C304.098 72.1313 304.098 72.6286 304.098 73.1406C304.098 73.6526 304.068 74.2816 304.098 74.6912H304.141Z" fill="white"/>
<path d="M325.917 72.3653C325.465 72.6365 324.97 72.8294 324.454 72.9358C324.097 73.0108 323.728 73.0108 323.371 72.9358C323.092 72.8533 322.832 72.7139 322.61 72.5262C322.428 72.3563 322.261 72.1702 322.112 71.9704V81.23C322.104 81.5648 322.024 81.8941 321.878 82.1954C321.767 82.4637 321.578 82.6928 321.337 82.8537L317.81 84.8431C317.732 84.9036 317.637 84.9365 317.539 84.9365C317.441 84.9365 317.346 84.9036 317.268 84.8431C317.105 84.6472 317.026 84.3948 317.049 84.141V55.5869C317.05 55.2575 317.125 54.9327 317.268 54.636C317.379 54.3678 317.568 54.1386 317.81 53.9778L321.234 52.003C321.31 51.9399 321.406 51.9054 321.505 51.9054C321.604 51.9054 321.7 51.9399 321.776 52.003C321.939 52.1989 322.018 52.4513 321.995 52.7051V53.6998C322.156 53.3195 322.346 52.9099 322.551 52.4711C322.75 52.0223 322.995 51.5957 323.283 51.1984C323.601 50.7571 323.958 50.3457 324.351 49.9697C324.824 49.5263 325.35 49.1431 325.917 48.8287C326.647 48.3725 327.474 48.0967 328.332 48.0241C328.69 47.9995 329.05 48.0477 329.39 48.1659C329.729 48.284 330.042 48.4697 330.307 48.7116C330.958 49.3558 331.432 50.1569 331.683 51.0375C332.062 52.3698 332.254 53.7483 332.254 55.1334C332.254 55.5576 332.254 56.1427 332.254 56.8741C332.254 57.6055 332.254 58.2053 332.254 58.6588C332.225 60.2635 332.034 61.8612 331.683 63.4275C331.363 64.7741 330.902 66.0832 330.307 67.3332C329.783 68.3927 329.119 69.3767 328.332 70.2589C327.644 71.0849 326.829 71.7959 325.917 72.3653V72.3653ZM327.19 61.1017C327.249 60.2884 327.249 59.472 327.19 58.6588C327.191 57.8578 326.968 57.0725 326.546 56.3914C326.166 55.8502 325.537 55.8355 324.644 56.3914C324.233 56.6285 323.87 56.9412 323.576 57.313C323.274 57.6935 323.023 58.1114 322.829 58.5564C322.63 58.9988 322.473 59.4592 322.361 59.9314C322.242 60.411 322.168 60.9008 322.141 61.3942C322.141 61.8477 322.141 62.3743 322.141 62.9448C322.117 63.4321 322.117 63.9203 322.141 64.4076C322.165 64.7958 322.239 65.1793 322.361 65.5486C322.457 65.8563 322.616 66.1404 322.829 66.3824C323.02 66.6004 323.287 66.7366 323.576 66.7627C323.956 66.7655 324.328 66.6533 324.644 66.4409C325.519 65.9448 326.192 65.1581 326.546 64.2175C326.932 63.2216 327.149 62.1687 327.19 61.1017V61.1017Z" fill="white"/>
<path d="M343.273 55.1188C343.273 54.8116 343.273 54.5921 343.068 54.5044C342.838 54.4109 342.581 54.4109 342.351 54.5044C341.893 54.6147 341.443 54.7564 341.005 54.9286C340.449 55.1334 339.761 55.3528 338.927 55.6015C338.383 55.8374 337.782 55.9132 337.196 55.8199C336.611 55.7266 336.064 55.4681 335.62 55.0749C334.716 53.906 334.302 52.4325 334.463 50.9644C334.471 49.9424 334.629 48.927 334.932 47.951C335.262 46.9023 335.714 45.8958 336.278 44.9522C336.868 43.9755 337.565 43.0678 338.356 42.246C339.163 41.4234 340.079 40.7147 341.078 40.1396C341.906 39.6263 342.825 39.2785 343.785 39.1156C344.505 38.9896 345.244 39.0449 345.937 39.2765C346.541 39.4689 347.059 39.8676 347.4 40.4029C347.761 40.9572 347.963 41.5996 347.985 42.2606C348.002 42.5901 347.931 42.9181 347.781 43.2115C347.668 43.4871 347.474 43.7219 347.224 43.8844L343.859 45.8299C343.783 45.875 343.697 45.8989 343.61 45.8989C343.522 45.8989 343.436 45.875 343.361 45.8299C343.221 45.7451 343.074 45.6717 342.922 45.6105C342.713 45.5262 342.488 45.4911 342.263 45.5081C341.853 45.5698 341.463 45.725 341.122 45.9616C340.701 46.1903 340.328 46.4983 340.024 46.8685C339.74 47.1974 339.584 47.6184 339.585 48.0534C339.567 48.2825 339.618 48.512 339.732 48.7116C339.834 48.8287 340.01 48.8579 340.302 48.7994C340.706 48.7056 341.102 48.5834 341.488 48.4337L343.493 47.7608C345.205 47.2049 346.42 47.3805 347.239 48.2728C348.099 49.4078 348.515 50.8173 348.41 52.237C348.402 53.2649 348.239 54.2857 347.927 55.265C347.569 56.3505 347.077 57.3872 346.463 58.3516C345.819 59.3861 345.058 60.3432 344.195 61.2041C343.293 62.1004 342.28 62.8772 341.181 63.5153C340.284 64.0711 339.291 64.4532 338.254 64.6417C337.523 64.758 336.774 64.672 336.088 64.393C335.52 64.1371 335.048 63.7067 334.741 63.1642C334.429 62.6027 334.249 61.9773 334.215 61.3357C334.205 61.0051 334.28 60.6776 334.434 60.3849C334.551 60.1162 334.738 59.8839 334.976 59.712L338.488 57.6933C338.693 57.5763 338.854 57.5617 338.941 57.6933C339.051 57.8098 339.174 57.9129 339.307 58.0005C339.503 58.1116 339.727 58.1625 339.951 58.1468C340.413 58.0803 340.853 57.9102 341.239 57.6494C341.792 57.3366 342.287 56.9308 342.702 56.4499C343.044 56.0876 343.246 55.616 343.273 55.1188V55.1188Z" fill="white"/>
<path d="M356.034 44.0307C356.024 44.3606 355.945 44.6847 355.8 44.9815C355.698 45.2548 355.507 45.4864 355.259 45.6397L351.702 47.7023C351.626 47.7653 351.531 47.7998 351.432 47.7998C351.333 47.7998 351.237 47.7653 351.161 47.7023C350.998 47.5064 350.919 47.254 350.941 47.0002V28.2176C350.944 27.8838 351.019 27.5544 351.161 27.2522C351.272 26.9839 351.461 26.7548 351.702 26.5939L355.259 24.546C355.332 24.4771 355.429 24.4387 355.529 24.4387C355.63 24.4387 355.727 24.4771 355.8 24.546C355.883 24.6419 355.947 24.7533 355.987 24.8737C356.027 24.9942 356.043 25.1215 356.034 25.2481V44.0307ZM356.034 53.378C356.028 53.7084 355.948 54.0332 355.8 54.3288C355.698 54.6022 355.507 54.8338 355.259 54.9871L351.702 57.0497C351.626 57.1127 351.531 57.1472 351.432 57.1472C351.333 57.1472 351.237 57.1127 351.161 57.0497C351.08 56.9557 351.019 56.8464 350.981 56.7283C350.943 56.6102 350.93 56.4856 350.941 56.3622V51.9737C350.946 51.6447 351.021 51.3205 351.161 51.0229C351.272 50.7546 351.461 50.5255 351.702 50.3646L355.259 48.3167C355.332 48.2478 355.429 48.2094 355.529 48.2094C355.63 48.2094 355.727 48.2478 355.8 48.3167C355.883 48.4126 355.947 48.524 355.987 48.6444C356.027 48.7649 356.043 48.8922 356.034 49.0188V53.378Z" fill="white"/>
</g>
<defs>
<clipPath id="clip0">
<rect width="570" height="545" fill="white"/>
</clipPath>
</defs>
</svg>
