<svg width="45" height="33" viewBox="0 0 45 33" fill="none" xmlns="http://www.w3.org/2000/svg">
<path fill-rule="evenodd" clip-rule="evenodd" d="M43.5983 8.65164C43.7263 8.77936 43.8279 8.9311 43.8972 9.09815C43.9666 9.26519 44.0022 9.44428 44.0022 9.62514C44.0022 9.806 43.9666 9.98508 43.8972 10.1521C43.8279 10.3192 43.7263 10.4709 43.5983 10.5986L35.3483 18.8486C35.2206 18.9767 35.0688 19.0783 34.9018 19.1476C34.7347 19.2169 34.5556 19.2526 34.3748 19.2526C34.1939 19.2526 34.0148 19.2169 33.8478 19.1476C33.6807 19.0783 33.529 18.9767 33.4013 18.8486L29.2763 14.7236C29.0181 14.4655 28.873 14.1153 28.873 13.7501C28.873 13.385 29.0181 13.0348 29.2763 12.7766C29.5345 12.5184 29.8846 12.3734 30.2498 12.3734C30.6149 12.3734 30.9651 12.5184 31.2233 12.7766L34.3748 15.9309L41.6513 8.65164C41.779 8.52359 41.9307 8.422 42.0978 8.35268C42.2648 8.28336 42.4439 8.24768 42.6248 8.24768C42.8056 8.24768 42.9847 8.28336 43.1518 8.35268C43.3188 8.422 43.4706 8.52359 43.5983 8.65164V8.65164Z" fill="#61CC1F"/>
<path d="M2.75 33C2.75 33 0 33 0 30.25C0 27.5 2.75 19.25 16.5 19.25C30.25 19.25 33 27.5 33 30.25C33 33 30.25 33 30.25 33H2.75ZM16.5 16.5C18.688 16.5 20.7865 15.6308 22.3336 14.0836C23.8808 12.5365 24.75 10.438 24.75 8.25C24.75 6.06196 23.8808 3.96354 22.3336 2.41637C20.7865 0.869194 18.688 0 16.5 0C14.312 0 12.2135 0.869194 10.6664 2.41637C9.11919 3.96354 8.25 6.06196 8.25 8.25C8.25 10.438 9.11919 12.5365 10.6664 14.0836C12.2135 15.6308 14.312 16.5 16.5 16.5V16.5Z" fill="#61CC1F"/>
</svg>
