<svg width="42" height="35" viewBox="0 0 42 35" fill="none" xmlns="http://www.w3.org/2000/svg">
<path d="M32.5573 6.87311C32.5165 6.82447 32.4702 6.77906 32.4191 6.73748C32.3598 6.68635 32.295 6.63973 32.2255 6.59819C32.2834 6.38497 32.2632 6.1625 32.1675 5.95862C32.11 5.8267 32.0256 5.70375 31.9178 5.59501C31.8674 5.5415 31.8127 5.49079 31.7541 5.44321C31.6909 5.39157 31.6239 5.34314 31.5535 5.29818C31.0439 4.97735 30.3356 4.87093 29.77 5.01439L29.7611 5.005C29.7004 4.9518 29.6332 4.90389 29.5604 4.86206C29.4142 4.78005 29.2507 4.72081 29.0783 4.6873C28.7419 4.62992 28.3999 4.6873 28.2012 4.84172C28.4682 4.78505 28.751 4.80798 28.9993 4.9064C29.1158 4.95022 29.2152 5.01283 29.2948 5.08169C29.342 5.12186 29.3528 5.1349 29.4031 5.19072C29.4305 5.22358 29.4528 5.26584 29.4719 5.30392L29.5573 5.4719L29.8159 5.41504C30.2738 5.31383 30.8025 5.40617 31.1815 5.63935C31.2274 5.66648 31.2758 5.70039 31.3146 5.72856C31.3484 5.75308 31.393 5.79116 31.4426 5.84072C31.5032 5.90489 31.5764 5.9894 31.6229 6.07026C31.7229 6.23615 31.7586 6.4203 31.7401 6.60236L31.7261 6.74843L31.8707 6.80164C31.97 6.83868 32.0783 6.87989 32.1637 6.92737C32.4583 7.089 32.6662 7.3369 32.7446 7.62015C32.8166 7.43808 32.7853 7.22002 32.665 7.01918C32.6349 6.96776 32.5989 6.91884 32.5573 6.87311Z" fill="#61CC1F"/>
<path d="M15.0763 5.44892C15.0042 5.39982 14.9261 5.35699 14.8431 5.32111C14.76 5.28032 14.6724 5.24609 14.5814 5.21886C14.4735 5.18428 14.3623 5.15723 14.2489 5.138C14.1689 4.85182 13.9884 4.59106 13.7297 4.38782C13.5672 4.25411 13.3789 4.14325 13.1724 4.05968C12.9658 3.97361 12.7472 3.90844 12.5214 3.86562C11.6787 3.70755 10.7431 3.90057 10.1583 4.332C10.1513 4.32991 10.1469 4.32626 10.1411 4.3247C10.0301 4.28786 9.91491 4.26025 9.79718 4.24227C9.56273 4.20906 9.32279 4.21171 9.08952 4.2501C8.64047 4.33357 8.2653 4.55893 8.13281 4.83647C8.41897 4.64621 8.77837 4.54545 9.14685 4.55215C9.31946 4.55267 9.48316 4.58293 9.62902 4.63092C9.71374 4.65857 9.73667 4.66901 9.83667 4.71439C9.89272 4.74152 9.95005 4.78221 10.0004 4.8203L10.2208 4.98567L10.4953 4.79891C10.9806 4.46764 11.687 4.33931 12.3112 4.4499C12.3858 4.46138 12.4686 4.4812 12.5355 4.4979C12.5934 4.5125 12.6743 4.53754 12.7699 4.57563C12.8877 4.62623 13.0367 4.69509 13.1501 4.77178C13.3883 4.92724 13.5597 5.13539 13.6648 5.36493L13.7501 5.54856L13.9622 5.54752C14.1094 5.547 14.2693 5.54856 14.4068 5.56682C14.5374 5.57778 14.7202 5.6289 14.8521 5.67168C15.1374 5.77236 15.396 5.93043 15.5973 6.14328C15.554 5.8887 15.3629 5.63777 15.0763 5.44892Z" fill="#61CC1F"/>
<path d="M41.3441 32.7661H40.0316L39.7691 28.2615L39.5059 23.758L39.2434 19.2539L38.9816 14.7504L38.7191 10.2463H38.598C38.9134 9.95033 39.0885 9.56916 39.0908 9.17382C39.0908 8.69399 38.836 8.24497 38.4097 7.93613C38.4258 7.84191 38.4342 7.74769 38.4342 7.65463C38.4342 6.41926 37.163 5.39677 35.6629 5.46657C35.5716 5.3017 35.4614 5.14452 35.3339 4.9972C35.3437 4.9245 35.3486 4.85179 35.3486 4.77676C35.3486 3.03713 33.6217 1.62205 31.4993 1.62205C31.3452 1.62213 31.1913 1.63107 31.0387 1.6488C30.6811 1.14807 30.1722 0.733701 29.5625 0.446809C28.9527 0.159917 28.2632 0.0104672 27.5625 0.0132837C26.6309 0.0142506 25.7284 0.283047 25.0082 0.774045C24.2161 0.277106 23.2497 0.00984831 22.2572 0.0132837C21.3654 0.0133491 20.493 0.229634 19.747 0.635619C18.3652 -0.194355 16.3163 -0.166437 14.9555 0.729842C13.4071 -0.10653 11.3246 -0.211222 9.6565 0.483234C8.80258 0.171953 7.87998 0.0119022 6.9475 0.0132837C3.2417 0.0132837 0.2268 2.48052 0.2268 5.51368C0.2268 8.54683 3.2417 11.0147 6.9475 11.0147C9.1546 11.0147 11.1825 10.144 12.4439 8.67014C13.3199 8.61978 14.1668 8.38843 14.9079 7.99707C15.6489 7.60572 16.2606 7.06677 16.6873 6.42915C17.4304 6.55148 18.2004 6.48792 18.9 6.24652C19.3289 6.63028 19.8485 6.93636 20.4263 7.14563C21.0041 7.35489 21.6276 7.46283 22.2579 7.46269C22.8957 7.46409 23.5267 7.35418 24.1101 7.14007C24.6935 6.92596 25.2162 6.61242 25.6445 6.21977C26.4635 6.59766 27.4187 6.71861 28.336 6.5606C28.5502 6.81826 28.8064 7.04742 29.0969 7.23993C29.4455 8.53288 30.8497 9.47917 32.4856 9.47917C32.9819 9.47917 33.4663 9.3931 33.9136 9.22559C34.2748 9.51582 34.7249 9.71415 35.2191 9.79848C35.2996 9.96367 35.413 10.1137 35.5502 10.2463H34.7823L34.5198 14.7504L34.2566 19.2539L33.9941 23.758L33.7323 28.2615L33.4698 32.7661V22.0422H25.5948L17.7198 16.6802V22.0422L9.8448 16.6802V22.0422L1.9698 16.6802V32.7656H0.6566C0.484043 32.7649 0.318186 32.821 0.19519 32.9216C0.0721927 33.0221 0.00203064 33.159 0 33.3024V34.3743C0 34.6692 0.2947 34.9106 0.6566 34.9106H41.3441C41.5165 34.9112 41.6821 34.8552 41.805 34.7547C41.9279 34.6543 41.998 34.5175 42 34.3743V33.3024C41.998 33.1592 41.9279 33.0224 41.805 32.922C41.6821 32.8215 41.5165 32.7655 41.3441 32.7661ZM34.6815 8.17576L34.2944 7.64997L33.6847 8.00186C33.3326 8.20596 32.9135 8.31538 32.4842 8.31535C31.444 8.31535 30.5606 7.67789 30.4297 6.83338L30.3884 6.57049L30.1231 6.42392C29.7666 6.22326 29.4804 5.94773 29.2936 5.62535L29.0213 5.16122L28.434 5.33105C27.4715 5.60906 26.6287 5.44505 25.9189 4.98208L25.3218 4.59065L24.9025 5.11992C24.6143 5.48364 24.2214 5.78192 23.7596 5.98776C23.2977 6.19361 22.7813 6.30054 22.2572 6.29887C21.7489 6.29955 21.2479 6.19866 20.7964 6.00471C20.3449 5.81077 19.9562 5.52945 19.663 5.18448L19.2899 4.74303L18.732 5.01872C18.0663 5.34792 17.3467 5.42993 16.5452 5.19088L15.9131 5.00243L15.6604 5.51891C15.0682 6.72869 13.6549 7.51329 12.0589 7.51795L11.6739 7.51911L11.4688 7.78956C10.4888 9.0796 8.7983 9.85025 6.9475 9.85025C4.0138 9.85025 1.6268 7.90414 1.6268 5.51252C1.6268 3.12205 4.0131 1.17653 6.9475 1.17653C7.7931 1.17653 8.6065 1.33764 9.3646 1.65462L9.7069 1.7977L10.0366 1.63543C11.4429 0.942715 13.3182 1.07125 14.56 1.92973L15.0738 2.28452L15.5246 1.87505C15.7634 1.65472 16.0553 1.47864 16.3815 1.35829C16.7076 1.23793 17.0606 1.176 17.4174 1.17653C18.0961 1.17421 18.7481 1.39573 19.2304 1.79246L19.6903 2.16994L20.1796 1.81864C20.7569 1.40435 21.4944 1.17644 22.2572 1.17653C23.1217 1.17653 23.9295 1.45803 24.5301 1.96986L25.0621 2.42236L25.5605 1.94369C25.8084 1.70392 26.1155 1.5113 26.4609 1.37893C26.8064 1.24655 27.1821 1.17752 27.5625 1.17653C28.644 1.17653 29.603 1.70755 30.0062 2.5288L30.2407 3.00747L30.8406 2.86963C31.0926 2.81147 31.3019 2.78471 31.4993 2.78471C32.8503 2.78471 33.9486 3.67808 33.9486 4.77618C33.9486 4.87157 33.9297 4.96288 33.9087 5.07397L33.8604 5.33803L34.0697 5.54101C34.293 5.7568 34.4421 5.99642 34.5135 6.25292L34.6815 6.85781L35.3962 6.67925C35.539 6.64319 35.6559 6.6269 35.7644 6.6269C36.4637 6.6269 37.0335 7.08755 37.0335 7.65405C37.0335 7.76165 37.0076 7.87332 36.9537 7.9972L36.7297 8.50845L37.3289 8.72772C37.4346 8.76507 37.525 8.8271 37.5891 8.90628C37.6532 8.98546 37.6883 9.0784 37.6901 9.17382C37.6901 9.44486 37.415 9.66471 37.0776 9.66471C36.927 9.66698 36.7809 9.62173 36.6688 9.53809C36.5567 9.45446 36.4869 9.33864 36.4735 9.21396L36.4203 8.68061L35.7266 8.68119C35.5154 8.67641 35.309 8.62763 35.1264 8.53931C34.9438 8.451 34.7908 8.32599 34.6815 8.17576ZM35.3577 18.3815L35.5187 15.6228H37.9806L38.1409 18.3815H35.3577ZM34.8334 27.389L34.9937 24.6304H38.5056L38.6666 27.389H34.8334ZM31.9816 34.4616H27.0816V33.9846H31.9816V34.4616ZM32.0691 27.4042V31.6035H31.85V27.4042H32.0691ZM27.9125 32.4753V27.6944H31.15V32.4753H27.9125ZM27.7375 33.6932V33.057H31.325V33.6932H27.7375ZM10.1717 27.6723H17.3908V29.5498H10.1717V27.6723ZM9.5158 29.5492H3.3691V27.6717H9.5158V29.5492ZM18.0467 27.6723H24.9375V29.5498H18.0467V27.6723ZM18.0467 27.136V25.2591H24.9375V27.136H18.0467ZM17.3908 27.136H10.1717V25.2591H17.3908V27.136ZM9.5158 27.136H3.3691V25.2591H9.5158V27.136Z" fill="#61CC1F"/>
</svg>
