<svg width="42" height="35" viewBox="0 0 42 35" fill="none" xmlns="http://www.w3.org/2000/svg">
<path d="M41.3441 32.8492H40.0316L39.7691 28.3313L39.5059 23.8146L39.2434 19.2973L38.9816 14.7805L38.7191 10.2632H38.598C38.9134 9.96632 39.0885 9.58402 39.0908 9.18753C39.0908 8.70628 38.836 8.25595 38.4097 7.9462C38.4258 7.8517 38.4342 7.7572 38.4342 7.66386C38.4342 6.42486 37.163 5.39937 35.6629 5.46937C35.5716 5.30401 35.4614 5.14637 35.3339 4.99862C35.3437 4.9257 35.3486 4.85278 35.3486 4.77753C35.3486 3.03278 33.6217 1.61354 31.4993 1.61354C31.3452 1.61361 31.1913 1.62258 31.0387 1.64037C30.6811 1.13816 30.1722 0.722576 29.5625 0.43484C28.9527 0.147104 28.2632 -0.00278557 27.5625 3.91992e-05C26.6309 0.00100898 25.7284 0.270596 25.0082 0.763038C24.2161 0.264638 23.2497 -0.00340631 22.2572 3.91992e-05C21.3654 0.000104795 20.493 0.217026 19.747 0.624205C18.3652 -0.208211 16.3163 -0.18021 14.9555 0.718705C13.4071 -0.120127 11.3246 -0.225127 9.6565 0.471372C8.80258 0.159175 7.87998 -0.00134634 6.9475 3.91992e-05C3.2417 3.91992e-05 0.2268 2.47454 0.2268 5.51662C0.2268 8.55869 3.2417 11.0338 6.9475 11.0338C9.1546 11.0338 11.1825 10.1605 12.4439 8.68236C13.3199 8.63186 14.1668 8.39982 14.9079 8.00731C15.6489 7.61481 16.2606 7.07427 16.6873 6.43478C17.4304 6.55747 18.2004 6.49372 18.9 6.25161C19.3289 6.6365 19.8485 6.94348 20.4263 7.15336C21.0041 7.36324 21.6276 7.4715 22.2579 7.47136C22.8957 7.47277 23.5267 7.36253 24.1101 7.14779C24.6935 6.93305 25.2162 6.61859 25.6445 6.22478C26.4635 6.60378 27.4187 6.72509 28.336 6.56661C28.5502 6.82503 28.8064 7.05486 29.0969 7.24795C29.4455 8.54469 30.8497 9.49378 32.4856 9.49378C32.9819 9.49378 33.4663 9.40744 33.9136 9.23944C34.2748 9.53053 34.7249 9.72944 35.2191 9.81403C35.2996 9.97969 35.413 10.1302 35.5502 10.2632H34.7823L34.5198 14.7805L34.2566 19.2973L33.9941 23.8146L33.7323 28.3313L33.4698 32.8492V22.0938H25.5948L17.7198 16.716V22.0938L9.8448 16.716V22.0938L1.9698 16.716V32.8487H0.6566C0.484043 32.848 0.318186 32.9043 0.19519 33.0051C0.0721927 33.106 0.00203064 33.2433 0 33.3871V34.4622C0 34.7579 0.2947 35 0.6566 35H41.3441C41.5165 35.0006 41.6821 34.9444 41.805 34.8437C41.9279 34.7429 41.998 34.6058 42 34.4622V33.3871C41.998 33.2434 41.9279 33.1063 41.805 33.0056C41.6821 32.9048 41.5165 32.8486 41.3441 32.8492V32.8492ZM34.6815 8.18653L34.2944 7.6592L33.6847 8.01211C33.3326 8.21682 32.9135 8.32656 32.4842 8.32653C31.444 8.32653 30.5606 7.6872 30.4297 6.8402L30.3884 6.57653L30.1231 6.42953C29.7666 6.22829 29.4804 5.95195 29.2936 5.62862L29.0213 5.16312L28.434 5.33345C27.4715 5.61228 26.6287 5.44778 25.9189 4.98345L25.3218 4.59087L24.9025 5.1217C24.6143 5.48649 24.2214 5.78564 23.7596 5.9921C23.2977 6.19855 22.7813 6.30579 22.2572 6.30411C21.7489 6.3048 21.2479 6.20361 20.7964 6.0091C20.3449 5.81458 19.9562 5.53243 19.663 5.18645L19.2899 4.7437L18.732 5.0202C18.0663 5.35037 17.3467 5.43262 16.5452 5.19287L15.9131 5.00387L15.6604 5.52187C15.0682 6.7352 13.6549 7.52211 12.0589 7.52678L11.6739 7.52795L11.4688 7.7992C10.4888 9.09303 8.7983 9.86594 6.9475 9.86594C4.0138 9.86594 1.6268 7.91411 1.6268 5.51545C1.6268 3.11795 4.0131 1.1667 6.9475 1.1667C7.7931 1.1667 8.6065 1.32829 9.3646 1.6462L9.7069 1.7897L10.0366 1.62695C11.4429 0.932205 13.3182 1.06112 14.56 1.92212L15.0738 2.27795L15.5246 1.86729C15.7634 1.6463 16.0553 1.46971 16.3815 1.349C16.7076 1.22829 17.0606 1.16618 17.4174 1.1667C18.0961 1.16438 18.7481 1.38656 19.2304 1.78445L19.6903 2.16304L20.1796 1.8107C20.7569 1.3952 21.4944 1.16662 22.2572 1.1667C23.1217 1.1667 23.9295 1.44904 24.5301 1.96237L25.0621 2.4162L25.5605 1.93612C25.8084 1.69565 26.1155 1.50246 26.4609 1.3697C26.8064 1.23693 27.1821 1.1677 27.5625 1.1667C28.644 1.1667 29.603 1.69929 30.0062 2.52295L30.2407 3.00304L30.8406 2.86479C31.0926 2.80645 31.3019 2.77962 31.4993 2.77962C32.8503 2.77962 33.9486 3.67562 33.9486 4.77695C33.9486 4.87262 33.9297 4.9642 33.9087 5.07562L33.8604 5.34045L34.0697 5.54403C34.293 5.76045 34.4421 6.00078 34.5135 6.25803L34.6815 6.8647L35.3962 6.68561C35.539 6.64945 35.6559 6.63311 35.7644 6.63311C36.4637 6.63311 37.0335 7.09511 37.0335 7.66328C37.0335 7.7712 37.0076 7.8832 36.9537 8.00745L36.7297 8.5202L37.3289 8.74011C37.4346 8.77757 37.525 8.83978 37.5891 8.9192C37.6532 8.99861 37.6883 9.09182 37.6901 9.18753C37.6901 9.45936 37.415 9.67986 37.0776 9.67986C36.927 9.68213 36.7809 9.63675 36.6688 9.55287C36.5567 9.46899 36.4869 9.35282 36.4735 9.22778L36.4203 8.69286L35.7266 8.69344C35.5154 8.68865 35.309 8.63972 35.1264 8.55115C34.9438 8.46258 34.7908 8.3372 34.6815 8.18653V8.18653ZM35.3577 18.4223L35.5187 15.6555H37.9806L38.1409 18.4223H35.3577ZM34.8334 27.4563L34.9937 24.6896H38.5056L38.6666 27.4563H34.8334ZM31.9816 34.5497H27.0816V34.0713H31.9816V34.5497ZM32.0691 27.4715V31.6832H31.85V27.4715H32.0691V27.4715ZM27.9125 32.5576V27.7626H31.15V32.5576H27.9125ZM27.7375 33.7791V33.1409H31.325V33.7791H27.7375ZM10.1717 27.7404H17.3908V29.6234H10.1717V27.7404ZM9.5158 29.6228H3.3691V27.7398H9.5158V29.6228V29.6228ZM18.0467 27.7404H24.9375V29.6234H18.0467V27.7404ZM18.0467 27.2026V25.3202H24.9375V27.2026H18.0467ZM17.3908 27.2026H10.1717V25.3202H17.3908V27.2026V27.2026ZM9.5158 27.2026H3.3691V25.3202H9.5158V27.2026Z" fill="#4B9111"/>
</svg>
