<svg width="42" height="37" viewBox="0 0 42 37" fill="none" xmlns="http://www.w3.org/2000/svg">
<path d="M35.1867 29.7156C33.9064 30.0589 32.5402 30.1693 31.2969 30.5939C33.4028 28.7858 33.2826 25.988 34.6876 23.8584C35.1351 23.2555 35.5051 22.6235 36.0268 22.0513C35.1722 23.768 35.5428 25.9954 34.561 27.6613C34.1831 28.3231 33.6425 28.9651 33.0448 29.4849C33.2401 29.4776 33.411 29.3083 33.5828 29.1952C35.1775 27.6016 37.2609 27.156 38.986 25.8613C39.6771 25.3099 40.31 24.5874 40.6138 23.8059C40.2873 26.4498 37.6606 28.9279 35.1868 29.7157L35.1867 29.7156Z" fill="#4B9111"/>
<path d="M40.9311 19.0104C40.1509 20.1222 39.207 21.1572 38.4862 22.2871C38.5666 21.3925 38.6724 20.2925 38.3244 19.445C37.7213 17.62 37.1915 15.7671 37.0205 13.7643L37.0441 12.9984C37.4979 15.0438 39.5044 16.4498 39.3778 18.7441C39.4237 19.3001 39.252 19.7729 39.148 20.2618L39.1825 20.2979L39.2729 20.1965C39.5704 19.0711 39.7206 17.8877 40.1832 16.8377C40.8407 15.3267 41.6617 13.8019 41.3272 11.9775C42.3273 14.1284 42.0242 17.0022 40.9311 19.0104L40.9311 19.0104Z" fill="#4B9111"/>
<path d="M39.701 7.42302C41.0167 9.2085 41.3051 12.0538 40.3468 14.1018C39.9896 14.9698 39.7373 15.8946 39.5971 16.8552C39.5301 16.6895 39.5148 16.4668 39.455 16.2821C38.9317 14.2774 37.0383 12.8487 36.2597 10.9587C36.0128 10.3406 35.8023 9.70201 35.6855 9.03103C36.5175 10.5719 38.568 11.3679 39.1269 13.066C39.3558 13.4955 39.343 14.0321 39.485 14.4939C39.5148 14.4939 39.5447 14.4717 39.5447 14.4414C39.2986 12.6921 39.3737 10.8613 39.6108 9.13372C39.5971 8.19796 39.5059 7.29026 38.9867 6.56592C39.3196 6.76015 39.4696 7.13321 39.7011 7.42296L39.701 7.42302Z" fill="#4B9111"/>
<path d="M38.7718 7.08026C39.1173 8.64483 38.6125 10.1686 38.93 11.7482L38.9182 11.7618C38.0682 10.0881 36.2636 9.2981 35.022 7.95853C34.3024 7.16364 33.9895 6.19479 33.8096 5.16896C34.521 6.88651 36.4408 7.26495 37.543 8.71232C37.9118 9.04599 38.0321 9.50822 38.2699 9.88666L38.3088 9.84907C37.6749 8.49415 37.4626 6.96937 37.0203 5.52439C36.7989 4.89824 36.3594 4.28305 35.7699 3.88818C37.2167 4.18427 38.4706 5.6968 38.7718 7.08024L38.7718 7.08026Z" fill="#4B9111"/>
<path d="M34.903 3.49236C35.9926 4.46892 36.4855 5.73331 36.8037 7.04343L36.9837 7.45949C35.4022 6.32047 33.9654 4.78937 32.9556 3.17236L31.7222 1.92285C32.8064 2.38324 33.9755 2.65805 34.9031 3.49236L34.903 3.49236Z" fill="#4B9111"/>
<path d="M9.92578 2.13037C8.83256 3.09004 8.07437 4.30378 7.26329 5.43555C6.53629 6.33692 5.60634 6.93126 4.78223 7.70641C5.22713 6.78283 5.24337 5.67967 5.87444 4.83126C6.77235 3.26253 8.43747 2.71068 9.92578 2.13037V2.13037Z" fill="#4B9111"/>
<path d="M3.94711 5.47231C4.47881 4.81043 5.1529 4.35048 5.91148 4.15625C4.43859 5.16943 4.53443 6.98522 4.06747 8.49465C3.9186 9.05282 3.66005 9.56705 3.53124 10.1393L3.56872 10.1691C3.8138 9.52229 4.24455 8.91113 4.78215 8.38334C5.82826 7.41634 7.37579 6.81368 7.88847 5.38312C7.86503 7.37093 6.20901 8.93372 4.62447 10.0509C3.97104 10.6249 3.34095 11.2792 2.9811 12.0171C2.94582 11.5155 3.05513 11.012 3.0195 10.4748C2.84719 8.73949 2.72197 6.75885 3.9471 5.47225L3.94711 5.47231Z" fill="#4B9111"/>
<path d="M0.967651 11.4066C0.923323 9.64808 1.65218 8.21266 2.67926 6.90246C2.70909 6.88753 2.73032 6.85767 2.76873 6.86487C1.63812 8.58528 2.57344 10.7523 2.52191 12.7085L2.3728 14.7113C2.39496 14.7258 2.39496 14.786 2.44741 14.7629C2.51425 14.5397 2.52876 14.3011 2.57343 14.0715C2.83975 12.456 4.24086 11.3096 5.46462 10.1932C5.72595 9.9012 5.95699 9.60471 6.09125 9.26207C5.99133 10.0665 5.73952 10.8778 5.40625 11.6217C4.45376 13.4817 2.69426 15.0079 2.3728 17.1374C2.21685 15.0967 0.829358 13.5709 0.967687 11.4066L0.967651 11.4066Z" fill="#4B9111"/>
<path d="M0.110813 13.907C0.237414 13.357 0.334191 12.7879 0.573237 12.2832C0.120328 14.6079 1.6818 16.283 2.19402 18.298C2.40834 19.0517 2.4608 19.8611 2.76726 20.5683C2.7958 20.5838 2.82064 20.5539 2.83828 20.5313C2.07565 18.3907 3.17654 16.4016 4.28279 14.7257C4.55178 14.2715 4.70681 13.7658 4.8406 13.2439C4.95815 14.2127 4.71354 15.3283 4.57301 16.3341C4.30403 17.6139 3.90252 18.8277 3.55305 20.0695C3.32305 20.8455 3.38351 21.7209 3.50164 22.5339L3.39082 22.4453C2.57982 20.9477 0.973917 19.7796 0.497012 18.1435C0.104563 16.8392 -0.156297 15.3282 0.11094 13.907L0.110813 13.907Z" fill="#4B9111"/>
<path d="M0.0382641 18.446C0.216851 20.91 2.86291 22.212 4.08952 24.252C4.37974 24.6694 4.63155 25.1311 5.01935 25.4806C4.95878 25.2181 4.71416 24.9972 4.62435 24.7283C4.19523 23.8727 4.0388 22.8532 4.14196 21.8191C4.26079 20.5605 4.78796 19.3926 4.58675 18.0688C5.66455 20.3958 5.33719 23.3005 5.93982 25.8219C6.09763 26.3734 6.4164 26.8659 6.62527 27.393C4.41085 25.8827 1.39135 24.4458 0.408939 21.6779C-0.00509282 20.7235 -0.0512798 19.542 0.0383027 18.4461L0.0382641 18.446Z" fill="#4B9111"/>
<path d="M1.36137 24.1052C2.59608 26.9022 5.68829 27.1339 7.76161 28.837C8.14316 29.1756 8.54293 29.4636 8.97365 29.6644L8.99581 29.6419C8.51981 29.2109 7.96921 28.7201 7.63596 28.1615C6.42253 26.472 6.84932 24.1052 5.94015 22.2881C6.76627 23.2777 7.51752 24.3063 8.01625 25.4289C8.7581 27.2615 9.04161 29.3313 10.7582 30.7166C8.90043 30.1035 6.72409 30.2748 5.08442 29.1294C3.29416 28.0275 1.69636 26.1587 1.36133 24.1052L1.36137 24.1052Z" fill="#4B9111"/>
<path d="M4.53516 29.3235C6.51479 31.5781 9.74957 30.8257 12.3869 31.4158C12.7594 31.4667 13.1003 31.6162 13.4951 31.5555C13.1807 31.3563 12.7445 31.3779 12.4014 31.1969C10.3343 30.4697 10.0312 28.2288 8.90903 26.7178C10.3426 27.6711 11.5478 28.9568 12.8703 30.2027C13.8209 31.0365 14.9652 31.4214 16.1709 31.6668C15.8811 31.7728 15.5013 31.7437 15.1903 31.8253C13.0243 32.3587 10.6178 33.2304 8.32078 32.45C6.82746 31.9791 5.28679 30.7967 4.53539 29.3235H4.53516Z" fill="#4B9111"/>
<path d="M31.4033 34.5777C29.1725 35.4113 26.8444 34.5395 25.102 33.2165C24.3966 32.7675 23.7747 32.121 22.8623 32.1781C22.5313 32.1718 22.2122 32.1881 21.9309 32.2694C23.6236 33.0582 25.196 34.1456 26.6336 35.5363C26.3913 35.8133 26.0776 36.0724 25.782 36.3114C24.3965 34.8166 22.8623 33.3778 21.1444 32.5374C20.808 32.5811 20.488 32.7837 20.1847 32.9469C18.7861 33.8323 17.4033 34.9713 16.3636 36.3657L15.4701 35.6269C16.8961 34.1825 18.4733 33.0582 20.1987 32.255C18.5032 31.7172 17.3965 33.1395 16.1095 33.863C14.6098 34.9116 12.453 35.4041 10.6405 34.6806C9.66571 34.3104 8.72138 33.7652 8.01562 32.879C9.44202 33.8629 11.5664 33.9662 13.1886 33.327C15.3653 32.3816 17.6271 31.1832 20.2512 31.7562C20.6607 31.7634 21.0586 32.1717 21.4455 31.8241C23.3959 31.317 25.6039 31.6656 27.283 32.5582L29.0136 33.2529C30.6222 33.8485 32.7019 33.6838 34.0807 32.7023C33.3718 33.5859 32.4035 34.219 31.4034 34.5776L31.4033 34.5777Z" fill="#4B9111"/>
<path d="M33.7935 32.27C31.2889 33.217 28.7692 32.0545 26.3693 31.6662L25.9072 31.6074V31.5927C27.0547 31.332 28.1686 30.9899 29.082 30.1642C30.4273 28.8693 31.6244 27.5365 33.1182 26.5161C32.0104 27.9385 31.8929 29.9632 30.0629 30.8776C29.61 31.1744 29.0384 31.2269 28.571 31.4517C29.2375 31.4661 29.8478 31.2269 30.5078 31.16C32.9618 30.7742 35.7692 31.17 37.4908 29.0766C36.8517 30.5353 35.251 31.7568 33.7935 32.27L33.7935 32.27Z" fill="#4B9111"/>
<path d="M38.3456 25.2132C37.3564 25.8615 36.3538 26.4627 35.4033 27.1998V27.1093C36.8592 24.6864 36.1475 21.358 37.0445 18.6915L37.379 17.7983C37.1918 19.4594 37.9123 20.8665 37.8617 22.5333C37.8111 23.5402 37.483 24.433 36.955 25.237H37.0444C37.7577 24.2989 38.3147 23.3012 39.1484 22.4076C40.4424 21.1581 41.7579 19.8769 41.9278 18.1429C42.3672 21.0376 40.7452 23.5746 38.3455 25.2134L38.3456 25.2132Z" fill="#4B9111"/>
<path fill-rule="evenodd" clip-rule="evenodd" d="M20.7749 18.9048H21.2237V30.1878H20.7749V18.9048Z" fill="#4B9111"/>
<path fill-rule="evenodd" clip-rule="evenodd" d="M18.3385 17.7959L18.6562 18.1143L10.6826 26.0864L10.3657 25.7679L18.3385 17.7959Z" fill="#4B9111"/>
<path fill-rule="evenodd" clip-rule="evenodd" d="M17.5775 15.4465L17.5767 15.896L6.30908 15.8821L6.30985 15.4326L17.5775 15.4465Z" fill="#4B9111"/>
<path fill-rule="evenodd" clip-rule="evenodd" d="M18.6464 13.2706L18.3295 13.5882L10.3628 5.6087L10.6805 5.29102L18.6464 13.2706Z" fill="#4B9111"/>
<path fill-rule="evenodd" clip-rule="evenodd" d="M21.2198 12.3435H20.771L20.781 1.06006L21.2298 1.06052L21.2198 12.3435Z" fill="#4B9111"/>
<path fill-rule="evenodd" clip-rule="evenodd" d="M23.4736 13.4191L23.1567 13.1007L31.135 5.1333L31.4519 5.45144L23.4736 13.4191Z" fill="#4B9111"/>
<path fill-rule="evenodd" clip-rule="evenodd" d="M24.345 15.9315L24.3442 15.4819L35.6118 15.4673L35.6126 15.9168L24.345 15.9315Z" fill="#4B9111"/>
<path fill-rule="evenodd" clip-rule="evenodd" d="M23.0425 18.2271L23.3602 17.9087L31.3337 25.8807L31.0168 26.1984L23.0425 18.2271Z" fill="#4B9111"/>
<path fill-rule="evenodd" clip-rule="evenodd" d="M25.202 4.37898C31.4078 6.70189 34.562 13.6302 32.242 19.8443C29.9222 26.0583 23.003 29.2166 16.7975 26.8937C10.5917 24.5709 7.4383 17.6424 9.75759 11.4284C12.0774 5.2142 18.9965 2.05607 25.2021 4.3789L25.202 4.37898ZM25.0204 4.86621C30.9573 7.08858 33.9748 13.7173 31.7555 19.6622C29.5363 25.6075 22.916 28.6289 16.9795 26.4065C11.0426 24.1844 8.02515 17.5554 10.2445 11.6105C12.4638 5.66542 19.0832 2.64376 25.0205 4.86613L25.0204 4.86621Z" fill="#4B9111"/>
<path fill-rule="evenodd" clip-rule="evenodd" d="M24.2027 7.12533C28.9867 8.91598 31.4176 14.2569 29.6297 19.0476C27.8414 23.8379 22.5075 26.2723 17.7237 24.4818C12.9402 22.6912 10.5088 17.3501 12.2969 12.5596C14.085 7.76933 19.4189 5.33484 24.2022 7.12541L24.2027 7.12533ZM24.0202 7.61535C28.5335 9.30476 30.8276 14.3445 29.1406 18.8644C27.4535 23.3844 22.4203 25.6814 17.9069 23.9918C13.3931 22.3024 11.099 17.2626 12.7863 12.7427C14.4736 8.2228 19.5062 5.92571 24.02 7.61535H24.0202Z" fill="#4B9111"/>
<path fill-rule="evenodd" clip-rule="evenodd" d="M23.3047 9.46123C26.7096 10.7356 28.4399 14.537 27.1674 17.946C25.8943 21.3553 22.0982 23.0882 18.6941 21.8136C15.2893 20.5391 13.559 16.7379 14.8318 13.3288C16.1045 9.91955 19.9006 8.18681 23.305 9.46115L23.3047 9.46123ZM23.1374 9.90965C26.295 11.0915 27.8998 14.6169 26.7195 17.7792C25.5389 20.941 22.0186 22.5478 18.8607 21.3658C15.7032 20.1841 14.0986 16.6586 15.2787 13.4963C16.4591 10.3347 19.9795 8.72768 23.1367 9.90957L23.1374 9.90965Z" fill="#4B9111"/>
<path fill-rule="evenodd" clip-rule="evenodd" d="M22.2538 12.2744C24.1073 12.9682 25.0493 15.0374 24.3565 16.8935C23.6636 18.7493 21.5974 19.6926 19.7438 18.9987C17.8903 18.305 16.9484 16.2358 17.6412 14.3797C18.3341 12.5238 20.4007 11.5806 22.2538 12.2743V12.2744ZM22.0727 12.7595C23.659 13.3531 24.4648 15.1239 23.8722 16.7122C23.2791 18.3003 21.511 19.1074 19.9251 18.5138C18.3388 17.9201 17.5329 16.1494 18.1255 14.5611C18.7186 12.9729 20.4871 12.1657 22.0727 12.7595V12.7595Z" fill="#4B9111"/>
<path fill-rule="evenodd" clip-rule="evenodd" d="M27.9998 2.59759C35.2583 6.5975 38.0137 15.6857 34.149 22.8828C30.285 30.0807 21.2576 32.6761 13.9995 28.6763C6.74115 24.6765 3.98566 15.5882 7.8504 8.39031C11.7146 1.19248 20.7419 -1.40301 27.9999 2.59698L27.9998 2.59759ZM27.7458 3.07117C34.7408 6.92573 37.3957 15.6835 33.6715 22.62C29.9478 29.5563 21.248 32.0579 14.2537 28.203C7.25859 24.3481 4.60381 15.5899 8.32783 8.65415C12.0515 1.71771 20.7512 -0.783702 27.7464 3.07132L27.7458 3.07117Z" fill="#4B9111"/>
<path d="M29.7612 22.6105C29.7697 22.6877 29.7432 22.8777 29.7792 22.9214C29.8165 22.9806 29.9555 22.968 30.0157 22.9471C30.1802 22.8851 30.344 22.6674 30.42 22.5042C30.4735 22.4214 30.5095 22.3244 30.4977 22.2158L30.3826 21.8666C30.3538 21.7442 30.3152 21.5289 30.1848 21.4781C30.197 21.4456 30.2383 21.395 30.2334 21.3486C30.2032 21.2106 29.973 21.2468 29.8907 21.3481C29.8493 21.3988 29.861 21.507 29.8521 21.5703C29.8498 21.6958 29.8147 21.949 29.7648 22.063C29.7149 22.1767 29.5751 22.33 29.5732 22.4554C29.5831 22.5481 29.6826 22.6017 29.7612 22.6105ZM22.0993 21.6417L22.1402 21.7318C22.142 21.7473 22.1604 21.7768 22.1762 21.7755C22.2805 21.8756 22.4266 21.6435 22.2522 21.6124C22.2365 21.6138 22.2041 21.6009 22.1902 21.6178C22.1596 21.6208 22.1285 21.6235 22.0993 21.6417ZM22.2149 21.4125C22.1443 21.4812 22.1186 21.5305 22.2333 21.5827L22.2149 21.4125ZM20.3541 20.0477C20.2408 20.1515 20.2494 20.0885 20.1914 20.1249C20.1482 20.1598 20.1842 20.2035 20.1446 20.2697C20.1324 20.3021 20.0875 20.3217 20.0911 20.3528C20.0807 20.4005 20.1302 20.4273 20.1783 20.4386C20.2417 20.4484 20.427 20.432 20.485 20.3956C20.5421 20.3435 20.5196 20.283 20.5457 20.2336C20.5596 20.2168 20.5871 20.183 20.601 20.1661C20.6077 20.0874 20.4418 19.9928 20.3541 20.0477ZM24.822 19.5682L24.8386 19.7228L24.8206 19.8496C24.9888 19.8188 25.0923 19.7627 25.2415 19.7023C25.286 19.6827 25.3751 19.6433 25.4096 19.6715C25.4592 19.6985 25.4331 19.7476 25.4209 19.78C25.3966 19.8446 25.3004 19.9628 25.259 20.0135C25.1336 20.1497 24.9484 20.1664 24.7918 20.3055C24.7077 20.3913 24.6853 20.4714 24.6007 20.5572C24.5167 20.6427 24.4564 20.6639 24.4132 20.699C24.3719 20.7497 24.4065 20.7778 24.3188 20.8326L24.3687 20.7189C24.3211 20.7074 24.259 20.713 24.223 20.6691C24.2028 20.6243 24.1978 20.5777 24.2082 20.53C24.2294 20.4343 24.2486 20.1824 24.304 20.1148C24.3179 20.0979 24.438 20.0558 24.4825 20.0362L24.4618 20.1319C24.5081 20.1279 24.5851 20.1209 24.6142 20.1026C24.6898 20.0802 24.7657 19.9169 24.8053 19.8509L24.5958 19.9322C24.6323 19.8352 24.7357 19.6384 24.822 19.5682ZM20.6801 20.034C20.6487 20.1776 20.7364 20.1227 20.7894 20.1805C20.8236 20.2087 20.8286 20.2551 20.8335 20.3017L20.7116 20.3282L20.6581 20.4111L20.5893 20.4955L20.7984 20.5549C20.6936 20.5955 20.6302 20.5856 20.5632 20.6855L20.8254 20.6619C20.9967 20.6621 21.1253 20.6975 21.2867 20.6047L21.2526 20.5766L21.2993 20.4316L21.1829 20.364L21.1419 20.274L20.9459 20.0414L20.8807 20.0159C20.936 19.9484 21.0475 19.8289 20.8883 19.7964L20.8096 19.7879L20.8785 19.7035C20.784 19.6965 20.7053 19.6879 20.6347 19.7568C20.552 19.8579 20.5497 19.9831 20.6801 20.034ZM20.5889 18.0257L20.5853 18.1354L20.5493 18.0917L20.5538 18.2788C20.5812 18.3859 20.7013 18.3439 20.7287 18.3101C20.7579 18.2919 20.7665 18.2284 20.7633 18.1975C20.7602 18.1667 20.7413 18.137 20.7242 18.123C20.6914 18.1101 20.6761 18.1115 20.6451 18.1142L20.6352 18.0215L20.5889 18.0257ZM7.87015 19.0121C7.86406 19.2471 7.92585 19.2414 7.97824 19.44C8.00545 19.547 7.96252 19.5821 8.04752 19.7933C8.08843 19.8836 8.11361 19.975 8.21119 20.013C8.18311 19.7498 8.15091 19.5965 8.06278 19.3543C7.99983 19.2036 7.95173 19.1924 7.9009 19.0091L7.87015 19.0121ZM29.1917 16.4399C29.118 16.4777 29.0919 16.527 29.1003 16.6042C29.0931 16.6832 29.1615 16.7395 29.237 16.717C29.3418 16.6764 29.3598 16.409 29.1917 16.4399ZM14.6023 16.4061C14.5643 16.4878 14.5571 16.5666 14.641 16.6216C14.6327 16.5443 14.6551 16.4639 14.6023 16.4061ZM19.1606 16.4813L19.212 16.5236C19.3253 16.4196 19.3496 16.3548 19.4324 16.2537C19.5011 16.1692 19.5475 16.1652 19.5904 16.1301C19.6178 16.0963 19.6145 16.0652 19.6248 16.0175C19.6491 15.9526 19.6938 15.9331 19.6823 15.8248C19.6878 15.7305 19.6264 15.5953 19.52 15.6205L19.4962 15.5445C19.4499 15.5486 19.3744 15.571 19.3314 15.6061C19.2885 15.6413 19.3105 15.7018 19.2539 15.7538C19.185 15.8381 19.065 15.8801 19.0358 15.8984C18.991 15.9182 19.0115 15.9632 18.9391 16.0166C18.8379 16.0882 18.7711 16.0472 18.7111 16.0684C18.6355 16.0907 18.5236 16.2102 18.4669 16.2622C18.3842 16.3633 18.3602 16.4281 18.3255 16.5407C18.3134 16.5729 18.2875 16.6222 18.3062 16.6519C18.3248 16.6815 18.3712 16.6772 18.4006 16.6589C18.4606 16.638 18.5928 16.5637 18.641 16.575C18.687 16.5707 18.7059 16.6003 18.7385 16.613C18.7864 16.6242 18.8172 16.6216 18.8498 16.6342C18.8822 16.647 18.9181 16.6906 18.9523 16.7188C19.0344 16.7582 19.1171 16.6571 19.1414 16.5925C19.1535 16.5601 19.1655 16.5277 19.1606 16.4813ZM19.2503 15.2851L19.2521 15.3007L19.2347 15.2866L19.2503 15.2851ZM19.3869 15.3979C19.4279 15.4881 19.5785 15.5839 19.6639 15.6545C19.6931 15.6362 19.7069 15.6193 19.719 15.587C19.757 15.5054 19.7404 15.3505 19.6581 15.311C19.6087 15.2842 19.5484 15.3053 19.5039 15.3249C19.5021 15.3094 19.4818 15.2644 19.4648 15.2502C19.3433 15.1361 19.1914 15.4624 19.3869 15.3979ZM18.7415 15.1903C18.8456 15.2903 18.8474 15.3057 18.9863 15.2932C18.9651 15.3889 18.8415 15.5408 18.7403 15.4718C18.6738 15.4308 18.667 15.3689 18.6347 15.3561C18.585 15.3294 18.5812 15.4391 18.5537 15.4728C18.488 15.5881 18.3784 15.5824 18.3676 15.771L18.426 15.7343C18.4854 15.8541 18.5955 15.7192 18.6695 15.6813C18.6558 15.6982 18.6282 15.732 18.6162 15.7642C18.6054 15.8122 18.6569 15.8545 18.7017 15.8347C18.7462 15.8151 18.7997 15.732 18.8424 15.6969C18.8856 15.6619 18.9009 15.6605 18.9456 15.6407C18.9885 15.6057 19.0452 15.5537 19.0884 15.5186C19.2174 15.4132 19.2239 15.4751 19.2691 15.3147C19.2655 15.2838 19.2794 15.2669 19.2761 15.2359C19.2147 15.1007 18.9935 15.2144 18.9762 15.2005L18.8801 15.1777C18.8478 15.165 18.7875 15.1861 18.7415 15.1903ZM19.4546 15.1575L19.3775 15.1644L19.398 15.2094C19.489 15.1856 19.5506 15.18 19.5545 15.0702C19.4773 15.0772 19.4618 15.0785 19.4546 15.1575ZM14.5936 15.4534L14.522 15.8039L14.554 15.9572L14.6183 16.264C14.6579 16.1981 14.7289 15.9884 14.7361 15.9097L14.7537 15.7829C14.759 15.6887 14.7712 15.6564 14.7303 15.5662L14.6304 15.6533L14.6243 15.4507L14.5936 15.4534ZM19.6145 15.0492C19.6046 14.9563 19.6216 14.9705 19.7003 14.979L19.6992 14.8227C19.6545 14.8424 19.5929 14.848 19.5497 14.883C19.4809 14.9673 19.4895 15.0449 19.6145 15.0492ZM19.1558 14.8404L19.2087 14.8981C19.315 14.8729 19.3492 14.901 19.4451 14.9238L19.4076 14.8646L19.4472 14.7985C19.5398 14.7903 19.547 14.7113 19.5079 14.6367C19.4908 14.6226 19.4582 14.61 19.4412 14.5958C19.275 14.5014 19.2593 14.6435 19.2197 14.7096L19.1558 14.8404ZM19.5553 14.7888C19.5861 14.786 19.6172 14.7833 19.6464 14.7651C19.7031 14.713 19.6711 14.5595 19.6212 14.5328C19.5733 14.5215 19.5475 14.5706 19.5509 14.6016L19.5403 14.6496L19.5486 14.7269L19.5553 14.7888ZM14.5945 15.172C14.6495 15.1046 14.6687 14.9934 14.6759 14.9145C14.5729 14.9708 14.5828 15.0636 14.5945 15.172ZM15.1412 14.1693C15.1561 14.3087 15.1386 14.4353 15.09 14.5647C15.0279 14.7111 14.8782 14.9121 14.8467 15.0555L14.811 15.0118C14.7437 15.1117 14.7361 15.3313 14.7788 15.4368C14.8629 15.3511 14.8822 15.2399 14.9339 15.1415C15.0358 14.9292 15.1718 14.745 15.224 14.5058C15.233 14.4425 15.2456 14.2693 15.2078 14.2102C15.1891 14.1806 15.1736 14.1821 15.1412 14.1693ZM29.1939 14.5793C29.2749 14.4626 29.2965 14.2263 29.3275 14.0826C29.4008 13.7479 29.5555 13.5933 29.5105 13.1753C29.5006 13.0824 29.4651 12.898 29.354 12.8766C29.1809 12.861 29.2519 13.089 29.2416 13.1368C29.2466 13.1834 29.2344 13.2157 29.2222 13.2481C29.1463 13.4112 29.1818 13.5956 29.1845 13.7673L29.1517 14.333L29.1939 14.5793ZM26.6947 11.9119C26.6979 11.9428 26.7149 11.957 26.7338 11.9865C26.7509 12.0007 26.7681 12.0148 26.7851 12.0289C26.8845 12.0824 26.9362 11.9841 26.8984 11.9248C26.8801 11.8952 26.8166 11.8853 26.7856 11.8882C26.755 11.8909 26.724 11.8937 26.6947 11.9119ZM29.0032 11.6419C29.0181 11.7813 29.0739 12.0109 29.1337 12.1305L29.2699 12.384L29.4308 12.8698C29.5136 12.7685 29.4696 12.6474 29.4426 12.5404C29.3729 12.3279 29.2726 12.118 29.189 11.9224C29.131 11.8181 29.0887 11.7124 29.0032 11.6419ZM28.1502 11.3904L28.1377 11.5634L27.9267 11.4885C27.9232 11.5984 27.9722 11.7659 28.0594 11.8518L28.2289 11.9773C28.3656 12.0901 28.5041 12.2184 28.6269 12.348C28.7348 12.479 28.7397 12.5255 28.777 12.5846C28.8113 12.6127 28.8454 12.641 28.89 12.6213C28.9192 12.6031 28.9264 12.5243 28.9385 12.4919L28.9902 12.3935C29.0127 12.3133 28.9533 12.1936 28.9142 12.1189L28.8121 11.8937C28.7694 11.7881 28.7438 11.6966 28.6723 11.6092C28.5509 11.4951 28.4583 11.5034 28.3301 11.4679L28.1502 11.3904ZM23.8567 11.6041C23.8477 11.6675 23.8424 11.7618 23.7668 11.7842C23.7515 11.7856 23.6881 11.7757 23.671 11.7615L23.6121 11.9388C23.586 11.988 23.5375 12.1174 23.5429 12.164C23.5357 12.2426 23.6436 12.2329 23.6985 12.1655C23.7556 12.1135 23.7628 12.0347 23.8023 11.9686C23.8662 11.8378 23.9844 11.7802 23.9988 11.6227L23.8567 11.6041ZM28.6398 11.018C28.6858 11.1546 28.718 11.1674 28.7932 11.2857C28.8323 11.3603 28.822 11.4081 28.9127 11.3844C28.8584 11.3111 28.7069 11.0589 28.6398 11.018ZM22.1687 11.8495C21.9955 11.8339 22.1098 12.0268 22.0873 12.1069C22.0495 12.1886 21.8759 12.3136 21.7919 12.2586C21.7473 12.2783 21.701 12.2825 21.6529 12.2711C21.6052 12.2597 21.5711 12.2316 21.5248 12.2358L21.2788 12.4142C21.2356 12.4493 21.1776 12.4858 21.1156 12.4913C21.0697 12.4955 21.0077 12.5009 20.9802 12.5349C20.9371 12.5698 20.978 12.66 20.9987 12.705L21.072 12.8079C20.9209 12.8527 20.9325 12.961 20.9474 13.1005C20.9559 13.1778 20.9856 13.4566 21.0077 13.5171C21.0315 13.5932 21.1326 13.6622 21.2127 13.6862C21.2626 13.7131 21.3413 13.7215 21.3876 13.7175L21.3984 13.5288L21.4447 13.5248L21.4924 13.6769C21.5077 13.6754 21.5387 13.6727 21.554 13.6712L21.746 13.7166C21.7631 13.7307 21.7631 13.7307 21.7802 13.7447C21.8004 13.7898 21.7627 13.8714 21.7676 13.9179C21.7946 14.0248 21.9061 14.0461 21.9987 14.0377C21.9965 14.1629 22.0086 14.1306 22.0014 14.2094C22.0099 14.2869 21.9636 14.291 22.059 14.4544C22.0779 14.4839 22.117 14.5586 22.1633 14.5544C22.2096 14.5503 22.3058 14.4322 22.4088 14.376C22.4326 14.452 22.4344 14.4676 22.501 14.5085L22.4785 14.5886L22.6538 14.4791C22.6017 14.7183 22.5023 14.6646 22.394 14.8151C22.3557 14.8967 22.3796 14.9727 22.3571 15.0529L22.3742 15.067L22.4326 15.0305L22.4772 15.0109C22.6143 14.9828 22.5078 15.1488 22.5109 15.1797C22.5158 15.2263 22.5487 15.2388 22.581 15.2517L22.5086 15.305L22.5513 15.4106L22.2735 15.4356C22.1363 15.4636 22.0225 15.5676 21.9074 15.6561L21.911 15.687L21.9587 15.6983L21.6925 15.8317C21.773 15.8556 21.8778 15.8151 21.9551 15.8081C22.0306 15.7856 22.0167 15.8027 22.108 15.7786L22.1574 15.8057L22.1484 15.8689L22.4875 15.979C22.568 16.0031 22.6265 15.9666 22.6764 15.9934C22.7429 16.0344 22.7204 16.1145 22.8319 16.1357C22.9601 16.1711 23.0617 16.0995 23.1678 16.0743L23.0424 16.2107L23.1004 16.3149L23.2515 16.2701C23.1395 16.3895 23.1449 16.2953 22.929 16.3147C22.9785 16.3415 23.1255 16.4063 23.1584 16.4191C23.2389 16.4433 23.2816 16.4079 23.3949 16.4448C23.4907 16.4673 23.6071 16.5351 23.6382 16.3914C23.657 16.4212 23.6759 16.4507 23.693 16.4649C23.7425 16.4917 23.7735 16.4889 23.8217 16.5002C23.885 16.5101 24.0352 16.606 24.0285 16.6848C24.0145 16.7017 24.0006 16.7186 23.9872 16.7355C23.9664 16.6902 23.9462 16.6454 23.9102 16.6018C23.8217 16.5002 23.6858 16.5437 23.5743 16.5223L23.3499 16.4644L23.1768 16.4487C23.0828 16.4415 23.0298 16.3838 22.9372 16.3921C22.9061 16.3949 22.8616 16.4144 22.8652 16.4455C22.8683 16.4763 22.9025 16.5047 22.9196 16.5187C23.019 16.5722 22.983 16.5285 23.1337 16.6245C23.2173 16.6794 23.2465 16.6612 23.327 16.6852L23.4093 16.7249C23.4727 16.7348 23.4848 16.7024 23.5482 16.7123C23.5788 16.7096 23.6422 16.7195 23.675 16.7323L23.4071 16.8501L23.2016 16.8217C23.2425 16.9118 23.2596 16.926 23.1908 17.0101L23.153 16.9512C23.1116 17.0016 23.1152 17.0327 23.0739 17.0833L23.005 17.1675C22.9929 17.2 22.9515 17.2506 22.9205 17.2533C22.8742 17.2576 22.8216 17.1997 22.7869 17.1716C22.7204 17.1306 22.6894 17.1333 22.6139 17.1558C22.6705 17.2445 22.6997 17.2263 22.7816 17.2657C22.8486 17.3066 23.0194 17.4476 23.0725 17.5055C23.0567 17.5068 23.0415 17.5082 23.0294 17.5406C23.0019 17.5744 23.032 17.7123 23.068 17.7558C23.1022 17.7842 23.135 17.7968 23.1808 17.7928L22.997 17.9657C23.0775 17.9895 23.1067 17.9713 23.175 18.0278L23.0208 18.0415L22.8171 17.888L22.6049 17.7975C22.684 17.806 22.809 17.8105 22.8827 17.7725C23.015 17.6982 22.952 17.5476 22.8495 17.4629C22.7829 17.4219 22.7366 17.4262 22.6579 17.4177C22.5945 17.4077 22.497 17.3695 22.4349 17.3751L22.2667 17.4059L22.2775 17.358C22.2294 17.3467 22.2123 17.3325 22.1691 17.3677C22.1178 17.3253 22.1165 17.31 22.0531 17.3001L22.0612 17.3773L21.9911 17.3055L21.9843 17.3843C21.9466 17.3251 21.9448 17.3098 21.88 17.2844L21.9322 17.4827L21.9065 17.532C21.8207 17.6022 21.8215 17.7585 21.8319 17.8515C21.8516 18.0372 21.8103 18.0879 21.7946 18.2299C21.7905 18.3396 21.8265 18.3833 21.7968 18.5424C21.7883 18.6057 21.7293 18.7829 21.7033 18.8322L21.6345 18.9164L21.5828 19.0148C21.5567 19.0641 21.514 19.0992 21.4879 19.1485C21.4636 19.2131 21.4978 19.2415 21.5167 19.271C21.5423 19.3624 21.4771 19.3369 21.5846 19.4682L21.5297 19.5355L21.5913 19.5299C21.5567 19.6425 21.6268 19.7145 21.7329 19.6893C21.8085 19.6668 21.8912 19.5657 21.9137 19.4853L21.9448 19.4826L22.1525 19.8235C22.1885 19.8671 22.197 19.9446 22.2604 19.9545C22.3238 19.9644 22.3477 19.8998 22.3737 19.8505C22.4012 19.8167 22.4304 19.7985 22.4578 19.7647C22.496 19.6832 22.421 19.5648 22.4281 19.486C22.4367 19.4227 22.4798 19.3876 22.487 19.3088C22.4754 19.2005 22.3948 19.1764 22.3418 19.1185C22.2887 19.0609 22.2825 18.999 22.2739 18.9216C22.2555 18.7511 22.3431 18.6964 22.3593 18.5544C22.3647 18.46 22.3117 18.4024 22.3049 18.3403C22.3 18.2938 22.3103 18.2461 22.3567 18.2419C22.4632 18.2166 22.4762 18.3407 22.4848 18.418L22.4704 18.5755C22.4619 18.639 22.4358 18.6881 22.4443 18.7655C22.4664 18.8261 22.5024 18.8698 22.5226 18.9148C22.5585 18.9585 22.5635 19.0051 22.5977 19.0332C22.6301 19.0458 22.6471 19.0598 22.6782 19.0571C22.7105 19.0699 22.7429 19.0825 22.774 19.0798C22.8495 19.0573 22.9272 18.9096 22.9992 18.8565C23.0424 18.8212 23.1058 18.8313 23.1521 18.827C23.126 18.8763 23.0572 18.9607 23.0298 18.9943C22.9713 19.0307 22.8648 19.0559 22.8594 19.1503C22.8265 19.2784 22.9961 19.2631 22.9925 19.3727C22.9853 19.4515 22.8657 19.3529 22.8293 19.4499C22.7776 19.5483 22.8459 19.6049 22.8697 19.6809C22.8747 19.7274 22.849 19.7764 22.8382 19.8244C22.773 19.9397 22.7182 19.8664 22.6305 19.9212C22.5567 19.9592 22.4758 20.0758 22.4003 20.0984C22.3405 20.1193 22.2887 20.0769 22.2424 20.081C22.1808 20.0867 22.1291 20.1852 22.0266 20.1006C21.9223 20.0004 22.041 19.943 22.0153 19.8514L21.9524 19.7007C21.8647 19.7555 21.7789 19.826 21.8076 19.9484C21.8503 20.0538 21.9529 20.1384 21.8994 20.2213C21.8562 20.2564 21.7635 20.2647 21.6916 20.3181C21.6039 20.373 21.5127 20.5374 21.4834 20.5559C21.4402 20.591 21.3939 20.595 21.3512 20.6301L21.1961 20.7848C21.1826 20.8017 21.1826 20.8017 21.1686 20.8186L20.9753 20.7578L20.987 20.8661C20.9096 20.873 20.9097 20.873 20.8462 20.8632C20.7986 20.8516 20.7041 20.8447 20.6799 20.9093C20.6538 20.9586 20.7824 20.9939 20.8152 21.0065C21.0117 21.0984 21.0504 21.3137 20.9663 21.3997C20.9096 21.4514 20.8121 21.4134 20.7487 21.4035C20.6061 21.385 20.3818 21.3269 20.2415 21.324C20.0562 21.3404 20.1156 21.4602 20.0796 21.5573C20.0706 21.6207 20.0121 21.6572 20.0018 21.705C19.9878 21.7218 19.9897 21.7374 19.9914 21.7529C19.9897 21.7374 20.0422 21.9359 20.0404 21.9204C20.0625 21.9809 20.1709 21.9713 20.2343 21.9812C20.3143 22.0051 20.335 22.0503 20.4015 22.0913C20.4667 22.1165 20.496 22.0983 20.5562 22.0773C20.6947 22.0647 20.8269 22.1311 21.0329 22.0188C21.0774 21.9992 21.1206 21.9641 21.1327 21.9317C21.1741 21.8812 21.1534 21.836 21.21 21.784C21.2806 21.7151 21.4178 21.6871 21.4902 21.6338C21.5468 21.5818 21.5059 21.4917 21.6107 21.451C21.6862 21.4287 21.7699 21.4837 21.8747 21.4429C21.9655 21.419 22.0635 21.3166 22.1548 21.2928C22.2474 21.2844 22.3049 21.3886 22.4336 21.424L22.9439 21.5343C22.9596 21.5329 22.992 21.5458 23.0091 21.56C23.1458 21.6726 22.9488 21.7216 22.8733 21.7441C22.8131 21.7651 22.7978 21.7664 22.7357 21.772C22.7532 21.786 22.7546 21.8015 22.7717 21.8157C22.8369 21.8412 22.9943 21.8583 23.0514 21.8062C23.0788 21.7725 23.0757 21.7414 23.0707 21.695C23.1305 21.6741 23.1597 21.6559 23.1841 21.591C23.1791 21.5447 23.1584 21.4997 23.2016 21.4645C23.229 21.4307 23.2906 21.4251 23.3373 21.4208C23.2654 21.3337 23.207 21.3702 23.1125 21.3629C23.0649 21.3517 23.046 21.322 22.9979 21.3108C22.9516 21.315 22.9089 21.3502 22.8436 21.3247C22.7955 21.3132 22.7443 21.2709 22.6966 21.2596C22.6467 21.2329 22.5199 21.213 22.5271 21.1342C22.5392 21.1018 22.5531 21.0849 22.5837 21.0822C22.5977 21.0654 22.613 21.064 22.6287 21.0624L22.6507 21.1232C22.8153 21.0615 22.7618 21.1444 22.9043 21.1628C23.0325 21.1982 23.1836 21.1534 23.314 21.2043C23.3945 21.2281 23.3684 21.2774 23.4385 21.3492C23.524 21.4199 23.6458 21.3932 23.7537 21.3835C23.7402 21.4004 23.7246 21.4019 23.7263 21.4172C23.7002 21.4665 23.7344 21.4947 23.7673 21.5073C23.8832 21.5751 24.0555 21.4346 23.908 21.3697L24.145 21.2547C24.0304 21.2025 23.9736 21.2545 23.823 21.1585C23.9004 21.1516 23.9156 21.1502 23.9723 21.0982L23.9813 21.0347L24.2322 20.9028C24.1527 21.035 24.2421 20.9958 24.2722 21.1338C24.3496 21.1268 24.4453 21.1493 24.5227 21.1426C24.5829 21.1214 24.7475 21.0597 24.7907 21.0246C24.8334 20.9895 24.8442 20.9417 24.8869 20.9066L25.0655 20.828C25.1379 20.7747 25.1927 20.7072 25.248 20.6396C25.2754 20.6058 25.3029 20.5721 25.351 20.5835C25.4158 20.609 25.4324 20.7639 25.4391 20.8258C25.4598 20.8708 25.4818 20.9311 25.4868 20.9777C25.4773 21.1817 25.2633 21.2166 25.1343 21.322C25.0484 21.3922 24.9827 21.5075 24.8932 21.5469C24.7781 21.6354 24.4484 21.7588 24.2974 21.8036L23.9767 21.8637C23.9031 21.9017 23.8172 21.9719 23.7929 22.0366C23.7686 22.1014 23.8077 22.1759 23.734 22.2138C23.6602 22.2518 23.3531 22.2948 23.2744 22.2865C23.1476 22.2665 23.1903 22.2313 23.0051 22.248C22.8355 22.2633 22.6521 22.2955 22.4772 22.2642C22.5046 22.2304 22.5599 22.1629 22.5703 22.1152C22.5824 22.0827 22.5653 22.0686 22.5617 22.0377C22.5603 22.0224 22.5567 21.9914 22.5397 21.9772C22.5037 21.9335 22.3805 21.9445 22.3342 21.9488C22.2276 21.974 22.2465 22.0035 22.077 22.0188L21.5073 22.0857C21.2298 22.1105 21.0081 22.2243 20.9002 22.234C20.8228 22.241 20.6497 22.2253 20.5692 22.2012C20.5041 22.1757 20.4357 22.1192 20.3619 22.1573C20.2864 22.1798 20.2621 22.2444 20.1731 22.2835C20.0836 22.323 19.9141 22.3383 19.8125 22.4098C19.7113 22.4815 19.7641 22.5393 19.6457 22.5968C19.5856 22.6179 19.3835 22.6203 19.3062 22.6273C19.1348 22.6271 19.0489 22.6974 18.8995 22.7577L18.7346 22.8194C18.6746 22.8403 18.5527 22.8669 18.5269 22.9162C18.501 22.9653 18.5386 23.0245 18.5436 23.0711C18.5485 23.1174 18.5381 23.1652 18.5275 23.2131C18.4468 23.3298 18.2389 23.4266 18.2728 23.5957C18.2998 23.7026 18.3632 23.7125 18.4828 23.8111C18.64 23.969 18.7575 24.1929 18.9268 24.3184C19.1456 24.4708 19.4622 24.6612 19.7328 24.715L20.2028 24.7353C20.4546 24.7594 20.6479 24.8204 20.9123 24.8121L21.4933 24.7131C21.6169 24.702 21.8004 24.6698 21.929 24.7052C22.0576 24.7405 22.0828 24.8321 22.3143 24.8112L22.6368 24.7666C22.7123 24.7443 22.7725 24.7232 22.8544 24.7628C23.0531 24.87 22.7164 25.0721 22.8701 25.1991C22.9556 25.2696 23.2384 25.291 23.3517 25.3276C23.4304 25.3362 23.6786 25.4702 23.7317 25.528C23.7658 25.5562 23.769 25.5872 23.805 25.6309C23.8405 25.6746 23.9215 25.6985 23.9263 25.7451C23.9313 25.7915 23.8315 25.8786 23.804 25.9124C23.7195 25.9981 23.5559 26.216 23.6481 26.3485C23.684 26.3921 23.7816 26.4301 23.8315 26.4569L24.2816 26.5884C24.4767 26.6648 24.4934 26.8196 24.6117 26.9027C24.6953 26.9579 24.8342 26.9453 24.944 26.9511L25.4081 27.0657C25.5695 27.1139 25.5021 27.2136 25.6288 27.2334C25.8964 27.2564 26.307 27.0162 26.5251 26.8716L26.968 26.6442C27.1452 26.5502 27.3047 26.4419 27.4644 26.3338C27.7671 26.1035 28.0148 25.7998 28.165 25.458C28.2167 25.3597 28.3633 25.1275 28.3723 25.0643C28.393 24.9686 28.2935 24.915 28.3318 24.8335C28.3817 24.7194 28.5832 24.5606 28.6313 24.4314C28.6714 24.3652 28.6596 24.2569 28.5926 24.216C28.5278 24.1905 28.4846 24.2256 28.3561 24.1903C28.4532 23.9316 28.629 23.6812 28.7752 23.4491C28.8426 23.3494 28.9631 23.1666 28.9654 23.0414C28.9659 22.9007 28.8403 22.8961 28.7878 22.8385C28.7365 22.7962 28.7482 22.7638 28.7158 22.751C28.6511 22.7257 28.5477 22.7818 28.4843 22.7719C28.4379 22.7759 28.4038 22.7478 28.3714 22.7352C28.3215 22.7084 28.2616 22.7293 28.2153 22.7334C28.1457 22.5209 28.2909 22.1327 28.362 21.9232C28.5004 21.4731 28.6858 21.0186 28.6187 20.5401L28.5477 20.1714C28.5275 20.1261 28.4901 20.0671 28.4299 20.088C28.339 20.1119 28.259 20.3848 28.2212 20.4663L28.0126 20.8447C27.9591 20.9276 27.9244 21.0402 27.8539 21.109C27.7971 21.1611 27.7076 21.2002 27.634 21.2381C27.6101 21.1622 27.5656 21.1818 27.5054 21.2029L27.2256 21.3531C27.1672 21.3896 27.0521 21.4781 26.9747 21.4851C26.9131 21.4907 26.8771 21.447 26.7864 21.4706C26.7248 21.4763 26.62 21.517 26.5718 21.5055C26.5085 21.4956 26.4401 21.4393 26.3767 21.4295C26.3291 21.418 26.2378 21.4418 26.1932 21.4614C26.0389 21.4754 25.7974 21.4031 25.6378 21.3707C25.6671 21.3524 25.698 21.3497 25.6949 21.3187C25.7174 21.2385 25.5942 21.1089 25.7453 21.064C25.7606 21.0627 25.7916 21.0598 25.8069 21.0584L26.0708 21.0503L26.2238 21.021C26.3025 21.0296 26.3232 21.0746 26.4311 21.0649L26.8102 20.9684C26.9649 20.9544 27.0273 21.1053 27.1874 20.997C27.3179 20.9071 27.4406 20.5989 27.4874 20.4541L27.6222 20.1137L27.6745 19.8746C27.7333 19.6972 27.7868 19.6143 27.7652 19.4131L27.7337 19.1188C27.7203 18.995 27.6951 18.9034 27.5678 19.0243C27.4694 19.1269 27.4347 19.2395 27.2774 19.2224C27.2356 19.4138 27.262 19.6614 27.0714 19.7724C26.999 19.8258 26.9186 19.8017 26.8435 19.8242C26.7985 19.8438 26.74 19.8805 26.7076 19.8677C26.6613 19.8717 26.6272 19.8435 26.6222 19.7972C26.6308 19.7339 26.7356 19.6932 26.7805 19.6736C26.9298 19.6132 27.0054 19.5907 27.1155 19.4559C27.1824 19.3559 27.1896 19.2771 27.2431 19.1942C27.298 19.1267 27.3462 19.138 27.4011 19.0706C27.4424 19.02 27.5184 18.8568 27.5579 18.7908L27.7467 18.2266C27.8381 18.062 27.991 18.0328 28.031 17.8259L28.0548 17.902C28.2181 17.8248 28.2167 17.6685 28.1848 17.5152C28.2774 17.5068 28.4659 17.5211 28.5414 17.4988L28.8916 17.2797C28.9793 17.2248 29.1237 17.118 29.1443 17.0223C29.1686 16.9577 29.0683 16.7479 29.0324 16.7042C29.0139 16.6747 28.9968 16.6605 28.964 16.6479C28.8835 16.6239 28.7774 16.6491 28.7194 16.5448C28.6475 16.4575 28.5679 16.152 28.5085 16.0322C28.3808 15.7154 28.3723 15.7787 28.3124 15.659C28.2733 15.5844 28.2805 15.5056 28.2719 15.4281C28.25 15.3677 28.214 15.324 28.2109 15.2929C28.2041 15.231 28.2472 15.1959 28.2887 15.1453C28.3539 15.0299 28.3439 14.9371 28.4146 14.8682C28.4712 14.8162 28.5211 14.8431 28.5467 14.7938C28.6416 14.6603 28.4124 14.5558 28.4896 14.4082C28.5292 14.342 28.6412 14.2226 28.7185 14.2156C28.7783 14.1947 28.8282 14.2214 28.888 14.2005C28.9465 14.1638 28.9506 14.0541 28.9748 13.9894C29.035 13.8276 29.1295 13.8348 29.1525 13.614C29.1597 13.5351 29.1633 13.4253 29.1259 13.3662C29.0539 13.2788 28.9528 13.3504 28.9285 13.4152C28.875 13.498 28.8867 13.6065 28.8966 13.6994C28.8911 13.7936 28.8736 13.9202 28.8201 14.0032C28.7549 14.1186 28.6213 14.0368 28.5836 13.9777C28.5652 13.9481 28.5774 13.9158 28.5738 13.8847C28.576 13.7594 28.54 13.7158 28.5714 13.5723C28.58 13.5089 28.6389 13.3317 28.6205 13.3022C28.6151 13.2557 28.4734 13.0966 28.4379 13.0528C28.3678 12.981 28.2414 12.8203 28.1246 12.8934C28.0215 12.9495 28.0431 13.1509 28.0238 13.262C28.0134 13.3098 27.9923 13.4055 27.946 13.4096C27.9172 13.4279 27.8656 13.3855 27.8318 13.3574C27.7445 13.2714 27.6915 13.2137 27.6767 13.0743C27.7243 13.0856 27.8529 13.121 27.8619 13.0576C27.8551 12.9957 27.7819 12.8929 27.7198 12.8985C27.6565 12.8886 27.6479 12.9518 27.5638 12.8969C27.4954 12.8405 27.3439 12.5883 27.2719 12.501C27.1816 12.384 27.0467 12.2868 26.9145 12.2205C26.8344 12.1965 26.574 12.0947 26.5017 12.1482C26.4725 12.1664 26.4774 12.2128 26.4653 12.2451C26.4482 12.2311 26.4311 12.217 26.4005 12.2197C26.289 12.1985 26.2562 12.3265 26.249 12.4053C26.2521 12.4362 26.2589 12.4983 26.2143 12.5179C26.1694 12.5374 26.1352 12.5093 26.1009 12.4811C26.0173 12.4261 26.0155 12.4106 25.9026 12.3739C25.9247 12.4344 25.9467 12.495 25.9841 12.5541C26.0748 12.6711 26.1364 12.6654 26.122 12.8232C25.9921 12.7723 25.8451 12.7075 25.7561 12.6059L25.8762 12.5638L25.8729 12.533C25.8235 12.5061 25.6539 12.3806 25.6472 12.3188C25.6422 12.2723 25.7038 12.2667 25.699 12.2202C25.7098 12.1724 25.6599 12.1456 25.6841 12.0809C25.7254 12.0302 25.8149 11.991 25.8082 11.929C25.8046 11.8981 25.7704 11.8699 25.7381 11.8572C25.6715 11.8163 25.5532 11.7332 25.4827 11.802C25.426 11.854 25.4687 11.9595 25.4373 12.103C25.3891 12.0918 25.3069 12.0522 25.2592 12.0409C25.1958 12.031 25.122 12.0688 25.0397 12.0294C24.9265 11.9927 24.886 11.9025 24.7884 11.8643C24.6085 11.7867 24.4574 11.8317 24.2893 11.8624C24.2124 11.8692 24.0887 11.8804 24.015 11.9182C23.9565 11.9548 23.9304 12.004 23.9047 12.0532C23.836 12.1376 23.7002 12.181 23.7137 12.3048C23.7407 12.4118 23.8351 12.4191 23.8692 12.4471L23.9677 12.6416C23.8616 12.6667 23.8117 12.64 23.7195 12.6483L23.3539 12.7279C23.1669 12.7292 23.1089 12.625 22.9942 12.5727C22.9295 12.5473 22.8832 12.5514 22.8333 12.5246C22.782 12.4824 22.777 12.436 22.7599 12.4217C22.724 12.3782 22.5666 12.3609 22.5203 12.3651C22.5234 12.3962 22.5252 12.4116 22.4978 12.4453C22.4717 12.4946 22.3395 12.569 22.2779 12.5745C22.2487 12.5928 22.2006 12.5815 22.1682 12.5688L22.1768 12.5054C22.184 12.4267 22.1376 12.4308 22.0778 12.4518C21.9865 12.4756 21.9317 12.5431 21.8593 12.5965C21.8854 12.5473 21.9096 12.4825 21.951 12.432C22.0077 12.38 22.0832 12.3575 22.157 12.3196L22.3903 12.1736C22.4488 12.1371 22.5383 12.0977 22.581 12.0627C22.71 11.9573 22.737 11.6267 22.7033 11.4577C22.4645 11.5572 22.5279 11.5671 22.3665 11.6598C22.3081 11.6963 22.277 11.6992 22.2325 11.7188C22.1898 11.754 22.179 11.8018 22.1687 11.8495ZM23.8063 11.2804L23.9583 11.3918L24.0743 11.6001C24.1634 11.5609 24.1754 11.5286 24.2358 11.5075C24.2649 11.4893 24.457 11.5345 24.4124 11.4135C24.3953 11.3993 24.3783 11.3853 24.3612 11.3712L24.3509 11.419C24.2996 11.3767 24.2313 11.3203 24.1661 11.2949C24.1008 11.2695 23.8831 11.2735 23.8063 11.2804ZM24.3288 11.3585C24.5447 11.3392 24.5073 11.2799 24.631 11.2689C24.6908 11.2477 24.7865 11.2705 24.85 11.2804L24.8414 11.3436C24.9714 11.3945 24.9632 11.3171 25.0591 11.3397C25.1567 11.3779 25.2165 11.4977 25.3774 11.5456C25.4421 11.5711 25.475 11.5838 25.5335 11.5473C25.5707 11.6065 25.5865 11.6051 25.6481 11.5995C25.6553 11.5207 25.6998 11.501 25.6791 11.456C25.6589 11.4108 25.4961 11.3473 25.4822 11.505C25.4273 11.4316 25.4565 11.4134 25.4363 11.3685C25.3815 11.2951 25.2718 11.2894 25.1961 11.3118C25.1642 11.1583 25.1845 11.2034 24.9709 11.0976C24.904 11.0567 24.7569 10.9917 24.6778 10.9832C24.5838 10.976 24.5596 11.0407 24.4857 11.0786C24.4444 11.1293 24.3963 11.1179 24.3536 11.1531C24.3122 11.2036 24.3221 11.2966 24.3288 11.3585ZM27.5898 10.6746L27.785 10.8917C27.8584 10.9945 27.9316 11.0973 28.0188 11.1832C28.0872 11.2396 28.1848 11.2778 28.2756 11.254C28.3359 11.233 28.5179 11.0447 28.3692 10.9642C28.3196 10.9375 28.2455 10.9753 28.1996 10.9795C28.2032 10.8697 28.1965 10.8078 28.1695 10.7008C28.1663 10.6698 28.1596 10.6079 28.0993 10.6289C28.0256 10.6669 28.1124 10.8935 27.9959 10.8258L27.9464 10.799L27.8952 10.7567C27.8399 10.8241 27.905 10.8495 27.9582 10.9073C28.0265 10.9638 28.0791 11.0216 28.0894 11.1144C27.9217 11.0043 27.9119 10.9116 27.8039 10.7806C27.7342 10.7087 27.6829 10.6663 27.5898 10.6746ZM28.2594 10.5208C28.3016 10.6263 28.4671 10.8616 28.5805 10.8983C28.5035 10.7645 28.4047 10.5701 28.2594 10.5208ZM16.8345 11.6567C16.8808 11.6526 16.9427 11.647 16.9734 11.6442L17.3759 11.7644C17.4874 11.7856 17.5971 11.7914 17.6704 11.8942C17.4698 11.9123 17.5126 11.8771 17.3534 11.8446C17.2113 11.8261 17.1681 11.8613 17.0584 11.8554C16.995 11.8455 16.9626 11.8328 16.9145 11.8215L16.5013 11.8899C16.3916 11.8841 16.3677 11.8081 16.3025 11.7827C16.236 11.7417 16.1757 11.7627 16.1173 11.7993C16.0129 11.84 15.9113 11.9116 15.8099 11.9833C15.6208 12.1096 15.4028 12.2543 15.2667 12.4385C15.1721 12.572 15.1957 12.6481 15.101 12.7816C15.0048 12.8997 14.7831 13.0134 14.6334 13.2145C14.5248 13.365 14.5347 13.4578 14.4935 13.5085C14.4659 13.5421 14.2752 13.6531 14.2305 13.6727C14.186 13.6923 14.1397 13.6965 14.1104 13.7148C14.0675 13.7499 14.0416 13.7991 14.0156 13.8484L13.8627 14.0184C13.8231 14.0845 13.6626 14.3334 13.6538 14.3968C13.65 14.5065 13.8267 14.5532 13.7334 14.7023C13.7197 14.7191 13.706 14.736 13.6922 14.7529C13.5909 14.8245 13.5637 14.7175 13.485 14.7089C13.389 14.6863 13.2462 14.8085 13.1608 14.7381C13.1077 14.6803 13.1304 14.6002 13.1239 14.5382C13.1001 14.4622 13.0659 14.434 13.0439 14.3735C13.0045 14.2987 13.0358 14.1552 12.9265 14.0087C12.8703 13.9201 12.8053 13.8946 12.7552 14.0087L12.7188 14.1056C12.6576 13.9705 12.6922 13.8579 12.5807 13.8365C12.4387 13.8182 12.3953 13.994 12.3125 14.0952C12.1061 14.3483 12.0717 14.3201 11.9136 14.4436L11.7039 14.6657L11.5731 14.7557C11.5027 14.8245 11.4559 14.9694 11.4197 15.0664L11.2684 15.6897C11.2353 15.8176 11.1798 16.0261 11.0443 16.0693C10.9997 16.0889 10.859 16.086 10.8111 16.0747C10.7614 16.0479 10.7257 16.0043 10.6777 15.9928C10.6314 15.9971 10.5078 16.0081 10.3931 15.9558C10.3248 15.8996 10.2344 15.7825 10.1692 15.7573C10.1042 15.7316 10.0424 15.7373 9.98079 15.7429C9.90345 15.7496 9.79553 15.7595 9.73211 15.7496C9.57116 15.7016 9.46725 15.4608 9.4061 15.3256C9.38411 15.265 9.34314 15.1749 9.29347 15.1481C9.22513 15.0916 9.14262 15.1929 9.06215 15.1689C8.99873 15.1589 8.85844 15.0152 8.7764 14.9756C8.75928 14.9615 8.70782 14.9193 8.6788 14.9376C8.64799 14.9402 8.639 15.0037 8.62705 15.0359C8.62484 15.1612 8.65925 15.1894 8.73074 15.2768C8.74779 15.2908 8.80088 15.3487 8.75771 15.3838C8.68577 15.4371 8.58191 15.1963 8.50097 15.3131C8.48879 15.3455 8.49059 15.3609 8.47666 15.3777L8.44585 15.3805L8.37123 15.1215L8.35974 15.0131L8.25589 14.7723L8.12865 14.8932L8.09825 14.7552L8.05578 14.6496C8.03193 14.5736 7.97037 14.5791 7.91189 14.6156C7.79678 14.7042 7.71717 14.8364 7.64522 14.8897C7.55755 14.9445 7.49077 14.9036 7.43078 14.9246C7.35704 14.9625 7.30528 15.0609 7.2826 15.1412L7.16388 15.7771C7.06113 16.271 6.99551 16.3863 7.05213 16.9127L7.11462 17.204L7.17334 17.6052L7.22573 17.8037L7.25671 17.8008C7.23513 17.5996 7.24145 17.2238 7.29854 17.0311C7.3543 16.8231 7.44337 16.7837 7.44783 16.5331L7.48473 16.7333C7.56903 16.6472 7.56248 16.5853 7.68079 16.5279C7.72012 16.6024 7.73718 16.6166 7.7626 16.7083C7.78644 16.7841 7.79294 16.846 7.83228 16.9208C7.87144 16.9953 7.90382 17.0081 7.94135 17.0673C7.97733 17.1108 8.00094 17.1869 8.02293 17.2474C8.06569 17.3531 8.0994 17.5221 8.22774 17.5575C8.27793 17.4435 8.26308 17.3042 8.26488 17.1788C8.277 17.1464 8.28263 17.0523 8.31164 17.034C8.38718 17.0115 8.41776 17.1495 8.42269 17.1959C8.46679 17.317 8.49893 17.4706 8.57221 17.5732C8.64885 17.7072 8.70913 17.686 8.8094 17.8958L8.83208 17.8157C8.87461 17.9213 8.82111 18.0044 8.93756 18.0719C8.93083 18.01 8.91824 17.7455 8.94383 17.6962C8.95601 17.6637 9.00231 17.6597 9.03336 17.657L9.1053 18.182C9.1118 18.2439 9.13542 18.32 9.17139 18.3637C9.2586 18.4497 9.36002 18.3779 9.39912 18.4526L9.46004 18.7284C9.51243 18.927 9.58554 19.1706 9.66689 19.3507C9.72827 19.486 9.8099 19.6663 9.91423 19.7663C9.9502 19.81 10.0031 19.8679 10.0631 19.8467C10.1233 19.8258 10.0995 19.7497 10.1098 19.702C10.1188 19.6387 10.1478 19.6204 10.1584 19.5725C10.1656 19.4937 10.1399 19.402 10.1795 19.3361C10.1588 19.4318 10.1912 19.4444 10.2013 19.5374C10.2146 19.6612 10.2449 19.7992 10.2892 19.9201C10.3554 20.102 10.4046 20.2693 10.5154 20.4314C10.589 20.5343 10.7583 20.6597 10.8608 20.7443C11.0011 20.888 11.1393 21.0163 11.3086 21.1417L11.5106 21.2799L11.6782 21.39C11.8271 21.4704 11.8428 21.3281 11.9354 21.32C11.9835 21.3313 12.1526 21.4566 12.2039 21.499C12.4638 21.7414 12.3784 21.671 12.5578 21.8894L12.9625 22.3219C13.0668 22.4219 13.1963 22.6136 13.3386 22.6319L13.4809 22.6506C13.6401 22.6832 13.8182 22.7453 13.9846 22.699C14.0464 22.6934 14.0893 22.6584 14.117 22.6247C14.1582 22.574 14.1824 22.5094 14.2443 22.5038C14.3076 22.5137 14.4549 22.5786 14.5199 22.6042C14.6842 22.683 14.917 22.8185 15.0916 22.8496C15.2665 22.8809 15.392 22.7445 15.3632 22.622C15.3191 22.5009 15.1344 22.3768 15.0357 22.1825C14.9401 22.0193 14.874 21.8376 14.7647 21.691L14.5138 21.3853L14.3636 21.1486L14.2903 21.0458C14.2715 21.0163 14.2445 20.9093 14.2395 20.8627L14.0678 20.4248C13.9895 20.2756 13.8348 20.2895 13.7346 20.0797C13.8063 20.167 13.9432 20.2799 14.0406 20.3179C13.9965 20.1968 13.8978 20.0025 13.8243 19.8996L13.6671 19.7418C13.7525 19.8122 13.8209 19.8688 13.9324 19.8899L13.9653 19.7618C14.0138 19.6324 14.0583 19.6128 14.0572 19.4565C14.0444 19.192 13.8004 18.8074 13.7656 18.4824C13.7505 18.343 13.7818 18.1996 13.7977 18.0575L13.802 17.807C13.7971 17.7605 13.8245 17.7266 13.8335 17.6635L13.8306 17.4918C13.8515 17.3961 13.8636 17.3637 13.8537 17.2706L13.7791 17.0117L13.7746 16.8244L13.7478 16.5768C13.7278 16.3911 13.8276 16.3039 13.8452 16.1774C13.8542 16.1139 13.7741 15.9491 13.7397 15.921C13.6901 15.8942 13.5839 15.9194 13.6217 15.8379C13.6597 15.7564 13.7998 15.9 13.8357 15.9437C13.8807 15.7834 13.8465 15.755 13.8162 15.6171L13.7575 15.2159C13.7305 15.1089 13.6621 15.0526 13.657 15.0061C13.6675 14.9582 13.7138 14.9541 13.7687 14.8867C13.824 14.8192 13.8465 14.739 13.8537 14.6602L13.8564 14.3942C13.8737 14.2676 13.9805 14.1016 14.1163 14.0582C14.2535 14.0303 14.3935 14.1739 14.4707 14.167C14.548 14.16 14.5858 14.0786 14.6118 14.0292L14.7899 13.513L14.8209 13.5102C14.8976 13.6441 14.9781 13.6681 15.0822 13.7682L15.1712 13.8696C15.1883 13.8837 15.2176 13.8654 15.2467 13.8472C15.3016 13.7797 15.3677 13.5237 15.3286 13.449C15.3066 13.3885 15.2382 13.3321 15.2144 13.2561C15.2094 13.2096 15.2353 13.1604 15.2611 13.1112C15.2976 13.0141 15.3167 12.903 15.387 12.8341C15.5265 12.6809 15.8043 12.6558 15.9736 12.7814C16.0593 12.8519 16.0485 12.8997 16.0845 12.9434C16.1375 13.0011 16.2146 12.9943 16.2401 13.0858C16.2434 13.1168 16.2365 13.1955 16.2259 13.2434C16.236 13.3363 16.2544 13.3658 16.2182 13.4629C16.1665 13.5613 16.0807 13.6315 16.0458 13.7441C15.9975 13.8735 16.0764 13.8821 16.0571 13.9932C16.0224 14.1058 15.9381 14.1915 15.9035 14.3041C15.8637 14.3702 15.8705 14.4321 15.7985 14.4855C15.74 14.5219 15.6456 14.5148 15.584 14.5203C15.493 14.5441 15.4208 14.5976 15.3471 14.6354C15.3502 14.6665 15.3536 14.6973 15.3722 14.7269C15.3978 14.8185 15.475 14.8115 15.5503 14.7891C15.6722 14.7626 15.8336 14.6698 15.9534 14.7685C16.0575 14.8687 16.0892 15.1628 16.178 15.2642C16.2634 15.3347 16.3253 15.3292 16.4213 15.3518C16.4862 15.3773 16.536 15.404 16.5872 15.4463C16.7068 15.5449 16.6691 15.6266 16.7234 15.6998C16.7747 15.742 16.8195 15.7226 16.8723 15.7802L17.0991 16.1506L17.2554 16.0115C17.3085 16.0693 17.3703 16.0636 17.3773 15.9849C17.3723 15.9385 17.3472 15.8471 17.3265 15.8019C17.4308 15.902 17.4391 15.9795 17.4387 16.1202C17.442 16.151 17.4299 16.1835 17.4488 16.2132C17.4553 16.2749 17.5304 16.3933 17.5816 16.4356C17.6484 16.4763 17.6929 16.4568 17.7514 16.4203C17.8049 16.3374 17.8362 16.1938 17.9187 16.0927C17.9877 16.0083 18.1248 15.9804 18.2487 15.8284C18.2164 15.8158 18.1188 15.7777 18.1291 15.7298C18.1534 15.6652 18.246 15.6568 18.3044 15.6203C18.3904 15.55 18.456 15.4347 18.4751 15.3236L18.2865 15.3092L18.1752 15.2879L18.0207 15.302L17.8688 15.1905L17.6493 15.1789C17.6871 15.0974 17.7132 15.0481 17.8058 15.0397C17.8521 15.0356 17.9171 15.0611 17.9463 15.0429C18.0063 15.0217 17.9996 14.9598 18.0428 14.9247C18.1253 14.8235 18.2469 14.7969 18.2647 14.6703C18.3915 14.6901 18.4192 14.6565 18.4823 14.6663C18.6125 14.7171 18.653 14.948 18.7126 15.0678C18.5516 15.0197 18.5819 15.1576 18.5781 15.2674C18.6366 15.2309 18.7054 15.1466 18.7654 15.1255L18.9677 15.1229C19.014 15.1188 19.0277 15.102 19.0725 15.0823C19.1788 15.0572 19.249 15.129 19.3052 15.2177C19.3637 15.1812 19.3603 15.1502 19.3227 15.091L19.3999 15.0841L19.3558 14.9631C19.2787 14.97 19.2613 14.9559 19.2389 15.036C19.1723 14.9952 19.1723 14.9952 19.0934 14.9866L19.1503 14.9347L19.1467 14.9036C19.015 14.8373 19.1661 14.7925 19.1885 14.7123C19.1991 14.6644 19.1804 14.635 19.1615 14.6053L19.3556 14.5253C19.4381 14.4242 19.5082 14.496 19.5428 14.3834C19.7021 14.4161 19.6497 14.2176 19.7699 14.1754C19.799 14.1572 19.8468 14.1686 19.8779 14.1657C19.9224 14.1462 19.9669 14.1266 20.0118 14.1069C20.0734 14.1014 20.1045 14.0987 20.1642 14.0775C20.2227 14.0411 20.2762 13.9581 20.3176 13.9075C20.345 13.8736 20.4017 13.8217 20.4139 13.7893C20.4242 13.7415 20.4039 13.6966 20.3959 13.619C20.4592 13.6289 20.5056 13.6248 20.5465 13.5742C20.5897 13.5391 20.5829 13.4771 20.5177 13.4517C20.5024 13.4532 20.4561 13.4574 20.4408 13.4587L20.6539 13.2676L20.6958 13.0762L20.6355 13.0972L20.6567 13.0015L20.4867 13.0169C20.5141 12.9831 20.5969 12.8819 20.6243 12.8481C20.6967 12.7948 20.7754 12.8034 20.8118 12.7061C20.6593 12.7355 20.4719 12.8774 20.3756 12.9955L20.2254 13.1965L20.2345 13.1332C20.0834 13.1781 20.0932 13.271 20.0347 13.3075L20.0056 13.3257C20.0519 13.3216 19.7416 13.3339 19.7897 13.3452C19.7108 13.3366 19.6254 13.2662 19.557 13.2097C19.5055 13.1675 19.47 13.1238 19.4115 13.1604L19.1224 12.9363C19.1498 12.9025 19.1638 12.8856 19.1296 12.8574C19.0954 12.8292 19.015 12.8051 18.9482 12.7642C18.8283 12.6656 18.834 12.5713 18.8189 12.432C18.8059 12.3082 18.7901 12.3095 18.7479 12.2039C18.7274 12.1587 18.724 12.1278 18.688 12.0841C18.6523 12.0404 18.5685 11.9855 18.5172 11.9432C18.4488 11.8869 18.3634 11.8163 18.2845 11.8077C18.1732 11.7866 18.0873 11.8568 17.9911 11.8341C17.9106 11.8101 17.8065 11.7101 17.7089 11.6719C17.6455 11.662 17.5684 11.6689 17.5066 11.6745C17.5032 11.6435 17.4965 11.5816 17.4641 11.5689C17.4146 11.5421 17.3251 11.5814 17.2635 11.5869C17.2017 11.5924 17.1812 11.5474 17.1334 11.536C17.0854 11.5247 16.8676 11.5287 16.84 11.5624C16.8107 11.5807 16.8313 11.6257 16.8345 11.6567ZM27.8646 10.0404C27.991 10.201 28.2167 10.4152 28.4069 10.4451C28.3507 10.3562 28.3025 10.345 28.2342 10.2886C28.1335 10.2194 27.9622 10.0785 27.8646 10.0404ZM26.6289 9.41674L26.5898 9.34207C26.655 9.36741 26.7202 9.39285 26.7576 9.45206C26.7778 9.49709 26.7814 9.52806 26.7864 9.57454C26.7962 9.66744 26.9586 9.87172 27.0526 9.87881C27.0853 9.89153 27.0835 9.87613 27.1145 9.87329L27.0349 9.5678C26.999 9.52411 26.9545 9.5438 26.9015 9.48605L26.5804 9.1084C26.5615 9.07877 26.49 8.99144 26.5003 8.94368C26.5277 8.90993 26.6051 8.90295 26.6361 8.90028L26.342 8.62965C26.3078 8.60142 26.2548 8.54366 26.1946 8.5647C26.1347 8.58573 26.1122 8.66591 26.0861 8.71506C26.0604 8.76439 26.0191 8.81494 26.024 8.86142C26.046 8.92202 26.1162 8.99383 26.1518 9.03746L26.4257 9.26295C26.4958 9.33488 26.5313 9.37857 26.6289 9.41674ZM30.6304 9.38542C30.5899 9.15454 30.4415 8.93346 30.2676 8.76155L29.9937 8.536C29.888 8.4205 29.7738 8.22755 29.6182 8.08514C29.4474 7.94419 29.3188 7.90887 29.1668 7.79743L28.9082 7.57049L28.4469 7.18987C28.3272 7.09128 28.1852 6.93197 28.0948 6.81513C28.0025 6.68266 28.0286 6.63345 27.9756 6.5757C27.9397 6.53201 27.8097 6.48111 27.7463 6.47123L27.7706 6.40651L27.6559 6.35428C27.7197 6.2235 27.6303 6.26277 27.5399 6.14593C27.5039 6.10224 27.4976 6.04018 27.441 5.95153C27.3524 5.85009 27.2341 5.76689 27.1181 5.69926L26.5552 5.39022C26.3734 5.29715 26.1251 5.16305 25.9215 5.15015C25.7654 5.14852 25.6656 5.23568 25.5126 5.26495C25.3756 5.29296 25.0792 5.28837 24.9843 5.42188C24.8881 5.53994 25.1291 5.75282 25.2164 5.83881L25.4605 6.08254C25.5307 6.15447 25.5509 6.19949 25.6224 6.28682C25.6912 6.34323 25.8243 6.42509 25.8792 6.49824C25.9336 6.57151 25.8428 6.59539 25.916 6.69817C25.9723 6.78688 26.1094 6.89966 26.1504 6.98983C26.1724 7.05037 26.1823 7.14327 26.2336 7.18563C26.283 7.21241 26.3415 7.17581 26.3878 7.17162C26.4634 7.14925 26.6851 7.03555 26.7516 7.07651C26.8182 7.11736 27.0457 7.34703 27.0988 7.40489C27.1329 7.43301 27.2027 7.50482 27.1923 7.55282C27.2008 7.63015 26.9576 7.54253 27.0156 7.64676C27.0344 7.67639 27.1833 7.75675 27.2346 7.7991L27.4243 7.96962L27.6447 8.13736C27.6959 8.17972 27.7521 8.26838 27.802 8.29522C27.8996 8.33334 27.9495 8.21946 28.0336 8.27436C28.1977 8.35338 28.3155 8.57741 28.4864 8.7183C28.6024 8.78599 28.6316 8.76775 28.7292 8.80592C28.8114 8.84543 28.8646 8.90318 28.9482 8.9582C29.08 9.02449 29.0908 8.97668 29.2445 9.10357C29.4496 9.27264 29.6241 9.44462 29.7999 9.63205C29.87 9.70386 30.0427 9.86032 30.1232 9.88432C30.1385 9.88298 30.1537 9.88165 30.1695 9.88019L30.3462 9.78618C30.3462 9.78618 30.362 9.78467 30.3601 9.76928C30.3705 9.72146 30.3637 9.65952 30.3741 9.61165C30.3848 9.56383 30.4141 9.54559 30.4227 9.4822C30.433 9.4345 30.4231 9.34148 30.4676 9.3219C30.5126 9.30221 30.5981 9.3727 30.6304 9.38542ZM26.8636 5.36246C26.8569 5.30053 26.8398 5.28647 26.8178 5.22593C26.7255 5.09352 26.6231 5.00898 26.4773 4.95943C26.4297 4.94821 26.2858 4.91417 26.2597 4.96338C26.2202 5.02944 26.3878 5.13954 26.4373 5.16632C26.4886 5.20856 26.5538 5.23401 26.6051 5.27636C26.7044 5.32993 26.7521 5.34126 26.8636 5.36246ZM20.8178 4.06113C21.022 4.07398 21.0989 4.06712 21.294 4.14329C21.4721 4.20546 21.5764 4.30551 21.7806 4.31846L21.5517 4.07328L21.6821 3.98346C21.6138 3.92704 21.5832 3.92977 21.5162 3.88892C21.482 3.86075 21.4789 3.82972 21.4447 3.80154C21.4136 3.80439 21.3363 3.81124 21.3057 3.81403C21.2145 3.83779 21.1393 3.86034 21.0346 3.90095C20.9433 3.92471 20.8219 3.95127 20.8178 4.06113ZM21.7536 3.63317C21.7311 3.71329 21.6555 3.73571 21.5832 3.78905C21.6003 3.80311 21.6021 3.81868 21.6192 3.83274C21.6691 3.85952 21.9227 3.89926 21.9861 3.90926C22.1421 3.91088 22.1475 3.81664 22.331 3.78446L22.5607 3.7482C22.7766 3.72874 23.0715 3.71794 23.264 3.62247C23.1907 3.51969 23.1444 3.5237 23.0315 3.48704C22.8548 3.44033 22.6664 3.42604 22.4861 3.48908C22.3197 3.53533 22.3264 3.59726 22.1102 3.61672L21.7536 3.63317ZM18.4756 30.1278C19.2088 30.2807 14.8711 29.3571 18.4756 30.1278Z" fill="#4B9111"/>
</svg>
