<svg width="39" height="33" viewBox="0 0 39 33" fill="none" xmlns="http://www.w3.org/2000/svg">
<path d="M18.1319 27.5C18.1308 25.3348 18.672 23.2046 19.7049 21.308C20.7379 19.4113 22.2289 17.81 24.0391 16.6532C25.8493 15.4965 27.9197 14.822 30.0573 14.6926C32.1948 14.5632 34.33 14.9832 36.2637 15.9133V0H0V29.3333H18.2769C18.1863 28.7283 18.1319 28.1233 18.1319 27.5ZM3.62637 3.66667L18.1319 12.8333L32.6374 3.66667V7.33333L18.1319 16.5L3.62637 7.33333V3.66667ZM27.8143 33L21.3956 26.51L23.9522 23.925L27.7962 27.8117L35.4841 20.0383L38.0769 22.6233L27.8143 33Z" fill="#4B9111"/>
</svg>
