<svg width="23" height="25" viewBox="0 0 23 25" fill="none" xmlns="http://www.w3.org/2000/svg">
<path d="M22.7268 6.04189C22.7228 6.03501 22.7198 6.02803 22.7158 6.02115C22.714 6.01811 22.7119 6.01558 22.71 6.01265C22.5194 5.7012 22.2447 5.44381 21.9143 5.26708L12.544 0.258161C12.2249 0.0888722 11.8655 0 11.5 0C11.1345 0 10.7751 0.0888722 10.4559 0.258161L1.08558 5.26708C0.753426 5.44488 0.477616 5.70419 0.286968 6.01791C0.284518 6.02175 0.28175 6.02519 0.279514 6.02914C0.275787 6.03542 0.273125 6.04189 0.269611 6.04817C0.0931471 6.34866 0.000345666 6.687 0 7.03113V17.0127C0.000290997 17.3718 0.100959 17.7243 0.291703 18.0343C0.482447 18.3442 0.756417 18.6004 1.08558 18.7767L10.4561 23.7856C10.7499 23.9418 11.0787 24.0294 11.4151 24.0412C11.4401 24.0428 11.4646 24.0453 11.4899 24.0455H11.5013C11.5346 24.0455 11.5673 24.0431 11.6 24.0408C11.9313 24.0269 12.2545 23.9395 12.5439 23.7856L21.9143 18.7767C22.2435 18.6004 22.5176 18.3442 22.7083 18.0342C22.8991 17.7242 22.9998 17.3716 23 17.0125V7.03113C22.9996 6.68461 22.9055 6.3439 22.7268 6.04189ZM11.5 2.48647L19.1257 6.56282L16.7276 7.85755L9.01472 3.815L11.5 2.48647ZM11.5948 10.6285L3.89381 6.55229L6.39506 5.21537L14.121 9.2647L11.5948 10.6285ZM2.55556 8.62386L10.3166 12.732L10.2412 20.8845L2.55556 16.7757V8.62386ZM12.7972 20.8638L12.8723 12.7322L15.4422 11.3448L16.2045 10.9773C17.0221 10.5034 20.9091 8.36364 16.7953 10.6285C18.8858 7.31818 18.2955 7.31818 14.1136 12.0227C14.4525 12.0227 20.9091 8.36364 16.7953 10.6285C17.7727 9.96504 17.0349 10.4008 16.7953 10.6285L17.9977 9.96504L20.4444 8.644V16.7759L12.7972 20.8638Z" fill="#61CC1F"/>
</svg>
