<svg width="35" height="36" viewBox="0 0 35 36" fill="none" xmlns="http://www.w3.org/2000/svg">
<path d="M6.73521 13.8195C7.81296 12.1207 12.349 5.74927 19.9383 5.45101C19.9383 5.45101 13.6433 7.78308 12.113 10.6712C12.113 10.6712 15.3876 13.2561 18.1185 11.6531C20.8494 10.0501 23.3893 5.10979 31.3143 6.60232C28.3572 -0.479837 9.9928 -2.92852 9.62422 7.63211C8.55012 8.76992 6.53085 10.8234 5.35092 12.9848C5.29066 13.0942 5.25614 13.2161 5.25001 13.3411C5.24388 13.4661 5.26632 13.5908 5.31558 13.7056C5.36485 13.8205 5.43962 13.9224 5.53412 14.0034C5.62863 14.0844 5.74033 14.1424 5.8606 14.173L5.88858 14.1803C6.04934 14.2154 6.21692 14.1996 6.36844 14.135C6.51996 14.0704 6.64804 13.9602 6.73521 13.8195Z" fill="#61CC1F"/>
<path d="M19.9263 29.955C17.9301 29.8617 10.1949 29.0836 6.14294 22.6016C6.14294 22.6016 11.2933 26.9356 14.5363 26.83C14.5363 26.83 15.1177 22.6753 12.3735 21.0931C9.62922 19.511 4.12246 19.7602 1.44024 12.0864C-3.15663 18.2112 3.92297 35.482 13.1727 30.5245C14.6859 30.8928 17.4618 31.6292 19.9031 31.5826C20.0271 31.5803 20.1489 31.5494 20.2591 31.4922C20.3694 31.435 20.4652 31.353 20.5391 31.2526C20.613 31.1522 20.6631 31.036 20.6855 30.9129C20.7079 30.7899 20.702 30.6633 20.6683 30.5429C20.6683 30.5331 20.6683 30.5233 20.6598 30.5147C20.6093 30.3567 20.5119 30.2181 20.3806 30.118C20.2494 30.0178 20.0907 29.9609 19.9263 29.955Z" fill="#61CC1F"/>
<path d="M27.1795 10.3607C28.0991 12.1503 31.2995 19.3011 27.761 26.0814C27.761 26.0814 28.9044 19.4141 27.1929 16.6303C27.1929 16.6303 23.3368 18.1989 23.3502 21.389C23.3636 24.579 26.3304 29.2665 21.0876 35.4465C28.6417 36.4014 39.9252 21.5768 31.0465 15.9749C30.6062 14.4701 29.8508 11.6765 28.5857 9.57271C28.5218 9.46553 28.4343 9.37459 28.3301 9.30688C28.2259 9.23917 28.1076 9.1965 27.9845 9.18215C27.8613 9.16781 27.7366 9.18217 27.6198 9.22413C27.503 9.26609 27.3973 9.33453 27.3109 9.42419L27.2914 9.44628C27.1828 9.5691 27.1138 9.72245 27.0938 9.88584C27.0738 10.0492 27.1037 10.2149 27.1795 10.3607Z" fill="#61CC1F"/>
</svg>
