<svg width="35" height="35" viewBox="0 0 35 35" fill="none" xmlns="http://www.w3.org/2000/svg">
<path d="M6.73521 13.3289C7.81296 11.6302 12.349 5.25873 19.9383 4.96047C19.9383 4.96047 13.6433 7.29254 12.113 10.1806C12.113 10.1806 15.3876 12.7656 18.1185 11.1626C20.8494 9.55957 23.3893 4.61925 31.3143 6.11178C28.3572 -0.970376 9.9928 -3.41906 9.62422 7.14157C8.55012 8.27938 6.53085 10.3328 5.35092 12.4943C5.29066 12.6037 5.25614 12.7256 5.25001 12.8506C5.24388 12.9755 5.26632 13.1003 5.31558 13.2151C5.36485 13.3299 5.43962 13.4318 5.53412 13.5129C5.62863 13.5939 5.74033 13.6519 5.8606 13.6824L5.88858 13.6898C6.04934 13.7249 6.21692 13.709 6.36844 13.6445C6.51996 13.5799 6.64804 13.4697 6.73521 13.3289V13.3289Z" fill="#4B9111"/>
<path d="M19.9263 29.4646C17.9301 29.3713 10.1949 28.5931 6.14294 22.1112C6.14294 22.1112 11.2933 26.4451 14.5363 26.3396C14.5363 26.3396 15.1177 22.1848 12.3735 20.6027C9.62922 19.0205 4.12246 19.2697 1.44024 11.5959C-3.15663 17.7207 3.92297 34.9916 13.1727 30.0341C14.6859 30.4023 17.4618 31.1388 19.9031 31.0921C20.0271 31.0899 20.1489 31.059 20.2591 31.0018C20.3694 30.9446 20.4652 30.8626 20.5391 30.7622C20.613 30.6617 20.6631 30.5455 20.6855 30.4225C20.7079 30.2995 20.702 30.1729 20.6683 30.0525C20.6683 30.0427 20.6683 30.0329 20.6598 30.0243C20.6093 29.8662 20.5119 29.7277 20.3806 29.6275C20.2494 29.5274 20.0907 29.4705 19.9263 29.4646V29.4646Z" fill="#4B9111"/>
<path d="M27.1795 9.87022C28.0991 11.6598 31.2995 18.8107 27.761 25.5909C27.761 25.5909 28.9044 18.9236 27.1929 16.1398C27.1929 16.1398 23.3368 17.7085 23.3502 20.8985C23.3636 24.0885 26.3304 28.776 21.0876 34.956C28.6417 35.9109 39.9252 21.0863 31.0465 15.4844C30.6062 13.9796 29.8508 11.186 28.5857 9.08223C28.5218 8.97505 28.4343 8.88411 28.3301 8.8164C28.2259 8.74869 28.1076 8.70602 27.9845 8.69167C27.8613 8.67733 27.7366 8.69169 27.6198 8.73365C27.503 8.77561 27.3973 8.84405 27.3109 8.93371L27.2914 8.9558C27.1828 9.07862 27.1138 9.23197 27.0938 9.39536C27.0738 9.55876 27.1037 9.72443 27.1795 9.87022V9.87022Z" fill="#4B9111"/>
</svg>
