<svg width="50" height="41" viewBox="0 0 50 41" fill="none" xmlns="http://www.w3.org/2000/svg">
<path d="M48.75 28.2878H47.5V19.7794C47.5 18.7798 47.1016 17.8196 46.3984 17.1112L38.5938 9.24828C37.8906 8.5399 36.9375 8.13849 35.9453 8.13849H32.5V4.36051C32.5 2.27474 30.8203 0.58252 28.75 0.58252H8.75C6.67969 0.58252 5 2.27474 5 4.36051V8.13849H0.625C0.28125 8.13849 0 8.42184 0 8.76816V10.0275C0 10.3738 0.28125 10.6572 0.625 10.6572H21.875C22.2188 10.6572 22.5 10.9405 22.5 11.2868V12.5461C22.5 12.8925 22.2188 13.1758 21.875 13.1758H3.125C2.78125 13.1758 2.5 13.4592 2.5 13.8055V15.0648C2.5 15.4111 2.78125 15.6945 3.125 15.6945H19.375C19.7188 15.6945 20 15.9778 20 16.3241V17.5835C20 17.9298 19.7188 18.2131 19.375 18.2131H0.625C0.28125 18.2131 0 18.4965 0 18.8428V20.1021C0 20.4484 0.28125 20.7318 0.625 20.7318H16.875C17.2188 20.7318 17.5 21.0151 17.5 21.3614V22.6208C17.5 22.9671 17.2188 23.2504 16.875 23.2504H5V33.3251C5 37.4966 8.35938 40.881 12.5 40.881C16.6406 40.881 20 37.4966 20 33.3251H30C30 37.4966 33.3594 40.881 37.5 40.881C41.6406 40.881 45 37.4966 45 33.3251H48.75C49.4375 33.3251 50 32.7584 50 32.0657V29.5471C50 28.8545 49.4375 28.2878 48.75 28.2878ZM12.5 37.1031C10.4297 37.1031 8.75 35.4108 8.75 33.3251C8.75 31.2393 10.4297 29.5471 12.5 29.5471C14.5703 29.5471 16.25 31.2393 16.25 33.3251C16.25 35.4108 14.5703 37.1031 12.5 37.1031ZM37.5 37.1031C35.4297 37.1031 33.75 35.4108 33.75 33.3251C33.75 31.2393 35.4297 29.5471 37.5 29.5471C39.5703 29.5471 41.25 31.2393 41.25 33.3251C41.25 35.4108 39.5703 37.1031 37.5 37.1031ZM43.75 20.7318H32.5V11.9165H35.9453L43.75 19.7794V20.7318Z" fill="#4B9111"/>
</svg>
