<svg width="50" height="40" viewBox="0 0 50 40" fill="none" xmlns="http://www.w3.org/2000/svg">
<path d="M48.75 27.5H47.5V19.0547C47.5 18.0625 47.1016 17.1094 46.3984 16.4062L38.5938 8.60156C37.8906 7.89844 36.9375 7.5 35.9453 7.5H32.5V3.75C32.5 1.67969 30.8203 0 28.75 0H8.75C6.67969 0 5 1.67969 5 3.75V7.5H0.625C0.28125 7.5 0 7.78125 0 8.125V9.375C0 9.71875 0.28125 10 0.625 10H21.875C22.2188 10 22.5 10.2812 22.5 10.625V11.875C22.5 12.2188 22.2188 12.5 21.875 12.5H3.125C2.78125 12.5 2.5 12.7812 2.5 13.125V14.375C2.5 14.7188 2.78125 15 3.125 15H19.375C19.7188 15 20 15.2812 20 15.625V16.875C20 17.2188 19.7188 17.5 19.375 17.5H0.625C0.28125 17.5 0 17.7812 0 18.125V19.375C0 19.7188 0.28125 20 0.625 20H16.875C17.2188 20 17.5 20.2812 17.5 20.625V21.875C17.5 22.2188 17.2188 22.5 16.875 22.5H5V32.5C5 36.6406 8.35938 40 12.5 40C16.6406 40 20 36.6406 20 32.5H30C30 36.6406 33.3594 40 37.5 40C41.6406 40 45 36.6406 45 32.5H48.75C49.4375 32.5 50 31.9375 50 31.25V28.75C50 28.0625 49.4375 27.5 48.75 27.5ZM12.5 36.25C10.4297 36.25 8.75 34.5703 8.75 32.5C8.75 30.4297 10.4297 28.75 12.5 28.75C14.5703 28.75 16.25 30.4297 16.25 32.5C16.25 34.5703 14.5703 36.25 12.5 36.25ZM37.5 36.25C35.4297 36.25 33.75 34.5703 33.75 32.5C33.75 30.4297 35.4297 28.75 37.5 28.75C39.5703 28.75 41.25 30.4297 41.25 32.5C41.25 34.5703 39.5703 36.25 37.5 36.25ZM43.75 20H32.5V11.25H35.9453L43.75 19.0547V20Z" fill="#61CC1F"/>
</svg>
