<svg width="86" height="82" viewBox="0 0 86 82" fill="none" xmlns="http://www.w3.org/2000/svg">
<path d="M57.6987 36.9162L72.9298 64.7895L84.3213 44.5687C85.5891 42.336 85.6253 39.599 84.43 37.3303L77.4212 24.0058C76.8416 22.8895 75.2298 22.9075 74.6684 24.0418L69.8147 33.7651L59.6728 33.6751C57.9704 33.6751 56.9019 35.4577 57.6987 36.9162Z" fill="#61CC1F"/>
<path d="M82.0751 48.5481L79.7389 50.1506C77.475 51.6991 74.7766 52.5094 72.0238 52.4914L50.8343 52.3113L50.8705 47.4857C50.8705 46.8735 50.0737 46.6575 49.7658 47.1796L39.8955 64.3394L49.5666 81.5171C49.8564 82.0393 50.6532 81.8412 50.6713 81.265L50.9611 75.5571L60.8133 75.6472C64.7614 75.6832 68.4016 73.5405 70.2851 70.1013L82.0751 48.5481Z" fill="#61CC1F"/>
<path d="M33.3944 27.4454L50.0562 0.400391L26.7478 0.688487C24.158 0.724499 21.7674 2.05694 20.3909 4.21767L12.2955 16.9299C11.6254 17.9923 12.4404 19.3607 13.69 19.2707L24.5926 18.5865L29.5911 27.3734C30.4242 28.8319 32.507 28.8679 33.3944 27.4454Z" fill="#61CC1F"/>
<path d="M36.7627 52.6354L4.86987 51.8071L16.7867 71.7218C18.1087 73.9365 20.4631 75.323 23.0348 75.431L38.1391 76.0432C39.3887 76.0972 40.1856 74.7108 39.4793 73.6664L33.4484 64.6274L38.5919 55.9305C39.4612 54.49 38.447 52.6714 36.7627 52.6354Z" fill="#61CC1F"/>
<path d="M14.4323 67.8142L14.2149 65.0053C13.9976 62.2864 14.6315 59.5495 16.026 57.1907L26.7837 39.0406L30.9673 41.4894C31.4925 41.7955 32.0901 41.2013 31.7823 40.6792L21.7852 23.5914L1.99027 23.3394C1.39262 23.3394 1.15719 24.0956 1.66428 24.4197L6.48171 27.5348L1.48318 35.9796C-0.527102 39.3647 -0.490881 43.5601 1.57373 46.9092L14.4323 67.8142Z" fill="#61CC1F"/>
<path d="M31.3301 0.634241L33.8837 1.85865C36.3648 3.04705 38.4113 4.95569 39.7696 7.33248L50.2014 25.6626L45.9997 28.0394C45.4745 28.3455 45.6918 29.1378 46.2895 29.1378L66.1749 29.0657L76.2988 12.1401C76.6066 11.6359 76.0452 11.0417 75.52 11.3118L70.3947 13.9047L65.541 5.38783C63.6032 1.96669 59.9268 -0.104006 55.9786 0.00403059L31.3301 0.634241Z" fill="#61CC1F"/>
</svg>
