<svg width="25" height="25" viewBox="0 0 25 25" fill="none" xmlns="http://www.w3.org/2000/svg">
<path d="M0.101562 25V11.1333C0.101562 11.1333 0.607577 1.21423 11.5387 0C20.0404 0 24.8993 0 24.8993 0V13.4612C24.8993 13.4612 24.1911 24.2907 13.6644 25C4.75731 25 0.101562 25 0.101562 25Z" fill="url(#paint0_linear_708:11)"/>
<path d="M5.48097 8.82588C4.07788 8.07559 2.57113 7.63526 1.01305 7.47925C0.183724 9.50125 0.100586 11.1332 0.100586 11.1332V24.9999C0.100586 24.9999 4.32524 24.9999 12.4194 24.9999C13.1512 17.9608 10.7033 11.6156 5.48097 8.82588Z" fill="url(#paint1_linear_708:11)"/>
<path d="M21.6939 21.2136C24.6109 17.8419 24.8993 13.4612 24.8993 13.4612V0C24.8993 0 20.0404 0 11.5387 0C10.5462 0.109825 9.63988 0.29355 8.8126 0.532701C8.04691 4.06659 8.64838 8.34359 10.7761 12.3394C13.3698 17.2117 17.5739 20.4397 21.6939 21.2136Z" fill="url(#paint2_linear_708:11)"/>
<path opacity="0.3" d="M9.43563 8.41446C5.45936 10.1912 2.09791 11.6599 0.101562 14.9793V22.1661C1.4328 21.0114 3.62211 19.7982 7.07286 19.5355C14.0206 19.0079 19.3927 15.3519 18.6445 1.39697C18.6434 1.398 16.8965 5.48204 9.43563 8.41446Z" fill="#000537"/>
<path opacity="0.1" d="M8.25322 10.0198C4.50071 12.2337 1.4523 14.2783 0.101562 18.4865V25.0001C0.101562 25.0001 0.396139 25.0001 0.978107 25.0001C1.56829 23.5826 4.27798 21.9106 7.9802 21.2763C13.2015 20.3802 17.3563 17.6685 18.1846 10.0208H8.25322V10.0198Z" fill="#000537"/>
<path d="M19.0541 0.860107C19.0541 0.860107 17.536 5.0355 10.2486 8.3754C5.0858 11.0327 0.986369 13.0814 0 19.5344C0 23.6338 0 25 0 25C0 25 1.594 20.5218 8.50166 19.6104C15.4103 18.6989 20.5721 14.7524 19.0541 0.860107Z" fill="white"/>
<path opacity="0.3" d="M17.4611 5.17505C15.8486 8.67815 12.6863 10.8438 9.56807 12.8597C6.86864 14.6046 3.37375 16.4511 1.61759 19.2449C1.12081 20.0363 0.799548 20.9118 0.564502 21.813C0.379751 22.5232 0.425939 23.835 0.16626 24.6335C0.718462 23.5466 2.79795 20.3637 8.50164 19.6113C8.6946 19.5857 8.88551 19.558 9.0754 19.5272C7.85501 19.5959 6.41395 19.4225 5.89562 18.3458C4.90925 16.2961 8.77466 14.8057 10.2486 13.6901C13.2313 11.4299 16.8175 9.1934 17.46 5.18839C17.46 5.18326 17.4611 5.17915 17.4611 5.17505Z" fill="#006E00"/>
<defs>
<linearGradient id="paint0_linear_708:11" x1="0.101152" y1="12.5" x2="24.8991" y2="12.5" gradientUnits="userSpaceOnUse">
<stop stop-color="#68B520"/>
<stop offset="1" stop-color="#00520A"/>
</linearGradient>
<linearGradient id="paint1_linear_708:11" x1="11.0924" y1="10.415" x2="-3.759" y2="30.1829" gradientUnits="userSpaceOnUse">
<stop stop-color="#68D420"/>
<stop offset="1" stop-color="#00520A"/>
</linearGradient>
<linearGradient id="paint2_linear_708:11" x1="12.5107" y1="14.0926" x2="41.0535" y2="-19.4098" gradientUnits="userSpaceOnUse">
<stop stop-color="#68D420"/>
<stop offset="1" stop-color="#00520A"/>
</linearGradient>
</defs>
</svg>
