<svg width="93" height="89" viewBox="0 0 93 89" fill="none" xmlns="http://www.w3.org/2000/svg">
<path d="M62.7619 40.1557L79.3295 70.475L91.7207 48.4798C93.0997 46.0512 93.1391 43.0741 91.8389 40.6062L84.215 26.1125C83.5846 24.8982 81.8313 24.9178 81.2206 26.1517L75.9411 36.7282L64.9091 36.6302C63.0574 36.6302 61.8951 38.5693 62.7619 40.1557Z" fill="#4B9111"/>
<path d="M89.2775 52.8083L86.7362 54.5514C84.2737 56.2358 81.3384 57.1172 78.3441 57.0976L55.2952 56.9018L55.3346 51.6527C55.3346 50.9868 54.4678 50.7517 54.1329 51.3197L43.3965 69.9853L53.9162 88.6704C54.2314 89.2384 55.0982 89.023 55.1179 88.3962L55.4331 82.1874L66.1498 82.2853C70.4444 82.3245 74.4041 79.9938 76.4529 76.2528L89.2775 52.8083Z" fill="#4B9111"/>
<path d="M36.3248 29.8539L54.4487 0.435547L29.095 0.748924C26.2779 0.788097 23.6775 2.23747 22.1803 4.5878L13.3745 18.4156C12.6456 19.5712 13.5321 21.0597 14.8914 20.9618L26.7507 20.2175L32.1879 29.7755C33.0941 31.362 35.3595 31.4012 36.3248 29.8539Z" fill="#4B9111"/>
<path d="M39.9886 57.2545L5.29712 56.3535L18.2596 78.0157C19.6977 80.4248 22.2587 81.933 25.0561 82.0505L41.4858 82.7164C42.8451 82.7752 43.7119 81.267 42.9436 80.131L36.3835 70.2988L41.9783 60.8387C42.9239 59.2718 41.8207 57.2936 39.9886 57.2545Z" fill="#4B9111"/>
<path d="M15.6987 73.7654L15.4623 70.7099C15.2259 67.7524 15.9154 64.7754 17.4323 62.2096L29.1341 42.4668L33.6847 45.1305C34.256 45.4634 34.9061 44.8171 34.5712 44.2491L23.6969 25.6619L2.16493 25.3877C1.51483 25.3877 1.25873 26.2103 1.81033 26.5629L7.0505 29.9513L1.61333 39.1371C-0.573357 42.8193 -0.533957 47.3829 1.71183 51.0259L15.6987 73.7654Z" fill="#4B9111"/>
<path d="M34.0793 0.689898L36.857 2.02175C39.5559 3.31443 41.782 5.39056 43.2595 7.97592L54.6066 27.9146L50.0362 30.4999C49.465 30.8329 49.7014 31.6947 50.3514 31.6947L71.9819 31.6163L82.9941 13.2054C83.329 12.657 82.7183 12.0107 82.1471 12.3045L76.572 15.1248L71.2924 5.86063C69.1845 2.13927 65.1855 -0.113132 60.8909 0.00438428L34.0793 0.689898Z" fill="#4B9111"/>
</svg>
