<svg width="129" height="82" viewBox="0 0 129 82" fill="none" xmlns="http://www.w3.org/2000/svg">
<path d="M66.2386 48.07C66.0236 10.2105 87.4783 12.5022 87.4783 12.5022C76.2995 18.274 72.8341 25.7624 72.8341 25.7624C96.1375 37.9108 112.041 7.5099 112.041 7.5099C89.211 -5.7503 73.4618 1.58051 69.8416 6.57279C66.2214 11.5651 68.4142 17.8054 68.4142 17.8054C66.5611 21.3494 65.3185 25.9328 64.4887 30.6098C63.6589 25.9243 62.4164 21.3494 60.5633 17.8054C60.5633 17.8054 62.756 11.5651 59.1358 6.57279C55.5156 1.58051 39.788 -5.7503 16.936 7.5099C16.936 7.5099 32.8443 37.9279 56.1434 25.7624C56.1434 25.7624 52.6779 18.274 41.5035 12.5022C41.5035 12.5022 62.9538 10.2105 62.7388 48.07H66.2386Z" fill="#61CC1F"/>
<path d="M51.3884 48.8529L46.8653 48.6187C43.5127 48.4437 40.2322 47.5881 37.2272 46.105C34.2222 44.622 31.5568 42.543 29.3963 39.9972C28.4538 38.8845 27.2768 37.9899 25.9479 37.3761C24.6191 36.7624 23.1707 36.4444 21.7045 36.4447C21.4529 36.4424 21.2044 36.5001 20.98 36.613C20.7557 36.7258 20.562 36.8904 20.4153 37.093C20.2686 37.2955 20.1732 37.53 20.1372 37.7768C20.1011 38.0235 20.1255 38.2752 20.2083 38.5106C21.008 40.7341 23.3899 44.3079 25.3204 47.0298C10.0184 44.095 10.0012 35.9122 5.08684 31.2309C2.88979 29.1309 -0.717509 31.3672 0.125197 34.2893C5.19433 51.7836 21.3949 59.0888 36.6281 60.273C39.1231 60.273 41.5159 61.2549 43.2801 63.0028C45.0444 64.7506 46.0355 67.1212 46.0355 69.5931V81.5669H63.3711V61.4401C63.3722 58.2234 62.1319 55.1279 59.9041 52.7878C57.6764 50.4477 54.6298 49.0399 51.3884 48.8529V48.8529Z" fill="#61CC1F"/>
<path d="M77.5902 48.8541L82.0961 48.6198C85.4523 48.4477 88.737 47.5935 91.7459 46.1103C94.7548 44.6272 97.4236 42.5468 99.5865 39.9984V39.9984C100.528 38.8856 101.704 37.9908 103.032 37.377C104.361 36.7632 105.808 36.4454 107.274 36.4458C107.526 36.4422 107.776 36.4989 108.001 36.6112C108.227 36.7234 108.422 36.8879 108.569 37.0906C108.717 37.2933 108.813 37.5284 108.85 37.7758C108.886 38.0232 108.862 38.2756 108.779 38.5117C107.979 40.7353 105.597 44.3091 103.671 47.031C118.969 44.0961 118.986 35.9134 123.9 31.232C126.11 29.1278 129.718 31.3641 128.875 34.2862C123.806 51.7805 107.605 59.0857 92.3719 60.2699C89.8769 60.2699 87.4841 61.2518 85.7199 62.9997C83.9557 64.7475 82.9646 67.1181 82.9646 69.59V81.5638H65.6074V61.4413C65.6063 58.2246 66.8467 55.1291 69.0744 52.789C71.3022 50.4488 74.3488 49.0411 77.5902 48.8541V48.8541Z" fill="#61CC1F"/>
</svg>
