<svg width="27" height="27" viewBox="0 0 27 27" fill="none" xmlns="http://www.w3.org/2000/svg">
<path d="M5.19147 10.2736C6.02217 8.96425 9.51844 4.05328 15.368 3.82339C15.368 3.82339 10.516 5.6209 9.33655 7.84696C9.33655 7.84696 11.8605 9.83935 13.9654 8.6038C16.0703 7.36826 18.028 3.56039 24.1364 4.71079C21.8571 -0.74794 7.70233 -2.63532 7.41824 5.50453C6.59035 6.38152 5.03396 7.96427 4.1245 9.63027C4.07805 9.71458 4.05144 9.80852 4.04672 9.90486C4.042 10.0012 4.05929 10.0973 4.09726 10.1858C4.13523 10.2744 4.19287 10.3529 4.26571 10.4153C4.33855 10.4778 4.42464 10.5225 4.51734 10.5461L4.53891 10.5517C4.66283 10.5788 4.79199 10.5666 4.90878 10.5168C5.02557 10.467 5.12429 10.3821 5.19147 10.2736Z" fill="#61CC1F"/>
<path d="M15.3586 22.7106C13.82 22.6387 7.85792 22.0389 4.73482 17.0428C4.73482 17.0428 8.70456 20.3833 11.2042 20.302C11.2042 20.302 11.6523 17.0996 9.53714 15.8801C7.42194 14.6607 3.17748 14.8527 1.1101 8.93799C-2.43304 13.6588 3.02372 26.9707 10.1531 23.1496C11.3195 23.4334 13.4591 24.0011 15.3408 23.9651C15.4363 23.9634 15.5302 23.9396 15.6152 23.8955C15.7002 23.8514 15.774 23.7882 15.831 23.7108C15.8879 23.6334 15.9265 23.5438 15.9438 23.449C15.9611 23.3541 15.9565 23.2566 15.9305 23.1638C15.9305 23.1562 15.9305 23.1487 15.924 23.142C15.8851 23.0202 15.81 22.9134 15.7088 22.8362C15.6077 22.759 15.4854 22.7152 15.3586 22.7106Z" fill="#61CC1F"/>
<path d="M20.9494 7.60793C21.6582 8.98727 24.125 14.499 21.3976 19.725C21.3976 19.725 22.2789 14.586 20.9597 12.4404C20.9597 12.4404 17.9876 13.6494 17.9979 16.1082C18.0082 18.567 20.295 22.18 16.254 26.9434C22.0764 27.6794 30.7735 16.253 23.93 11.9352C23.5906 10.7753 23.0084 8.6221 22.0333 7.00056C21.984 6.91795 21.9166 6.84786 21.8363 6.79567C21.7559 6.74348 21.6648 6.71059 21.5699 6.69953C21.4749 6.68847 21.3788 6.69954 21.2888 6.73189C21.1988 6.76423 21.1173 6.81698 21.0507 6.88609L21.0357 6.90312C20.9519 6.99778 20.8988 7.11597 20.8834 7.24192C20.8679 7.36786 20.891 7.49555 20.9494 7.60793Z" fill="#61CC1F"/>
</svg>
