<svg width="85" height="85" viewBox="0 0 85 85" fill="none" xmlns="http://www.w3.org/2000/svg">
<path d="M37.146 21.7065L25.6693 2.57988C25.1974 1.79307 24.5298 1.14189 23.7314 0.689768C22.9331 0.23765 22.0313 1.12646e-05 21.1138 0H2.66112C0.51121 0 -0.747193 2.41885 0.484647 4.18027L18.9573 30.5701C23.8913 25.9599 30.1667 22.7956 37.146 21.7065ZM82.3389 0H63.8862C62.0202 0 60.2903 0.979492 59.3307 2.57988L47.854 21.7065C54.8333 22.7956 61.1087 25.9599 66.0427 30.5685L84.5154 4.18027C85.7472 2.41885 84.4888 0 82.3389 0ZM42.5 26.5625C26.3632 26.5625 13.2812 39.6445 13.2812 55.7812C13.2812 71.918 26.3632 85 42.5 85C58.6368 85 71.7188 71.918 71.7188 55.7812C71.7188 39.6445 58.6368 26.5625 42.5 26.5625ZM57.8598 52.6701L51.5628 58.8061L53.052 67.4754C53.3176 69.0293 51.6807 70.2163 50.2878 69.4825L42.5 65.3902L34.7138 69.4825C33.3193 70.2213 31.6841 69.0276 31.9497 67.4754L33.4388 58.8061L27.1419 52.6701C26.0096 51.5678 26.6355 49.6437 28.1961 49.4179L36.9003 48.1495L40.79 40.2604C41.1403 39.5499 41.8177 39.1996 42.4967 39.1996C43.179 39.1996 43.8613 39.5549 44.2116 40.2604L48.1014 48.1495L56.8056 49.4179C58.3662 49.6437 58.992 51.5678 57.8598 52.6701V52.6701Z" fill="#61CC1F"/>
</svg>
