<svg width="85" height="87" viewBox="0 0 85 87" fill="none" xmlns="http://www.w3.org/2000/svg">
<path d="M16.6111 32.8723C19.2691 28.6828 30.456 12.9692 49.173 12.2337C49.173 12.2337 33.648 17.9851 29.874 25.1078C29.874 25.1078 37.95 31.4829 44.685 27.5295C51.4199 23.5761 57.6839 11.3921 77.2289 15.0731C69.9359 -2.39317 24.6451 -8.43219 23.7361 17.6128C21.0871 20.4189 16.1071 25.4832 13.1971 30.8139C13.0485 31.0836 12.9633 31.3842 12.9482 31.6925C12.9331 32.0007 12.9885 32.3083 13.11 32.5915C13.2315 32.8748 13.4159 33.126 13.6489 33.3258C13.882 33.5257 14.1575 33.6688 14.4541 33.7441L14.5231 33.7622C14.9196 33.8487 15.3329 33.8097 15.7066 33.6504C16.0802 33.4911 16.3961 33.2194 16.6111 32.8723V32.8723Z" fill="#61CC1F"/>
<path d="M49.1428 72.6663C44.2198 72.4363 25.1429 70.5171 15.1499 54.5311C15.1499 54.5311 27.8519 65.2197 35.8498 64.9594C35.8498 64.9594 37.2838 54.7127 30.5159 50.8108C23.7479 46.9089 10.167 47.5234 3.55198 28.5981C-7.78498 43.7033 9.67495 86.2973 32.4869 74.0709C36.2188 74.979 43.0648 76.7953 49.0858 76.6802C49.3915 76.6747 49.6919 76.5985 49.9638 76.4574C50.2357 76.3163 50.4719 76.1142 50.6541 75.8665C50.8364 75.6188 50.96 75.3322 51.0152 75.0288C51.0704 74.7254 51.0559 74.4132 50.9728 74.1163C50.9728 74.0921 50.9728 74.0679 50.9518 74.0467C50.8275 73.6569 50.5871 73.3152 50.2634 73.0682C49.9397 72.8212 49.5484 72.6809 49.1428 72.6663V72.6663Z" fill="#61CC1F"/>
<path d="M67.0318 24.3418C69.2998 28.7552 77.1927 46.391 68.4658 63.1126C68.4658 63.1126 71.2857 46.6695 67.0648 39.8041C67.0648 39.8041 57.5548 43.6727 57.5878 51.54C57.6208 59.4074 64.9378 70.9678 52.0078 86.2091C70.6377 88.5642 98.4656 52.0032 76.5687 38.1876C75.4827 34.4764 73.6197 27.5868 70.4997 22.3984C70.3421 22.1341 70.1265 21.9098 69.8694 21.7428C69.6123 21.5758 69.3207 21.4706 69.017 21.4352C68.7133 21.3998 68.4056 21.4352 68.1176 21.5387C67.8296 21.6422 67.5689 21.811 67.3558 22.0321L67.3078 22.0866C67.0398 22.3895 66.8697 22.7677 66.8204 23.1706C66.7711 23.5736 66.8448 23.9822 67.0318 24.3418V24.3418Z" fill="#61CC1F"/>
</svg>
