<svg width="23" height="22" viewBox="0 0 23 22" fill="none" xmlns="http://www.w3.org/2000/svg">
<path d="M12.6358 7.5845H10.4688V5.4175H12.6358V7.5845ZM12.6358 9.7515H10.4688V16.2525H12.6358V9.7515ZM11.5523 2.167C6.77402 2.167 2.88425 6.05677 2.88425 10.835C2.88425 15.6132 6.77402 19.503 11.5523 19.503C16.3305 19.503 20.2203 15.6132 20.2203 10.835C20.2203 6.05677 16.3305 2.167 11.5523 2.167ZM11.5523 0C17.5364 0 22.3873 4.85083 22.3873 10.835C22.3873 16.8192 17.5364 21.67 11.5523 21.67C5.56808 21.67 0.717255 16.8192 0.717255 10.835C0.717255 4.85083 5.56808 0 11.5523 0Z" fill="#61CC1F"/>
</svg>
