<svg width="38" height="30" viewBox="0 0 38 30" fill="none" xmlns="http://www.w3.org/2000/svg">
<path d="M30.3417 0C30.3417 0 33.5089 6.1897 21.8032 12.7719C16.7265 15.6252 15.0803 19.3949 14.8428 22.7479C14.786 23.5261 14.9059 24.3063 15.1964 25.0486C20.0226 23.388 29.9164 19.878 31.4116 10.989C31.4116 10.989 33.3027 20.9906 16.4098 27.3826C18.4114 28.7821 22.3667 29.8374 25.1527 28.9904C50.6337 21.2518 30.3417 0 30.3417 0Z" fill="#4B9111"/>
<path d="M10.3612 23.3474C7.06882 19.6532 2.86863 12.7796 4.1668 9.58061C4.1668 9.58061 6.52009 18.5179 12.3241 22.2106C13.5637 22.9707 14.5674 23.9596 15.2538 25.0971C16.5317 22.0294 17.6862 16.8316 13.4382 12.7751C6.99332 6.62768 4.27176 2.86857 4.82786 1.61101C5.38395 0.35344 -10.5477 18.1164 12.6151 27.2077C12.3333 26.1524 11.6907 24.839 10.3612 23.3474Z" fill="#4B9111"/>
<g style="mix-blend-mode:overlay" opacity="0.4">
<path d="M25.1533 28.9859C50.6343 21.2518 30.3423 0 30.3423 0C30.3423 0 41.269 14.1759 34.2092 22.7871C34.2092 22.7871 27.8951 30.4563 16.4141 27.3826C18.4101 28.7821 22.3672 29.8373 25.1533 28.9859Z" fill="#4B9111"/>
</g>
<g style="mix-blend-mode:overlay" opacity="0.4">
<path d="M13.4385 12.775C7.51481 7.12576 4.73801 3.49648 4.75826 1.96265C4.66803 2.74315 4.75826 4.77065 7.25517 7.67226C10.5697 11.5325 17.694 16.7137 15.2541 25.094C16.5321 22.0293 17.6866 16.8315 13.4385 12.775Z" fill="#4B9111"/>
</g>
</svg>
