<svg width="38" height="31" viewBox="0 0 38 31" fill="none" xmlns="http://www.w3.org/2000/svg">
<path d="M30.3417 0.923126C30.3417 0.923126 33.5089 7.09467 21.8032 13.6576C16.7265 16.5025 15.0803 20.2611 14.8428 23.6043C14.786 24.3802 14.9059 25.1581 15.1964 25.8983C20.0226 24.2425 29.9164 20.7428 31.4116 11.8799C31.4116 11.8799 33.3027 21.8522 16.4098 28.2254C18.4114 29.6208 22.3667 30.673 25.1527 29.8285C50.6337 22.1126 30.3417 0.923126 30.3417 0.923126Z" fill="#61CC1F"/>
<path d="M10.3612 24.2019C7.06882 20.5186 2.86863 13.6651 4.1668 10.4755C4.1668 10.4755 6.52009 19.3866 12.3241 23.0685C13.5637 23.8263 14.5674 24.8123 15.2538 25.9465C16.5317 22.8878 17.6862 17.7052 13.4382 13.6606C6.99332 7.53124 4.27176 3.78315 4.82786 2.52928C5.38396 1.2754 -10.5477 18.9862 12.6151 28.0509C12.3333 26.9987 11.6907 25.6891 10.3612 24.2019Z" fill="#61CC1F"/>
<g style="mix-blend-mode:overlay" opacity="0.4">
<path d="M25.1533 29.824C50.6343 22.1126 30.3423 0.923126 30.3423 0.923126C30.3423 0.923126 41.269 15.0575 34.2092 23.6434C34.2092 23.6434 27.8951 31.2901 16.4141 28.2254C18.4101 29.6208 22.3672 30.673 25.1533 29.824Z" fill="#61CC1F"/>
</g>
<g style="mix-blend-mode:overlay" opacity="0.4">
<path d="M13.4385 13.6605C7.51481 8.02785 4.73801 4.40922 4.75826 2.87988C4.66803 3.6581 4.75826 5.67966 7.25517 8.57275C10.5697 12.4217 17.694 17.5877 15.2541 25.9434C16.5321 22.8877 17.6866 17.7051 13.4385 13.6605Z" fill="#61CC1F"/>
</g>
</svg>
