<svg width="37" height="34" viewBox="0 0 37 34" fill="none" xmlns="http://www.w3.org/2000/svg">
<path d="M17.6832 16.6355C18.1329 17.1269 18.8651 17.1269 19.3212 16.6355L26.3161 9.05222C28.3458 6.84763 28.2302 3.19544 25.9564 1.16349C23.978 -0.609481 21.0297 -0.290744 19.2184 1.6748L18.499 2.45172L17.786 1.68144C15.9746 -0.290744 13.0264 -0.609481 11.048 1.16349C8.78059 3.19544 8.65855 6.84763 10.6883 9.05222L17.6832 16.6355ZM36.3107 21.7884C35.5527 21.0779 34.3708 21.1244 33.5744 21.7884L27.6393 26.6956C26.9134 27.2999 26.0078 27.6253 25.07 27.6253H17.4713C16.906 27.6253 16.4435 27.1472 16.4435 26.5628C16.4435 25.9785 16.906 25.5004 17.4713 25.5004H22.5007C23.522 25.5004 24.4726 24.7766 24.6396 23.734C24.8516 22.406 23.8624 21.2505 22.6099 21.2505H12.3327C10.5984 21.2505 8.9219 21.8681 7.57302 22.9969L4.58621 25.5004H1.02772C0.462474 25.5004 0 25.9785 0 26.5628V32.9375C0 33.5219 0.462474 34 1.02772 34H23.9459C24.8773 34 25.783 33.6746 26.5152 33.0704L36.2272 25.0355C37.2035 24.2321 37.2806 22.6915 36.3107 21.7884Z" fill="#61CC1F"/>
</svg>
