<svg width="37" height="43" viewBox="0 0 37 43" fill="none" xmlns="http://www.w3.org/2000/svg">
<path d="M20.1942 23.62C19.7403 22.8623 19.4915 21.9939 19.4734 21.1044C19.4553 20.215 19.6686 19.3367 20.0913 18.5601C20.514 17.7836 21.1308 17.1369 21.878 16.6869C22.6253 16.2369 23.4759 15.9997 24.3421 16H26.2895C29.23 16 30.1842 14 30.1842 14C30.1842 14 31.2553 26 24.3421 26C23.3879 26 22.5116 25.72 21.7716 25.24C21.3042 26.52 20.6226 28.76 20.2916 31.16C22.7453 31.6 24.7316 32.94 25.6858 34.7C27.3727 33.5042 28.752 31.9059 29.7051 30.0422C30.6582 28.1785 31.1567 26.1051 31.1579 24H37C37 34.48 28.7042 43 18.5 43C8.29579 43 0 34.48 0 24C0 13.52 8.29579 5 18.5 5V0L26.2895 8L18.5 16V11C11.5284 11 5.84211 16.84 5.84211 24C5.84211 28.42 8.00368 32.34 11.3142 34.7C12.3074 32.86 14.4884 31.46 17.1174 31.1C16.9421 29.72 16.6111 28.26 16.1632 27.04C15.4816 27.64 14.6053 28 13.6316 28C11.4895 28 9.73684 26.2 9.73684 24V22.02C9.73684 20.9 9.36684 19.84 8.76316 19C8.76316 19 17.4289 18.54 17.5263 24C17.5263 24.58 17.4095 25.12 17.1953 25.6C16.3774 24.96 15.5205 24.4 14.6053 24C15.7347 24.86 17.2732 26.74 18.5 29.2C19.8047 25.96 21.7716 22.66 24.3421 20C22.8621 21.04 21.4795 22.24 20.1942 23.62V23.62Z" fill="#61CC1F"/>
</svg>
