<svg width="33" height="46" viewBox="0 0 33 46" fill="none" xmlns="http://www.w3.org/2000/svg">
<path d="M16.7615 45.9999C25.6081 45.9999 32.8087 38.7993 32.8087 29.9527C32.8087 21.1062 25.6081 13.9056 16.7615 13.9056C7.91265 13.9056 0.714355 21.1062 0.714355 29.9527C0.714355 38.7993 7.91265 45.9999 16.7615 45.9999ZM16.7615 18.4905C23.0818 18.4905 28.2238 23.6325 28.2238 29.9527C28.2238 36.273 23.0818 41.415 16.7615 41.415C10.4412 41.415 5.29926 36.273 5.29926 29.9527C5.29926 23.6325 10.4412 18.4905 16.7615 18.4905ZM14.4691 0.150879H5.29926V12.8006C8.04259 10.9649 11.1881 9.81758 14.4691 9.45594V0.150879ZM28.2238 0.150879H19.054V9.45594C22.335 9.81758 25.4804 10.9649 28.2238 12.8006V0.150879Z" fill="#61CC1F"/>
<path d="M12.2199 31.8122L11.147 38.0614L16.7613 35.111L22.3755 38.0614L21.3026 31.8122L25.8462 27.3832L19.5695 26.4708L16.7613 20.7832L13.953 26.4708L7.67627 27.3832L12.2199 31.8122Z" fill="#61CC1F"/>
</svg>
