<svg width="36" height="29" viewBox="0 0 36 29" fill="none" xmlns="http://www.w3.org/2000/svg">
<path d="M35.1 19.9375H34.2V13.8146C34.2 13.0953 33.9131 12.4043 33.4069 11.8945L27.7875 6.23613C27.2812 5.72637 26.595 5.4375 25.8806 5.4375H23.4V2.71875C23.4 1.21777 22.1906 0 20.7 0H6.3C4.80937 0 3.6 1.21777 3.6 2.71875V5.4375H0.45C0.2025 5.4375 0 5.64141 0 5.89062V6.79688C0 7.04609 0.2025 7.25 0.45 7.25H15.75C15.9975 7.25 16.2 7.45391 16.2 7.70312V8.60938C16.2 8.85859 15.9975 9.0625 15.75 9.0625H2.25C2.0025 9.0625 1.8 9.26641 1.8 9.51562V10.4219C1.8 10.6711 2.0025 10.875 2.25 10.875H13.95C14.1975 10.875 14.4 11.0789 14.4 11.3281V12.2344C14.4 12.4836 14.1975 12.6875 13.95 12.6875H0.45C0.2025 12.6875 0 12.8914 0 13.1406V14.0469C0 14.2961 0.2025 14.5 0.45 14.5H12.15C12.3975 14.5 12.6 14.7039 12.6 14.9531V15.8594C12.6 16.1086 12.3975 16.3125 12.15 16.3125H3.6V23.5625C3.6 26.5645 6.01875 29 9 29C11.9812 29 14.4 26.5645 14.4 23.5625H21.6C21.6 26.5645 24.0187 29 27 29C29.9812 29 32.4 26.5645 32.4 23.5625H35.1C35.595 23.5625 36 23.1547 36 22.6562V20.8438C36 20.3453 35.595 19.9375 35.1 19.9375ZM9 26.2812C7.50937 26.2812 6.3 25.0635 6.3 23.5625C6.3 22.0615 7.50937 20.8438 9 20.8438C10.4906 20.8438 11.7 22.0615 11.7 23.5625C11.7 25.0635 10.4906 26.2812 9 26.2812ZM27 26.2812C25.5094 26.2812 24.3 25.0635 24.3 23.5625C24.3 22.0615 25.5094 20.8438 27 20.8438C28.4906 20.8438 29.7 22.0615 29.7 23.5625C29.7 25.0635 28.4906 26.2812 27 26.2812ZM31.5 14.5H23.4V8.15625H25.8806L31.5 13.8146V14.5Z" fill="#61CC1F"/>
</svg>
