<svg width="35" height="21" viewBox="0 0 35 21" fill="none" xmlns="http://www.w3.org/2000/svg">
<path fill-rule="evenodd" clip-rule="evenodd" d="M12.1933 20.1047C11.7926 20.4935 11.2493 20.7119 10.6827 20.7119C10.1162 20.7119 9.5728 20.4935 9.17212 20.1047L0.625633 11.8096C0.225079 11.4207 6.10352e-05 10.8933 6.10352e-05 10.3435C6.10352e-05 9.79357 0.225079 9.26619 0.625633 8.8773L9.17212 0.582176C9.57509 0.204422 10.1148 -0.00460434 10.675 0.000120163C11.2352 0.00484657 11.7711 0.222942 12.1673 0.607439C12.5634 0.991934 12.7881 1.51206 12.793 2.0558C12.7979 2.59954 12.5825 3.12338 12.1933 3.5145L7.29403 8.26968L32.0489 8.26968C32.6156 8.26968 33.1591 8.48817 33.5597 8.87707C33.9604 9.26598 34.1855 9.79346 34.1855 10.3435C34.1855 10.8935 33.9604 11.4209 33.5597 11.8098C33.1591 12.1988 32.6156 12.4172 32.0489 12.4172L7.29403 12.4172L12.1933 17.1724C12.5939 17.5613 12.8189 18.0887 12.8189 18.6386C12.8189 19.1885 12.5939 19.7158 12.1933 20.1047Z" fill="#61CC1F"/>
</svg>
