<svg width="35" height="21" viewBox="0 0 35 21" fill="none" xmlns="http://www.w3.org/2000/svg">
<path fill-rule="evenodd" clip-rule="evenodd" d="M22.1778 0.607419C22.5785 0.218645 23.1218 0.000244141 23.6884 0.000244141C24.2549 0.000244141 24.7983 0.218645 25.199 0.607419L33.7455 8.90254C34.146 9.29143 34.371 9.81881 34.371 10.3687C34.371 10.9186 34.146 11.446 33.7455 11.8349L25.199 20.13C24.796 20.5077 24.2563 20.7168 23.6961 20.712C23.1359 20.7073 22.6 20.4892 22.2038 20.1047C21.8077 19.7202 21.583 19.2001 21.5781 18.6564C21.5732 18.1126 21.7886 17.5888 22.1778 17.1977L27.0771 12.4425H2.32217C1.7555 12.4425 1.21204 12.224 0.811349 11.8351C0.410654 11.4462 0.185547 10.9187 0.185547 10.3687C0.185547 9.8187 0.410654 9.29123 0.811349 8.90232C1.21204 8.51341 1.7555 8.29492 2.32217 8.29492H27.0771L22.1778 3.53974C21.7772 3.15085 21.5522 2.62347 21.5522 2.07358C21.5522 1.52369 21.7772 0.99631 22.1778 0.607419V0.607419Z" fill="#4B9111"/>
</svg>
