<svg width="43" height="41" viewBox="0 0 43 41" fill="none" xmlns="http://www.w3.org/2000/svg">
<path d="M18.5081 11.7545L16.3456 10.4017L23.219 0H15.0025C14.4849 3.56138e-05 13.9758 0.131658 13.523 0.382528C13.0701 0.633399 12.6883 0.995302 12.4133 1.43431L9.48405 6.11194L7.3833 4.79726L10.5344 12.1345L18.5081 11.7545Z" fill="#61CC1F"/>
<path d="M22.5319 2.01066L20.8828 4.6742L25.4427 12.9895L27.7102 8.70237L32.8794 8.85882L29.4315 2.26308C29.1066 1.64098 28.6231 1.11604 28.03 0.741515C27.437 0.366991 26.7556 0.156217 26.0549 0.130584C25.3543 0.10495 24.6593 0.26537 24.0406 0.595563C23.4218 0.925756 22.9013 1.41397 22.5319 2.01066V2.01066Z" fill="#61CC1F"/>
<path d="M14.1986 29.6625L1.76611 28.9039L5.87439 36.0282C6.13317 36.477 6.50157 36.8526 6.94504 37.1198C7.38851 37.387 7.8925 37.537 8.40973 37.5558L13.9242 37.7583L13.8389 40.2391L18.6115 33.8392L14.2931 27.1094L14.1986 29.6625Z" fill="#61CC1F"/>
<path d="M6.9762 28.5904L11.8893 20.4788L7.0471 20.655L4.59842 16.0957L0.617501 22.3838C0.242264 22.9766 0.0302654 23.6582 0.00300709 24.3595C-0.0242512 25.0608 0.1342 25.7568 0.462291 26.377C0.790382 26.9972 1.27644 27.5195 1.87117 27.8909C2.4659 28.2623 3.14815 28.4696 3.84871 28.4918L6.9762 28.5904Z" fill="#61CC1F"/>
<path d="M41.6541 22.965L39.0741 18.0862L41.2628 16.9201L33.3443 15.9814L29.6812 23.0912L31.9329 21.8909L37.492 33.0512L41.6003 25.927C41.8591 25.4783 41.9999 24.9711 42.0093 24.453C42.0187 23.9349 41.8965 23.4229 41.6541 22.965V22.965Z" fill="#61CC1F"/>
<path d="M34.6164 28.6916L25.1433 28.4878L27.7167 32.6041L24.9976 37.0082L32.425 37.3106C33.1261 37.341 33.8227 37.185 34.4441 36.8585C35.0654 36.532 35.5894 36.0467 35.9629 35.4518C36.3363 34.8569 36.5458 34.1737 36.5701 33.4714C36.5944 32.7692 36.4327 32.0731 36.1013 31.4537L34.6164 28.6916Z" fill="#61CC1F"/>
<path d="M25.5967 20.0358C26.3011 19.5124 26.8545 18.8115 27.2004 18.0044C27.5464 17.1973 27.6726 16.3128 27.5662 15.441C26.9366 15.1607 26.2556 15.0149 25.5666 15.0127C24.8776 15.0106 24.1957 15.1521 23.5644 15.4285C22.933 15.7048 22.3661 16.1097 21.8997 16.6176C21.4334 17.1254 21.0778 17.725 20.8556 18.378C20.4117 17.5164 19.6556 16.8574 18.7421 16.536C17.8287 16.2146 16.8271 16.2551 15.9425 16.6492C15.868 17.2602 15.943 17.8802 16.1609 18.4557C16.3789 19.0313 16.7332 19.5452 17.1935 19.9532C17.6538 20.3611 18.2062 20.651 18.8032 20.7978C19.4002 20.9445 20.0239 20.9438 20.6206 20.7957V26.7472H21.2771V20.8167C22.0086 21.0277 22.7788 21.0669 23.528 20.9315C24.2771 20.7961 24.985 20.4896 25.5967 20.0358V20.0358Z" fill="#61CC1F"/>
</svg>
