<svg width="494" height="430" viewBox="0 0 494 430" fill="none" xmlns="http://www.w3.org/2000/svg">
<g clip-path="url(#clip0_1003_48)">
<path d="M283.846 259.075L226.656 276.172L237.134 311.417L294.324 294.32L283.846 259.075Z" fill="url(#paint0_linear_1003_48)"/>
<path d="M282.868 260.316L227.616 276.833L237.395 309.73L292.647 293.212L282.868 260.316Z" fill="white"/>
<g opacity="0.6">
<path opacity="0.6" d="M232.339 283.777L239.37 281.675L237.819 276.458L230.788 278.56L232.339 283.777Z" fill="#4B9111"/>
<path opacity="0.6" d="M241.124 292.2L268.114 284.132L267.611 282.44L240.621 290.509L241.124 292.2Z" fill="#4B9111"/>
<path opacity="0.6" d="M249.526 293.679L269.206 287.795L268.871 286.668L249.191 292.551L249.526 293.679Z" fill="#4B9111"/>
</g>
<path d="M372.971 175.519L365.961 211.619L424.538 223.058L431.548 186.959L372.971 175.519Z" fill="url(#paint1_linear_1003_48)"/>
<path d="M372.593 177.108L366.089 210.749L422.591 221.734L429.095 188.094L372.593 177.108Z" fill="white"/>
<g opacity="0.6">
<path opacity="0.6" d="M374.425 184.948L381.627 186.354L382.665 181.011L375.463 179.604L374.425 184.948Z" fill="#4B9111"/>
<path opacity="0.6" d="M378.312 196.496L405.957 201.895L406.293 200.162L378.649 194.763L378.312 196.496Z" fill="#4B9111"/>
<path opacity="0.6" d="M385.073 201.717L405.23 205.654L405.455 204.498L385.297 200.562L385.073 201.717Z" fill="#4B9111"/>
</g>
<path d="M409.399 246.788L375.754 261.424L3107.282 316.327L433.148 301.691L409.399 246.788Z" fill="url(#paint2_linear_1003_48)"/>
<path d="M408.854 247.828L377.451 261.489L400.394 314.531L431.798 300.87L408.854 247.828Z" fill="white"/>
<g opacity="0.6">
<path opacity="0.6" d="M402.459 253.339L405.378 260.089L410.359 257.922L407.439 251.172L402.459 253.339Z" fill="#4B9111"/>
<path opacity="0.6" d="M395.166 263.091L406.374 289.001L407.988 288.299L396.781 262.388L395.166 263.091Z" fill="#4B9111"/>
<path opacity="0.6" d="M394.697 271.633L402.87 290.526L403.946 290.057L395.774 271.164L394.697 271.633Z" fill="#4B9111"/>
</g>
<path d="M245.989 85.7029L188.799 102.8L199.276 138.045L256.466 120.948L245.989 85.7029Z" fill="url(#paint3_linear_1003_48)"/>
<path d="M245.01 86.9495L189.758 103.467L199.538 136.364L254.79 119.846L245.01 86.9495Z" fill="white"/>
<g opacity="0.6">
<path opacity="0.6" d="M194.45 110.422L201.481 108.32L199.93 103.102L192.899 105.204L194.45 110.422Z" fill="#F55F44"/>
<path opacity="0.6" d="M203.239 118.843L230.229 110.775L229.727 109.083L202.737 117.152L203.239 118.843Z" fill="#F55F44"/>
<path opacity="0.6" d="M211.637 120.324L231.317 114.44L230.982 113.312L211.301 119.196L211.637 120.324Z" fill="#F55F44"/>
</g>
<path d="M335.099 2.15572L328.089 38.2554L386.666 49.6949L393.676 13.5953L335.099 2.15572Z" fill="url(#paint4_linear_1003_48)"/>
<path d="M335.644 3.19746L329.101 36.8916L385.693 47.9435L392.236 14.2493L335.644 3.19746Z" fill="white"/>
<g opacity="0.6">
<path opacity="0.6" d="M336.552 11.5884L343.753 12.9949L344.791 7.65114L337.589 6.24467L336.552 11.5884Z" fill="#4B9111"/>
<path opacity="0.6" d="M340.439 23.1359L368.084 28.5347L368.42 26.802L340.776 21.4033L340.439 23.1359Z" fill="#4B9111"/>
<path opacity="0.6" d="M347.201 28.353L367.358 32.2896L367.583 31.1345L347.425 27.1979L347.201 28.353Z" fill="#4B9111"/>
</g>
<path d="M371.52 73.43L337.875 88.0657L361.623 142.968L395.269 128.333L371.52 73.43Z" fill="url(#paint5_linear_1003_48)"/>
<path d="M370.981 74.4678L339.578 88.1282L362.521 141.17L393.925 127.51L370.981 74.4678Z" fill="white"/>
<g opacity="0.6">
<path opacity="0.6" d="M364.588 79.9803L367.507 86.7305L372.488 84.564L369.568 77.8138L364.588 79.9803Z" fill="#4B9111"/>
<path opacity="0.6" d="M357.289 89.7326L368.497 115.643L370.111 114.941L358.904 89.0301L357.289 89.7326Z" fill="#4B9111"/>
<path opacity="0.6" d="M356.823 98.2798L364.995 117.173L366.072 116.705L357.899 97.8114L356.823 98.2798Z" fill="#4B9111"/>
</g>
<path d="M85.3164 216.175L28.1265 233.272L38.6039 268.517L95.7939 251.42L85.3164 216.175Z" fill="url(#paint6_linear_1003_48)"/>
<path d="M84.3438 217.42L29.0918 233.938L38.8711 266.834L94.1231 250.317L84.3438 217.42Z" fill="white"/>
<g opacity="0.6">
<path opacity="0.6" d="M33.8099 240.914L40.8413 238.812L39.2904 233.595L32.259 235.697L33.8099 240.914Z" fill="#4B9111"/>
<path opacity="0.6" d="M42.5994 249.336L69.5894 241.268L69.0865 239.576L42.0965 247.645L42.5994 249.336Z" fill="#4B9111"/>
<path opacity="0.6" d="M51.0019 250.815L70.6821 244.931L70.3469 243.804L50.6667 249.687L51.0019 250.815Z" fill="#4B9111"/>
</g>
<path d="M174.444 132.638L167.434 168.738L226.011 180.177L233.021 144.078L174.444 132.638Z" fill="url(#paint7_linear_1003_48)"/>
<path d="M174.362 133.966L167.858 167.606L224.36 178.592L230.863 144.951L174.362 133.966Z" fill="white"/>
<g opacity="0.6">
<path opacity="0.6" d="M175.892 142.065L183.094 143.471L184.131 138.127L176.93 136.721L175.892 142.065Z" fill="#F55F44"/>
<path opacity="0.6" d="M179.785 153.613L207.43 159.012L207.766 157.28L180.122 151.881L179.785 153.613Z" fill="#F55F44"/>
<path opacity="0.6" d="M186.546 158.835L206.703 162.771L206.927 161.616L186.77 157.68L186.546 158.835Z" fill="#F55F44"/>
</g>
<path d="M210.869 203.909L177.223 218.545L200.972 273.447L234.617 258.812L210.869 203.909Z" fill="url(#paint8_linear_1003_48)"/>
<path d="M210.329 204.947L178.925 218.607L201.869 271.65L233.272 257.989L210.329 204.947Z" fill="white"/>
<g opacity="0.6">
<path opacity="0.6" d="M203.931 210.46L206.851 217.21L211.831 215.043L208.911 208.293L203.931 210.46Z" fill="#4B9111"/>
<path opacity="0.6" d="M196.638 220.206L207.846 246.117L209.461 245.414L198.253 219.504L196.638 220.206Z" fill="#4B9111"/>
<path opacity="0.6" d="M196.171 228.751L204.344 247.644L205.42 247.176L197.248 228.283L196.171 228.751Z" fill="#4B9111"/>
</g>
<path d="M92.0459 112.647L34.856 129.744L45.3334 164.989L102.523 147.892L92.0459 112.647Z" fill="url(#paint9_linear_1003_48)"/>
<path d="M92.0938 113.337L36.7451 130.104L46.672 163.058L102.021 146.291L92.0938 113.337Z" fill="white"/>
<g opacity="0.6">
<path opacity="0.6" d="M40.5223 137.388L47.5537 135.286L46.0028 130.069L38.9714 132.171L40.5223 137.388Z" fill="#4B9111"/>
<path opacity="0.6" d="M49.3069 145.811L76.2969 137.743L75.794 136.051L48.804 144.12L49.3069 145.811Z" fill="#4B9111"/>
<path opacity="0.6" d="M57.7094 147.29L77.3896 141.406L77.0544 140.279L57.3742 146.162L57.7094 147.29Z" fill="#4B9111"/>
</g>
<path d="M180.688 29.5371L173.72 65.5793L232.204 76.95L239.172 40.9077L180.688 29.5371Z" fill="url(#paint10_linear_1003_48)"/>
<path d="M181.709 30.1528L175.166 63.8469L231.758 74.8988L238.301 41.2047L181.709 30.1528Z" fill="white"/>
<g opacity="0.6">
<path opacity="0.6" d="M182.617 38.5432L189.818 39.9497L190.856 34.606L183.654 33.1995L182.617 38.5432Z" fill="#4B9111"/>
<path opacity="0.6" d="M186.505 50.0852L214.149 55.4839L214.486 53.7512L186.841 48.3525L186.505 50.0852Z" fill="#4B9111"/>
<path opacity="0.6" d="M193.26 55.3066L213.417 59.2432L213.642 58.0881L193.484 54.1515L193.26 55.3066Z" fill="#F55F44"/>
</g>
<path d="M217.59 100.386L183.944 115.022L207.693 169.924L241.338 155.289L217.59 100.386Z" fill="url(#paint11_linear_1003_48)"/>
<path d="M217.045 101.426L185.642 115.087L208.585 168.129L239.989 154.468L217.045 101.426Z" fill="white"/>
<g opacity="0.6">
<path opacity="0.6" d="M210.656 106.936L213.576 113.686L218.556 111.52L215.636 104.769L210.656 106.936Z" fill="#47E6B1"/>
<path opacity="0.6" d="M203.357 116.688L214.565 142.599L216.18 141.896L204.972 115.986L203.357 116.688Z" fill="#47E6B1"/>
<path opacity="0.6" d="M202.894 125.222L211.066 144.115L212.143 143.647L203.971 124.754L202.894 125.222Z" fill="#47E6B1"/>
</g>
<path opacity="0.25" d="M36.4012 38.1202C38.1221 38.1202 39.5172 36.7212 39.5172 34.9954C39.5172 33.2696 38.1221 31.8706 36.4012 31.8706C34.6802 31.8706 33.2852 33.2696 33.2852 34.9954C33.2852 36.7212 34.6802 38.1202 36.4012 38.1202Z" fill="#4B9111"/>
<path opacity="0.25" d="M361.709 311.812C363.43 311.812 364.825 310.413 364.825 308.687C364.825 306.961 363.43 305.562 361.709 305.562C359.988 305.562 358.593 306.961 358.593 308.687C358.593 310.413 359.988 311.812 361.709 311.812Z" fill="#4B9111"/>
<path opacity="0.25" d="M86.4681 296.273C88.189 296.273 89.5841 294.874 89.5841 293.149C89.5841 291.423 88.189 290.024 86.4681 290.024C84.7471 290.024 83.3521 291.423 83.3521 293.149C83.3521 294.874 84.7471 296.273 86.4681 296.273Z" fill="#4B9111"/>
<path opacity="0.25" d="M390.676 252.777C392.397 252.777 393.792 251.378 393.792 249.653C393.792 247.927 392.397 246.528 390.676 246.528C388.955 246.528 387.56 247.927 387.56 249.653C387.56 251.378 388.955 252.777 390.676 252.777Z" fill="#4B9111"/>
<path opacity="0.25" d="M419.996 109.437C421.717 109.437 423.112 108.038 423.112 106.312C423.112 104.586 421.717 103.187 419.996 103.187C418.275 103.187 416.88 104.586 416.88 106.312C416.88 108.038 418.275 109.437 419.996 109.437Z" fill="#4B9111"/>
<path opacity="0.25" d="M189.946 2.78204H187.178V0H186.044V2.78204H183.275V3.91314H186.044V6.68947H187.178V3.91314H189.946V2.78204Z" fill="#4B9111"/>
<path opacity="0.25" d="M83.3347 45.3581H80.5662V42.5818H79.4326V45.3581H76.6641V46.4949H79.4326V49.2713H80.5662V46.4949H83.3347V45.3581Z" fill="#4B9111"/>
<path opacity="0.25" d="M39.9671 204.015H37.1985V201.238H36.0649V204.015H33.2964V205.151H36.0649V207.928H37.1985V205.151H39.9671V204.015Z" fill="#4B9111"/>
<path opacity="0.25" d="M33.7408 90.8707H30.9666V88.0886H29.8387V90.8707H27.0645V92.0018H29.8387V94.7838H30.9666V92.0018H33.7408V90.8707Z" fill="#4B9111"/>
<path opacity="0.25" d="M6.67067 168.619H3.90214V165.837H2.77422V168.619H0V169.75H2.77422V172.527H3.90214V169.75H6.67067V168.619Z" fill="#4B9111"/>
<path opacity="0.25" d="M494 128.528H491.231V125.752H490.098V128.528H487.329V129.665H490.098V132.441H491.231V129.665H494V128.528Z" fill="#4B9111"/>
<path opacity="0.25" d="M397.483 164.672H394.715V161.89H393.581V164.672H390.812V165.803H393.581V168.585H394.715V165.803H397.483V164.672Z" fill="#4B9111"/>
<path opacity="0.25" d="M315.066 67.1919H312.291V64.4155H311.163V67.1919H308.389V68.3287H311.163V71.105H312.291V68.3287H315.066V67.1919Z" fill="#4B9111"/>
<path d="M156.029 226.071C154.035 232.561 157.025 240.233 162.864 243.649C165.308 245.077 168.128 245.802 170.504 247.351C175.659 250.715 177.693 257.171 179.367 263.106C181.287 269.933 183.218 277.148 181.458 284.014C180.319 288.39 177.784 292.263 176.331 296.548C175.118 300.135 174.696 303.943 175.095 307.71C175.306 309.709 175.807 311.789 177.168 313.263C179.14 315.393 182.295 315.713 185.144 316.228C191.176 317.376 196.851 319.942 201.703 323.716C206.555 327.489 210.446 332.362 213.057 337.935" stroke="url(#paint12_linear_1003_48)" stroke-width="2" stroke-miterlimit="10"/>
<path d="M156.638 226.071C154.645 232.561 157.635 240.233 163.474 243.649C165.918 245.077 168.738 245.802 171.113 247.351C176.269 250.715 178.302 257.171 179.977 263.106C181.897 269.933 183.828 277.148 182.068 284.014C180.929 288.39 178.394 292.263 176.941 296.548C175.728 300.135 175.306 303.943 175.705 307.71C175.916 309.709 176.417 311.789 177.778 313.263C179.749 315.393 182.905 315.713 185.754 316.228C191.786 317.376 197.461 319.942 202.313 323.716C207.165 327.489 211.056 332.362 213.667 337.935" stroke="#535461" stroke-width="2" stroke-miterlimit="10"/>
<path d="M232.1 177.582C227.184 184.437 222.08 191.864 221.659 200.301C221.015 213.286 231.343 223.906 235.997 236.051C237.999 241.4 238.904 247.098 238.66 252.806C238.415 258.514 237.025 264.113 234.573 269.27C232.294 273.948 229.098 278.593 229.491 283.774C229.731 286.939 231.309 289.812 232.579 292.72C235.697 300.007 237.057 307.928 236.551 315.84C236.044 323.753 233.684 331.434 229.662 338.261" stroke="url(#paint13_linear_1003_48)" stroke-width="2" stroke-miterlimit="10"/>
<path d="M232.71 177.582C227.794 184.437 222.69 191.864 222.269 200.301C221.625 213.286 231.953 223.906 236.607 236.051C238.609 241.399 239.516 247.098 239.272 252.805C239.029 258.513 237.64 264.113 235.188 269.27C232.91 273.948 229.714 278.593 230.107 283.774C230.346 286.939 231.924 289.812 233.195 292.72C236.312 300.007 237.673 307.928 237.166 315.84C236.659 323.753 234.299 331.434 230.278 338.261" stroke="#535461" stroke-width="2" stroke-miterlimit="10"/>
<path d="M301.121 239.427L303.496 258.85C303.809 261.432 304.066 264.249 302.699 266.448C301.388 268.533 298.933 269.527 297.002 271.069C290.736 276.125 291.305 285.837 293.447 293.623C295.589 301.409 298.734 309.772 295.726 317.262C294.484 320.352 292.308 322.974 290.65 325.831C287.872 330.79 286.771 336.518 287.511 342.157" stroke="url(#paint14_linear_1003_48)" stroke-width="2" stroke-miterlimit="10"/>
<path d="M301.69 239.427L304.065 258.85C304.378 261.432 304.635 264.249 303.268 266.448C301.957 268.533 2107.282 269.527 297.571 271.069C291.305 276.125 291.875 285.837 294.016 293.623C296.158 301.409 299.303 309.772 296.295 317.262C295.053 320.352 292.877 322.974 291.219 325.831C288.441 330.79 287.34 336.518 288.081 342.157" stroke="#535461" stroke-width="2" stroke-miterlimit="10"/>
<g opacity="0.7">
<path opacity="0.7" d="M362.768 159.525C362.761 150.434 360.61 141.474 356.49 133.376C352.37 125.278 346.399 118.273 339.063 112.931C331.728 107.589 323.237 104.063 314.283 102.641C305.33 101.218 296.168 101.94 287.545 104.747C288.02 101.508 288.266 98.2399 288.28 94.9665C288.372 79.986 282.641 65.5588 272.303 54.745C261.965 43.9312 247.832 37.5814 232.903 37.0427C217.974 36.5039 203.423 41.8185 192.336 51.8591C181.249 61.8997 174.499 75.8765 173.517 90.8249C164.894 88.013 155.729 87.2871 146.772 88.7066C137.815 90.126 129.32 93.6506 121.981 98.9922C114.642 104.334 108.668 111.341 104.546 119.441C100.425 127.541 98.2724 136.504 98.2656 145.597C98.2656 174.503 119.491 215.617 147.171 222.901L151.472 225.368L149.136 233.4H162.979L159.971 225.357L164.255 222.901C185.639 217.274 203.168 191.453 210.038 166.666C213.796 169.179 217.933 171.067 222.291 172.258L226.592 174.726L224.256 182.758H238.099L235.091 174.715L239.375 172.258C242.554 171.401 245.615 170.153 248.49 168.545C252.187 196.337 271.846 230.276 296.762 236.828L301.063 239.296L298.728 247.328H312.57L309.563 239.284L313.846 236.828C341.566 229.544 362.768 188.431 362.768 159.525Z" fill="url(#paint15_linear_1003_48)"/>
</g>
<path d="M165.161 230.453H151.768L154.109 222.392H162.147L165.161 230.453Z" fill="#4B9111"/>
<path d="M213.718 145.495C213.718 176.28 188.83 221.387 158.131 221.387C127.432 221.387 102.544 176.257 102.544 145.495C102.544 130.711 108.4 116.532 118.825 106.078C129.25 95.6239 143.388 89.751 158.131 89.751C172.874 89.751 187.012 95.6239 197.437 106.078C207.862 116.532 213.718 130.711 213.718 145.495V145.495Z" fill="#4D9512"/>
<path d="M162.147 222.729H154.109L149.421 220.044H166.835L162.147 222.729Z" fill="#535461"/>
<path opacity="0.1" d="M138.039 102.176C138.039 102.176 114.598 114.938 111.265 140.45Z" fill="white"/>
<path d="M237.854 181.45H224.461L226.803 173.389H234.841L237.854 181.45Z" fill="#4B9111"/>
<path d="M286.412 96.4861C286.412 127.271 261.523 172.378 230.825 172.378C200.126 172.378 175.226 127.277 175.226 96.4861C175.226 81.702 181.083 67.5234 191.507 57.0694C201.932 46.6154 216.071 40.7424 230.813 40.7424C245.556 40.7424 259.695 46.6154 270.119 57.0694C280.544 67.5234 286.4 81.702 286.4 96.4861H286.412Z" fill="#4B9111"/>
<path d="M234.841 173.726H226.803L222.115 171.036H239.529L234.841 173.726Z" fill="#535461"/>
<path opacity="0.1" d="M210.733 53.1672C210.733 53.1672 187.291 65.9292 183.959 91.4418Z" fill="white"/>
<path d="M309.938 243.929H296.54L298.887 235.874H306.919L309.938 243.929Z" fill="#4B9111"/>
<path d="M358.496 158.971C358.496 189.756 333.608 234.863 302.909 234.863C272.21 234.863 247.322 189.733 247.322 158.971C247.322 144.187 253.178 130.008 263.603 119.554C274.027 109.1 288.166 103.227 302.909 103.227C317.651 103.227 331.79 109.1 342.215 119.554C352.639 130.008 358.496 144.187 358.496 158.971V158.971Z" fill="#4D9512"/>
<path d="M306.919 236.205H298.887L294.199 233.52H311.608L306.919 236.205Z" fill="#535461"/>
<path opacity="0.1" d="M282.811 115.652C282.811 115.652 259.37 128.414 256.038 153.926Z" fill="white"/>
<path d="M321.951 328.455L168.223 336.163L172.947 430.906L326.674 423.198L321.951 328.455Z" fill="url(#paint16_linear_1003_48)"/>
<g filter="url(#filter0_d_1003_48)">
<path d="M318.618 330.02L170.297 337.633L174.804 425.937L323.125 418.324L318.618 330.02Z" fill="white"/>
</g>
<path d="M177.752 358.05L196.623 357.082L195.908 343.076L177.037 344.044L177.752 358.05Z" fill="#4B9111"/>
<path d="M194.62 384.509L267.082 380.79L266.85 376.248L194.388 379.968L194.62 384.509Z" fill="#4B9111"/>
<path d="M214.74 393.342L267.581 390.63L267.426 387.6L214.585 390.313L214.74 393.342Z" fill="#4B9111"/>
</g>
<defs>
<filter id="filter0_d_1003_48" x="166.297" y="326.02" width="160.828" height="103.917" filterUnits="userSpaceOnUse" color-interpolation-filters="sRGB">
<feFlood flood-opacity="0" result="BackgroundImageFix"/>
<feColorMatrix in="SourceAlpha" type="matrix" values="0 0 0 0 0 0 0 0 0 0 0 0 0 0 0 0 0 0 127 0" result="hardAlpha"/>
<feOffset/>
<feGaussianBlur stdDeviation="2"/>
<feColorMatrix type="matrix" values="0 0 0 0 0 0 0 0 0 0 0 0 0 0 0 0 0 0 0.25 0"/>
<feBlend mode="normal" in2="BackgroundImageFix" result="effect1_dropShadow_1003_48"/>
<feBlend mode="normal" in="SourceGraphic" in2="effect1_dropShadow_1003_48" result="shape"/>
</filter>
<linearGradient id="paint0_linear_1003_48" x1="265.729" y1="302.869" x2="255.197" y2="267.64" gradientUnits="userSpaceOnUse">
<stop stop-color="#808080" stop-opacity="0.25"/>
<stop offset="0.54" stop-color="#808080" stop-opacity="0.12"/>
<stop offset="1" stop-color="#808080" stop-opacity="0.1"/>
</linearGradient>
<linearGradient id="paint1_linear_1003_48" x1="3002.52" y1="20947.7" x2="3740.92" y2="17166.7" gradientUnits="userSpaceOnUse">
<stop stop-color="#808080" stop-opacity="0.25"/>
<stop offset="0.54" stop-color="#808080" stop-opacity="0.12"/>
<stop offset="1" stop-color="#808080" stop-opacity="0.1"/>
</linearGradient>
<linearGradient id="paint2_linear_1003_48" x1="-21067.4" y1="18805.1" x2="-17539.5" y2="17279.1" gradientUnits="userSpaceOnUse">
<stop stop-color="#808080" stop-opacity="0.25"/>
<stop offset="0.54" stop-color="#808080" stop-opacity="0.12"/>
<stop offset="1" stop-color="#808080" stop-opacity="0.1"/>
</linearGradient>
<linearGradient id="paint3_linear_1003_48" x1="3959.1" y1="10607.3" x2="3281.07" y2="8339.28" gradientUnits="userSpaceOnUse">
<stop stop-color="#808080" stop-opacity="0.25"/>
<stop offset="0.54" stop-color="#808080" stop-opacity="0.12"/>
<stop offset="1" stop-color="#808080" stop-opacity="0.1"/>
</linearGradient>
<linearGradient id="paint4_linear_1003_48" x1="1888.64" y1="3166.88" x2="2627.04" y2="-614.135" gradientUnits="userSpaceOnUse">
<stop stop-color="#808080" stop-opacity="0.25"/>
<stop offset="0.54" stop-color="#808080" stop-opacity="0.12"/>
<stop offset="1" stop-color="#808080" stop-opacity="0.1"/>
</linearGradient>
<linearGradient id="paint5_linear_1003_48" x1="-22071.2" y1="7061.73" x2="-18543.4" y2="5535.74" gradientUnits="userSpaceOnUse">
<stop stop-color="#808080" stop-opacity="0.25"/>
<stop offset="0.54" stop-color="#808080" stop-opacity="0.12"/>
<stop offset="1" stop-color="#808080" stop-opacity="0.1"/>
</linearGradient>
<linearGradient id="paint6_linear_1003_48" x1="-13589.8" y1="21297" x2="-14267.9" y2="19028.6" gradientUnits="userSpaceOnUse">
<stop stop-color="#808080" stop-opacity="0.25"/>
<stop offset="0.54" stop-color="#808080" stop-opacity="0.12"/>
<stop offset="1" stop-color="#808080" stop-opacity="0.1"/>
</linearGradient>
<linearGradient id="paint7_linear_1003_48" x1="-9544.38" y1="18023.3" x2="-8805.98" y2="14242.3" gradientUnits="userSpaceOnUse">
<stop stop-color="#808080" stop-opacity="0.25"/>
<stop offset="0.54" stop-color="#808080" stop-opacity="0.12"/>
<stop offset="1" stop-color="#808080" stop-opacity="0.1"/>
</linearGradient>
<linearGradient id="paint8_linear_1003_48" x1="-39847.4" y1="18871.4" x2="-36319.6" y2="17345.4" gradientUnits="userSpaceOnUse">
<stop stop-color="#808080" stop-opacity="0.25"/>
<stop offset="0.54" stop-color="#808080" stop-opacity="0.12"/>
<stop offset="1" stop-color="#808080" stop-opacity="0.1"/>
</linearGradient>
<linearGradient id="paint9_linear_1003_48" x1="-11801.9" y1="14118.8" x2="-12480" y2="11850.7" gradientUnits="userSpaceOnUse">
<stop stop-color="#808080" stop-opacity="0.25"/>
<stop offset="0.54" stop-color="#808080" stop-opacity="0.12"/>
<stop offset="1" stop-color="#808080" stop-opacity="0.1"/>
</linearGradient>
<linearGradient id="paint10_linear_1003_48" x1="-8286.47" y1="7171.44" x2="-7552.51" y2="3396.43" gradientUnits="userSpaceOnUse">
<stop stop-color="#808080" stop-opacity="0.25"/>
<stop offset="0.54" stop-color="#808080" stop-opacity="0.12"/>
<stop offset="1" stop-color="#808080" stop-opacity="0.1"/>
</linearGradient>
<linearGradient id="paint11_linear_1003_48" x1="-37572.5" y1="11397.3" x2="-34044.7" y2="9871.36" gradientUnits="userSpaceOnUse">
<stop stop-color="#808080" stop-opacity="0.25"/>
<stop offset="0.54" stop-color="#808080" stop-opacity="0.12"/>
<stop offset="1" stop-color="#808080" stop-opacity="0.1"/>
</linearGradient>
<linearGradient id="paint12_linear_1003_48" x1="25416.5" y1="63690.1" x2="31364.3" y2="63690.1" gradientUnits="userSpaceOnUse">
<stop stop-color="#808080" stop-opacity="0.25"/>
<stop offset="0.54" stop-color="#808080" stop-opacity="0.12"/>
<stop offset="1" stop-color="#808080" stop-opacity="0.1"/>
</linearGradient>
<linearGradient id="paint13_linear_1003_48" x1="9685.56" y1="84553.3" x2="10231.3" y2="84553.3" gradientUnits="userSpaceOnUse">
<stop stop-color="#808080" stop-opacity="0.25"/>
<stop offset="0.54" stop-color="#808080" stop-opacity="0.12"/>
<stop offset="1" stop-color="#808080" stop-opacity="0.1"/>
</linearGradient>
<linearGradient id="paint14_linear_1003_48" x1="11308.9" y1="60101.2" x2="11817.5" y2="60101.2" gradientUnits="userSpaceOnUse">
<stop stop-color="#808080" stop-opacity="0.25"/>
<stop offset="0.54" stop-color="#808080" stop-opacity="0.12"/>
<stop offset="1" stop-color="#808080" stop-opacity="0.1"/>
</linearGradient>
<linearGradient id="paint15_linear_1003_48" x1="151145" y1="106584" x2="151145" y2="29276" gradientUnits="userSpaceOnUse">
<stop stop-color="#808080" stop-opacity="0.25"/>
<stop offset="0.54" stop-color="#808080" stop-opacity="0.12"/>
<stop offset="1" stop-color="#808080" stop-opacity="0.1"/>
</linearGradient>
<linearGradient id="paint16_linear_1003_48" x1="756.132" y1="74858.9" x2="-31.733" y2="59145.8" gradientUnits="userSpaceOnUse">
<stop stop-color="#808080" stop-opacity="0.25"/>
<stop offset="0.54" stop-color="#808080" stop-opacity="0.12"/>
<stop offset="1" stop-color="#808080" stop-opacity="0.1"/>
</linearGradient>
<clipPath id="clip0_1003_48">
<rect width="494" height="430" fill="white"/>
</clipPath>
</defs>
</svg>
