<svg width="40" height="35" viewBox="0 0 40 35" fill="none" xmlns="http://www.w3.org/2000/svg">
<path d="M19.7235 0.433105C18.9842 0.433105 18.2521 0.578724 17.5691 0.861646C16.8861 1.14457 16.2654 1.55925 15.7427 2.08203C15.2199 2.6048 14.8052 3.22542 14.5223 3.90846C14.2394 4.59149 14.0938 5.32357 14.0938 6.06288C14.0938 6.80219 14.2394 7.53426 14.5223 8.2173C14.8052 8.90034 15.2199 9.52096 15.7427 10.0437C16.2654 10.5665 16.8861 10.9812 17.5691 11.2641C18.2521 11.547 18.9842 11.6927 19.7235 11.6927C21.2166 11.6927 22.6486 11.0995 23.7044 10.0437C24.7602 8.98794 25.3533 7.55599 25.3533 6.06288C25.3533 4.56977 24.7602 3.13781 23.7044 2.08203C22.6486 1.02624 21.2166 0.433105 19.7235 0.433105V0.433105Z" fill="#61CC1F"/>
<path d="M32.4033 3.24512C31.2824 3.24512 30.2073 3.69041 29.4147 4.48305C28.6221 5.27568 28.1768 6.35072 28.1768 7.47167C28.1768 8.59263 28.6221 9.66767 29.4147 10.4603C30.2073 11.2529 31.2824 11.6982 32.4033 11.6982C33.5243 11.6982 34.5993 11.2529 35.3919 10.4603C36.1846 9.66767 36.6299 8.59263 36.6299 7.47167C36.6299 6.35072 36.1846 5.27568 35.3919 4.48305C34.5993 3.69041 33.5243 3.24512 32.4033 3.24512V3.24512Z" fill="#61CC1F"/>
<path d="M7.04443 3.24512C5.92348 3.24512 4.84843 3.69041 4.0558 4.48305C3.26317 5.27568 2.81787 6.35072 2.81787 7.47167C2.81787 8.59263 3.26317 9.66767 4.0558 10.4603C4.84843 11.2529 5.92348 11.6982 7.04443 11.6982C8.16538 11.6982 9.24042 11.2529 10.0331 10.4603C10.8257 9.66767 11.271 8.59263 11.271 7.47167C11.271 6.35072 10.8257 5.27568 10.0331 4.48305C9.24042 3.69041 8.16538 3.24512 7.04443 3.24512Z" fill="#61CC1F"/>
<path d="M11.271 17.3146C11.2762 16.5707 11.5754 15.8591 12.1032 15.3349C12.6311 14.8107 13.3448 14.5166 14.0887 14.5166H25.3595C26.1068 14.5166 26.8235 14.8135 27.3519 15.3419C27.8804 15.8703 28.1772 16.587 28.1772 17.3343V25.7874C28.177 26.6742 28.0382 27.5555 27.7658 28.3994C27.1419 30.3118 25.8567 31.9391 24.1409 32.9892C22.4251 34.0392 20.3912 34.4432 18.4044 34.1286C16.4175 33.814 14.6079 32.8014 13.3005 31.2726C11.9931 29.7438 11.2735 27.799 11.271 25.7874V17.3343V17.3146Z" fill="#61CC1F"/>
<path d="M8.45312 17.3343C8.45312 16.3058 8.72643 15.345 9.20826 14.5166H2.81771C2.0704 14.5166 1.35371 14.8135 0.825287 15.3419C0.296865 15.8703 3.90008e-07 16.587 3.90008e-07 17.3343V24.3786C-0.000383343 25.5319 0.282407 26.6676 0.823539 27.6861C1.36467 28.7046 2.14759 29.5746 3.10354 30.2198C4.05949 30.865 5.15923 31.2656 6.30618 31.3864C7.45314 31.5072 8.61222 31.3446 9.68164 30.9128C8.87064 29.3253 8.44951 27.5673 8.45312 25.7846V17.3343Z" fill="#61CC1F"/>
<path d="M30.9941 17.3343V25.7874C30.9941 27.633 30.5518 29.3744 29.7656 30.9128C30.835 31.3446 31.9941 31.5072 33.1411 31.3864C34.288 31.2656 35.3878 30.865 36.3437 30.2198C37.2997 29.5746 38.0826 28.7046 38.6237 27.6861C39.1649 26.6676 39.4476 25.5319 39.4473 24.3786V17.3343C39.4473 16.587 39.1504 15.8703 38.622 15.3419C38.0936 14.8135 37.3769 14.5166 36.6296 14.5166H30.239C30.718 15.345 30.9941 16.3058 30.9941 17.3343Z" fill="#61CC1F"/>
</svg>
