<svg width="38" height="38" viewBox="0 0 38 38" fill="none" xmlns="http://www.w3.org/2000/svg">
<path d="M7.5556 25.6444C7.5556 25.6444 4.01385 23.026 3.65214 22.6117C3.29043 22.1975 2.07468 21.5889 1.99932 22.801C1.92397 24.013 4.13442 25.2711 4.77746 26.3808C5.4205 27.4906 6.78697 30.1243 9.0979 30.8352C9.0979 30.8352 6.51066 30.022 5.13917 28.002C3.76769 25.9819 3.66721 25.7927 2.55194 24.7187C1.43666 23.6448 1.20055 22.8521 1.50197 22.2538C1.59636 22.0768 1.73564 21.929 1.9053 21.8255C2.07496 21.7221 2.26877 21.6669 2.46653 21.6656C2.46653 21.6656 2.33089 17.2982 2.05961 16.2345C1.78833 15.1708 0.688123 14.4395 0.49722 15.5645C0.306318 16.6896 -0.115678 23.1232 0.0300108 23.7471C0.1757 24.371 1.91894 27.3883 2.16511 28.3139C2.41127 29.2396 3.0945 30.0578 5.17936 30.871C7.26422 31.6841 11.0471 34.7577 11.8459 36.1027C12.2345 36.6998 12.5628 37.3355 12.8255 38H18C18 38 17.9749 30.9119 15.3726 29.1884C12.7703 27.465 10.8562 28.1656 7.5556 25.6444Z" fill="#61CC1F"/>
<path d="M3 18.1378V21.495C3.36429 21.5554 3.70121 21.7319 3.9636 22C3.9636 22 4.25313 18.6521 3.19905 18.0162C3.17855 18.005 3.15562 17.9995 3.13244 18C3.10926 18.0006 3.08661 18.0073 3.06665 18.0195C3.04669 18.0317 3.03009 18.049 3.01842 18.0697C3.00675 18.0904 3.00041 18.1138 3 18.1378V18.1378Z" fill="#61CC1F"/>
<path d="M4 20.0946V22.3806C4 22.3806 4.46101 22.6963 4.96236 23C4.96236 23 5.25625 20.4463 4.20169 20.0107C4.18075 20.0032 4.1574 19.9995 4.13385 20C4.1103 20.0006 4.08734 20.0053 4.06713 20.0137C4.04693 20.0221 4.03016 20.0339 4.01841 20.0481C4.00666 20.0623 4.00032 20.0783 4 20.0946V20.0946Z" fill="#61CC1F"/>
<path d="M5 21.1005V23.3211C5 23.3211 5.32119 23.5712 5.95674 24C5.95674 24 6.2711 21.4833 5.20502 21.0137C5.1844 21.0048 5.16103 21.0001 5.13722 21C5.11341 20.9999 5.08999 21.0045 5.06928 21.0133C5.04856 21.022 5.03127 21.0347 5.01912 21.05C5.00697 21.0653 5.00038 21.0827 5 21.1005V21.1005Z" fill="#61CC1F"/>
<path d="M30.4431 25.6424C30.4431 25.6424 33.9594 23.0236 34.3411 22.6093C34.7229 22.1949 35.9234 21.5863 35.9937 22.7985C36.0641 24.0107 33.8639 25.269 33.2209 26.3789C32.578 27.4889 31.2117 30.123 28.896 30.834C28.896 30.834 31.4829 30.0207 32.8593 28.0004C34.2356 25.98 34.3311 25.7907 35.4462 24.7166C36.5613 23.6425 36.7974 22.8497 36.496 22.2512C36.4021 22.0739 36.2629 21.9257 36.0932 21.8222C35.9235 21.7187 35.7295 21.6637 35.5316 21.663C35.5316 21.663 35.6672 17.2795 35.9335 16.231C36.1997 15.1824 37.3098 14.4356 37.5057 15.5609C37.7016 16.6862 38.1185 23.1207 37.9678 23.7448C37.8171 24.3688 36.0841 27.3866 35.838 28.3124C35.5919 29.2382 34.9037 30.0566 32.8241 30.8698C30.7445 31.6831 26.9621 34.7571 26.1534 36.1024C25.7561 36.6985 25.4195 37.3344 25.1487 38H20C20 38 20 30.9107 22.6221 29.187C25.2442 27.4633 27.1429 28.164 30.4431 25.6424Z" fill="#61CC1F"/>
<path d="M34.9997 18.1494V21.4965C34.6345 21.5527 34.2962 21.7291 34.034 22C34.034 22 33.7568 18.6622 34.7851 18.0282C34.8056 18.0121 34.8302 18.0024 34.8558 18.0004C34.8815 17.9984 34.9071 18.0041 34.9298 18.0169C34.9524 18.0297 34.971 18.0489 34.9834 18.0724C34.9958 18.0959 35.0014 18.1227 34.9997 18.1494V18.1494Z" fill="#61CC1F"/>
<path d="M34 20.0946V22.3806C34 22.3806 33.5429 22.6963 33.0395 23C33.0395 23 32.7386 20.4463 33.7975 20.0107C33.8185 20.0032 33.842 19.9995 33.8656 20C33.8893 20.0006 33.9123 20.0053 33.9326 20.0137C33.9529 20.0221 33.9697 20.0339 33.9815 20.0481C33.9933 20.0623 33.9997 20.0783 34 20.0946V20.0946Z" fill="#61CC1F"/>
<path d="M33 21.1005V23.3211C33 23.3211 32.6803 23.5712 32.041 24C32.041 24 31.7349 21.4833 32.7959 21.0137C32.8165 21.0048 32.8397 21.0001 32.8634 21C32.8871 20.9999 32.9104 21.0045 32.9311 21.0133C32.9517 21.022 32.9689 21.0347 32.981 21.05C32.9931 21.0653 32.9996 21.0827 33 21.1005V21.1005Z" fill="#61CC1F"/>
<path d="M33.4879 15.9484C34.0924 14.2941 34.1637 12.4794 33.6911 10.7791C33.2185 9.07875 32.2276 7.58541 30.8686 6.52522C29.5096 5.46503 27.8565 4.89574 26.1596 4.90356C24.4627 4.91138 22.8144 5.4959 21.4644 6.56858C21.0828 4.54924 19.9825 2.75555 18.3847 1.54824C16.787 0.340937 14.8103 -0.190423 12.8523 0.0610274C10.8943 0.312478 9.10012 1.32809 7.83069 2.9036C6.56126 4.47911 5.91071 6.49765 6.00988 8.55326V8.55326C6.00988 8.55326 6.14751 16.5792 14.3664 25.9179V25.9641H14.4155L14.4499 26V25.959C26.5324 24.6871 31.7577 18.7792 31.7577 18.7792C32.5168 17.9714 33.1062 17.0073 33.4879 15.9484V15.9484Z" fill="#61CC1F"/>
</svg>
