<svg width="36" height="38" viewBox="0 0 36 38" fill="none" xmlns="http://www.w3.org/2000/svg">
<path d="M26.5263 3.8C26.0238 3.8 25.5419 3.59982 25.1865 3.2435C24.8312 2.88718 24.6316 2.40391 24.6316 1.9C24.6316 1.39609 24.8312 0.912816 25.1865 0.556497C25.5419 0.200178 26.0238 0 26.5263 0H34.1053C34.6078 0 35.0897 0.200178 35.445 0.556497C35.8004 0.912816 36 1.39609 36 1.9V9.5C36 10.0039 35.8004 10.4872 35.445 10.8435C35.0897 11.1998 34.6078 11.4 34.1053 11.4C33.6027 11.4 33.1208 11.1998 32.7655 10.8435C32.4101 10.4872 32.2105 10.0039 32.2105 9.5V6.4866L21.2343 17.4933C20.879 17.8495 20.3972 18.0496 19.8947 18.0496C19.3923 18.0496 18.9105 17.8495 18.5552 17.4933L13.2632 12.1866L3.23432 22.2433C2.87696 22.5894 2.39835 22.7809 1.90156 22.7766C1.40476 22.7723 0.929538 22.5724 0.578239 22.2202C0.226939 21.8679 0.0276715 21.3913 0.0233545 20.8932C0.0190375 20.395 0.210016 19.915 0.555158 19.5567L11.9236 8.1567C12.2789 7.80051 12.7607 7.60041 13.2632 7.60041C13.7656 7.60041 14.2474 7.80051 14.6027 8.1567L19.8947 13.4634L29.5314 3.8H26.5263ZM3.78947 30.4V36.1C3.78947 36.6039 3.58985 37.0872 3.23452 37.4435C2.87919 37.7998 2.39725 38 1.89474 38C1.39222 38 0.910288 37.7998 0.554956 37.4435C0.199623 37.0872 0 36.6039 0 36.1V30.4C0 29.8961 0.199623 29.4128 0.554956 29.0565C0.910288 28.7002 1.39222 28.5 1.89474 28.5C2.39725 28.5 2.87919 28.7002 3.23452 29.0565C3.58985 29.4128 3.78947 29.8961 3.78947 30.4ZM13.2632 22.8C13.2632 22.2961 13.0635 21.8128 12.7082 21.4565C12.3529 21.1002 11.8709 20.9 11.3684 20.9C10.8659 20.9 10.384 21.1002 10.0286 21.4565C9.67331 21.8128 9.47368 22.2961 9.47368 22.8V36.1C9.47368 36.6039 9.67331 37.0872 10.0286 37.4435C10.384 37.7998 10.8659 38 11.3684 38C11.8709 38 12.3529 37.7998 12.7082 37.4435C13.0635 37.0872 13.2632 36.6039 13.2632 36.1V22.8ZM20.8421 24.7C21.3446 24.7 21.8266 24.9002 22.1819 25.2565C22.5372 25.6128 22.7368 26.0961 22.7368 26.6V36.1C22.7368 36.6039 22.5372 37.0872 22.1819 37.4435C21.8266 37.7998 21.3446 38 20.8421 38C20.3396 38 19.8577 37.7998 19.5023 37.4435C19.147 37.0872 18.9474 36.6039 18.9474 36.1V26.6C18.9474 26.0961 19.147 25.6128 19.5023 25.2565C19.8577 24.9002 20.3396 24.7 20.8421 24.7ZM32.2105 17.1C32.2105 16.5961 32.0109 16.1128 31.6556 15.7565C31.3002 15.4002 30.8183 15.2 30.3158 15.2C29.8133 15.2 29.3313 15.4002 28.976 15.7565C28.6207 16.1128 28.4211 16.5961 28.4211 17.1V36.1C28.4211 36.6039 28.6207 37.0872 28.976 37.4435C29.3313 37.7998 29.8133 38 30.3158 38C30.8183 38 31.3002 37.7998 31.6556 37.4435C32.0109 37.0872 32.2105 36.6039 32.2105 36.1V17.1Z" fill="#61CC1F"/>
</svg>
