<svg width="33" height="33" viewBox="0 0 33 33" fill="none" xmlns="http://www.w3.org/2000/svg">
<path fill-rule="evenodd" clip-rule="evenodd" d="M23.9456 19.7753C23.5359 19.5704 21.527 18.5832 21.153 18.4457C20.779 18.3096 20.5068 18.2422 20.2331 18.6519C19.9609 19.0589 19.1785 19.9802 18.9406 20.2524C18.7014 20.5261 18.4635 20.5591 18.0551 20.3556C17.6467 20.1493 16.3295 19.7189 14.7689 18.3274C13.5548 17.2439 12.7339 15.9061 12.496 15.4963C12.2581 15.0879 12.4699 14.8666 12.6748 14.6631C12.859 14.4802 13.0831 14.1859 13.288 13.9481C13.4929 13.7088 13.5603 13.5383 13.6964 13.2647C13.8339 12.9924 13.7651 12.7546 13.662 12.5497C13.5602 12.3448 12.7435 10.3332 12.4025 9.51506C12.0711 8.71893 11.7343 8.82756 11.484 8.81381C11.2448 8.80281 10.9725 8.80006 10.7003 8.80006C10.428 8.80006 9.98525 8.90181 9.61125 9.31156C9.23587 9.71993 8.18125 10.7086 8.18125 12.7202C8.18125 14.7304 9.64425 16.6733 9.84913 16.9469C10.054 17.2192 12.7298 21.3469 16.8286 23.1166C17.8049 23.5373 18.5652 23.7889 19.1579 23.9759C20.1369 24.2881 21.0279 24.2441 21.7319 24.1382C22.5156 24.0213 24.1491 23.1496 24.4901 22.1953C24.8298 21.2411 24.8297 20.4229 24.728 20.2524C24.6262 20.0819 24.354 19.9802 23.9442 19.7753H23.9456ZM16.4904 29.9544H16.4849C14.0503 29.9549 11.6605 29.3004 9.56587 28.0597L9.07088 27.7654L3.92563 29.1157L5.29925 24.0997L4.97612 23.5854C3.61506 21.4189 2.89478 18.9115 2.8985 16.3529C2.90125 8.85918 8.998 2.76243 16.4959 2.76243C20.1259 2.76243 23.5386 4.17868 26.1044 6.74718C27.3699 8.00748 28.3729 9.50621 29.0555 11.1567C29.7381 12.8071 30.0866 14.5765 30.0809 16.3626C30.0781 23.8563 23.9814 29.9544 16.4904 29.9544V29.9544ZM28.0569 4.79606C26.5419 3.27108 24.7393 2.06192 22.7536 1.23866C20.7679 0.415394 18.6386 -0.00560484 16.489 5.63441e-05C7.47725 5.63441e-05 0.14025 7.33568 0.1375 16.3516C0.136125 19.2336 0.88825 22.0468 2.31963 24.5259L0 33.0001L8.668 30.7258C11.0658 32.0322 13.7529 32.7167 16.4835 32.7168H16.4904C25.5021 32.7168 32.8391 25.3812 32.8419 16.3639C32.8485 14.2152 32.429 12.0864 31.6077 10.1009C30.7864 8.11526 29.5795 6.31223 28.0569 4.79606" fill="#61CC1F"/>
</svg>
