<svg width="25" height="24" viewBox="0 0 25 24" fill="none" xmlns="http://www.w3.org/2000/svg">
<path d="M11.0137 6.99529L9.72677 6.19022L13.8172 0H8.92743C8.61943 2.11943e-05 8.31648 0.0783514 8.04697 0.227648C7.77747 0.376945 7.55024 0.592318 7.38658 0.853581L5.64335 3.6373L4.39317 2.85492L6.26844 7.2214L11.0137 6.99529Z" fill="#4B9111"/>
<path d="M13.4093 1.19701L12.4279 2.78212L15.1416 7.73069L16.491 5.17934L19.5672 5.27244L17.5153 1.34722C17.322 0.977008 17.0342 0.664607 16.6813 0.441722C16.3284 0.218837 15.9228 0.0934028 15.5059 0.0781481C15.0889 0.0628934 14.6753 0.158361 14.3071 0.354864C13.9389 0.551366 13.6291 0.841909 13.4093 1.19701V1.19701Z" fill="#4B9111"/>
<path d="M8.44995 17.6528L1.0512 17.2014L3.4961 21.4411C3.6501 21.7082 3.86934 21.9318 4.13326 22.0908C4.39717 22.2498 4.6971 22.3391 5.00491 22.3502L8.28665 22.4707L8.23586 23.9471L11.0761 20.1384L8.50621 16.1334L8.44995 17.6528Z" fill="#4B9111"/>
<path d="M4.15164 17.0145L7.0755 12.1872L4.19383 12.292L2.73658 9.5787L0.367484 13.3208C0.144175 13.6736 0.0180114 14.0793 0.00178956 14.4966C-0.0144322 14.914 0.0798645 15.3282 0.275116 15.6973C0.470368 16.0664 0.759628 16.3772 1.11356 16.5982C1.46749 16.8192 1.87351 16.9426 2.29042 16.9558L4.15164 17.0145Z" fill="#4B9111"/>
<path d="M24.7883 13.6674L23.2529 10.764L24.5555 10.07L19.843 9.51141L17.663 13.7425L19.0031 13.0282L22.3114 19.6699L24.7563 15.4301C24.9103 15.1631 24.9941 14.8613 24.9997 14.5529C25.0053 14.2446 24.9326 13.9399 24.7883 13.6674V13.6674Z" fill="#4B9111"/>
<path d="M20.6001 17.0749L14.9626 16.9536L16.4941 19.4033L14.8759 22.0242L19.296 22.2042C19.7133 22.2223 20.1278 22.1294 20.4976 21.9351C20.8674 21.7409 21.1792 21.452 21.4015 21.098C21.6237 20.744 21.7484 20.3373 21.7628 19.9195C21.7773 19.5016 21.6811 19.0873 21.4839 18.7187L20.6001 17.0749Z" fill="#4B9111"/>
<path d="M15.2331 11.9235C15.6523 11.612 15.9816 11.1949 16.1875 10.7146C16.3934 10.2342 16.4685 9.70787 16.4051 9.18904C16.0305 9.02225 15.6252 8.93544 15.2152 8.93416C14.8051 8.93287 14.3993 9.01713 14.0236 9.18157C13.6479 9.346 13.3105 9.58701 13.033 9.88923C12.7554 10.1914 12.5438 10.5482 12.4116 10.9369C12.1474 10.4241 11.6974 10.032 11.1538 9.84068C10.6102 9.64939 10.0142 9.6735 9.48772 9.90805C9.44341 10.2717 9.48802 10.6406 9.61772 10.9831C9.74741 11.3257 9.9583 11.6315 10.2322 11.8743C10.5062 12.1171 10.8349 12.2896 11.1902 12.3769C11.5455 12.4643 11.9166 12.4638 12.2717 12.3757V15.9175H12.6624V12.3882C13.0978 12.5137 13.5561 12.5371 14.002 12.4565C14.4478 12.3759 14.8691 12.1935 15.2331 11.9235V11.9235Z" fill="#4B9111"/>
</svg>
