<svg width="35" height="34" viewBox="0 0 35 34" fill="none" xmlns="http://www.w3.org/2000/svg">
<path d="M34.0563 15.4204C34.4487 15.1228 34.7398 14.7077 34.8888 14.2332C35.0377 13.7587 35.0371 13.2487 34.8869 12.7746C34.7367 12.3006 34.4445 11.8862 34.0512 11.5897C33.658 11.2932 33.1835 11.1294 32.6942 11.1213L23.1912 10.7559C23.1445 10.7526 23.0997 10.7356 23.0622 10.707C23.0248 10.6784 22.9962 10.6394 22.9801 10.5947L19.6962 1.56664C19.5313 1.10732 19.2316 0.71071 18.8378 0.430495C18.444 0.150281 17.9752 0 17.4947 0C17.0143 0 16.5454 0.150281 16.1516 0.430495C15.7579 0.71071 15.4582 1.10732 15.2932 1.56664L12.0199 10.6269C12.0038 10.6717 11.9752 10.7107 11.9378 10.7393C11.9003 10.7679 11.8555 10.7848 11.8088 10.7881L2.30579 11.1536C1.8165 11.1617 1.34198 11.3255 0.948757 11.622C0.55554 11.9185 0.263346 12.3328 0.113146 12.8069C-0.0370543 13.2809 -0.0377282 13.791 0.111219 14.2654C0.260165 14.7399 0.551263 15.155 0.943696 15.4526L8.39826 21.4176C8.43556 21.4475 8.46345 21.4878 8.47846 21.5337C8.49348 21.5795 8.49496 21.6288 8.48273 21.6755L5.91692 30.9293C5.78396 31.4005 5.79684 31.902 5.95381 32.3655C6.11078 32.829 6.40422 33.232 6.7942 33.5197C7.18419 33.8075 7.65179 33.9659 8.13339 33.9736C8.61499 33.9812 9.08722 33.8377 9.48582 33.5624L17.3627 28.1886C17.4015 28.1613 17.4476 28.1467 17.4947 28.1467C17.5419 28.1467 17.5879 28.1613 17.6267 28.1886L25.5036 33.5624C25.8968 33.8471 26.3674 34 26.8499 34C27.3324 34 27.8029 33.8471 28.1961 33.5624C28.5862 33.2774 28.8799 32.8763 29.0369 32.4144C29.1938 31.9525 29.2063 31.4524 29.0725 30.983L26.4856 21.697C26.4719 21.6504 26.4726 21.6006 26.4878 21.5544C26.5029 21.5083 26.5316 21.468 26.5701 21.4391L34.0563 15.4204Z" fill="#4B9111"/>
</svg>
