<svg width="20" height="21" viewBox="0 0 20 21" fill="none" xmlns="http://www.w3.org/2000/svg">
<path d="M2.12121 21H16.9697C18.1395 21 19.0909 20.0581 19.0909 18.9V7.35C19.0909 7.07152 18.9792 6.80445 18.7803 6.60754C18.5814 6.41062 18.3116 6.3 18.0303 6.3H14.8485V5.25C14.8485 2.35515 12.4695 0 9.54545 0C6.62136 0 4.24242 2.35515 4.24242 5.25V6.3H1.06061C0.779316 6.3 0.509546 6.41062 0.310644 6.60754C0.111742 6.80445 0 7.07152 0 7.35V18.9C0 20.0581 0.951363 21 2.12121 21ZM6.36364 5.25C6.36364 3.5133 7.79121 2.1 9.54545 2.1C11.2997 2.1 12.7273 3.5133 12.7273 5.25V6.3H6.36364V5.25ZM2.12121 8.4H4.24242V10.5H6.36364V8.4H12.7273V10.5H14.8485V8.4H16.9697L16.9718 18.9H2.12121V8.4Z" fill="white"/>
</svg>
