<svg width="92" height="94" viewBox="0 0 92 94" fill="none" xmlns="http://www.w3.org/2000/svg">
<path d="M18.064 35.7477C20.9545 31.1917 33.12 14.1037 53.4741 13.3038C53.4741 13.3038 36.5912 19.5583 32.4871 27.304C32.4871 27.304 41.2695 34.2367 48.5936 29.9375C55.9177 25.6384 62.7295 12.3886 83.9841 16.3915C76.0532 -2.60251 26.8007 -9.16977 25.8122 19.1534C22.9315 22.2049 17.5159 27.7122 14.3514 33.5092C14.1898 33.8025 14.0972 34.1294 14.0808 34.4646C14.0643 34.7998 14.1245 35.1344 14.2566 35.4424C14.3888 35.7504 14.5893 36.0236 14.8428 36.2409C15.0962 36.4582 15.3958 36.6138 15.7183 36.6957L15.7934 36.7155C16.2246 36.8095 16.674 36.7671 17.0804 36.5939C17.4867 36.4206 17.8302 36.1251 18.064 35.7477V35.7477Z" fill="#4B9111"/>
<path d="M53.4414 79.0225C48.0878 78.7723 27.3422 76.6853 16.4751 59.301C16.4751 59.301 30.2881 70.9245 38.9857 70.6414C38.9857 70.6414 40.5451 59.4985 33.1851 55.2553C25.8252 51.0121 11.0563 51.6803 3.86267 31.0996C-8.46594 47.526 10.5212 93.8457 35.3285 80.5499C39.387 81.5375 46.8317 83.5126 53.3794 83.3875C53.7118 83.3815 54.0385 83.2986 54.3342 83.1452C54.6298 82.9918 54.8867 82.7719 55.0849 82.5026C55.2832 82.2332 55.4175 81.9216 55.4776 81.5916C55.5376 81.2616 55.5219 80.9221 55.4314 80.5993C55.4314 80.573 55.4314 80.5466 55.4086 80.5236C55.2734 80.0997 55.012 79.7281 54.66 79.4595C54.3079 79.1909 53.8824 79.0383 53.4414 79.0225V79.0225Z" fill="#4B9111"/>
<path d="M72.8952 26.4712C75.3616 31.2707 83.945 50.4491 74.4547 68.6333C74.4547 68.6333 77.5213 50.7519 72.9311 43.286C72.9311 43.286 62.5893 47.493 62.6252 56.0485C62.6611 64.6041 70.6181 77.1757 56.5571 93.7502C76.8166 96.3112 107.079 56.5522 83.2664 41.5281C82.0854 37.4923 80.0595 30.0001 76.6666 24.3578C76.4951 24.0704 76.2606 23.8265 75.9811 23.6449C75.7015 23.4633 75.3844 23.3488 75.0541 23.3104C74.7239 23.2719 74.3892 23.3104 74.076 23.4229C73.7628 23.5355 73.4794 23.719 73.2476 23.9595L73.1954 24.0188C72.9039 24.3481 72.7191 24.7594 72.6654 25.1976C72.6118 25.6359 72.692 26.0802 72.8952 26.4712V26.4712Z" fill="#4B9111"/>
</svg>
