<svg width="22" height="22" viewBox="0 0 22 22" fill="none" xmlns="http://www.w3.org/2000/svg">
<path d="M11.9185 7.5845H9.7515V5.4175H11.9185V7.5845ZM11.9185 9.7515H9.7515V16.2525H11.9185V9.7515ZM10.835 2.167C6.05677 2.167 2.167 6.05677 2.167 10.835C2.167 15.6132 6.05677 19.503 10.835 19.503C15.6132 19.503 19.503 15.6132 19.503 10.835C19.503 6.05677 15.6132 2.167 10.835 2.167ZM10.835 0C16.8192 0 21.67 4.85083 21.67 10.835C21.67 16.8192 16.8192 21.67 10.835 21.67C4.85083 21.67 0 16.8192 0 10.835C0 4.85083 4.85083 0 10.835 0Z" fill="#4B9111"/>
</svg>
