<svg width="20" height="20" viewBox="0 0 20 20" fill="none" xmlns="http://www.w3.org/2000/svg">
<path d="M16.9817 3.38806C15.1976 1.59969 12.8216 0.616089 10.2966 0.616089C5.08482 0.616089 0.843842 4.85707 0.843842 10.0689C0.843842 11.7338 1.27816 13.3603 2.10421 14.7953L0.762939 19.692L5.77462 18.3763C7.15422 19.1299 8.70839 19.5259 10.2924 19.5259H10.2966C15.5042 19.5259 19.8388 15.2849 19.8388 10.0731C19.8388 7.54813 18.7658 5.17642 16.9817 3.38806ZM10.2966 17.9334C8.88297 17.9334 7.49912 17.5545 6.2941 16.8391L6.00881 16.6688L3.03672 17.448L3.82871 14.5483L3.64136 14.2502C2.85362 12.9984 2.4406 11.5549 2.4406 10.0689C2.4406 5.73848 5.96623 2.21284 10.3009 2.21284C12.4001 2.21284 14.3715 3.03038 15.8533 4.51643C17.3351 6.00248 18.2463 7.97394 18.2421 10.0731C18.2421 14.4078 14.627 17.9334 10.2966 17.9334ZM14.6057 12.0489C14.3715 11.9296 13.2091 11.3591 12.992 11.2824C12.7748 11.2015 12.6172 11.1632 12.4597 11.4016C12.3022 11.6401 11.8508 12.1681 11.7103 12.3299C11.574 12.4874 11.4335 12.5087 11.1993 12.3895C9.81122 11.6954 8.9 11.1504 7.98453 9.57921C7.74182 9.16192 8.22724 9.19173 8.67859 8.28903C8.75523 8.13148 8.71691 7.99523 8.6573 7.876C8.59768 7.75678 8.12504 6.59434 7.92918 6.1217C7.73757 5.66183 7.5417 5.7257 7.39692 5.71719C7.26067 5.70867 7.10312 5.70867 6.94557 5.70867C6.78803 5.70867 6.53255 5.76828 6.31539 6.00248C6.09823 6.24092 5.48933 6.8115 5.48933 7.97394C5.48933 9.13637 6.33668 10.2605 6.45165 10.418C6.57087 10.5756 8.11653 12.9601 10.4882 13.9862C11.9871 14.6335 12.5747 14.6888 13.3241 14.5781C13.7797 14.51 14.7207 14.0075 14.9166 13.454C15.1124 12.9005 15.1124 12.4278 15.0528 12.3299C14.9975 12.2234 14.8399 12.1638 14.6057 12.0489Z" fill="#37474F"/>
</svg>
