<svg xmlns="http://www.w3.org/2000/svg" viewBox="0 0 1257.92 192.17"><defs><style>.cls-1{fill:#1d8e2b;}</style></defs><g id="Capa_2" data-name="Capa 2"><g id="Capa_1-2" data-name="Capa 1"><path class="cls-1" d="M87.92,0C3.89,9.34,0,85.58,0,85.58v60C8.78,99.57,39.55,84.17,78,64.38,134,38.7,145.68,6.61,145.68,6.61c11.67,106.78-28,137.13-81.11,144.13,1.49-.2,3-.41,4.41-.65-9.38.53-20.46-.8-24.44-9.08C37,125.26,66.67,113.81,78,105.22c22.93-17.37,50.49-34.56,55.43-65.35,0,0,0-.06,0-.09-12.39,26.93-36.7,43.57-60.67,59.06C52,112.25,25.16,126.45,11.66,147.93a70,70,0,0,0-8.1,19.74C2.14,173.12,2.5,183.2.5,189.33l-.5,1v1.81H104.25c80.92-5.45,86.36-88.7,86.36-88.7V0Z"/><path class="cls-1" d="M471.16,133.19h15.21c8.8,0,16,6.75,16,15,0,8.1-7.2,14.7-16,14.7H478.3v15.77h-7.14Zm24.07,15c0-4.35-4-7.88-8.86-7.88H478.3v15.55l8.07,0C491.25,155.88,495.23,152.41,495.23,148.15Z"/><path class="cls-1" d="M562.57,140.22v11.65h17.21V159H562.57v12.58h19.94v7.11H555.43V133.19h27.08v7Z"/><path class="cls-1" d="M662.32,178.67l-12.24-17.6h-5.59v17.6h-7.14l0-45.48h14.14c8.46,0,15.4,6.52,15.4,14.62a13.32,13.32,0,0,1-9,12.67l13.24,18.19Zm-10.69-23.53a7.76,7.76,0,0,0,7.87-7.5,7.6,7.6,0,0,0-7.87-7.37h-7.17v14.87Z"/><path class="cls-1" d="M720.88,161.44V133.19h7.17v28.22c0,6.29,4.43,10.89,10,10.89s10-4.6,10-10.89V133.19h7.2v28.25c0,10.43-7.54,18.08-17.21,18.08S720.88,171.87,720.88,161.44Z"/><path class="cls-1" d="M835.39,171.76H813.87l-3.11,6.91H803l21.39-46.41h.42l21.39,46.41H838.5Zm-2.76-6.12-8-17.78-8,17.78Z"/><path class="cls-1" d="M935.23,133.08v46.38h-.33l-29.09-30.38v29.65h-7.14V132.4H899l29,30.33V133.08Z"/><path class="cls-1" d="M1020,171.76H998.48l-3.1,6.91h-7.73L1009,132.26h.43l21.38,46.41h-7.73Zm-2.77-6.12-8-17.78-8,17.78Z"/><rect class="cls-1" x="261.1" y="156.25" width="157.51" height="4.14"/><rect class="cls-1" x="1079.71" y="156.25" width="157.51" height="4.14"/><path class="cls-1" d="M247.46,28.14V48.32h31.16V60.64H247.46v21.8h36.11V94.76h-49V16h49V28.14Z"/><path class="cls-1" d="M305.62,55.41c0-22.19,19.36-40.81,42.49-40.81,10.68.14,20.54,4.49,28.61,12l-7.51,9.73c-5.77-5.53-13.28-9.19-21.35-9.19-14.92,0-29.16,12.51-29.16,28.3s14.45,28.16,29.21,28.16c8.43,0,15.68-4,21.35-9.39l7.46,10C369.62,90.9,360.58,96,348.32,96,325,96,305.62,77.65,305.62,55.41Z"/><path class="cls-1" d="M392.08,55.46c0-22.48,19.1-40.86,42.54-40.86s42.6,18.38,42.6,40.86C477.22,77.75,458,96,434.57,96S392.08,77.75,392.08,55.46Zm72.06-.1c0-15.59-13.33-28.3-29.57-28.3S405.1,39.77,405.1,55.36s13.23,28.16,29.47,28.16S464.14,70.86,464.14,55.36Z"/><path class="cls-1" d="M514.54,28.14V48.32H545.7V60.64H514.54v21.8h36.11V94.76h-49V16h49V28.14Z"/><path class="cls-1" d="M571.88,80.93l10.22-7c3.68,6.16,10.52,9.68,18.44,9.68,9.24,0,16.24-4.26,16.24-10.27,0-7.28-10.83-11.68-20.43-15.64S576,48.81,576,36.45c0-12.91,11.7-21.9,26.51-21.9,11.75,0,20.53,5.42,23.9,14.08L616.78,35c-2.55-5.33-8.22-8.31-14.2-8.31C595,26.67,589,31.17,589,36.74c0,6.16,7.61,8.36,17.63,12.46,13,5.48,23.13,11.49,23.13,23.91,0,14-12.66,23-29.37,23C586.85,96.08,576.58,90,571.88,80.93Z"/><path class="cls-1" d="M705,28.23H682.91V94.76h-13V28.23H647.87V16H705Z"/><path class="cls-1" d="M773,94.76l-22.17-30.5H740.76v30.5H727.84L727.79,16h25.59c15.32,0,27.89,11.3,27.89,25.33A23.16,23.16,0,0,1,765,63.23l24,31.53ZM753.68,54c7.77,0,14.25-6,14.25-13,0-7.33-6.58-12.76-14.25-12.76h-13V54Z"/><path class="cls-1" d="M862,82.79H823l-5.62,12h-14l38.71-80.41h.77l38.71,80.41h-14Zm-5-10.61-14.46-30.8L828,72.18Z"/><path class="cls-1" d="M944.68,28.23H922.61V94.76h-13V28.23H887.58V16h57.1Z"/><path class="cls-1" d="M980.42,28.14V48.32h31.15V60.64H980.42v21.8h36.11V94.76h-49V16h49V28.14Z"/><path class="cls-1" d="M1120.71,57.9c0,23.42-17.78,38.18-39.18,38.18-24,0-43-18.28-43-40.62s19.1-40.82,42.49-40.82c10.37,0,22.22,4.84,30,12.08L1103.85,37c-6.43-6.06-15.12-9.87-22.93-9.87-15,0-29.22,12-29.22,28.35,0,15.45,12.83,28.16,30.39,28.16,14.15,0,24.77-8.26,24.77-20.29v-.24h-25.48V51.75h39A56.64,56.64,0,0,1,1120.71,57.9Z"/><path class="cls-1" d="M1145.16,16h12.92v78.8h-12.92Z"/><path class="cls-1" d="M1238.31,82.79h-39l-5.62,12h-14l38.72-80.41h.76l38.72,80.41h-14Zm-5-10.61-14.45-30.8-14.51,30.8Z"/></g></g></svg>