<svg width="49" height="49" viewBox="0 0 49 49" fill="none" xmlns="http://www.w3.org/2000/svg">
<path d="M32.6687 34.824L36.8881 30.6029C37.4564 30.0414 38.1754 29.6571 38.9579 29.4965C39.7403 29.3359 40.5525 29.4061 41.2959 29.6984L46.4382 31.7524C47.1894 32.0574 47.8336 32.5781 48.2895 33.2488C48.7454 33.9195 48.9926 34.7102 49 35.5212V44.9433C48.9956 45.495 48.8797 46.0401 48.6592 46.5458C48.4387 47.0515 48.1181 47.5074 47.7169 47.8859C47.3156 48.2644 46.842 48.5578 46.3244 48.7483C45.8068 48.9389 45.2561 49.0227 44.7053 48.9947C8.67104 46.7523 1.40015 16.2248 0.0250855 4.5415C-0.038746 3.96777 0.0195751 3.38702 0.196212 2.83745C0.372848 2.28788 0.663797 1.78196 1.04992 1.35296C1.43604 0.923965 1.90858 0.581615 2.43645 0.348436C2.96433 0.115257 3.53557 -0.00346573 4.11261 7.7014e-05H13.2106C14.0225 0.00248112 14.8151 0.247815 15.4865 0.704525C16.1578 1.16123 16.6772 1.80843 16.9779 2.56287L19.0311 7.70731C19.333 8.44802 19.41 9.26128 19.2525 10.0455C19.0951 10.8297 18.7101 11.5502 18.1458 12.1168L13.9264 16.3379C13.9264 16.3379 16.3563 32.7888 32.6687 34.824Z" fill="#4B9111"/>
</svg>
