<svg width="38" height="38" viewBox="0 0 38 38" fill="none" xmlns="http://www.w3.org/2000/svg">
<path d="M19 0C15.2422 0 11.5687 1.11433 8.44417 3.20208C5.31964 5.28982 2.88436 8.25722 1.4463 11.729C0.00823243 15.2008 -0.368031 19.0211 0.365088 22.7067C1.09821 26.3923 2.90778 29.7778 5.56498 32.435C8.22218 35.0922 11.6077 36.9018 15.2933 37.6349C18.9789 38.368 22.7992 37.9918 26.271 36.5537C29.7428 35.1156 32.7102 32.6804 34.7979 29.5558C36.8857 26.4313 38 22.7578 38 19C37.9943 13.9626 35.9907 9.1332 32.4288 5.57124C28.8668 2.00928 24.0374 0.00568074 19 0V0ZM19 33.7778C16.0772 33.7778 13.2201 32.9111 10.7899 31.2873C8.35972 29.6635 6.46562 27.3555 5.34712 24.6552C4.22863 21.9549 3.93598 18.9836 4.50618 16.117C5.07638 13.2504 6.48383 10.6172 8.55054 8.55053C10.6172 6.48382 13.2504 5.07638 16.117 4.50617C18.9836 3.93597 21.9549 4.22862 24.6552 5.34711C27.3555 6.46561 29.6635 8.35971 31.2873 10.7899C32.9111 13.2201 33.7778 16.0772 33.7778 19C33.7733 22.9179 32.2149 26.6741 29.4445 29.4445C26.6741 32.2149 22.9179 33.7733 19 33.7778ZM27.5298 17.5073C27.9257 17.9032 28.1481 18.4401 28.1481 19C28.1481 19.5599 27.9257 20.0968 27.5298 20.4927L21.5587 26.464C21.1617 26.8546 20.6264 27.0725 20.0695 27.0702C19.5126 27.0679 18.9791 26.8457 18.5853 26.4519C18.1915 26.0581 17.9693 25.5246 17.967 24.9677C17.9647 24.4108 18.1826 23.8755 18.5732 23.4785L20.9401 21.1111H11.963C11.4031 21.1111 10.8661 20.8887 10.4702 20.4928C10.0743 20.0969 9.85186 19.5599 9.85186 19C9.85186 18.4401 10.0743 17.9031 10.4702 17.5072C10.8661 17.1113 11.4031 16.8889 11.963 16.8889H20.9405L18.573 14.5216C18.1789 14.1253 17.958 13.5889 17.9588 13.03C17.9596 12.4711 18.182 11.9353 18.5772 11.5401C18.9724 11.1449 19.5082 10.9226 20.0671 10.9218C20.626 10.9211 21.1624 11.142 21.5587 11.5362L27.5298 17.5073Z" fill="#4B9111"/>
</svg>
