<svg width="43" height="60" viewBox="0 0 43 60" fill="none" xmlns="http://www.w3.org/2000/svg">
<g filter="url(#filter0_d)">
<path d="M21.5 55.7143C32.2501 55.7143 41 46.9644 41 36.2143C41 25.4642 32.2501 16.7143 21.5 16.7143C10.7471 16.7143 2 25.4642 2 36.2143C2 46.9644 10.7471 55.7143 21.5 55.7143ZM21.5 22.2857C29.1802 22.2857 35.4286 28.5341 35.4286 36.2143C35.4286 43.8945 29.1802 50.1429 21.5 50.1429C13.8198 50.1429 7.57143 43.8945 7.57143 36.2143C7.57143 28.5341 13.8198 22.2857 21.5 22.2857ZM18.7143 0H7.57143V15.3716C10.905 13.1408 14.7273 11.7467 18.7143 11.3072V0ZM35.4286 0H24.2857V11.3072C28.2727 11.7467 32.095 13.1408 35.4286 15.3716V0Z" fill="#4B9111"/>
</g>
<g filter="url(#filter1_d)">
<path d="M15.9816 38.4736L14.6779 46.0675L21.5001 42.4822L28.3223 46.0675L27.0186 38.4736L32.5399 33.0916L24.9126 31.9829L21.5001 25.0715L18.0876 31.9829L10.4603 33.0916L15.9816 38.4736Z" fill="#4B9111"/>
</g>
<defs>
<filter id="filter0_d" x="0" y="0" width="43" height="59.7143" filterUnits="userSpaceOnUse" color-interpolation-filters="sRGB">
<feFlood flood-opacity="0" result="BackgroundImageFix"/>
<feColorMatrix in="SourceAlpha" type="matrix" values="0 0 0 0 0 0 0 0 0 0 0 0 0 0 0 0 0 0 127 0"/>
<feOffset dy="2"/>
<feGaussianBlur stdDeviation="1"/>
<feColorMatrix type="matrix" values="0 0 0 0 0 0 0 0 0 0 0 0 0 0 0 0 0 0 0.45 0"/>
<feBlend mode="normal" in2="BackgroundImageFix" result="effect1_dropShadow"/>
<feBlend mode="normal" in="SourceGraphic" in2="effect1_dropShadow" result="shape"/>
</filter>
<filter id="filter1_d" x="8.46033" y="25.0715" width="26.0796" height="24.9959" filterUnits="userSpaceOnUse" color-interpolation-filters="sRGB">
<feFlood flood-opacity="0" result="BackgroundImageFix"/>
<feColorMatrix in="SourceAlpha" type="matrix" values="0 0 0 0 0 0 0 0 0 0 0 0 0 0 0 0 0 0 127 0"/>
<feOffset dy="2"/>
<feGaussianBlur stdDeviation="1"/>
<feColorMatrix type="matrix" values="0 0 0 0 0 0 0 0 0 0 0 0 0 0 0 0 0 0 0.45 0"/>
<feBlend mode="normal" in2="BackgroundImageFix" result="effect1_dropShadow"/>
<feBlend mode="normal" in="SourceGraphic" in2="effect1_dropShadow" result="shape"/>
</filter>
</defs>
</svg>
