<svg width="22" height="21" viewBox="0 0 22 21" fill="none" xmlns="http://www.w3.org/2000/svg">
<path d="M12.0335 7.2345H9.96654V5.1675H12.0335V7.2345ZM12.0335 9.3015H9.96654V15.5025H12.0335V9.3015ZM11 2.067C6.4423 2.067 2.73204 5.77727 2.73204 10.335C2.73204 14.8927 6.4423 18.603 11 18.603C15.5578 18.603 19.268 14.8927 19.268 10.335C19.268 5.77727 15.5578 2.067 11 2.067ZM11 0C16.7081 0 21.335 4.62698 21.335 10.335C21.335 16.043 16.7081 20.67 11 20.67C5.29202 20.67 0.665039 16.043 0.665039 10.335C0.665039 4.62698 5.29202 0 11 0Z" fill="#4B9111"/>
</svg>
