<svg width="53" height="36" viewBox="0 0 53 36" fill="none" xmlns="http://www.w3.org/2000/svg">
<g filter="url(#filter0_d)">
<path d="M27.1606 18.2806C27.0789 3.89979 35.2284 4.77027 35.2284 4.77027C30.9822 6.96267 29.6659 9.80712 29.6659 9.80712C38.5176 14.4217 44.5586 2.87397 44.5586 2.87397C35.8866 -2.16287 29.9043 0.621713 28.5292 2.51801C27.1541 4.41431 27.987 6.78469 27.987 6.78469C27.2831 8.13087 26.8111 9.87184 26.4959 11.6484C26.1807 9.8686 25.7087 8.13087 25.0048 6.78469C25.0048 6.78469 25.8377 4.41431 24.4626 2.51801C23.0875 0.621713 17.1134 -2.16287 8.43317 2.87397C8.43317 2.87397 14.4759 14.4281 23.3259 9.80712C23.3259 9.80712 22.0096 6.96267 17.765 4.77027C17.765 4.77027 25.9129 3.89979 25.8312 18.2806H27.1606Z" fill="#4B9111"/>
<path d="M21.5197 18.5781L19.8016 18.4891C18.5282 18.4226 17.2821 18.0976 16.1406 17.5343C14.9992 16.971 13.9867 16.1813 13.1661 15.2143C12.8081 14.7916 12.361 14.4518 11.8562 14.2186C11.3515 13.9855 10.8013 13.8648 10.2444 13.8648C10.1488 13.864 10.0544 13.8859 9.9692 13.9288C9.88397 13.9716 9.81039 14.0342 9.75467 14.1111C9.69895 14.188 9.66272 14.2771 9.64904 14.3708C9.63535 14.4645 9.64461 14.5601 9.67604 14.6496C9.97981 15.4942 10.8846 16.8517 11.6179 17.8856C5.80545 16.7708 5.79892 13.6626 3.93222 11.8844C3.09768 11.0867 1.72746 11.9362 2.04756 13.0461C3.97305 19.6913 10.1268 22.4661 15.9131 22.916C16.8608 22.916 17.7697 23.2889 18.4398 23.9529C19.1099 24.6168 19.4864 25.5172 19.4864 26.4561V31.0044H26.0713V23.3593C26.0717 22.1374 25.6006 20.9616 24.7544 20.0727C23.9082 19.1838 22.7509 18.6491 21.5197 18.5781Z" fill="#4B9111"/>
<path d="M31.4724 18.5784L33.1839 18.4894C34.4588 18.424 35.7065 18.0995 36.8494 17.5361C37.9923 16.9728 39.0061 16.1825 39.8276 15.2145C40.1852 14.7918 40.632 14.4519 41.1365 14.2188C41.641 13.9857 42.191 13.8649 42.7477 13.8651C42.8436 13.8637 42.9383 13.8853 43.024 13.9279C43.1096 13.9705 43.1837 14.033 43.2397 14.11C43.2958 14.187 43.3324 14.2763 43.3462 14.3703C43.3601 14.4643 43.3508 14.5602 43.3193 14.6498C43.0155 15.4944 42.1108 16.8519 41.3791 17.8858C47.1899 16.771 47.1964 13.6629 49.0631 11.8847C49.9026 11.0854 51.2728 11.9348 50.9527 13.0448C49.0272 19.6899 42.8735 22.4648 37.0872 22.9146C36.1395 22.9146 35.2306 23.2876 34.5604 23.9515C33.8903 24.6154 33.5138 25.5159 33.5138 26.4548V31.003H26.9208V23.3596C26.9204 22.1377 27.3915 20.9619 28.2377 20.073C29.0839 19.1841 30.2412 18.6494 31.4724 18.5784Z" fill="#4B9111"/>
</g>
<defs>
<filter id="filter0_d" x="0" y="0.0213623" width="53.0002" height="34.983" filterUnits="userSpaceOnUse" color-interpolation-filters="sRGB">
<feFlood flood-opacity="0" result="BackgroundImageFix"/>
<feColorMatrix in="SourceAlpha" type="matrix" values="0 0 0 0 0 0 0 0 0 0 0 0 0 0 0 0 0 0 127 0"/>
<feOffset dy="2"/>
<feGaussianBlur stdDeviation="1"/>
<feColorMatrix type="matrix" values="0 0 0 0 0 0 0 0 0 0 0 0 0 0 0 0 0 0 0.45 0"/>
<feBlend mode="normal" in2="BackgroundImageFix" result="effect1_dropShadow"/>
<feBlend mode="normal" in="SourceGraphic" in2="effect1_dropShadow" result="shape"/>
</filter>
</defs>
</svg>
