<svg width="34" height="14" viewBox="0 0 34 14" fill="none" xmlns="http://www.w3.org/2000/svg">
<path d="M3.70578 6.44805C3.70578 6.44805 3.98903 6.4516 4.37877 7.03757C4.37877 7.03757 6.93064 12.5815 7.01548 12.6067C7.01548 12.6067 7.26511 13.0458 10.0994 12.9609L26.265 12.988C26.265 12.988 27.7641 13.1797 28.5995 12.0283L30.3883 7.00587C30.3883 7.00587 30.7082 6.33207 31.4454 6.26888C31.4454 6.26888 33.4609 5.95584 33.3278 5.22783C33.3278 5.22783 32.6656 3.74276 31.466 2.1539C31.466 2.1539 30.6821 0.914433 28.2728 1.0047L9.65681 1.12967C9.65681 1.12967 6.78835 0.978947 5.71556 1.85006L1.51767 4.60442C1.51767 4.60442 0.175704 5.48285 1.81308 5.9881C1.81308 5.9881 2.77233 6.31495 3.70578 6.44805V6.44805Z" stroke="#1D8E2B" stroke-width="0.4" stroke-miterlimit="10" stroke-linecap="round" stroke-linejoin="round"/>
<path d="M7.78066 1.67846C7.78066 1.67846 6.72144 1.81562 5.89122 2.53118L3.28921 4.43444C3.28921 4.43444 1.94702 5.30937 3.58735 5.64679C3.58735 5.64679 4.25029 5.88696 7.21145 5.84007C7.21145 5.84007 26.8147 6.11353 27.892 6.02977C27.892 6.02977 31.6053 5.93355 31.5592 4.98898C31.5592 4.98898 31.0283 3.5454 30.2311 2.28506C30.2311 2.28506 29.9148 1.48222 27.9164 1.55324L10.152 1.6175C10.152 1.6175 8.14088 1.56736 7.78066 1.67846Z" stroke="#1D8E2B" stroke-width="0.4" stroke-miterlimit="10"/>
<path d="M3.78928 6.4792C3.78928 6.4792 28.5084 6.94783 31.0326 6.37781" stroke="#1D8E2B" stroke-width="0.4" stroke-miterlimit="10" stroke-linecap="round" stroke-linejoin="round"/>
</svg>
