<svg width="34" height="28" viewBox="0 0 34 28" fill="none" xmlns="http://www.w3.org/2000/svg">
<path d="M17.1558 1.00109C26.0356 1.09334 33.2001 6.98676 33.1567 14.1653C33.1133 21.3438 25.881 27.0908 17.0011 26.9989" stroke="#1D8E2B" stroke-width="0.4" stroke-miterlimit="10" stroke-linecap="round" stroke-linejoin="round"/>
<path d="M17.0011 26.9988C8.12121 26.9078 0.957768 21.014 1.00019 13.8359C1.04261 6.65781 8.27621 0.910373 17.1557 1.00096" stroke="#1D8E2B" stroke-width="0.4" stroke-miterlimit="10"/>
<path d="M17.1471 1.89688C24.9425 1.97726 31.2336 6.92964 31.1968 12.9585C31.1601 18.9873 24.8122 23.8081 17.0178 23.7281" stroke="#1D8E2B" stroke-width="0.4" stroke-miterlimit="10" stroke-linejoin="round"/>
<path d="M17.0178 23.7281C9.22345 23.6482 2.93201 18.6962 2.9674 12.6695C3.00279 6.64278 9.35233 1.81779 17.1471 1.89689" stroke="#1D8E2B" stroke-width="0.4" stroke-miterlimit="10" stroke-linejoin="round"/>
<path d="M17.0776 23.7277C9.46255 23.649 3.31708 18.9496 3.35048 13.2305C3.38392 7.51145 9.58582 2.93733 17.2009 3.01689C24.8159 3.09646 30.96 7.79495 30.926 13.5157C30.8919 19.2365 24.6909 23.8051 17.0776 23.7277Z" stroke="#1D8E2B" stroke-width="0.4" stroke-miterlimit="10" stroke-linecap="round" stroke-linejoin="round"/>
</svg>
