<svg width="34" height="45" viewBox="0 0 34 45" fill="none" xmlns="http://www.w3.org/2000/svg">
<path d="M5.99047 2.57719L32.8863 40.8513C32.8863 40.8513 30.4214 42.3286 27.5549 42.2841L0.633728 4.09445" stroke="#1D8E2B" stroke-width="0.5" stroke-miterlimit="10" stroke-linejoin="round"/>
<path d="M0.697549 4.19888C0.446783 3.85043 1.45952 3.23623 2.95724 2.82827C4.45507 2.42031 5.87658 2.37274 6.12816 2.72119C6.37975 3.06958 5.36771 3.68334 3.86848 4.0913C2.36936 4.49933 0.94913 4.54777 0.697549 4.19888Z" stroke="#1D8E2B" stroke-width="0.5" stroke-miterlimit="10" stroke-linejoin="round"/>
<path d="M20.9085 1.5635L20.7222 43.4841C20.7222 43.4841 17.5171 44.1867 14.9356 43.3991L15.0443 1.54928" stroke="#1D8E2B" stroke-width="0.5" stroke-miterlimit="10" stroke-linecap="round" stroke-linejoin="round"/>
<path d="M15.0357 1.66083C15.0314 1.27772 16.3515 0.9822 17.9805 1.00084C19.6094 1.01949 20.9369 1.34752 20.9412 1.73283C20.9456 2.11815 19.6262 2.40967 17.9935 2.39053C16.361 2.37145 15.0393 2.04393 15.0357 1.66083Z" stroke="#1D8E2B" stroke-width="0.5" stroke-miterlimit="10" stroke-linecap="round" stroke-linejoin="round"/>
<path d="M0.748291 4.25532L27.6688 42.4455C30.5316 42.4899 33 41.0123 33 41.0123L6.10421 2.73806C6.10421 2.73806 5.45178 3.57134 3.82204 4.03802C2.19241 4.50463 0.748291 4.25532 0.748291 4.25532Z" stroke="#1D8E2B" stroke-width="0.5" stroke-miterlimit="10" stroke-linecap="round" stroke-linejoin="round"/>
</svg>
