<svg width="34" height="35" viewBox="0 0 34 35" fill="none" xmlns="http://www.w3.org/2000/svg">
<path d="M33 4.44126C33 6.98518 25.9439 7.47595 17.0687 7.47595C8.19353 7.47595 1 6.02626 1 4.23923C1 2.45226 8.19522 1.09919 17.0687 1.00338C26.3956 0.902365 33 3.02624 33 4.44126Z" stroke="#1D8E2B" stroke-width="0.5" stroke-miterlimit="10" stroke-linecap="round" stroke-linejoin="round"/>
<path d="M31.855 4.38279C31.9521 5.9071 25.3586 7.07068 17.1606 7.07068C8.96255 7.07068 2.31616 5.8481 2.31616 4.33946C2.31616 2.83077 8.96299 1.69014 17.1606 1.60819C25.7756 1.5241 31.7791 3.20529 31.855 4.38279Z" stroke="#1D8E2B" stroke-width="0.5" stroke-miterlimit="10" stroke-linecap="round" stroke-linejoin="round"/>
<path d="M3.49493 5.41974C5.37345 4.32251 10.6174 3.53345 16.793 3.53345C23.1832 3.53345 28.6283 4.39668 30.3273 5.55418M28.5893 14.0465C28.5893 15.3588 23.4056 16.4227 17.0141 16.4227C10.6226 16.4227 5.43885 15.3588 5.43885 14.0465C5.43885 12.7342 10.6226 11.6712 17.0141 11.6712C23.4056 11.6712 28.5893 12.7342 28.5893 14.0465Z" stroke="#1D8E2B" stroke-width="0.5" stroke-miterlimit="10" stroke-linecap="round" stroke-linejoin="round"/>
<path d="M2.4458 5.60404L2.90146 6.8179L3.14506 7.01993C3.14506 7.01993 4.89955 14.1979 5.43454 14.1979L7.04337 28.6569C7.04337 28.6569 7.336 29.6679 7.58011 29.7186L7.6282 31.4375C7.6282 31.4375 9.09049 34.2182 18.3034 33.9143C18.3034 33.9143 23.5673 33.763 25.7601 31.7406C25.7601 31.7406 26.1503 31.6396 26.0037 29.8699C26.0037 29.8699 26.5886 29.5157 26.6861 28.5052L28.1986 14.7554C28.1986 14.7554 28.8325 14.1987 28.9296 13.4405L30.6849 7.42443L31.0457 6.9445C31.0457 6.9445 31.6092 6.34581 31.6595 6.04233" stroke="#1D8E2B" stroke-width="0.5" stroke-miterlimit="10" stroke-linecap="round" stroke-linejoin="round"/>
<path d="M31.0457 6.94445C29.4182 8.23851 23.7294 9.19317 16.9634 9.19317C10.5827 9.19317 5.16145 8.34429 3.19885 7.16253M26.7169 28.0703C25.8603 29.4108 21.7868 30.4265 16.8901 30.4265C11.7164 30.4265 7.46133 29.2924 6.9493 27.8388" stroke="#1D8E2B" stroke-width="0.5" stroke-miterlimit="10" stroke-linecap="round" stroke-linejoin="round"/>
</svg>
