<svg width="23" height="22" viewBox="0 0 23 22" fill="none" xmlns="http://www.w3.org/2000/svg">
<path fill-rule="evenodd" clip-rule="evenodd" d="M6.82193 0.066C7.99493 0.012 8.36893 0 11.3569 0C14.3449 0 14.7189 0.013 15.8909 0.066C17.0629 0.119 17.8629 0.306 18.5629 0.577C19.2959 0.854 19.9609 1.287 20.5109 1.847C21.0709 2.396 21.5029 3.06 21.7789 3.794C22.0509 4.494 22.2369 5.294 22.2909 6.464C22.3449 7.639 22.3569 8.013 22.3569 11C22.3569 13.988 22.3439 14.362 22.2909 15.535C22.2379 16.705 22.0509 17.505 21.7789 18.205C21.5029 18.9391 21.0702 19.6042 20.5109 20.154C19.9609 20.714 19.2959 21.146 18.5629 21.422C17.8629 21.694 17.0629 21.88 15.8929 21.934C14.7189 21.988 14.3449 22 11.3569 22C8.36893 22 7.99493 21.987 6.82193 21.934C5.65193 21.881 4.85193 21.694 4.15193 21.422C3.41785 21.146 2.75275 20.7133 2.20293 20.154C1.64331 19.6047 1.21025 18.9399 0.933934 18.206C0.662934 17.506 0.476934 16.706 0.422934 15.536C0.368934 14.361 0.356934 13.987 0.356934 11C0.356934 8.012 0.369934 7.638 0.422934 6.466C0.475934 5.294 0.662934 4.494 0.933934 3.794C1.21066 3.06008 1.64405 2.39531 2.20393 1.846C2.75297 1.2865 3.41741 0.853443 4.15093 0.577C4.85093 0.306 5.65093 0.12 6.82093 0.066H6.82193ZM15.8019 2.046C14.6419 1.993 14.2939 1.982 11.3569 1.982C8.41993 1.982 8.07193 1.993 6.91193 2.046C5.83893 2.095 5.25693 2.274 4.86893 2.425C4.35593 2.625 3.98893 2.862 3.60393 3.247C3.23898 3.60205 2.95811 4.03428 2.78193 4.512C2.63093 4.9 2.45193 5.482 2.40293 6.555C2.34993 7.715 2.33893 8.063 2.33893 11C2.33893 13.937 2.34993 14.285 2.40293 15.445C2.45193 16.518 2.63093 17.1 2.78193 17.488C2.95793 17.965 3.23893 18.398 3.60393 18.753C3.95893 19.118 4.39193 19.399 4.86893 19.575C5.25693 19.726 5.83893 19.905 6.91193 19.954C8.07193 20.007 8.41893 20.018 11.3569 20.018C14.2949 20.018 14.6419 20.007 15.8019 19.954C16.8749 19.905 17.4569 19.726 17.8449 19.575C18.3579 19.375 18.7249 19.138 19.1099 18.753C19.4749 18.398 19.7559 17.965 19.9319 17.488C20.0829 17.1 20.2619 16.518 20.3109 15.445C20.3639 14.285 20.3749 13.937 20.3749 11C20.3749 8.063 20.3639 7.715 20.3109 6.555C20.2619 5.482 20.0829 4.9 19.9319 4.512C19.7319 3.999 19.4949 3.632 19.1099 3.247C18.7549 2.88207 18.3226 2.60121 17.8449 2.425C17.4569 2.274 16.8749 2.095 15.8019 2.046ZM9.95193 14.391C10.7366 14.7176 11.6103 14.7617 12.4239 14.5157C13.2374 14.2697 13.9403 13.7489 14.4125 13.0422C14.8848 12.3356 15.097 11.4869 15.013 10.6411C14.929 9.79534 14.5539 9.00497 13.9519 8.405C13.5682 8.02148 13.1041 7.72781 12.5933 7.54515C12.0824 7.36248 11.5374 7.29536 10.9974 7.34862C10.4575 7.40187 9.93609 7.57418 9.47074 7.85313C9.00539 8.13208 8.60768 8.51074 8.30624 8.96185C8.0048 9.41296 7.80712 9.92529 7.72745 10.462C7.64778 10.9986 7.68809 11.5463 7.84547 12.0655C8.00286 12.5847 8.27342 13.0626 8.63765 13.4647C9.00189 13.8668 9.45076 14.1832 9.95193 14.391ZM7.35893 7.002C7.88396 6.47697 8.50725 6.0605 9.19323 5.77636C9.87921 5.49222 10.6144 5.34597 11.3569 5.34597C12.0994 5.34597 12.8347 5.49222 13.5206 5.77636C14.2066 6.0605 14.8299 6.47697 15.3549 7.002C15.88 7.52702 16.2964 8.15032 16.5806 8.8363C16.8647 9.52228 17.011 10.2575 17.011 11C17.011 11.7425 16.8647 12.4777 16.5806 13.1637C16.2964 13.8497 15.88 14.473 15.3549 14.998C14.2946 16.0583 12.8565 16.654 11.3569 16.654C9.85739 16.654 8.41927 16.0583 7.35893 14.998C6.2986 13.9377 5.70291 12.4995 5.70291 11C5.70291 9.50046 6.2986 8.06234 7.35893 7.002ZM18.2649 6.188C18.395 6.06527 18.4992 5.91768 18.5712 5.75397C18.6433 5.59027 18.6817 5.41377 18.6844 5.23493C18.687 5.05609 18.6537 4.87855 18.5864 4.71281C18.5192 4.54707 18.4194 4.39651 18.2929 4.27004C18.1664 4.14357 18.0159 4.04376 17.8501 3.97652C17.6844 3.90928 17.5068 3.87598 17.328 3.87858C17.1492 3.88119 16.9727 3.91965 16.809 3.9917C16.6453 4.06374 16.4977 4.1679 16.3749 4.298C16.1362 4.55103 16.0056 4.88712 16.0106 5.23493C16.0157 5.58274 16.1561 5.91488 16.4021 6.16084C16.6481 6.40681 16.9802 6.54723 17.328 6.5523C17.6758 6.55737 18.0119 6.42669 18.2649 6.188Z" fill="#37474F"/>
</svg>
