<svg width="23" height="22" viewBox="0 0 23 22" fill="none" xmlns="http://www.w3.org/2000/svg">
<path fill-rule="evenodd" clip-rule="evenodd" d="M0.483155 1.838C0.483155 1.35053 0.6768 0.883032 1.02149 0.53834C1.36618 0.193648 1.83369 2.45031e-06 2.32115 2.45031e-06H20.6432C20.8847 -0.000392101 21.124 0.0468653 21.3473 0.139069C21.5706 0.231273 21.7735 0.366612 21.9444 0.537339C22.1153 0.708065 22.2509 0.910826 22.3433 1.13401C22.4358 1.3572 22.4833 1.59643 22.4832 1.838V20.16C22.4834 20.4016 22.436 20.6409 22.3437 20.8642C22.2514 21.0875 22.116 21.2904 21.9452 21.4613C21.7744 21.6322 21.5715 21.7678 21.3483 21.8602C21.1251 21.9526 20.8858 22.0001 20.6442 22H2.32115C2.0797 22 1.84061 21.9524 1.61755 21.86C1.39449 21.7676 1.19183 21.6321 1.02114 21.4613C0.850451 21.2905 0.715086 21.0878 0.622777 20.8647C0.530468 20.6416 0.483023 20.4025 0.483155 20.161V1.838ZM9.19115 8.388H12.1702V9.884C12.6002 9.024 13.7002 8.25 15.3532 8.25C18.5222 8.25 19.2732 9.963 19.2732 13.106V18.928H16.0662V13.822C16.0662 12.032 15.6362 11.022 14.5442 11.022C13.0292 11.022 12.3992 12.111 12.3992 13.822V18.928H9.19115V8.388ZM3.69115 18.791H6.89915V8.25H3.69115V18.79V18.791ZM7.35815 4.812C7.3642 5.08667 7.31533 5.35979 7.21439 5.61532C7.11346 5.87084 6.96251 6.10364 6.77039 6.30003C6.57827 6.49643 6.34885 6.65247 6.09561 6.75901C5.84237 6.86554 5.57039 6.92042 5.29565 6.92042C5.02092 6.92042 4.74894 6.86554 4.4957 6.75901C4.24246 6.65247 4.01304 6.49643 3.82092 6.30003C3.6288 6.10364 3.47785 5.87084 3.37691 5.61532C3.27598 5.35979 3.22711 5.08667 3.23315 4.812C3.24503 4.27286 3.46754 3.75979 3.85304 3.38269C4.23854 3.00558 4.75638 2.79442 5.29565 2.79442C5.83493 2.79442 6.35277 3.00558 6.73827 3.38269C7.12377 3.75979 7.34628 4.27286 7.35815 4.812Z" fill="#37474F"/>
</svg>
