<svg width="21" height="22" viewBox="0 0 21 22" fill="none" xmlns="http://www.w3.org/2000/svg">
<path d="M10.9107 0.0185635C12.1291 0 13.3406 0.0110006 14.5506 0C14.624 1.40326 15.1365 2.83265 16.1796 3.82477C17.2207 4.84163 18.6933 5.3071 20.1261 5.46454V9.15593C18.7834 9.11261 17.4344 8.8376 16.2159 8.26832C15.6853 8.0318 15.1909 7.72722 14.707 7.41577C14.7008 10.0944 14.7182 12.7696 14.6896 15.4373C14.617 16.7188 14.1875 17.9942 13.4306 19.0503C12.2129 20.8083 10.0993 21.9544 7.92848 21.9902C6.59693 22.0651 5.26677 21.7076 4.13212 21.0489C2.25175 19.9571 0.928578 17.9585 0.735862 15.8133C0.711588 15.359 0.70786 14.9039 0.72469 14.4493C0.892269 12.705 1.76857 11.0363 3.12875 9.90122C4.67047 8.57908 6.83014 7.9493 8.85226 8.32194C8.87111 9.67983 8.81595 11.0363 8.81595 12.3942C7.89217 12.1 6.81269 12.1825 6.00552 12.7346C5.41497 13.1176 4.96869 13.6812 4.73541 14.3386C4.54269 14.8034 4.59785 15.3197 4.60903 15.8133C4.83037 17.3177 6.29948 18.5821 7.86773 18.4452C8.90742 18.4342 9.90382 17.8402 10.4457 16.9705C10.6209 16.6659 10.8171 16.3544 10.8276 15.9962C10.9191 14.3565 10.8828 12.7236 10.8939 11.0838C10.9016 7.38827 10.8828 3.70307 10.9114 0.019251L10.9107 0.0185635Z" fill="#37474F"/>
</svg>
